%TF.GenerationSoftware,KiCad,Pcbnew,10.0.0*%
%TF.CreationDate,2026-04-15T22:08:15-07:00*%
%TF.ProjectId,kbd-nes-v1,6b62642d-6e65-4732-9d76-312e6b696361,rev?*%
%TF.SameCoordinates,Original*%
%TF.FileFunction,Copper,L2,Inr*%
%TF.FilePolarity,Positive*%
%FSLAX46Y46*%
G04 Gerber Fmt 4.6, Leading zero omitted, Abs format (unit mm)*
G04 Created by KiCad (PCBNEW 10.0.0) date 2026-04-15 22:08:15*
%MOMM*%
%LPD*%
G01*
G04 APERTURE LIST*
%TA.AperFunction,ComponentPad*%
%ADD10O,1.000000X1.600000*%
%TD*%
%TA.AperFunction,ComponentPad*%
%ADD11O,1.000000X2.100000*%
%TD*%
%TA.AperFunction,ComponentPad*%
%ADD12O,1.600000X1.000000*%
%TD*%
%TA.AperFunction,ComponentPad*%
%ADD13O,2.100000X1.000000*%
%TD*%
%TA.AperFunction,HeatsinkPad*%
%ADD14C,0.500000*%
%TD*%
%TA.AperFunction,ComponentPad*%
%ADD15R,1.700000X1.700000*%
%TD*%
%TA.AperFunction,ComponentPad*%
%ADD16C,1.700000*%
%TD*%
%TA.AperFunction,ViaPad*%
%ADD17C,0.600000*%
%TD*%
G04 APERTURE END LIST*
D10*
%TO.N,GND*%
%TO.C,J3*%
X118230000Y-77505000D03*
D11*
X118230000Y-81685000D03*
D10*
X126870000Y-77505000D03*
D11*
X126870000Y-81685000D03*
%TD*%
D12*
%TO.N,GND*%
%TO.C,J4*%
X158050000Y-92180000D03*
D13*
X153870000Y-92180000D03*
D12*
X158050000Y-100820000D03*
D13*
X153870000Y-100820000D03*
%TD*%
D14*
%TO.N,GND*%
%TO.C,U3*%
X136350000Y-97250000D03*
X139050000Y-97250000D03*
X136350000Y-94550000D03*
X139050000Y-94550000D03*
%TD*%
D15*
%TO.N,/RP2040 Core/~{USB_BOOT}*%
%TO.C,J2*%
X157800000Y-88100000D03*
D16*
%TO.N,GND*%
X157800000Y-85560000D03*
%TD*%
D17*
%TO.N,/RP2040 Core/+5V_IN*%
X143900000Y-77600000D03*
%TO.N,GND*%
X143700000Y-75500000D03*
%TO.N,/RP2040 Core/HOST_VBUS_EN*%
X145400000Y-80800000D03*
%TO.N,/USB Keyboard Host/+5V_HOST*%
X153200000Y-76900000D03*
X151600000Y-94000000D03*
X151100000Y-92500000D03*
X151587851Y-99985421D03*
X151600000Y-98500000D03*
X150134313Y-95034313D03*
%TO.N,GND*%
X122100000Y-86400000D03*
X129800000Y-82300000D03*
X144000000Y-98900000D03*
X126900000Y-83073631D03*
X118600000Y-83200000D03*
X141000000Y-101600000D03*
X142100000Y-90200000D03*
X119600000Y-77500000D03*
X129600000Y-92600000D03*
X154000000Y-101700000D03*
X155200000Y-91200000D03*
X144500000Y-98200000D03*
X133700000Y-89300000D03*
X146800000Y-94800000D03*
X143100000Y-100300000D03*
X136300000Y-90000000D03*
X141913750Y-84247720D03*
X152350000Y-92630331D03*
X125800000Y-80000000D03*
X158000000Y-83300000D03*
X123100000Y-98800000D03*
X159100000Y-91100000D03*
X124825735Y-101725735D03*
X144900000Y-94400000D03*
X129200000Y-91700000D03*
X130200000Y-94300000D03*
X125300000Y-77500000D03*
X128035898Y-101309466D03*
X130300000Y-98600000D03*
X130100000Y-96500000D03*
X152100000Y-100600000D03*
X124400000Y-86400000D03*
X137300000Y-101600000D03*
X121200000Y-86800000D03*
X138600000Y-86800000D03*
X148839257Y-92739257D03*
X119400000Y-80100000D03*
X141200000Y-76300000D03*
X123500000Y-91500000D03*
X125186863Y-94808038D03*
X133314266Y-94365734D03*
X121600000Y-90400000D03*
X137700000Y-95900000D03*
X123300000Y-86700000D03*
X148800000Y-98400735D03*
X158300000Y-101700000D03*
X138300000Y-91300000D03*
%TO.N,+3V3*%
X136700680Y-100150742D03*
X142200000Y-81900000D03*
X129700000Y-86100000D03*
X142000000Y-98300000D03*
X132444909Y-96206564D03*
X132300000Y-85200000D03*
X151280000Y-90460000D03*
X139842914Y-90722835D03*
X141700000Y-99100000D03*
X141000000Y-81900000D03*
X133900000Y-101300000D03*
X150400000Y-84700000D03*
X142614628Y-98395589D03*
X145800000Y-94800000D03*
X131800000Y-101600000D03*
X141700000Y-99800003D03*
X136693866Y-91644936D03*
X136700000Y-82900000D03*
X140537500Y-91500000D03*
X140300000Y-100400000D03*
%TO.N,/RP2040 Core/USB_DP*%
X150700000Y-95600000D03*
X150725735Y-96825735D03*
X147422522Y-97200735D03*
%TO.N,/RP2040 Core/FAULT_N*%
X134400000Y-91300000D03*
X148933870Y-91796114D03*
%TO.N,/RP2040 Core/HOST_VBUS_EN*%
X135482351Y-91206440D03*
%TO.N,/RP2040 Core/+5V_IN*%
X120100000Y-83700000D03*
X138700000Y-78800000D03*
X119200000Y-83825000D03*
X125598248Y-83823631D03*
%TO.N,Net-(J6-SWCLK)*%
X127900000Y-100100000D03*
X130000000Y-104100000D03*
%TO.N,Net-(J6-SWDIO)*%
X129400000Y-100700000D03*
X131700000Y-104100000D03*
%TO.N,/NES Input Output/NES_LATCH_3V3*%
X133500000Y-98800000D03*
X126000000Y-91300000D03*
%TO.N,/NES Input Output/NES_CLOCK_3V3*%
X134000000Y-100000000D03*
X125300000Y-93900000D03*
%TO.N,/NES Input Output/NES_DATA_GPIO*%
X134600000Y-100700000D03*
X125700000Y-96500000D03*
%TO.N,/RP2040 Core/USB_DM*%
X150400735Y-97800735D03*
X149955061Y-97040365D03*
X146900000Y-98100000D03*
%TO.N,/NES Input Output/NES_5V*%
X125300000Y-95600000D03*
X120600000Y-94900000D03*
%TD*%
%TA.AperFunction,Conductor*%
%TO.N,GND*%
G36*
X160742539Y-74820185D02*
G01*
X160788294Y-74872989D01*
X160799500Y-74924500D01*
X160799500Y-104575500D01*
X160779815Y-104642539D01*
X160727011Y-104688294D01*
X160675500Y-104699500D01*
X132494168Y-104699500D01*
X132427129Y-104679815D01*
X132381374Y-104627011D01*
X132371430Y-104557853D01*
X132391067Y-104506608D01*
X132409389Y-104479187D01*
X132409390Y-104479184D01*
X132409394Y-104479179D01*
X132469737Y-104333497D01*
X132500500Y-104178842D01*
X132500500Y-104021158D01*
X132500500Y-104021155D01*
X132470124Y-103868448D01*
X132476351Y-103798856D01*
X132519214Y-103743679D01*
X132522818Y-103741175D01*
X132615420Y-103679301D01*
X132719301Y-103575420D01*
X132800920Y-103453269D01*
X132857140Y-103317542D01*
X132885800Y-103173455D01*
X132885800Y-103026545D01*
X132857140Y-102882458D01*
X132800920Y-102746731D01*
X132800919Y-102746730D01*
X132800916Y-102746724D01*
X132719301Y-102624580D01*
X132719298Y-102624576D01*
X132615423Y-102520701D01*
X132615419Y-102520698D01*
X132493275Y-102439083D01*
X132493266Y-102439078D01*
X132381687Y-102392861D01*
X132327284Y-102349020D01*
X132305219Y-102282726D01*
X132322498Y-102215026D01*
X132341455Y-102190622D01*
X132421789Y-102110289D01*
X132509394Y-101979179D01*
X132569737Y-101833497D01*
X132600500Y-101678842D01*
X132600500Y-101521158D01*
X132600500Y-101521155D01*
X132600499Y-101521153D01*
X132587830Y-101457462D01*
X132569737Y-101366503D01*
X132539575Y-101293684D01*
X132509397Y-101220827D01*
X132509390Y-101220814D01*
X132421789Y-101089711D01*
X132421786Y-101089707D01*
X132310292Y-100978213D01*
X132310288Y-100978210D01*
X132179185Y-100890609D01*
X132179172Y-100890602D01*
X132033501Y-100830264D01*
X132033489Y-100830261D01*
X131878845Y-100799500D01*
X131878842Y-100799500D01*
X131721158Y-100799500D01*
X131721155Y-100799500D01*
X131566510Y-100830261D01*
X131566498Y-100830264D01*
X131420827Y-100890602D01*
X131420814Y-100890609D01*
X131289711Y-100978210D01*
X131289707Y-100978213D01*
X131178213Y-101089707D01*
X131178210Y-101089711D01*
X131090609Y-101220814D01*
X131090602Y-101220827D01*
X131030264Y-101366498D01*
X131030261Y-101366510D01*
X130999500Y-101521153D01*
X130999500Y-101678846D01*
X131030261Y-101833489D01*
X131030264Y-101833501D01*
X131090602Y-101979172D01*
X131090609Y-101979185D01*
X131178210Y-102110288D01*
X131178213Y-102110292D01*
X131289707Y-102221786D01*
X131289711Y-102221789D01*
X131420814Y-102309390D01*
X131420827Y-102309397D01*
X131571146Y-102371660D01*
X131625550Y-102415500D01*
X131647615Y-102481794D01*
X131630336Y-102549494D01*
X131611376Y-102573901D01*
X131560702Y-102624575D01*
X131560698Y-102624580D01*
X131479083Y-102746724D01*
X131479078Y-102746733D01*
X131422861Y-102882455D01*
X131422858Y-102882465D01*
X131394200Y-103026540D01*
X131394200Y-103026544D01*
X131394200Y-103026545D01*
X131394200Y-103173455D01*
X131394201Y-103173459D01*
X131408667Y-103246187D01*
X131402438Y-103315778D01*
X131359575Y-103370955D01*
X131334507Y-103384936D01*
X131320825Y-103390603D01*
X131320814Y-103390609D01*
X131189711Y-103478210D01*
X131189707Y-103478213D01*
X131078213Y-103589707D01*
X131078210Y-103589711D01*
X130990609Y-103720814D01*
X130990604Y-103720823D01*
X130964561Y-103783699D01*
X130920720Y-103838102D01*
X130854426Y-103860167D01*
X130786727Y-103842888D01*
X130739116Y-103791751D01*
X130735439Y-103783699D01*
X130709395Y-103720823D01*
X130709390Y-103720814D01*
X130621789Y-103589711D01*
X130621786Y-103589707D01*
X130510292Y-103478213D01*
X130510288Y-103478210D01*
X130379185Y-103390609D01*
X130379172Y-103390602D01*
X130233501Y-103330264D01*
X130233489Y-103330261D01*
X130078845Y-103299500D01*
X130078842Y-103299500D01*
X129921158Y-103299500D01*
X129921155Y-103299500D01*
X129766510Y-103330261D01*
X129766498Y-103330264D01*
X129620827Y-103390602D01*
X129620814Y-103390609D01*
X129489711Y-103478210D01*
X129489707Y-103478213D01*
X129378213Y-103589707D01*
X129378210Y-103589711D01*
X129290609Y-103720814D01*
X129290602Y-103720827D01*
X129230264Y-103866498D01*
X129230261Y-103866510D01*
X129199500Y-104021153D01*
X129199500Y-104178846D01*
X129230261Y-104333489D01*
X129230264Y-104333501D01*
X129290602Y-104479172D01*
X129290610Y-104479187D01*
X129308933Y-104506608D01*
X129329812Y-104573285D01*
X129311328Y-104640666D01*
X129259350Y-104687356D01*
X129205832Y-104699500D01*
X127799073Y-104699500D01*
X127732034Y-104679815D01*
X127686279Y-104627011D01*
X127676335Y-104557853D01*
X127695971Y-104506609D01*
X127720916Y-104469275D01*
X127720916Y-104469274D01*
X127720920Y-104469269D01*
X127777140Y-104333542D01*
X127805800Y-104189455D01*
X127805800Y-104042545D01*
X127777140Y-103898458D01*
X127720920Y-103762731D01*
X127720919Y-103762730D01*
X127720916Y-103762724D01*
X127639301Y-103640580D01*
X127639298Y-103640576D01*
X127535423Y-103536701D01*
X127535419Y-103536698D01*
X127413275Y-103455083D01*
X127413266Y-103455078D01*
X127277544Y-103398861D01*
X127277545Y-103398861D01*
X127277542Y-103398860D01*
X127277538Y-103398859D01*
X127277534Y-103398858D01*
X127133459Y-103370200D01*
X127133455Y-103370200D01*
X126986545Y-103370200D01*
X126986540Y-103370200D01*
X126842465Y-103398858D01*
X126842455Y-103398861D01*
X126706733Y-103455078D01*
X126706724Y-103455083D01*
X126584580Y-103536698D01*
X126584576Y-103536701D01*
X126480701Y-103640576D01*
X126480698Y-103640580D01*
X126399083Y-103762724D01*
X126399078Y-103762733D01*
X126342861Y-103898455D01*
X126342858Y-103898465D01*
X126314200Y-104042540D01*
X126314200Y-104189459D01*
X126342858Y-104333534D01*
X126342861Y-104333544D01*
X126399078Y-104469266D01*
X126399083Y-104469275D01*
X126424029Y-104506609D01*
X126444907Y-104573287D01*
X126426422Y-104640667D01*
X126374443Y-104687357D01*
X126320927Y-104699500D01*
X112724500Y-104699500D01*
X112657461Y-104679815D01*
X112611706Y-104627011D01*
X112600500Y-104575500D01*
X112600500Y-102010540D01*
X126314200Y-102010540D01*
X126314200Y-102157459D01*
X126339117Y-102282726D01*
X126342860Y-102301542D01*
X126346114Y-102309397D01*
X126399078Y-102437266D01*
X126399083Y-102437275D01*
X126480698Y-102559419D01*
X126480701Y-102559423D01*
X126584576Y-102663298D01*
X126584580Y-102663301D01*
X126706724Y-102744916D01*
X126706730Y-102744919D01*
X126706731Y-102744920D01*
X126842458Y-102801140D01*
X126986540Y-102829799D01*
X126986544Y-102829800D01*
X126986545Y-102829800D01*
X127133456Y-102829800D01*
X127133457Y-102829799D01*
X127277542Y-102801140D01*
X127413269Y-102744920D01*
X127535420Y-102663301D01*
X127639301Y-102559420D01*
X127720920Y-102437269D01*
X127777140Y-102301542D01*
X127805800Y-102157455D01*
X127805800Y-102010545D01*
X127777140Y-101866458D01*
X127720920Y-101730731D01*
X127720919Y-101730730D01*
X127720916Y-101730724D01*
X127639301Y-101608580D01*
X127639298Y-101608576D01*
X127535423Y-101504701D01*
X127535419Y-101504698D01*
X127413275Y-101423083D01*
X127413266Y-101423078D01*
X127277544Y-101366861D01*
X127277545Y-101366861D01*
X127277542Y-101366860D01*
X127277538Y-101366859D01*
X127277534Y-101366858D01*
X127133459Y-101338200D01*
X127133455Y-101338200D01*
X126986545Y-101338200D01*
X126986540Y-101338200D01*
X126842465Y-101366858D01*
X126842455Y-101366861D01*
X126706733Y-101423078D01*
X126706724Y-101423083D01*
X126584580Y-101504698D01*
X126584576Y-101504701D01*
X126480701Y-101608576D01*
X126480698Y-101608580D01*
X126399083Y-101730724D01*
X126399078Y-101730733D01*
X126342861Y-101866455D01*
X126342858Y-101866465D01*
X126314200Y-102010540D01*
X112600500Y-102010540D01*
X112600500Y-100021153D01*
X127099500Y-100021153D01*
X127099500Y-100178846D01*
X127130261Y-100333489D01*
X127130264Y-100333501D01*
X127190602Y-100479172D01*
X127190609Y-100479185D01*
X127278210Y-100610288D01*
X127278213Y-100610292D01*
X127389707Y-100721786D01*
X127389711Y-100721789D01*
X127520814Y-100809390D01*
X127520827Y-100809397D01*
X127643314Y-100860132D01*
X127666503Y-100869737D01*
X127821153Y-100900499D01*
X127821156Y-100900500D01*
X127821158Y-100900500D01*
X127978844Y-100900500D01*
X127978845Y-100900499D01*
X128133497Y-100869737D01*
X128279179Y-100809394D01*
X128410289Y-100721789D01*
X128410289Y-100721788D01*
X128412981Y-100719990D01*
X128479658Y-100699112D01*
X128547038Y-100717596D01*
X128593729Y-100769575D01*
X128603489Y-100798900D01*
X128630261Y-100933491D01*
X128630264Y-100933501D01*
X128690602Y-101079172D01*
X128690609Y-101079185D01*
X128778210Y-101210288D01*
X128778213Y-101210292D01*
X128889707Y-101321786D01*
X128889711Y-101321789D01*
X129020814Y-101409390D01*
X129020827Y-101409397D01*
X129136868Y-101457462D01*
X129166503Y-101469737D01*
X129321153Y-101500499D01*
X129321156Y-101500500D01*
X129321158Y-101500500D01*
X129478844Y-101500500D01*
X129478845Y-101500499D01*
X129633497Y-101469737D01*
X129779179Y-101409394D01*
X129910289Y-101321789D01*
X130021789Y-101210289D01*
X130109394Y-101079179D01*
X130169737Y-100933497D01*
X130200500Y-100778842D01*
X130200500Y-100621158D01*
X130200500Y-100621155D01*
X130200499Y-100621153D01*
X130182353Y-100529927D01*
X130169737Y-100466503D01*
X130169171Y-100465137D01*
X130109397Y-100320827D01*
X130109390Y-100320814D01*
X130021789Y-100189711D01*
X130021786Y-100189707D01*
X129910292Y-100078213D01*
X129910288Y-100078210D01*
X129779185Y-99990609D01*
X129779172Y-99990602D01*
X129633501Y-99930264D01*
X129633489Y-99930261D01*
X129478845Y-99899500D01*
X129478842Y-99899500D01*
X129321158Y-99899500D01*
X129321155Y-99899500D01*
X129166510Y-99930261D01*
X129166498Y-99930264D01*
X129020827Y-99990602D01*
X129020809Y-99990612D01*
X128887017Y-100080009D01*
X128820340Y-100100887D01*
X128752960Y-100082402D01*
X128706270Y-100030423D01*
X128696510Y-100001098D01*
X128681114Y-99923699D01*
X128669737Y-99866503D01*
X128650475Y-99820000D01*
X128609397Y-99720827D01*
X128609390Y-99720814D01*
X128521789Y-99589711D01*
X128521786Y-99589707D01*
X128410292Y-99478213D01*
X128410288Y-99478210D01*
X128279185Y-99390609D01*
X128279172Y-99390602D01*
X128133501Y-99330264D01*
X128133489Y-99330261D01*
X127978845Y-99299500D01*
X127978842Y-99299500D01*
X127821158Y-99299500D01*
X127821155Y-99299500D01*
X127666510Y-99330261D01*
X127666498Y-99330264D01*
X127520827Y-99390602D01*
X127520814Y-99390609D01*
X127389711Y-99478210D01*
X127389707Y-99478213D01*
X127278213Y-99589707D01*
X127278210Y-99589711D01*
X127190609Y-99720814D01*
X127190602Y-99720827D01*
X127130264Y-99866498D01*
X127130261Y-99866510D01*
X127099500Y-100021153D01*
X112600500Y-100021153D01*
X112600500Y-98721153D01*
X132699500Y-98721153D01*
X132699500Y-98878846D01*
X132730261Y-99033489D01*
X132730264Y-99033501D01*
X132790602Y-99179172D01*
X132790609Y-99179185D01*
X132878210Y-99310288D01*
X132878213Y-99310292D01*
X132989707Y-99421786D01*
X132989711Y-99421789D01*
X133120814Y-99509390D01*
X133120827Y-99509397D01*
X133190575Y-99538287D01*
X133244979Y-99582127D01*
X133267044Y-99648421D01*
X133257685Y-99700299D01*
X133230263Y-99766503D01*
X133230261Y-99766510D01*
X133199500Y-99921153D01*
X133199500Y-100078846D01*
X133230261Y-100233489D01*
X133230264Y-100233501D01*
X133290602Y-100379172D01*
X133290609Y-100379185D01*
X133378210Y-100510288D01*
X133380233Y-100512311D01*
X133380955Y-100513633D01*
X133382076Y-100514999D01*
X133381817Y-100515211D01*
X133413723Y-100573631D01*
X133408744Y-100643323D01*
X133380241Y-100687680D01*
X133278210Y-100789711D01*
X133190609Y-100920814D01*
X133190602Y-100920827D01*
X133130264Y-101066498D01*
X133130261Y-101066510D01*
X133099500Y-101221153D01*
X133099500Y-101378846D01*
X133130261Y-101533489D01*
X133130264Y-101533501D01*
X133190602Y-101679172D01*
X133190609Y-101679185D01*
X133278210Y-101810288D01*
X133278213Y-101810292D01*
X133389707Y-101921786D01*
X133389711Y-101921789D01*
X133520814Y-102009390D01*
X133520827Y-102009397D01*
X133666498Y-102069735D01*
X133666503Y-102069737D01*
X133821153Y-102100499D01*
X133821156Y-102100500D01*
X133821158Y-102100500D01*
X133978844Y-102100500D01*
X133978845Y-102100499D01*
X134133497Y-102069737D01*
X134276403Y-102010544D01*
X134279172Y-102009397D01*
X134279172Y-102009396D01*
X134279179Y-102009394D01*
X134410289Y-101921789D01*
X134521789Y-101810289D01*
X134609394Y-101679179D01*
X134658452Y-101560740D01*
X134702290Y-101506342D01*
X134748815Y-101486581D01*
X134833497Y-101469737D01*
X134979179Y-101409394D01*
X135110289Y-101321789D01*
X135221789Y-101210289D01*
X135309394Y-101079179D01*
X135369737Y-100933497D01*
X135400500Y-100778842D01*
X135400500Y-100621158D01*
X135400500Y-100621155D01*
X135400499Y-100621153D01*
X135382353Y-100529927D01*
X135369737Y-100466503D01*
X135369171Y-100465137D01*
X135309397Y-100320827D01*
X135309390Y-100320814D01*
X135221789Y-100189711D01*
X135221786Y-100189707D01*
X135110292Y-100078213D01*
X135110288Y-100078210D01*
X135100837Y-100071895D01*
X135900180Y-100071895D01*
X135900180Y-100229588D01*
X135930941Y-100384231D01*
X135930944Y-100384243D01*
X135991282Y-100529914D01*
X135991289Y-100529927D01*
X136078890Y-100661030D01*
X136078893Y-100661034D01*
X136190387Y-100772528D01*
X136190391Y-100772531D01*
X136321494Y-100860132D01*
X136321507Y-100860139D01*
X136442582Y-100910289D01*
X136467183Y-100920479D01*
X136621833Y-100951241D01*
X136621836Y-100951242D01*
X136621838Y-100951242D01*
X136779524Y-100951242D01*
X136779525Y-100951241D01*
X136934177Y-100920479D01*
X137079859Y-100860136D01*
X137210969Y-100772531D01*
X137322469Y-100661031D01*
X137410074Y-100529921D01*
X137470417Y-100384239D01*
X137479481Y-100338668D01*
X137482965Y-100321153D01*
X139499500Y-100321153D01*
X139499500Y-100478846D01*
X139530261Y-100633489D01*
X139530264Y-100633501D01*
X139590602Y-100779172D01*
X139590609Y-100779185D01*
X139678210Y-100910288D01*
X139678213Y-100910292D01*
X139789707Y-101021786D01*
X139789711Y-101021789D01*
X139920814Y-101109390D01*
X139920827Y-101109397D01*
X140066498Y-101169735D01*
X140066503Y-101169737D01*
X140221153Y-101200499D01*
X140221156Y-101200500D01*
X140221158Y-101200500D01*
X140378844Y-101200500D01*
X140378845Y-101200499D01*
X140533497Y-101169737D01*
X140679179Y-101109394D01*
X140810289Y-101021789D01*
X140827873Y-101004205D01*
X140883091Y-100948988D01*
X140921786Y-100910292D01*
X140921789Y-100910289D01*
X141009394Y-100779179D01*
X141069737Y-100633497D01*
X141081645Y-100573631D01*
X141084778Y-100557883D01*
X141117163Y-100495972D01*
X141177878Y-100461398D01*
X141247648Y-100465137D01*
X141275286Y-100478972D01*
X141320814Y-100509393D01*
X141320827Y-100509400D01*
X141437643Y-100557786D01*
X141466503Y-100569740D01*
X141621153Y-100600502D01*
X141621156Y-100600503D01*
X141621158Y-100600503D01*
X141778844Y-100600503D01*
X141778845Y-100600502D01*
X141933497Y-100569740D01*
X142065143Y-100515211D01*
X142079172Y-100509400D01*
X142079172Y-100509399D01*
X142079179Y-100509397D01*
X142210289Y-100421792D01*
X142321789Y-100310292D01*
X142409394Y-100179182D01*
X142469737Y-100033500D01*
X142500500Y-99878845D01*
X142500500Y-99721161D01*
X142500500Y-99721158D01*
X142500499Y-99721156D01*
X142491952Y-99678190D01*
X142469737Y-99566506D01*
X142441133Y-99497451D01*
X142433665Y-99427985D01*
X142438013Y-99410924D01*
X142439417Y-99406693D01*
X142469737Y-99333497D01*
X142478720Y-99288330D01*
X142481151Y-99281012D01*
X142496838Y-99258383D01*
X142509600Y-99233987D01*
X142516460Y-99230080D01*
X142520959Y-99223592D01*
X142546389Y-99213037D01*
X142570316Y-99199413D01*
X142582694Y-99197970D01*
X142585492Y-99196809D01*
X142588310Y-99197315D01*
X142598833Y-99196089D01*
X142693472Y-99196089D01*
X142693473Y-99196088D01*
X142848125Y-99165326D01*
X142993807Y-99104983D01*
X143124917Y-99017378D01*
X143236417Y-98905878D01*
X143324022Y-98774768D01*
X143384365Y-98629086D01*
X143415128Y-98474431D01*
X143415128Y-98316747D01*
X143415128Y-98316744D01*
X143415127Y-98316742D01*
X143387910Y-98179914D01*
X143384365Y-98162092D01*
X143367270Y-98120821D01*
X143343121Y-98062518D01*
X143325987Y-98021153D01*
X146099500Y-98021153D01*
X146099500Y-98178846D01*
X146130261Y-98333489D01*
X146130264Y-98333501D01*
X146190602Y-98479172D01*
X146190609Y-98479185D01*
X146278210Y-98610288D01*
X146278213Y-98610292D01*
X146389707Y-98721786D01*
X146389711Y-98721789D01*
X146520814Y-98809390D01*
X146520827Y-98809397D01*
X146658683Y-98866498D01*
X146666503Y-98869737D01*
X146821153Y-98900499D01*
X146821156Y-98900500D01*
X146821158Y-98900500D01*
X146978844Y-98900500D01*
X146978845Y-98900499D01*
X147133497Y-98869737D01*
X147279179Y-98809394D01*
X147410289Y-98721789D01*
X147521789Y-98610289D01*
X147609394Y-98479179D01*
X147617016Y-98460779D01*
X147646931Y-98388556D01*
X147669737Y-98333497D01*
X147700500Y-98178842D01*
X147700500Y-98034901D01*
X147720185Y-97967862D01*
X147772989Y-97922107D01*
X147777020Y-97920351D01*
X147801701Y-97910129D01*
X147932811Y-97822524D01*
X148044311Y-97711024D01*
X148131916Y-97579914D01*
X148192259Y-97434232D01*
X148223022Y-97279577D01*
X148223022Y-97121893D01*
X148223022Y-97121890D01*
X148223021Y-97121888D01*
X148194723Y-96979622D01*
X148192260Y-96967243D01*
X148192259Y-96967242D01*
X148192259Y-96967238D01*
X148189890Y-96961518D01*
X149154561Y-96961518D01*
X149154561Y-97119211D01*
X149185322Y-97273854D01*
X149185325Y-97273866D01*
X149245663Y-97419537D01*
X149245670Y-97419550D01*
X149333271Y-97550653D01*
X149333274Y-97550657D01*
X149444769Y-97662152D01*
X149444772Y-97662154D01*
X149545126Y-97729208D01*
X149589931Y-97782819D01*
X149600235Y-97832310D01*
X149600235Y-97879581D01*
X149630996Y-98034224D01*
X149630999Y-98034236D01*
X149691337Y-98179907D01*
X149691344Y-98179920D01*
X149778945Y-98311023D01*
X149778948Y-98311027D01*
X149890442Y-98422521D01*
X149890446Y-98422524D01*
X150021549Y-98510125D01*
X150021562Y-98510132D01*
X150137649Y-98558216D01*
X150167238Y-98570472D01*
X150321888Y-98601234D01*
X150321891Y-98601235D01*
X150321893Y-98601235D01*
X150479579Y-98601235D01*
X150479580Y-98601234D01*
X150634232Y-98570472D01*
X150645789Y-98565684D01*
X150715257Y-98558216D01*
X150777736Y-98589490D01*
X150813389Y-98649579D01*
X150814858Y-98656054D01*
X150830261Y-98733491D01*
X150830264Y-98733501D01*
X150890602Y-98879172D01*
X150890609Y-98879185D01*
X150978210Y-99010288D01*
X150978213Y-99010292D01*
X151089707Y-99121786D01*
X151089715Y-99121792D01*
X151110303Y-99135549D01*
X151155109Y-99189161D01*
X151163816Y-99258486D01*
X151133662Y-99321513D01*
X151110306Y-99341752D01*
X151077560Y-99363632D01*
X150966064Y-99475128D01*
X150966061Y-99475132D01*
X150878460Y-99606235D01*
X150878453Y-99606248D01*
X150818115Y-99751919D01*
X150818112Y-99751931D01*
X150787351Y-99906574D01*
X150787351Y-100064267D01*
X150818112Y-100218910D01*
X150818115Y-100218922D01*
X150878453Y-100364593D01*
X150878460Y-100364606D01*
X150966061Y-100495709D01*
X150966064Y-100495713D01*
X151077558Y-100607207D01*
X151077562Y-100607210D01*
X151208665Y-100694811D01*
X151208678Y-100694818D01*
X151273793Y-100721789D01*
X151354354Y-100755158D01*
X151481776Y-100780504D01*
X151509004Y-100785920D01*
X151509007Y-100785921D01*
X151509009Y-100785921D01*
X151666695Y-100785921D01*
X151666696Y-100785920D01*
X151821348Y-100755158D01*
X151967030Y-100694815D01*
X152098140Y-100607210D01*
X152156580Y-100548769D01*
X152217901Y-100515286D01*
X152287593Y-100520270D01*
X152340112Y-100557786D01*
X152350136Y-100570000D01*
X153153012Y-100570000D01*
X153135795Y-100579940D01*
X153079940Y-100635795D01*
X153040444Y-100704204D01*
X153020000Y-100780504D01*
X153020000Y-100859496D01*
X153040444Y-100935796D01*
X153079940Y-101004205D01*
X153135795Y-101060060D01*
X153153012Y-101070000D01*
X152350138Y-101070000D01*
X152358430Y-101111690D01*
X152358430Y-101111692D01*
X152433807Y-101293671D01*
X152433814Y-101293684D01*
X152543248Y-101457462D01*
X152543251Y-101457466D01*
X152682533Y-101596748D01*
X152682537Y-101596751D01*
X152846315Y-101706185D01*
X152846328Y-101706192D01*
X153028306Y-101781569D01*
X153028318Y-101781572D01*
X153221504Y-101819999D01*
X153221508Y-101820000D01*
X153620000Y-101820000D01*
X153620000Y-101120000D01*
X154120000Y-101120000D01*
X154120000Y-101820000D01*
X154518492Y-101820000D01*
X154518495Y-101819999D01*
X154711681Y-101781572D01*
X154711693Y-101781569D01*
X154893671Y-101706192D01*
X154893684Y-101706185D01*
X155057462Y-101596751D01*
X155057466Y-101596748D01*
X155196748Y-101457466D01*
X155196751Y-101457462D01*
X155306185Y-101293684D01*
X155306192Y-101293671D01*
X155381569Y-101111692D01*
X155381569Y-101111690D01*
X155389862Y-101070000D01*
X154586988Y-101070000D01*
X154604205Y-101060060D01*
X154660060Y-101004205D01*
X154699556Y-100935796D01*
X154720000Y-100859496D01*
X154720000Y-100780504D01*
X154699556Y-100704204D01*
X154660060Y-100635795D01*
X154604205Y-100579940D01*
X154586988Y-100570000D01*
X155389862Y-100570000D01*
X156780138Y-100570000D01*
X157583012Y-100570000D01*
X157565795Y-100579940D01*
X157509940Y-100635795D01*
X157470444Y-100704204D01*
X157450000Y-100780504D01*
X157450000Y-100859496D01*
X157470444Y-100935796D01*
X157509940Y-101004205D01*
X157565795Y-101060060D01*
X157583012Y-101070000D01*
X156780138Y-101070000D01*
X156788430Y-101111690D01*
X156788430Y-101111692D01*
X156863807Y-101293671D01*
X156863814Y-101293684D01*
X156973248Y-101457462D01*
X156973251Y-101457466D01*
X157112533Y-101596748D01*
X157112537Y-101596751D01*
X157276315Y-101706185D01*
X157276328Y-101706192D01*
X157458306Y-101781569D01*
X157458318Y-101781572D01*
X157651504Y-101819999D01*
X157651508Y-101820000D01*
X157800000Y-101820000D01*
X157800000Y-101120000D01*
X158300000Y-101120000D01*
X158300000Y-101820000D01*
X158448492Y-101820000D01*
X158448495Y-101819999D01*
X158641681Y-101781572D01*
X158641693Y-101781569D01*
X158823671Y-101706192D01*
X158823684Y-101706185D01*
X158987462Y-101596751D01*
X158987466Y-101596748D01*
X159126748Y-101457466D01*
X159126751Y-101457462D01*
X159236185Y-101293684D01*
X159236192Y-101293671D01*
X159311569Y-101111692D01*
X159311569Y-101111690D01*
X159319862Y-101070000D01*
X158516988Y-101070000D01*
X158534205Y-101060060D01*
X158590060Y-101004205D01*
X158629556Y-100935796D01*
X158650000Y-100859496D01*
X158650000Y-100780504D01*
X158629556Y-100704204D01*
X158590060Y-100635795D01*
X158534205Y-100579940D01*
X158516988Y-100570000D01*
X159319862Y-100570000D01*
X159311569Y-100528309D01*
X159311569Y-100528307D01*
X159236192Y-100346328D01*
X159236185Y-100346315D01*
X159126751Y-100182537D01*
X159126748Y-100182533D01*
X158987466Y-100043251D01*
X158987462Y-100043248D01*
X158823684Y-99933814D01*
X158823671Y-99933807D01*
X158641693Y-99858430D01*
X158641681Y-99858427D01*
X158448495Y-99820000D01*
X158300000Y-99820000D01*
X158300000Y-100520000D01*
X157800000Y-100520000D01*
X157800000Y-99820000D01*
X157651504Y-99820000D01*
X157458318Y-99858427D01*
X157458306Y-99858430D01*
X157276328Y-99933807D01*
X157276315Y-99933814D01*
X157112537Y-100043248D01*
X157112533Y-100043251D01*
X156973251Y-100182533D01*
X156973248Y-100182537D01*
X156863814Y-100346315D01*
X156863807Y-100346328D01*
X156788430Y-100528307D01*
X156788430Y-100528309D01*
X156780138Y-100570000D01*
X155389862Y-100570000D01*
X155381569Y-100528309D01*
X155381569Y-100528307D01*
X155306192Y-100346328D01*
X155306185Y-100346315D01*
X155196751Y-100182537D01*
X155196748Y-100182533D01*
X155057466Y-100043251D01*
X155057462Y-100043248D01*
X154888613Y-99930426D01*
X154889568Y-99928996D01*
X154845568Y-99885777D01*
X154830105Y-99817640D01*
X154853934Y-99751960D01*
X154855702Y-99749913D01*
X154855568Y-99749811D01*
X154860507Y-99743372D01*
X154860515Y-99743365D01*
X154936281Y-99612135D01*
X154975500Y-99465766D01*
X154975500Y-99314234D01*
X154936281Y-99167865D01*
X154860515Y-99036635D01*
X154753365Y-98929485D01*
X154687750Y-98891602D01*
X154622136Y-98853719D01*
X154548950Y-98834109D01*
X154475766Y-98814500D01*
X154324234Y-98814500D01*
X154177863Y-98853719D01*
X154046635Y-98929485D01*
X154046632Y-98929487D01*
X153939487Y-99036632D01*
X153939485Y-99036635D01*
X153863719Y-99167863D01*
X153830831Y-99290606D01*
X153824500Y-99314234D01*
X153824500Y-99465766D01*
X153827835Y-99478211D01*
X153863719Y-99612136D01*
X153880066Y-99640449D01*
X153939485Y-99743365D01*
X154046635Y-99850515D01*
X154057998Y-99857075D01*
X154106213Y-99907639D01*
X154120000Y-99964463D01*
X154120000Y-100520000D01*
X153620000Y-100520000D01*
X153620000Y-99820000D01*
X153221504Y-99820000D01*
X153028318Y-99858427D01*
X153028306Y-99858430D01*
X152846328Y-99933807D01*
X152846315Y-99933814D01*
X152682537Y-100043248D01*
X152682533Y-100043251D01*
X152600032Y-100125753D01*
X152538709Y-100159238D01*
X152469017Y-100154254D01*
X152413084Y-100112382D01*
X152388667Y-100046918D01*
X152388351Y-100038072D01*
X152388351Y-99906576D01*
X152388350Y-99906574D01*
X152380378Y-99866498D01*
X152357588Y-99751924D01*
X152344846Y-99721161D01*
X152297248Y-99606248D01*
X152297241Y-99606235D01*
X152209640Y-99475132D01*
X152209637Y-99475128D01*
X152131768Y-99397259D01*
X152131761Y-99397253D01*
X152098140Y-99363632D01*
X152071489Y-99345825D01*
X152065949Y-99341097D01*
X152050660Y-99317700D01*
X152032741Y-99296258D01*
X152031811Y-99288854D01*
X152027729Y-99282607D01*
X152027516Y-99254661D01*
X152024034Y-99226933D01*
X152027254Y-99220201D01*
X152027198Y-99212740D01*
X152042127Y-99189116D01*
X152054189Y-99163906D01*
X152062743Y-99156493D01*
X152064524Y-99153676D01*
X152067705Y-99152193D01*
X152077544Y-99143668D01*
X152110289Y-99121789D01*
X152221789Y-99010289D01*
X152309394Y-98879179D01*
X152369737Y-98733497D01*
X152400500Y-98578842D01*
X152400500Y-98421158D01*
X152400500Y-98421155D01*
X152400499Y-98421153D01*
X152379731Y-98316747D01*
X152369737Y-98266503D01*
X152350953Y-98221153D01*
X152309397Y-98120827D01*
X152309390Y-98120814D01*
X152221789Y-97989711D01*
X152221786Y-97989707D01*
X152110292Y-97878213D01*
X152110288Y-97878210D01*
X151979185Y-97790609D01*
X151979172Y-97790602D01*
X151833501Y-97730264D01*
X151833489Y-97730261D01*
X151678845Y-97699500D01*
X151678842Y-97699500D01*
X151521158Y-97699500D01*
X151521155Y-97699500D01*
X151366510Y-97730261D01*
X151366499Y-97730264D01*
X151354939Y-97735052D01*
X151285469Y-97742516D01*
X151222991Y-97711238D01*
X151187343Y-97651146D01*
X151185876Y-97644680D01*
X151182131Y-97625852D01*
X151173307Y-97581491D01*
X151179534Y-97511901D01*
X151222397Y-97456724D01*
X151225985Y-97454231D01*
X151236024Y-97447524D01*
X151347524Y-97336024D01*
X151435129Y-97204914D01*
X151495472Y-97059232D01*
X151526235Y-96904577D01*
X151526235Y-96746893D01*
X151526235Y-96746890D01*
X151526234Y-96746888D01*
X151509188Y-96661192D01*
X151495472Y-96592238D01*
X151469205Y-96528823D01*
X151435132Y-96446562D01*
X151435125Y-96446549D01*
X151347524Y-96315446D01*
X151347521Y-96315442D01*
X151319759Y-96287680D01*
X151286274Y-96226357D01*
X151291258Y-96156665D01*
X151318002Y-96115054D01*
X151317928Y-96114993D01*
X151318454Y-96114351D01*
X151319764Y-96112313D01*
X151321789Y-96110289D01*
X151409394Y-95979179D01*
X151469737Y-95833497D01*
X151500500Y-95678842D01*
X151500500Y-95521158D01*
X151500500Y-95521155D01*
X151500499Y-95521153D01*
X151495728Y-95497166D01*
X151469737Y-95366503D01*
X151442191Y-95300000D01*
X151409397Y-95220827D01*
X151409390Y-95220814D01*
X151321789Y-95089711D01*
X151321786Y-95089707D01*
X151210292Y-94978213D01*
X151181445Y-94958938D01*
X151136641Y-94905325D01*
X151127934Y-94836000D01*
X151158089Y-94772973D01*
X151217532Y-94736254D01*
X151287391Y-94737502D01*
X151297782Y-94741272D01*
X151366503Y-94769737D01*
X151516131Y-94799500D01*
X151521153Y-94800499D01*
X151521156Y-94800500D01*
X151521158Y-94800500D01*
X151678844Y-94800500D01*
X151678845Y-94800499D01*
X151833497Y-94769737D01*
X151979179Y-94709394D01*
X152110289Y-94621789D01*
X152221789Y-94510289D01*
X152309394Y-94379179D01*
X152369737Y-94233497D01*
X152400500Y-94078842D01*
X152400500Y-93921158D01*
X152400500Y-93921155D01*
X152400499Y-93921153D01*
X152369737Y-93766503D01*
X152336295Y-93685766D01*
X152309397Y-93620827D01*
X152309395Y-93620823D01*
X152309394Y-93620821D01*
X152251538Y-93534234D01*
X152221789Y-93489711D01*
X152221786Y-93489707D01*
X152110292Y-93378213D01*
X152110288Y-93378210D01*
X151979185Y-93290609D01*
X151979172Y-93290602D01*
X151833501Y-93230264D01*
X151833491Y-93230261D01*
X151784374Y-93220491D01*
X151722463Y-93188106D01*
X151687889Y-93127389D01*
X151691630Y-93057620D01*
X151718296Y-93015304D01*
X151717924Y-93014999D01*
X151720357Y-93012033D01*
X151720891Y-93011186D01*
X151721789Y-93010289D01*
X151809394Y-92879179D01*
X151869737Y-92733497D01*
X151900500Y-92578842D01*
X151900500Y-92421158D01*
X151869737Y-92266503D01*
X151846080Y-92209390D01*
X151809397Y-92120827D01*
X151809395Y-92120823D01*
X151809394Y-92120821D01*
X151748449Y-92029611D01*
X151721792Y-91989715D01*
X151721786Y-91989707D01*
X151662079Y-91930000D01*
X152350138Y-91930000D01*
X153153012Y-91930000D01*
X153135795Y-91939940D01*
X153079940Y-91995795D01*
X153040444Y-92064204D01*
X153020000Y-92140504D01*
X153020000Y-92219496D01*
X153040444Y-92295796D01*
X153079940Y-92364205D01*
X153135795Y-92420060D01*
X153153012Y-92430000D01*
X152350138Y-92430000D01*
X152358430Y-92471690D01*
X152358430Y-92471692D01*
X152433807Y-92653671D01*
X152433814Y-92653684D01*
X152543248Y-92817462D01*
X152543251Y-92817466D01*
X152682533Y-92956748D01*
X152682537Y-92956751D01*
X152846315Y-93066185D01*
X152846328Y-93066192D01*
X153028306Y-93141569D01*
X153028318Y-93141572D01*
X153221504Y-93179999D01*
X153221508Y-93180000D01*
X153620000Y-93180000D01*
X153620000Y-92480000D01*
X154120000Y-92480000D01*
X154120000Y-93035536D01*
X154100315Y-93102575D01*
X154058002Y-93142922D01*
X154046638Y-93149483D01*
X154046632Y-93149487D01*
X153939487Y-93256632D01*
X153939485Y-93256635D01*
X153863719Y-93387863D01*
X153824500Y-93534234D01*
X153824500Y-93685765D01*
X153863719Y-93832136D01*
X153886978Y-93872421D01*
X153939485Y-93963365D01*
X154046635Y-94070515D01*
X154177865Y-94146281D01*
X154324234Y-94185500D01*
X154324236Y-94185500D01*
X154475764Y-94185500D01*
X154475766Y-94185500D01*
X154622135Y-94146281D01*
X154753365Y-94070515D01*
X154860515Y-93963365D01*
X154936281Y-93832135D01*
X154975500Y-93685766D01*
X154975500Y-93534234D01*
X154936281Y-93387865D01*
X154860515Y-93256635D01*
X154860510Y-93256630D01*
X154855568Y-93250189D01*
X154858386Y-93248026D01*
X154832697Y-93200979D01*
X154837681Y-93131287D01*
X154879553Y-93075354D01*
X154888620Y-93069585D01*
X154888613Y-93069574D01*
X155057462Y-92956751D01*
X155057466Y-92956748D01*
X155196748Y-92817466D01*
X155196751Y-92817462D01*
X155306185Y-92653684D01*
X155306192Y-92653671D01*
X155381569Y-92471692D01*
X155381569Y-92471690D01*
X155389862Y-92430000D01*
X154586988Y-92430000D01*
X154604205Y-92420060D01*
X154660060Y-92364205D01*
X154699556Y-92295796D01*
X154720000Y-92219496D01*
X154720000Y-92140504D01*
X154699556Y-92064204D01*
X154660060Y-91995795D01*
X154604205Y-91939940D01*
X154586988Y-91930000D01*
X155389862Y-91930000D01*
X156780138Y-91930000D01*
X157583012Y-91930000D01*
X157565795Y-91939940D01*
X157509940Y-91995795D01*
X157470444Y-92064204D01*
X157450000Y-92140504D01*
X157450000Y-92219496D01*
X157470444Y-92295796D01*
X157509940Y-92364205D01*
X157565795Y-92420060D01*
X157583012Y-92430000D01*
X156780138Y-92430000D01*
X156788430Y-92471690D01*
X156788430Y-92471692D01*
X156863807Y-92653671D01*
X156863814Y-92653684D01*
X156973248Y-92817462D01*
X156973251Y-92817466D01*
X157112533Y-92956748D01*
X157112537Y-92956751D01*
X157276315Y-93066185D01*
X157276328Y-93066192D01*
X157458306Y-93141569D01*
X157458318Y-93141572D01*
X157651504Y-93179999D01*
X157651508Y-93180000D01*
X157800000Y-93180000D01*
X157800000Y-92480000D01*
X158300000Y-92480000D01*
X158300000Y-93180000D01*
X158448492Y-93180000D01*
X158448495Y-93179999D01*
X158641681Y-93141572D01*
X158641693Y-93141569D01*
X158823671Y-93066192D01*
X158823684Y-93066185D01*
X158987462Y-92956751D01*
X158987466Y-92956748D01*
X159126748Y-92817466D01*
X159126751Y-92817462D01*
X159236185Y-92653684D01*
X159236192Y-92653671D01*
X159311569Y-92471692D01*
X159311569Y-92471690D01*
X159319862Y-92430000D01*
X158516988Y-92430000D01*
X158534205Y-92420060D01*
X158590060Y-92364205D01*
X158629556Y-92295796D01*
X158650000Y-92219496D01*
X158650000Y-92140504D01*
X158629556Y-92064204D01*
X158590060Y-91995795D01*
X158534205Y-91939940D01*
X158516988Y-91930000D01*
X159319862Y-91930000D01*
X159311569Y-91888309D01*
X159311569Y-91888307D01*
X159236192Y-91706328D01*
X159236185Y-91706315D01*
X159126751Y-91542537D01*
X159126748Y-91542533D01*
X158987466Y-91403251D01*
X158987462Y-91403248D01*
X158823684Y-91293814D01*
X158823671Y-91293807D01*
X158641693Y-91218430D01*
X158641681Y-91218427D01*
X158448495Y-91180000D01*
X158300000Y-91180000D01*
X158300000Y-91880000D01*
X157800000Y-91880000D01*
X157800000Y-91180000D01*
X157651504Y-91180000D01*
X157458318Y-91218427D01*
X157458306Y-91218430D01*
X157276328Y-91293807D01*
X157276315Y-91293814D01*
X157112537Y-91403248D01*
X157112533Y-91403251D01*
X156973251Y-91542533D01*
X156973248Y-91542537D01*
X156863814Y-91706315D01*
X156863807Y-91706328D01*
X156788430Y-91888307D01*
X156788430Y-91888309D01*
X156780138Y-91930000D01*
X155389862Y-91930000D01*
X155381569Y-91888309D01*
X155381569Y-91888307D01*
X155306192Y-91706328D01*
X155306185Y-91706315D01*
X155196751Y-91542537D01*
X155196748Y-91542533D01*
X155057466Y-91403251D01*
X155057462Y-91403248D01*
X154893684Y-91293814D01*
X154893671Y-91293807D01*
X154711693Y-91218430D01*
X154711681Y-91218427D01*
X154518495Y-91180000D01*
X154120000Y-91180000D01*
X154120000Y-91880000D01*
X153620000Y-91880000D01*
X153620000Y-91180000D01*
X153221504Y-91180000D01*
X153028318Y-91218427D01*
X153028306Y-91218430D01*
X152846328Y-91293807D01*
X152846315Y-91293814D01*
X152682537Y-91403248D01*
X152682533Y-91403251D01*
X152543251Y-91542533D01*
X152543248Y-91542537D01*
X152433814Y-91706315D01*
X152433807Y-91706328D01*
X152358430Y-91888307D01*
X152358430Y-91888309D01*
X152350138Y-91930000D01*
X151662079Y-91930000D01*
X151610292Y-91878213D01*
X151610288Y-91878210D01*
X151479185Y-91790609D01*
X151479172Y-91790602D01*
X151333501Y-91730264D01*
X151333489Y-91730261D01*
X151178845Y-91699500D01*
X151178842Y-91699500D01*
X151021158Y-91699500D01*
X151021155Y-91699500D01*
X150866510Y-91730261D01*
X150866498Y-91730264D01*
X150720827Y-91790602D01*
X150720814Y-91790609D01*
X150589711Y-91878210D01*
X150589707Y-91878213D01*
X150478213Y-91989707D01*
X150478210Y-91989711D01*
X150390609Y-92120814D01*
X150390602Y-92120827D01*
X150330264Y-92266498D01*
X150330261Y-92266510D01*
X150299500Y-92421153D01*
X150299500Y-92578846D01*
X150330261Y-92733489D01*
X150330264Y-92733501D01*
X150390602Y-92879172D01*
X150390609Y-92879185D01*
X150478210Y-93010288D01*
X150478213Y-93010292D01*
X150589707Y-93121786D01*
X150589711Y-93121789D01*
X150720814Y-93209390D01*
X150720827Y-93209397D01*
X150866498Y-93269735D01*
X150866503Y-93269737D01*
X150893423Y-93275091D01*
X150915624Y-93279508D01*
X150977535Y-93311892D01*
X151012109Y-93372608D01*
X151008370Y-93442377D01*
X150981706Y-93484697D01*
X150982076Y-93485001D01*
X150979661Y-93487942D01*
X150979123Y-93488798D01*
X150978212Y-93489708D01*
X150978210Y-93489711D01*
X150890609Y-93620814D01*
X150890602Y-93620827D01*
X150830264Y-93766498D01*
X150830261Y-93766510D01*
X150799500Y-93921153D01*
X150799500Y-94078846D01*
X150830261Y-94233489D01*
X150830263Y-94233497D01*
X150849575Y-94280120D01*
X150857043Y-94349590D01*
X150825767Y-94412069D01*
X150765678Y-94447721D01*
X150695853Y-94445226D01*
X150647332Y-94415253D01*
X150644605Y-94412526D01*
X150644601Y-94412523D01*
X150513498Y-94324922D01*
X150513485Y-94324915D01*
X150367814Y-94264577D01*
X150367802Y-94264574D01*
X150213158Y-94233813D01*
X150213155Y-94233813D01*
X150055471Y-94233813D01*
X150055468Y-94233813D01*
X149900823Y-94264574D01*
X149900811Y-94264577D01*
X149755140Y-94324915D01*
X149755127Y-94324922D01*
X149624024Y-94412523D01*
X149624020Y-94412526D01*
X149512526Y-94524020D01*
X149512523Y-94524024D01*
X149424922Y-94655127D01*
X149424915Y-94655140D01*
X149364577Y-94800811D01*
X149364574Y-94800823D01*
X149333813Y-94955466D01*
X149333813Y-95113159D01*
X149364574Y-95267802D01*
X149364577Y-95267814D01*
X149424915Y-95413485D01*
X149424922Y-95413498D01*
X149512523Y-95544601D01*
X149512526Y-95544605D01*
X149624020Y-95656099D01*
X149624024Y-95656102D01*
X149755127Y-95743703D01*
X149755140Y-95743710D01*
X149874184Y-95793019D01*
X149928588Y-95836859D01*
X149937229Y-95851309D01*
X149939435Y-95855642D01*
X149990606Y-95979179D01*
X150039974Y-96053064D01*
X150043300Y-96059594D01*
X150048444Y-96087021D01*
X150056783Y-96113651D01*
X150054797Y-96120888D01*
X150056181Y-96128265D01*
X150045682Y-96154116D01*
X150038299Y-96181031D01*
X150032714Y-96186047D01*
X150029891Y-96193000D01*
X150007083Y-96209070D01*
X149986320Y-96227722D01*
X149977904Y-96229631D01*
X149972776Y-96233245D01*
X149959478Y-96233812D01*
X149932803Y-96239865D01*
X149876216Y-96239865D01*
X149721571Y-96270626D01*
X149721559Y-96270629D01*
X149575888Y-96330967D01*
X149575875Y-96330974D01*
X149444772Y-96418575D01*
X149444768Y-96418578D01*
X149333274Y-96530072D01*
X149333271Y-96530076D01*
X149245670Y-96661179D01*
X149245663Y-96661192D01*
X149185325Y-96806863D01*
X149185322Y-96806875D01*
X149154561Y-96961518D01*
X148189890Y-96961518D01*
X148131919Y-96821562D01*
X148131912Y-96821549D01*
X148044311Y-96690446D01*
X148044308Y-96690442D01*
X147932814Y-96578948D01*
X147932810Y-96578945D01*
X147801707Y-96491344D01*
X147801694Y-96491337D01*
X147656023Y-96430999D01*
X147656011Y-96430996D01*
X147501367Y-96400235D01*
X147501364Y-96400235D01*
X147343680Y-96400235D01*
X147343677Y-96400235D01*
X147189032Y-96430996D01*
X147189020Y-96430999D01*
X147043349Y-96491337D01*
X147043336Y-96491344D01*
X146912233Y-96578945D01*
X146912229Y-96578948D01*
X146800735Y-96690442D01*
X146800732Y-96690446D01*
X146713131Y-96821549D01*
X146713124Y-96821562D01*
X146652786Y-96967233D01*
X146652783Y-96967245D01*
X146622022Y-97121888D01*
X146622022Y-97265832D01*
X146602337Y-97332871D01*
X146549533Y-97378626D01*
X146545477Y-97380392D01*
X146520826Y-97390603D01*
X146520814Y-97390609D01*
X146389711Y-97478210D01*
X146389707Y-97478213D01*
X146278213Y-97589707D01*
X146278210Y-97589711D01*
X146190609Y-97720814D01*
X146190602Y-97720827D01*
X146130264Y-97866498D01*
X146130261Y-97866510D01*
X146099500Y-98021153D01*
X143325987Y-98021153D01*
X143324025Y-98016416D01*
X143324018Y-98016403D01*
X143236417Y-97885300D01*
X143236414Y-97885296D01*
X143124920Y-97773802D01*
X143124916Y-97773799D01*
X142993813Y-97686198D01*
X142993800Y-97686191D01*
X142848129Y-97625853D01*
X142848117Y-97625850D01*
X142693473Y-97595089D01*
X142693470Y-97595089D01*
X142535786Y-97595089D01*
X142505957Y-97601022D01*
X142470649Y-97608045D01*
X142401057Y-97601816D01*
X142384676Y-97593248D01*
X142384553Y-97593479D01*
X142379181Y-97590607D01*
X142379179Y-97590606D01*
X142379176Y-97590605D01*
X142379171Y-97590602D01*
X142233501Y-97530264D01*
X142233489Y-97530261D01*
X142078845Y-97499500D01*
X142078842Y-97499500D01*
X141921158Y-97499500D01*
X141921155Y-97499500D01*
X141766510Y-97530261D01*
X141766498Y-97530264D01*
X141620827Y-97590602D01*
X141620814Y-97590609D01*
X141489711Y-97678210D01*
X141489707Y-97678213D01*
X141378213Y-97789707D01*
X141378210Y-97789711D01*
X141290609Y-97920814D01*
X141290602Y-97920827D01*
X141230264Y-98066498D01*
X141230261Y-98066510D01*
X141199500Y-98221153D01*
X141199500Y-98378842D01*
X141201432Y-98388556D01*
X141195203Y-98458148D01*
X141167495Y-98500426D01*
X141078213Y-98589707D01*
X141078210Y-98589711D01*
X140990609Y-98720814D01*
X140990602Y-98720827D01*
X140930264Y-98866498D01*
X140930261Y-98866510D01*
X140899500Y-99021153D01*
X140899500Y-99178846D01*
X140930260Y-99333488D01*
X140930263Y-99333498D01*
X140958865Y-99402549D01*
X140966334Y-99472018D01*
X140963012Y-99485841D01*
X140961229Y-99491744D01*
X140930263Y-99566506D01*
X140914051Y-99648007D01*
X140912312Y-99653768D01*
X140896352Y-99678190D01*
X140882835Y-99704031D01*
X140877470Y-99707085D01*
X140874091Y-99712257D01*
X140847461Y-99724173D01*
X140822119Y-99738605D01*
X140815953Y-99738274D01*
X140810316Y-99740797D01*
X140781473Y-99736425D01*
X140752350Y-99734864D01*
X140744177Y-99730772D01*
X140741235Y-99730327D01*
X140738527Y-99727944D01*
X140724714Y-99721030D01*
X140679190Y-99690612D01*
X140679172Y-99690602D01*
X140533501Y-99630264D01*
X140533489Y-99630261D01*
X140378845Y-99599500D01*
X140378842Y-99599500D01*
X140221158Y-99599500D01*
X140221155Y-99599500D01*
X140066510Y-99630261D01*
X140066498Y-99630264D01*
X139920827Y-99690602D01*
X139920814Y-99690609D01*
X139789711Y-99778210D01*
X139789707Y-99778213D01*
X139678213Y-99889707D01*
X139678210Y-99889711D01*
X139590609Y-100020814D01*
X139590602Y-100020827D01*
X139530264Y-100166498D01*
X139530261Y-100166510D01*
X139499500Y-100321153D01*
X137482965Y-100321153D01*
X137488989Y-100290875D01*
X137500401Y-100233501D01*
X137501180Y-100229584D01*
X137501180Y-100071900D01*
X137501180Y-100071897D01*
X137501179Y-100071895D01*
X137494451Y-100038072D01*
X137470417Y-99917245D01*
X137459012Y-99889711D01*
X137410077Y-99771569D01*
X137410070Y-99771556D01*
X137322469Y-99640453D01*
X137322466Y-99640449D01*
X137210972Y-99528955D01*
X137210968Y-99528952D01*
X137079865Y-99441351D01*
X137079852Y-99441344D01*
X136934181Y-99381006D01*
X136934169Y-99381003D01*
X136779525Y-99350242D01*
X136779522Y-99350242D01*
X136621838Y-99350242D01*
X136621835Y-99350242D01*
X136467190Y-99381003D01*
X136467178Y-99381006D01*
X136321507Y-99441344D01*
X136321494Y-99441351D01*
X136190391Y-99528952D01*
X136190387Y-99528955D01*
X136078893Y-99640449D01*
X136078890Y-99640453D01*
X135991289Y-99771556D01*
X135991282Y-99771569D01*
X135930944Y-99917240D01*
X135930941Y-99917252D01*
X135900180Y-100071895D01*
X135100837Y-100071895D01*
X134979185Y-99990609D01*
X134979172Y-99990602D01*
X134860745Y-99941549D01*
X134806341Y-99897708D01*
X134786580Y-99851182D01*
X134769737Y-99766503D01*
X134759089Y-99740797D01*
X134709397Y-99620827D01*
X134709390Y-99620814D01*
X134621789Y-99489711D01*
X134621786Y-99489707D01*
X134510292Y-99378213D01*
X134510288Y-99378210D01*
X134379185Y-99290609D01*
X134379176Y-99290604D01*
X134309423Y-99261712D01*
X134255020Y-99217871D01*
X134232955Y-99151577D01*
X134242314Y-99099701D01*
X134269737Y-99033497D01*
X134300500Y-98878842D01*
X134300500Y-98721158D01*
X134300500Y-98721155D01*
X134300499Y-98721153D01*
X134282186Y-98629090D01*
X134269737Y-98566503D01*
X134269398Y-98565685D01*
X134209397Y-98420827D01*
X134209390Y-98420814D01*
X134121789Y-98289711D01*
X134121786Y-98289707D01*
X134010292Y-98178213D01*
X134010288Y-98178210D01*
X133879185Y-98090609D01*
X133879172Y-98090602D01*
X133733501Y-98030264D01*
X133733491Y-98030261D01*
X133623487Y-98008380D01*
X133623486Y-98008379D01*
X133578845Y-97999500D01*
X133578842Y-97999500D01*
X133421158Y-97999500D01*
X133421155Y-97999500D01*
X133266510Y-98030261D01*
X133266498Y-98030264D01*
X133120827Y-98090602D01*
X133120814Y-98090609D01*
X132989711Y-98178210D01*
X132989707Y-98178213D01*
X132878213Y-98289707D01*
X132878210Y-98289711D01*
X132790609Y-98420814D01*
X132790602Y-98420827D01*
X132730264Y-98566498D01*
X132730261Y-98566510D01*
X132699500Y-98721153D01*
X112600500Y-98721153D01*
X112600500Y-97927577D01*
X136025975Y-97927577D01*
X136131236Y-97971178D01*
X136131240Y-97971179D01*
X136276126Y-97999999D01*
X136276129Y-98000000D01*
X136423871Y-98000000D01*
X136423873Y-97999999D01*
X136568760Y-97971179D01*
X136568775Y-97971175D01*
X136674024Y-97927578D01*
X136674024Y-97927577D01*
X138725975Y-97927577D01*
X138831236Y-97971178D01*
X138831240Y-97971179D01*
X138976126Y-97999999D01*
X138976129Y-98000000D01*
X139123871Y-98000000D01*
X139123873Y-97999999D01*
X139268760Y-97971179D01*
X139268775Y-97971175D01*
X139374024Y-97927578D01*
X139374024Y-97927577D01*
X139050001Y-97603554D01*
X139050000Y-97603554D01*
X138725975Y-97927577D01*
X136674024Y-97927577D01*
X136350001Y-97603554D01*
X136350000Y-97603554D01*
X136025975Y-97927577D01*
X112600500Y-97927577D01*
X112600500Y-94821153D01*
X119799500Y-94821153D01*
X119799500Y-94978846D01*
X119830261Y-95133489D01*
X119830264Y-95133501D01*
X119890602Y-95279172D01*
X119890609Y-95279185D01*
X119978210Y-95410288D01*
X119978213Y-95410292D01*
X120089707Y-95521786D01*
X120089711Y-95521789D01*
X120220814Y-95609390D01*
X120220827Y-95609397D01*
X120333585Y-95656102D01*
X120366503Y-95669737D01*
X120499898Y-95696271D01*
X120521153Y-95700499D01*
X120521156Y-95700500D01*
X120521158Y-95700500D01*
X120678844Y-95700500D01*
X120678845Y-95700499D01*
X120833497Y-95669737D01*
X120979179Y-95609394D01*
X121110289Y-95521789D01*
X121221789Y-95410289D01*
X121309394Y-95279179D01*
X121314107Y-95267802D01*
X121333569Y-95220814D01*
X121369737Y-95133497D01*
X121400500Y-94978842D01*
X121400500Y-94821158D01*
X121400500Y-94821155D01*
X121400499Y-94821153D01*
X121384610Y-94741275D01*
X121369737Y-94666503D01*
X121356870Y-94635439D01*
X121309397Y-94520827D01*
X121309390Y-94520814D01*
X121221789Y-94389711D01*
X121221786Y-94389707D01*
X121110292Y-94278213D01*
X121110288Y-94278210D01*
X120979185Y-94190609D01*
X120979172Y-94190602D01*
X120833501Y-94130264D01*
X120833489Y-94130261D01*
X120678845Y-94099500D01*
X120678842Y-94099500D01*
X120521158Y-94099500D01*
X120521155Y-94099500D01*
X120366510Y-94130261D01*
X120366498Y-94130264D01*
X120220827Y-94190602D01*
X120220814Y-94190609D01*
X120089711Y-94278210D01*
X120089707Y-94278213D01*
X119978213Y-94389707D01*
X119978210Y-94389711D01*
X119890609Y-94520814D01*
X119890602Y-94520827D01*
X119830264Y-94666498D01*
X119830261Y-94666510D01*
X119799500Y-94821153D01*
X112600500Y-94821153D01*
X112600500Y-93821153D01*
X124499500Y-93821153D01*
X124499500Y-93978846D01*
X124530261Y-94133489D01*
X124530264Y-94133501D01*
X124590602Y-94279172D01*
X124590609Y-94279185D01*
X124678210Y-94410288D01*
X124678213Y-94410292D01*
X124789707Y-94521786D01*
X124789711Y-94521789D01*
X124920814Y-94609390D01*
X124920823Y-94609395D01*
X124983699Y-94635439D01*
X125038102Y-94679280D01*
X125060167Y-94745574D01*
X125042888Y-94813273D01*
X124991751Y-94860884D01*
X124983699Y-94864561D01*
X124920823Y-94890604D01*
X124920814Y-94890609D01*
X124789711Y-94978210D01*
X124789707Y-94978213D01*
X124678213Y-95089707D01*
X124678210Y-95089711D01*
X124590609Y-95220814D01*
X124590602Y-95220827D01*
X124530264Y-95366498D01*
X124530261Y-95366510D01*
X124499500Y-95521153D01*
X124499500Y-95678846D01*
X124530261Y-95833489D01*
X124530264Y-95833501D01*
X124590602Y-95979172D01*
X124590609Y-95979185D01*
X124678210Y-96110288D01*
X124678213Y-96110292D01*
X124789707Y-96221786D01*
X124789715Y-96221792D01*
X124852732Y-96263899D01*
X124897538Y-96317511D01*
X124906245Y-96386836D01*
X124905460Y-96391189D01*
X124899500Y-96421155D01*
X124899500Y-96578846D01*
X124930261Y-96733489D01*
X124930264Y-96733501D01*
X124990602Y-96879172D01*
X124990609Y-96879185D01*
X125078210Y-97010288D01*
X125078213Y-97010292D01*
X125189707Y-97121786D01*
X125189711Y-97121789D01*
X125320814Y-97209390D01*
X125320827Y-97209397D01*
X125457075Y-97265832D01*
X125466503Y-97269737D01*
X125621153Y-97300499D01*
X125621156Y-97300500D01*
X125621158Y-97300500D01*
X125778844Y-97300500D01*
X125778845Y-97300499D01*
X125933497Y-97269737D01*
X126079179Y-97209394D01*
X126128968Y-97176126D01*
X135600000Y-97176126D01*
X135600000Y-97323873D01*
X135628820Y-97468759D01*
X135628822Y-97468767D01*
X135672421Y-97574024D01*
X135996446Y-97250000D01*
X135996446Y-97249999D01*
X135976556Y-97230109D01*
X136250000Y-97230109D01*
X136250000Y-97269891D01*
X136265224Y-97306645D01*
X136293355Y-97334776D01*
X136330109Y-97350000D01*
X136369891Y-97350000D01*
X136406645Y-97334776D01*
X136434776Y-97306645D01*
X136450000Y-97269891D01*
X136450000Y-97249999D01*
X136703554Y-97249999D01*
X136703554Y-97250000D01*
X137027577Y-97574024D01*
X137027578Y-97574024D01*
X137071175Y-97468775D01*
X137071179Y-97468760D01*
X137099999Y-97323873D01*
X137100000Y-97323871D01*
X137100000Y-97176128D01*
X137099999Y-97176126D01*
X138300000Y-97176126D01*
X138300000Y-97323873D01*
X138328820Y-97468759D01*
X138328822Y-97468767D01*
X138372421Y-97574024D01*
X138696446Y-97250000D01*
X138696446Y-97249999D01*
X138676556Y-97230109D01*
X138950000Y-97230109D01*
X138950000Y-97269891D01*
X138965224Y-97306645D01*
X138993355Y-97334776D01*
X139030109Y-97350000D01*
X139069891Y-97350000D01*
X139106645Y-97334776D01*
X139134776Y-97306645D01*
X139150000Y-97269891D01*
X139150000Y-97249999D01*
X139403554Y-97249999D01*
X139403554Y-97250001D01*
X139727577Y-97574024D01*
X139727578Y-97574024D01*
X139771175Y-97468775D01*
X139771179Y-97468760D01*
X139799999Y-97323873D01*
X139800000Y-97323871D01*
X139800000Y-97176128D01*
X139799999Y-97176126D01*
X139771179Y-97031240D01*
X139771178Y-97031236D01*
X139727577Y-96925975D01*
X139403554Y-97249999D01*
X139150000Y-97249999D01*
X139150000Y-97230109D01*
X139134776Y-97193355D01*
X139106645Y-97165224D01*
X139069891Y-97150000D01*
X139030109Y-97150000D01*
X138993355Y-97165224D01*
X138965224Y-97193355D01*
X138950000Y-97230109D01*
X138676556Y-97230109D01*
X138372421Y-96925974D01*
X138372420Y-96925974D01*
X138328823Y-97031228D01*
X138328820Y-97031240D01*
X138300000Y-97176126D01*
X137099999Y-97176126D01*
X137071179Y-97031240D01*
X137071178Y-97031236D01*
X137027577Y-96925975D01*
X136703554Y-97249999D01*
X136450000Y-97249999D01*
X136450000Y-97230109D01*
X136434776Y-97193355D01*
X136406645Y-97165224D01*
X136369891Y-97150000D01*
X136330109Y-97150000D01*
X136293355Y-97165224D01*
X136265224Y-97193355D01*
X136250000Y-97230109D01*
X135976556Y-97230109D01*
X135672421Y-96925974D01*
X135672420Y-96925974D01*
X135628823Y-97031228D01*
X135628820Y-97031240D01*
X135600000Y-97176126D01*
X126128968Y-97176126D01*
X126210289Y-97121789D01*
X126212871Y-97119207D01*
X126249721Y-97082358D01*
X126321786Y-97010292D01*
X126321789Y-97010289D01*
X126409394Y-96879179D01*
X126469737Y-96733497D01*
X126500500Y-96578842D01*
X126500500Y-96421158D01*
X126500500Y-96421155D01*
X126500499Y-96421153D01*
X126482561Y-96330974D01*
X126469737Y-96266503D01*
X126468658Y-96263899D01*
X126429385Y-96169082D01*
X126412250Y-96127717D01*
X131644409Y-96127717D01*
X131644409Y-96285410D01*
X131675170Y-96440053D01*
X131675173Y-96440065D01*
X131735511Y-96585736D01*
X131735518Y-96585749D01*
X131823119Y-96716852D01*
X131823122Y-96716856D01*
X131934616Y-96828350D01*
X131934620Y-96828353D01*
X132065723Y-96915954D01*
X132065736Y-96915961D01*
X132211407Y-96976299D01*
X132211412Y-96976301D01*
X132366062Y-97007063D01*
X132366065Y-97007064D01*
X132366067Y-97007064D01*
X132523753Y-97007064D01*
X132523754Y-97007063D01*
X132678406Y-96976301D01*
X132824088Y-96915958D01*
X132955198Y-96828353D01*
X133066698Y-96716853D01*
X133154303Y-96585743D01*
X133159822Y-96572420D01*
X136025974Y-96572420D01*
X136025974Y-96572421D01*
X136350000Y-96896446D01*
X136350001Y-96896446D01*
X136674024Y-96572421D01*
X136674022Y-96572420D01*
X138725974Y-96572420D01*
X138725974Y-96572421D01*
X139050000Y-96896446D01*
X139050001Y-96896446D01*
X139374024Y-96572421D01*
X139268767Y-96528822D01*
X139268759Y-96528820D01*
X139123872Y-96500000D01*
X138976128Y-96500000D01*
X138831240Y-96528820D01*
X138831228Y-96528823D01*
X138725974Y-96572420D01*
X136674022Y-96572420D01*
X136568767Y-96528822D01*
X136568759Y-96528820D01*
X136423872Y-96500000D01*
X136276128Y-96500000D01*
X136131240Y-96528820D01*
X136131228Y-96528823D01*
X136025974Y-96572420D01*
X133159822Y-96572420D01*
X133214646Y-96440061D01*
X133245409Y-96285406D01*
X133245409Y-96127722D01*
X133245409Y-96127719D01*
X133245408Y-96127717D01*
X133242610Y-96113651D01*
X133214646Y-95973067D01*
X133214644Y-95973062D01*
X133154306Y-95827391D01*
X133154299Y-95827378D01*
X133066698Y-95696275D01*
X133066695Y-95696271D01*
X132955201Y-95584777D01*
X132955197Y-95584774D01*
X132824094Y-95497173D01*
X132824081Y-95497166D01*
X132678410Y-95436828D01*
X132678398Y-95436825D01*
X132523754Y-95406064D01*
X132523751Y-95406064D01*
X132366067Y-95406064D01*
X132366064Y-95406064D01*
X132211419Y-95436825D01*
X132211407Y-95436828D01*
X132065736Y-95497166D01*
X132065723Y-95497173D01*
X131934620Y-95584774D01*
X131934616Y-95584777D01*
X131823122Y-95696271D01*
X131823119Y-95696275D01*
X131735518Y-95827378D01*
X131735511Y-95827391D01*
X131675173Y-95973062D01*
X131675170Y-95973074D01*
X131644409Y-96127717D01*
X126412250Y-96127717D01*
X126409395Y-96120824D01*
X126409394Y-96120821D01*
X126409392Y-96120818D01*
X126409390Y-96120814D01*
X126321789Y-95989711D01*
X126321786Y-95989707D01*
X126210292Y-95878213D01*
X126210288Y-95878210D01*
X126147265Y-95836099D01*
X126102460Y-95782487D01*
X126093753Y-95713162D01*
X126094540Y-95708801D01*
X126096192Y-95700500D01*
X126097759Y-95692617D01*
X126100500Y-95678844D01*
X126100500Y-95521155D01*
X126100499Y-95521153D01*
X126095728Y-95497166D01*
X126069737Y-95366503D01*
X126012192Y-95227577D01*
X136025975Y-95227577D01*
X136131236Y-95271178D01*
X136131240Y-95271179D01*
X136276126Y-95299999D01*
X136276129Y-95300000D01*
X136423871Y-95300000D01*
X136423873Y-95299999D01*
X136568760Y-95271179D01*
X136568775Y-95271175D01*
X136674024Y-95227578D01*
X136674024Y-95227577D01*
X138725975Y-95227577D01*
X138831236Y-95271178D01*
X138831240Y-95271179D01*
X138976126Y-95299999D01*
X138976129Y-95300000D01*
X139123871Y-95300000D01*
X139123873Y-95299999D01*
X139268760Y-95271179D01*
X139268775Y-95271175D01*
X139374024Y-95227578D01*
X139374024Y-95227577D01*
X139050001Y-94903554D01*
X139050000Y-94903554D01*
X138725975Y-95227577D01*
X136674024Y-95227577D01*
X136350001Y-94903554D01*
X136350000Y-94903554D01*
X136025975Y-95227577D01*
X126012192Y-95227577D01*
X126009394Y-95220821D01*
X126009392Y-95220818D01*
X126009390Y-95220814D01*
X125921789Y-95089711D01*
X125921786Y-95089707D01*
X125810292Y-94978213D01*
X125810288Y-94978210D01*
X125679185Y-94890609D01*
X125679172Y-94890602D01*
X125616301Y-94864561D01*
X125561897Y-94820721D01*
X125539832Y-94754427D01*
X125557111Y-94686727D01*
X125608248Y-94639116D01*
X125616301Y-94635439D01*
X125679172Y-94609397D01*
X125679172Y-94609396D01*
X125679179Y-94609394D01*
X125810289Y-94521789D01*
X125855952Y-94476126D01*
X135600000Y-94476126D01*
X135600000Y-94623873D01*
X135628820Y-94768759D01*
X135628822Y-94768767D01*
X135672421Y-94874024D01*
X135996446Y-94550000D01*
X135996446Y-94549999D01*
X135976556Y-94530109D01*
X136250000Y-94530109D01*
X136250000Y-94569891D01*
X136265224Y-94606645D01*
X136293355Y-94634776D01*
X136330109Y-94650000D01*
X136369891Y-94650000D01*
X136406645Y-94634776D01*
X136434776Y-94606645D01*
X136450000Y-94569891D01*
X136450000Y-94549999D01*
X136703554Y-94549999D01*
X136703554Y-94550000D01*
X137027577Y-94874024D01*
X137027578Y-94874024D01*
X137071175Y-94768775D01*
X137071179Y-94768760D01*
X137099999Y-94623873D01*
X137100000Y-94623871D01*
X137100000Y-94476128D01*
X137099999Y-94476126D01*
X138300000Y-94476126D01*
X138300000Y-94623873D01*
X138328820Y-94768759D01*
X138328822Y-94768767D01*
X138372421Y-94874024D01*
X138696446Y-94550000D01*
X138696446Y-94549999D01*
X138676556Y-94530109D01*
X138950000Y-94530109D01*
X138950000Y-94569891D01*
X138965224Y-94606645D01*
X138993355Y-94634776D01*
X139030109Y-94650000D01*
X139069891Y-94650000D01*
X139106645Y-94634776D01*
X139134776Y-94606645D01*
X139150000Y-94569891D01*
X139150000Y-94549999D01*
X139403554Y-94549999D01*
X139403554Y-94550001D01*
X139727577Y-94874024D01*
X139727578Y-94874024D01*
X139771175Y-94768775D01*
X139771179Y-94768760D01*
X139780649Y-94721153D01*
X144999500Y-94721153D01*
X144999500Y-94878846D01*
X145030261Y-95033489D01*
X145030264Y-95033501D01*
X145090602Y-95179172D01*
X145090609Y-95179185D01*
X145178210Y-95310288D01*
X145178213Y-95310292D01*
X145289707Y-95421786D01*
X145289711Y-95421789D01*
X145420814Y-95509390D01*
X145420827Y-95509397D01*
X145566498Y-95569735D01*
X145566503Y-95569737D01*
X145721153Y-95600499D01*
X145721156Y-95600500D01*
X145721158Y-95600500D01*
X145878844Y-95600500D01*
X145878845Y-95600499D01*
X146033497Y-95569737D01*
X146179179Y-95509394D01*
X146310289Y-95421789D01*
X146421789Y-95310289D01*
X146509394Y-95179179D01*
X146569737Y-95033497D01*
X146600500Y-94878842D01*
X146600500Y-94721158D01*
X146600500Y-94721155D01*
X146600499Y-94721153D01*
X146587367Y-94655134D01*
X146569737Y-94566503D01*
X146546452Y-94510288D01*
X146509397Y-94420827D01*
X146509390Y-94420814D01*
X146421789Y-94289711D01*
X146421786Y-94289707D01*
X146310292Y-94178213D01*
X146310288Y-94178210D01*
X146179185Y-94090609D01*
X146179172Y-94090602D01*
X146033501Y-94030264D01*
X146033489Y-94030261D01*
X145878845Y-93999500D01*
X145878842Y-93999500D01*
X145721158Y-93999500D01*
X145721155Y-93999500D01*
X145566510Y-94030261D01*
X145566498Y-94030264D01*
X145420827Y-94090602D01*
X145420814Y-94090609D01*
X145289711Y-94178210D01*
X145289707Y-94178213D01*
X145178213Y-94289707D01*
X145178210Y-94289711D01*
X145090609Y-94420814D01*
X145090602Y-94420827D01*
X145030264Y-94566498D01*
X145030261Y-94566510D01*
X144999500Y-94721153D01*
X139780649Y-94721153D01*
X139786672Y-94690875D01*
X139786672Y-94690874D01*
X139800000Y-94623871D01*
X139800000Y-94476128D01*
X139799999Y-94476126D01*
X139771179Y-94331240D01*
X139771178Y-94331236D01*
X139727577Y-94225975D01*
X139403554Y-94549999D01*
X139150000Y-94549999D01*
X139150000Y-94530109D01*
X139134776Y-94493355D01*
X139106645Y-94465224D01*
X139069891Y-94450000D01*
X139030109Y-94450000D01*
X138993355Y-94465224D01*
X138965224Y-94493355D01*
X138950000Y-94530109D01*
X138676556Y-94530109D01*
X138372421Y-94225974D01*
X138372420Y-94225974D01*
X138328823Y-94331228D01*
X138328820Y-94331240D01*
X138300000Y-94476126D01*
X137099999Y-94476126D01*
X137071179Y-94331240D01*
X137071178Y-94331236D01*
X137027577Y-94225975D01*
X136703554Y-94549999D01*
X136450000Y-94549999D01*
X136450000Y-94530109D01*
X136434776Y-94493355D01*
X136406645Y-94465224D01*
X136369891Y-94450000D01*
X136330109Y-94450000D01*
X136293355Y-94465224D01*
X136265224Y-94493355D01*
X136250000Y-94530109D01*
X135976556Y-94530109D01*
X135672421Y-94225974D01*
X135672420Y-94225974D01*
X135628823Y-94331228D01*
X135628820Y-94331240D01*
X135600000Y-94476126D01*
X125855952Y-94476126D01*
X125921789Y-94410289D01*
X126009394Y-94279179D01*
X126069737Y-94133497D01*
X126100500Y-93978842D01*
X126100500Y-93872420D01*
X136025974Y-93872420D01*
X136025974Y-93872421D01*
X136350000Y-94196446D01*
X136350001Y-94196446D01*
X136674024Y-93872421D01*
X136674022Y-93872420D01*
X138725974Y-93872420D01*
X138725974Y-93872421D01*
X139050000Y-94196446D01*
X139050001Y-94196446D01*
X139374024Y-93872421D01*
X139268767Y-93828822D01*
X139268759Y-93828820D01*
X139123872Y-93800000D01*
X138976128Y-93800000D01*
X138831240Y-93828820D01*
X138831228Y-93828823D01*
X138725974Y-93872420D01*
X136674022Y-93872420D01*
X136568767Y-93828822D01*
X136568759Y-93828820D01*
X136423872Y-93800000D01*
X136276128Y-93800000D01*
X136131240Y-93828820D01*
X136131228Y-93828823D01*
X136025974Y-93872420D01*
X126100500Y-93872420D01*
X126100500Y-93821158D01*
X126100500Y-93821155D01*
X126100499Y-93821153D01*
X126089627Y-93766498D01*
X126069737Y-93666503D01*
X126014950Y-93534234D01*
X126009397Y-93520827D01*
X126009390Y-93520814D01*
X125921789Y-93389711D01*
X125921786Y-93389707D01*
X125810292Y-93278213D01*
X125810288Y-93278210D01*
X125679185Y-93190609D01*
X125679172Y-93190602D01*
X125533501Y-93130264D01*
X125533489Y-93130261D01*
X125378845Y-93099500D01*
X125378842Y-93099500D01*
X125221158Y-93099500D01*
X125221155Y-93099500D01*
X125066510Y-93130261D01*
X125066498Y-93130264D01*
X124920827Y-93190602D01*
X124920814Y-93190609D01*
X124789711Y-93278210D01*
X124789707Y-93278213D01*
X124678213Y-93389707D01*
X124678210Y-93389711D01*
X124590609Y-93520814D01*
X124590602Y-93520827D01*
X124530264Y-93666498D01*
X124530261Y-93666510D01*
X124499500Y-93821153D01*
X112600500Y-93821153D01*
X112600500Y-91221153D01*
X125199500Y-91221153D01*
X125199500Y-91378846D01*
X125230261Y-91533489D01*
X125230264Y-91533501D01*
X125290602Y-91679172D01*
X125290609Y-91679185D01*
X125378210Y-91810288D01*
X125378213Y-91810292D01*
X125489707Y-91921786D01*
X125489711Y-91921789D01*
X125620814Y-92009390D01*
X125620827Y-92009397D01*
X125753145Y-92064204D01*
X125766503Y-92069737D01*
X125921153Y-92100499D01*
X125921156Y-92100500D01*
X125921158Y-92100500D01*
X126078844Y-92100500D01*
X126078845Y-92100499D01*
X126233497Y-92069737D01*
X126379179Y-92009394D01*
X126510289Y-91921789D01*
X126621789Y-91810289D01*
X126709394Y-91679179D01*
X126769737Y-91533497D01*
X126800500Y-91378842D01*
X126800500Y-91221158D01*
X126800500Y-91221155D01*
X126800499Y-91221153D01*
X133599500Y-91221153D01*
X133599500Y-91378846D01*
X133630261Y-91533489D01*
X133630264Y-91533501D01*
X133690602Y-91679172D01*
X133690609Y-91679185D01*
X133778210Y-91810288D01*
X133778213Y-91810292D01*
X133889707Y-91921786D01*
X133889711Y-91921789D01*
X134020814Y-92009390D01*
X134020827Y-92009397D01*
X134153145Y-92064204D01*
X134166503Y-92069737D01*
X134321153Y-92100499D01*
X134321156Y-92100500D01*
X134321158Y-92100500D01*
X134478844Y-92100500D01*
X134478845Y-92100499D01*
X134633497Y-92069737D01*
X134779179Y-92009394D01*
X134910289Y-91921789D01*
X134919158Y-91912919D01*
X134980476Y-91879435D01*
X135050168Y-91884417D01*
X135075729Y-91897498D01*
X135103161Y-91915827D01*
X135103164Y-91915828D01*
X135103172Y-91915834D01*
X135103178Y-91915836D01*
X135103179Y-91915837D01*
X135161369Y-91939940D01*
X135248854Y-91976177D01*
X135347480Y-91995795D01*
X135403504Y-92006939D01*
X135403507Y-92006940D01*
X135403509Y-92006940D01*
X135561195Y-92006940D01*
X135561196Y-92006939D01*
X135715848Y-91976177D01*
X135813624Y-91935676D01*
X135883093Y-91928208D01*
X135945572Y-91959483D01*
X135975638Y-92002787D01*
X135984471Y-92024114D01*
X135984475Y-92024121D01*
X136072076Y-92155224D01*
X136072079Y-92155228D01*
X136183573Y-92266722D01*
X136183577Y-92266725D01*
X136314680Y-92354326D01*
X136314693Y-92354333D01*
X136460364Y-92414671D01*
X136460369Y-92414673D01*
X136615019Y-92445435D01*
X136615022Y-92445436D01*
X136615024Y-92445436D01*
X136772710Y-92445436D01*
X136772711Y-92445435D01*
X136927363Y-92414673D01*
X137040032Y-92368003D01*
X137073038Y-92354333D01*
X137073038Y-92354332D01*
X137073045Y-92354330D01*
X137204155Y-92266725D01*
X137315655Y-92155225D01*
X137403260Y-92024115D01*
X137410375Y-92006939D01*
X137442243Y-91930000D01*
X137463603Y-91878433D01*
X137494366Y-91723778D01*
X137494366Y-91566094D01*
X137494366Y-91566091D01*
X137494365Y-91566089D01*
X137467738Y-91432229D01*
X137463603Y-91411439D01*
X137463601Y-91411434D01*
X137403263Y-91265763D01*
X137403256Y-91265750D01*
X137315655Y-91134647D01*
X137315652Y-91134643D01*
X137204158Y-91023149D01*
X137204154Y-91023146D01*
X137073051Y-90935545D01*
X137073038Y-90935538D01*
X136927367Y-90875200D01*
X136927355Y-90875197D01*
X136772711Y-90844436D01*
X136772708Y-90844436D01*
X136615024Y-90844436D01*
X136615021Y-90844436D01*
X136460376Y-90875197D01*
X136460364Y-90875200D01*
X136362593Y-90915698D01*
X136293123Y-90923167D01*
X136230644Y-90891891D01*
X136209632Y-90866283D01*
X136204395Y-90857801D01*
X136191745Y-90827261D01*
X136104140Y-90696151D01*
X136104137Y-90696147D01*
X136051978Y-90643988D01*
X139042414Y-90643988D01*
X139042414Y-90801681D01*
X139073175Y-90956324D01*
X139073178Y-90956336D01*
X139133516Y-91102007D01*
X139133523Y-91102020D01*
X139221124Y-91233123D01*
X139221127Y-91233127D01*
X139332621Y-91344621D01*
X139332625Y-91344624D01*
X139463728Y-91432225D01*
X139463741Y-91432232D01*
X139609412Y-91492570D01*
X139609417Y-91492572D01*
X139643126Y-91499277D01*
X139705036Y-91531660D01*
X139739611Y-91592376D01*
X139740552Y-91596702D01*
X139767761Y-91733491D01*
X139767764Y-91733501D01*
X139828102Y-91879172D01*
X139828109Y-91879185D01*
X139915710Y-92010288D01*
X139915713Y-92010292D01*
X140027207Y-92121786D01*
X140027211Y-92121789D01*
X140158314Y-92209390D01*
X140158327Y-92209397D01*
X140296183Y-92266498D01*
X140304003Y-92269737D01*
X140435010Y-92295796D01*
X140458653Y-92300499D01*
X140458656Y-92300500D01*
X140458658Y-92300500D01*
X140616344Y-92300500D01*
X140616345Y-92300499D01*
X140770997Y-92269737D01*
X140916679Y-92209394D01*
X141047789Y-92121789D01*
X141159289Y-92010289D01*
X141246894Y-91879179D01*
X141307237Y-91733497D01*
X141309192Y-91723665D01*
X141310465Y-91717267D01*
X148133370Y-91717267D01*
X148133370Y-91874960D01*
X148164131Y-92029603D01*
X148164134Y-92029615D01*
X148224472Y-92175286D01*
X148224479Y-92175299D01*
X148312080Y-92306402D01*
X148312083Y-92306406D01*
X148423577Y-92417900D01*
X148423581Y-92417903D01*
X148554684Y-92505504D01*
X148554697Y-92505511D01*
X148700368Y-92565849D01*
X148700373Y-92565851D01*
X148855023Y-92596613D01*
X148855026Y-92596614D01*
X148855028Y-92596614D01*
X149012714Y-92596614D01*
X149012715Y-92596613D01*
X149167367Y-92565851D01*
X149313049Y-92505508D01*
X149444159Y-92417903D01*
X149555659Y-92306403D01*
X149643264Y-92175293D01*
X149703607Y-92029611D01*
X149734370Y-91874956D01*
X149734370Y-91717272D01*
X149734370Y-91717269D01*
X149734369Y-91717267D01*
X149732193Y-91706328D01*
X149703607Y-91562617D01*
X149690784Y-91531660D01*
X149643267Y-91416941D01*
X149643260Y-91416928D01*
X149555659Y-91285825D01*
X149555656Y-91285821D01*
X149444162Y-91174327D01*
X149444158Y-91174324D01*
X149313055Y-91086723D01*
X149313042Y-91086716D01*
X149167371Y-91026378D01*
X149167359Y-91026375D01*
X149012715Y-90995614D01*
X149012712Y-90995614D01*
X148855028Y-90995614D01*
X148855025Y-90995614D01*
X148700380Y-91026375D01*
X148700368Y-91026378D01*
X148554697Y-91086716D01*
X148554684Y-91086723D01*
X148423581Y-91174324D01*
X148423577Y-91174327D01*
X148312083Y-91285821D01*
X148312080Y-91285825D01*
X148224479Y-91416928D01*
X148224472Y-91416941D01*
X148164134Y-91562612D01*
X148164131Y-91562624D01*
X148133370Y-91717267D01*
X141310465Y-91717267D01*
X141316489Y-91686988D01*
X141316489Y-91686987D01*
X141337999Y-91578846D01*
X141338000Y-91578844D01*
X141338000Y-91421155D01*
X141337999Y-91421153D01*
X141334437Y-91403248D01*
X141307237Y-91266503D01*
X141307235Y-91266498D01*
X141246897Y-91120827D01*
X141246890Y-91120814D01*
X141159289Y-90989711D01*
X141159286Y-90989707D01*
X141047792Y-90878213D01*
X141047788Y-90878210D01*
X140916685Y-90790609D01*
X140916672Y-90790602D01*
X140770999Y-90730263D01*
X140770994Y-90730262D01*
X140737284Y-90723556D01*
X140675374Y-90691169D01*
X140641856Y-90634599D01*
X140640711Y-90630408D01*
X140612651Y-90489338D01*
X140567842Y-90381158D01*
X140567840Y-90381153D01*
X150479500Y-90381153D01*
X150479500Y-90538846D01*
X150510261Y-90693489D01*
X150510264Y-90693501D01*
X150570602Y-90839172D01*
X150570609Y-90839185D01*
X150658210Y-90970288D01*
X150658213Y-90970292D01*
X150769707Y-91081786D01*
X150769711Y-91081789D01*
X150900814Y-91169390D01*
X150900827Y-91169397D01*
X151019198Y-91218427D01*
X151046503Y-91229737D01*
X151201153Y-91260499D01*
X151201156Y-91260500D01*
X151201158Y-91260500D01*
X151358844Y-91260500D01*
X151358845Y-91260499D01*
X151513497Y-91229737D01*
X151647270Y-91174327D01*
X151659172Y-91169397D01*
X151659172Y-91169396D01*
X151659179Y-91169394D01*
X151790289Y-91081789D01*
X151901789Y-90970289D01*
X151989394Y-90839179D01*
X152049737Y-90693497D01*
X152080500Y-90538842D01*
X152080500Y-90381158D01*
X152080500Y-90381155D01*
X152080499Y-90381153D01*
X152049737Y-90226503D01*
X152043954Y-90212542D01*
X151989397Y-90080827D01*
X151989390Y-90080814D01*
X151901789Y-89949711D01*
X151901786Y-89949707D01*
X151790292Y-89838213D01*
X151790288Y-89838210D01*
X151659185Y-89750609D01*
X151659172Y-89750602D01*
X151513501Y-89690264D01*
X151513489Y-89690261D01*
X151358845Y-89659500D01*
X151358842Y-89659500D01*
X151201158Y-89659500D01*
X151201155Y-89659500D01*
X151046510Y-89690261D01*
X151046498Y-89690264D01*
X150900827Y-89750602D01*
X150900814Y-89750609D01*
X150769711Y-89838210D01*
X150769707Y-89838213D01*
X150658213Y-89949707D01*
X150658210Y-89949711D01*
X150570609Y-90080814D01*
X150570602Y-90080827D01*
X150510264Y-90226498D01*
X150510261Y-90226510D01*
X150479500Y-90381153D01*
X140567840Y-90381153D01*
X140552311Y-90343662D01*
X140552304Y-90343649D01*
X140464703Y-90212546D01*
X140464700Y-90212542D01*
X140353206Y-90101048D01*
X140353202Y-90101045D01*
X140222099Y-90013444D01*
X140222086Y-90013437D01*
X140076415Y-89953099D01*
X140076403Y-89953096D01*
X139921759Y-89922335D01*
X139921756Y-89922335D01*
X139764072Y-89922335D01*
X139764069Y-89922335D01*
X139609424Y-89953096D01*
X139609412Y-89953099D01*
X139463741Y-90013437D01*
X139463728Y-90013444D01*
X139332625Y-90101045D01*
X139332621Y-90101048D01*
X139221127Y-90212542D01*
X139221124Y-90212546D01*
X139133523Y-90343649D01*
X139133516Y-90343662D01*
X139073178Y-90489333D01*
X139073175Y-90489345D01*
X139042414Y-90643988D01*
X136051978Y-90643988D01*
X135992643Y-90584653D01*
X135992639Y-90584650D01*
X135861536Y-90497049D01*
X135861523Y-90497042D01*
X135715852Y-90436704D01*
X135715840Y-90436701D01*
X135561196Y-90405940D01*
X135561193Y-90405940D01*
X135403509Y-90405940D01*
X135403506Y-90405940D01*
X135248861Y-90436701D01*
X135248849Y-90436704D01*
X135103178Y-90497042D01*
X135103165Y-90497049D01*
X134972065Y-90584648D01*
X134972064Y-90584648D01*
X134963189Y-90593524D01*
X134901864Y-90627006D01*
X134832173Y-90622019D01*
X134806621Y-90608942D01*
X134779182Y-90590608D01*
X134779181Y-90590607D01*
X134779179Y-90590606D01*
X134779176Y-90590604D01*
X134779171Y-90590602D01*
X134633501Y-90530264D01*
X134633489Y-90530261D01*
X134478845Y-90499500D01*
X134478842Y-90499500D01*
X134321158Y-90499500D01*
X134321155Y-90499500D01*
X134166510Y-90530261D01*
X134166498Y-90530264D01*
X134020827Y-90590602D01*
X134020814Y-90590609D01*
X133889711Y-90678210D01*
X133889707Y-90678213D01*
X133778213Y-90789707D01*
X133778210Y-90789711D01*
X133690609Y-90920814D01*
X133690602Y-90920827D01*
X133630264Y-91066498D01*
X133630261Y-91066510D01*
X133599500Y-91221153D01*
X126800499Y-91221153D01*
X126780543Y-91120827D01*
X126769737Y-91066503D01*
X126753117Y-91026378D01*
X126709397Y-90920827D01*
X126709390Y-90920814D01*
X126621789Y-90789711D01*
X126621786Y-90789707D01*
X126510292Y-90678213D01*
X126510288Y-90678210D01*
X126379185Y-90590609D01*
X126379172Y-90590602D01*
X126233501Y-90530264D01*
X126233489Y-90530261D01*
X126078845Y-90499500D01*
X126078842Y-90499500D01*
X125921158Y-90499500D01*
X125921155Y-90499500D01*
X125766510Y-90530261D01*
X125766498Y-90530264D01*
X125620827Y-90590602D01*
X125620814Y-90590609D01*
X125489711Y-90678210D01*
X125489707Y-90678213D01*
X125378213Y-90789707D01*
X125378210Y-90789711D01*
X125290609Y-90920814D01*
X125290602Y-90920827D01*
X125230264Y-91066498D01*
X125230261Y-91066510D01*
X125199500Y-91221153D01*
X112600500Y-91221153D01*
X112600500Y-87202135D01*
X156449500Y-87202135D01*
X156449500Y-88997870D01*
X156449501Y-88997876D01*
X156455908Y-89057483D01*
X156506202Y-89192328D01*
X156506206Y-89192335D01*
X156592452Y-89307544D01*
X156592455Y-89307547D01*
X156707664Y-89393793D01*
X156707671Y-89393797D01*
X156842517Y-89444091D01*
X156842516Y-89444091D01*
X156849444Y-89444835D01*
X156902127Y-89450500D01*
X158697872Y-89450499D01*
X158757483Y-89444091D01*
X158892331Y-89393796D01*
X159007546Y-89307546D01*
X159093796Y-89192331D01*
X159144091Y-89057483D01*
X159150500Y-88997873D01*
X159150499Y-87202128D01*
X159144091Y-87142517D01*
X159093796Y-87007669D01*
X159093795Y-87007668D01*
X159093793Y-87007664D01*
X159007547Y-86892455D01*
X159007544Y-86892452D01*
X158892335Y-86806206D01*
X158892328Y-86806202D01*
X158757482Y-86755908D01*
X158757483Y-86755908D01*
X158697883Y-86749501D01*
X158697881Y-86749500D01*
X158697873Y-86749500D01*
X158697865Y-86749500D01*
X158687309Y-86749500D01*
X158620270Y-86729815D01*
X158599628Y-86713181D01*
X157929408Y-86042962D01*
X157992993Y-86025925D01*
X158107007Y-85960099D01*
X158200099Y-85867007D01*
X158265925Y-85752993D01*
X158282962Y-85689409D01*
X158915270Y-86321717D01*
X158915270Y-86321716D01*
X158954622Y-86267554D01*
X159051095Y-86078217D01*
X159116757Y-85876130D01*
X159116757Y-85876127D01*
X159150000Y-85666246D01*
X159150000Y-85453753D01*
X159116757Y-85243872D01*
X159116757Y-85243869D01*
X159051095Y-85041782D01*
X158954624Y-84852449D01*
X158915270Y-84798282D01*
X158915269Y-84798282D01*
X158282962Y-85430590D01*
X158265925Y-85367007D01*
X158200099Y-85252993D01*
X158107007Y-85159901D01*
X157992993Y-85094075D01*
X157929409Y-85077037D01*
X158561716Y-84444728D01*
X158507550Y-84405375D01*
X158318217Y-84308904D01*
X158116129Y-84243242D01*
X157906246Y-84210000D01*
X157693754Y-84210000D01*
X157483872Y-84243242D01*
X157483869Y-84243242D01*
X157281782Y-84308904D01*
X157092439Y-84405380D01*
X157038282Y-84444727D01*
X157038282Y-84444728D01*
X157670591Y-85077037D01*
X157607007Y-85094075D01*
X157492993Y-85159901D01*
X157399901Y-85252993D01*
X157334075Y-85367007D01*
X157317037Y-85430591D01*
X156684728Y-84798282D01*
X156684727Y-84798282D01*
X156645380Y-84852439D01*
X156548904Y-85041782D01*
X156483242Y-85243869D01*
X156483242Y-85243872D01*
X156450000Y-85453753D01*
X156450000Y-85666246D01*
X156483242Y-85876127D01*
X156483242Y-85876130D01*
X156548904Y-86078217D01*
X156645375Y-86267550D01*
X156684728Y-86321716D01*
X157317037Y-85689408D01*
X157334075Y-85752993D01*
X157399901Y-85867007D01*
X157492993Y-85960099D01*
X157607007Y-86025925D01*
X157670590Y-86042962D01*
X157000370Y-86713181D01*
X156939047Y-86746666D01*
X156912698Y-86749500D01*
X156902134Y-86749500D01*
X156902123Y-86749501D01*
X156842516Y-86755908D01*
X156707671Y-86806202D01*
X156707664Y-86806206D01*
X156592455Y-86892452D01*
X156592452Y-86892455D01*
X156506206Y-87007664D01*
X156506202Y-87007671D01*
X156455908Y-87142517D01*
X156449501Y-87202116D01*
X156449501Y-87202123D01*
X156449500Y-87202135D01*
X112600500Y-87202135D01*
X112600500Y-86021153D01*
X128899500Y-86021153D01*
X128899500Y-86178846D01*
X128930261Y-86333489D01*
X128930264Y-86333501D01*
X128990602Y-86479172D01*
X128990609Y-86479185D01*
X129078210Y-86610288D01*
X129078213Y-86610292D01*
X129189707Y-86721786D01*
X129189711Y-86721789D01*
X129320814Y-86809390D01*
X129320827Y-86809397D01*
X129466498Y-86869735D01*
X129466503Y-86869737D01*
X129621153Y-86900499D01*
X129621156Y-86900500D01*
X129621158Y-86900500D01*
X129778844Y-86900500D01*
X129778845Y-86900499D01*
X129933497Y-86869737D01*
X130079179Y-86809394D01*
X130210289Y-86721789D01*
X130321789Y-86610289D01*
X130409394Y-86479179D01*
X130469737Y-86333497D01*
X130500500Y-86178842D01*
X130500500Y-86021158D01*
X130500500Y-86021155D01*
X130500499Y-86021153D01*
X130490271Y-85969735D01*
X130469737Y-85866503D01*
X130422720Y-85752993D01*
X130409397Y-85720827D01*
X130409390Y-85720814D01*
X130321789Y-85589711D01*
X130321786Y-85589707D01*
X130210292Y-85478213D01*
X130210288Y-85478210D01*
X130079185Y-85390609D01*
X130079172Y-85390602D01*
X129933501Y-85330264D01*
X129933489Y-85330261D01*
X129778845Y-85299500D01*
X129778842Y-85299500D01*
X129621158Y-85299500D01*
X129621155Y-85299500D01*
X129466510Y-85330261D01*
X129466498Y-85330264D01*
X129320827Y-85390602D01*
X129320814Y-85390609D01*
X129189711Y-85478210D01*
X129189707Y-85478213D01*
X129078213Y-85589707D01*
X129078210Y-85589711D01*
X128990609Y-85720814D01*
X128990602Y-85720827D01*
X128930264Y-85866498D01*
X128930261Y-85866510D01*
X128899500Y-86021153D01*
X112600500Y-86021153D01*
X112600500Y-85121153D01*
X131499500Y-85121153D01*
X131499500Y-85278846D01*
X131530261Y-85433489D01*
X131530264Y-85433501D01*
X131590602Y-85579172D01*
X131590609Y-85579185D01*
X131678210Y-85710288D01*
X131678213Y-85710292D01*
X131789707Y-85821786D01*
X131789711Y-85821789D01*
X131920814Y-85909390D01*
X131920827Y-85909397D01*
X132066498Y-85969735D01*
X132066503Y-85969737D01*
X132221153Y-86000499D01*
X132221156Y-86000500D01*
X132221158Y-86000500D01*
X132378844Y-86000500D01*
X132378845Y-86000499D01*
X132533497Y-85969737D01*
X132679179Y-85909394D01*
X132810289Y-85821789D01*
X132921789Y-85710289D01*
X133009394Y-85579179D01*
X133069737Y-85433497D01*
X133100500Y-85278842D01*
X133100500Y-85121158D01*
X133100500Y-85121155D01*
X133100499Y-85121153D01*
X133069738Y-84966510D01*
X133069737Y-84966503D01*
X133022491Y-84852439D01*
X133009397Y-84820827D01*
X133009390Y-84820814D01*
X132921790Y-84689712D01*
X132921784Y-84689705D01*
X132853232Y-84621153D01*
X149599500Y-84621153D01*
X149599500Y-84778846D01*
X149630261Y-84933489D01*
X149630264Y-84933501D01*
X149690602Y-85079172D01*
X149690609Y-85079185D01*
X149778210Y-85210288D01*
X149778213Y-85210292D01*
X149889707Y-85321786D01*
X149889711Y-85321789D01*
X150020814Y-85409390D01*
X150020827Y-85409397D01*
X150166498Y-85469735D01*
X150166503Y-85469737D01*
X150321153Y-85500499D01*
X150321156Y-85500500D01*
X150321158Y-85500500D01*
X150478844Y-85500500D01*
X150478845Y-85500499D01*
X150633497Y-85469737D01*
X150779179Y-85409394D01*
X150842616Y-85367007D01*
X150874386Y-85345779D01*
X150897605Y-85330264D01*
X150910289Y-85321789D01*
X151021789Y-85210289D01*
X151109394Y-85079179D01*
X151169737Y-84933497D01*
X151200500Y-84778842D01*
X151200500Y-84621158D01*
X151200500Y-84621155D01*
X151200499Y-84621153D01*
X151179619Y-84516178D01*
X151169738Y-84466508D01*
X151169737Y-84466507D01*
X151169737Y-84466503D01*
X151157498Y-84436956D01*
X151109397Y-84320827D01*
X151109390Y-84320814D01*
X151021789Y-84189711D01*
X151021786Y-84189707D01*
X150910292Y-84078213D01*
X150910288Y-84078210D01*
X150779185Y-83990609D01*
X150779172Y-83990602D01*
X150633501Y-83930264D01*
X150633489Y-83930261D01*
X150478845Y-83899500D01*
X150478842Y-83899500D01*
X150321158Y-83899500D01*
X150321155Y-83899500D01*
X150166510Y-83930261D01*
X150166498Y-83930264D01*
X150020827Y-83990602D01*
X150020814Y-83990609D01*
X149889711Y-84078210D01*
X149889707Y-84078213D01*
X149778213Y-84189707D01*
X149778210Y-84189711D01*
X149690609Y-84320814D01*
X149690602Y-84320827D01*
X149630264Y-84466498D01*
X149630261Y-84466510D01*
X149599500Y-84621153D01*
X132853232Y-84621153D01*
X132810292Y-84578213D01*
X132810288Y-84578210D01*
X132679185Y-84490609D01*
X132679172Y-84490602D01*
X132533501Y-84430264D01*
X132533489Y-84430261D01*
X132378845Y-84399500D01*
X132378842Y-84399500D01*
X132221158Y-84399500D01*
X132221155Y-84399500D01*
X132066510Y-84430261D01*
X132066498Y-84430264D01*
X131920827Y-84490602D01*
X131920814Y-84490609D01*
X131789711Y-84578210D01*
X131789707Y-84578213D01*
X131678213Y-84689707D01*
X131678210Y-84689711D01*
X131590609Y-84820814D01*
X131590602Y-84820827D01*
X131530264Y-84966498D01*
X131530261Y-84966510D01*
X131499500Y-85121153D01*
X112600500Y-85121153D01*
X112600500Y-81036504D01*
X117230000Y-81036504D01*
X117230000Y-81435000D01*
X117930000Y-81435000D01*
X117930000Y-81935000D01*
X117230000Y-81935000D01*
X117230000Y-82333495D01*
X117268427Y-82526681D01*
X117268430Y-82526693D01*
X117343807Y-82708671D01*
X117343814Y-82708684D01*
X117453248Y-82872462D01*
X117453251Y-82872466D01*
X117592533Y-83011748D01*
X117592537Y-83011751D01*
X117756315Y-83121185D01*
X117756328Y-83121192D01*
X117938308Y-83196569D01*
X117980000Y-83204862D01*
X117980000Y-82401988D01*
X117989940Y-82419205D01*
X118045795Y-82475060D01*
X118114204Y-82514556D01*
X118190504Y-82535000D01*
X118269496Y-82535000D01*
X118345796Y-82514556D01*
X118414205Y-82475060D01*
X118470060Y-82419205D01*
X118480000Y-82401988D01*
X118480000Y-83204863D01*
X118503957Y-83224525D01*
X118543290Y-83282272D01*
X118545159Y-83352116D01*
X118528393Y-83389267D01*
X118490608Y-83445816D01*
X118490602Y-83445827D01*
X118430264Y-83591498D01*
X118430261Y-83591510D01*
X118399500Y-83746153D01*
X118399500Y-83903846D01*
X118430261Y-84058489D01*
X118430264Y-84058501D01*
X118490602Y-84204172D01*
X118490609Y-84204185D01*
X118578210Y-84335288D01*
X118578213Y-84335292D01*
X118689707Y-84446786D01*
X118689711Y-84446789D01*
X118820814Y-84534390D01*
X118820827Y-84534397D01*
X118926603Y-84578210D01*
X118966503Y-84594737D01*
X119114271Y-84624130D01*
X119121153Y-84625499D01*
X119121156Y-84625500D01*
X119121158Y-84625500D01*
X119278844Y-84625500D01*
X119278845Y-84625499D01*
X119433497Y-84594737D01*
X119579179Y-84534394D01*
X119693759Y-84457833D01*
X119760436Y-84436956D01*
X119810102Y-84446374D01*
X119866503Y-84469737D01*
X120021153Y-84500499D01*
X120021156Y-84500500D01*
X120021158Y-84500500D01*
X120178844Y-84500500D01*
X120178845Y-84500499D01*
X120333497Y-84469737D01*
X120479179Y-84409394D01*
X120610289Y-84321789D01*
X120721789Y-84210289D01*
X120809394Y-84079179D01*
X120869737Y-83933497D01*
X120900500Y-83778842D01*
X120900500Y-83744784D01*
X124797748Y-83744784D01*
X124797748Y-83902477D01*
X124828509Y-84057120D01*
X124828512Y-84057132D01*
X124888850Y-84202803D01*
X124888857Y-84202816D01*
X124976458Y-84333919D01*
X124976461Y-84333923D01*
X125087955Y-84445417D01*
X125087959Y-84445420D01*
X125219062Y-84533021D01*
X125219075Y-84533028D01*
X125328156Y-84578210D01*
X125364751Y-84593368D01*
X125504435Y-84621153D01*
X125519401Y-84624130D01*
X125519404Y-84624131D01*
X125519406Y-84624131D01*
X125677092Y-84624131D01*
X125677093Y-84624130D01*
X125831745Y-84593368D01*
X125977427Y-84533025D01*
X126108537Y-84445420D01*
X126220037Y-84333920D01*
X126307642Y-84202810D01*
X126367985Y-84057128D01*
X126398748Y-83902473D01*
X126398748Y-83744789D01*
X126398748Y-83744786D01*
X126398747Y-83744784D01*
X126374156Y-83621158D01*
X126367985Y-83590134D01*
X126308212Y-83445827D01*
X126307645Y-83444458D01*
X126307638Y-83444445D01*
X126220037Y-83313342D01*
X126220034Y-83313338D01*
X126180972Y-83274276D01*
X126180966Y-83274271D01*
X126108537Y-83201842D01*
X126003757Y-83131830D01*
X126003747Y-83131822D01*
X125977433Y-83114240D01*
X125977420Y-83114233D01*
X125831749Y-83053895D01*
X125831737Y-83053892D01*
X125677093Y-83023131D01*
X125677090Y-83023131D01*
X125519406Y-83023131D01*
X125519403Y-83023131D01*
X125364758Y-83053892D01*
X125364746Y-83053895D01*
X125219075Y-83114233D01*
X125219062Y-83114240D01*
X125087959Y-83201841D01*
X125087955Y-83201844D01*
X124976461Y-83313338D01*
X124976458Y-83313342D01*
X124888857Y-83444445D01*
X124888850Y-83444458D01*
X124828512Y-83590129D01*
X124828509Y-83590141D01*
X124797748Y-83744784D01*
X120900500Y-83744784D01*
X120900500Y-83621158D01*
X120900500Y-83621155D01*
X120900499Y-83621153D01*
X120880734Y-83521789D01*
X120869737Y-83466503D01*
X120822357Y-83352116D01*
X120809397Y-83320827D01*
X120809390Y-83320814D01*
X120721789Y-83189711D01*
X120721786Y-83189707D01*
X120610292Y-83078213D01*
X120610288Y-83078210D01*
X120479185Y-82990609D01*
X120479172Y-82990602D01*
X120333501Y-82930264D01*
X120333489Y-82930261D01*
X120178845Y-82899500D01*
X120178842Y-82899500D01*
X120021158Y-82899500D01*
X120021155Y-82899500D01*
X119866510Y-82930261D01*
X119866498Y-82930264D01*
X119720827Y-82990602D01*
X119720814Y-82990609D01*
X119606241Y-83067165D01*
X119539563Y-83088043D01*
X119489899Y-83078625D01*
X119460626Y-83066500D01*
X119433497Y-83055263D01*
X119433493Y-83055262D01*
X119433489Y-83055261D01*
X119278845Y-83024500D01*
X119278842Y-83024500D01*
X119137151Y-83024500D01*
X119070112Y-83004815D01*
X119024357Y-82952011D01*
X119014413Y-82882853D01*
X119034049Y-82831609D01*
X119116185Y-82708684D01*
X119116192Y-82708671D01*
X119191569Y-82526693D01*
X119191572Y-82526681D01*
X119229999Y-82333495D01*
X119230000Y-82333492D01*
X119230000Y-81935000D01*
X118530000Y-81935000D01*
X118530000Y-81435000D01*
X119085536Y-81435000D01*
X119152575Y-81454685D01*
X119192923Y-81497000D01*
X119199482Y-81508361D01*
X119199484Y-81508364D01*
X119199485Y-81508365D01*
X119306635Y-81615515D01*
X119437865Y-81691281D01*
X119584234Y-81730500D01*
X119584236Y-81730500D01*
X119735764Y-81730500D01*
X119735766Y-81730500D01*
X119882135Y-81691281D01*
X120013365Y-81615515D01*
X120120515Y-81508365D01*
X120196281Y-81377135D01*
X120235500Y-81230766D01*
X120235500Y-81079234D01*
X124864500Y-81079234D01*
X124864500Y-81230766D01*
X124877213Y-81278211D01*
X124903719Y-81377136D01*
X124941602Y-81442750D01*
X124979485Y-81508365D01*
X125086635Y-81615515D01*
X125217865Y-81691281D01*
X125364234Y-81730500D01*
X125364236Y-81730500D01*
X125515764Y-81730500D01*
X125515766Y-81730500D01*
X125662135Y-81691281D01*
X125793365Y-81615515D01*
X125900515Y-81508365D01*
X125907077Y-81497000D01*
X125957644Y-81448784D01*
X126014464Y-81435000D01*
X126570000Y-81435000D01*
X126570000Y-81935000D01*
X125870000Y-81935000D01*
X125870000Y-82333495D01*
X125908427Y-82526681D01*
X125908430Y-82526693D01*
X125983807Y-82708671D01*
X125983814Y-82708684D01*
X126093248Y-82872462D01*
X126093251Y-82872466D01*
X126159108Y-82938323D01*
X126398692Y-83122171D01*
X126578308Y-83196569D01*
X126620000Y-83204862D01*
X126620000Y-82401988D01*
X126629940Y-82419205D01*
X126685795Y-82475060D01*
X126754204Y-82514556D01*
X126830504Y-82535000D01*
X126909496Y-82535000D01*
X126985796Y-82514556D01*
X127054205Y-82475060D01*
X127110060Y-82419205D01*
X127120000Y-82401988D01*
X127120000Y-83204862D01*
X127161690Y-83196569D01*
X127161692Y-83196569D01*
X127343671Y-83121192D01*
X127343684Y-83121185D01*
X127507462Y-83011751D01*
X127507466Y-83011748D01*
X127646748Y-82872466D01*
X127646751Y-82872462D01*
X127681035Y-82821153D01*
X135899500Y-82821153D01*
X135899500Y-82978846D01*
X135930261Y-83133489D01*
X135930264Y-83133501D01*
X135990602Y-83279172D01*
X135990609Y-83279185D01*
X136078210Y-83410288D01*
X136078213Y-83410292D01*
X136189707Y-83521786D01*
X136189711Y-83521789D01*
X136320814Y-83609390D01*
X136320827Y-83609397D01*
X136466498Y-83669735D01*
X136466503Y-83669737D01*
X136621153Y-83700499D01*
X136621156Y-83700500D01*
X136621158Y-83700500D01*
X136778844Y-83700500D01*
X136778845Y-83700499D01*
X136933497Y-83669737D01*
X137079179Y-83609394D01*
X137210289Y-83521789D01*
X137321789Y-83410289D01*
X137409394Y-83279179D01*
X137469737Y-83133497D01*
X137500500Y-82978842D01*
X137500500Y-82821158D01*
X137500500Y-82821155D01*
X137500499Y-82821153D01*
X137469738Y-82666510D01*
X137469737Y-82666503D01*
X137446080Y-82609390D01*
X137409397Y-82520827D01*
X137409390Y-82520814D01*
X137321789Y-82389711D01*
X137321786Y-82389707D01*
X137210292Y-82278213D01*
X137210288Y-82278210D01*
X137079185Y-82190609D01*
X137079172Y-82190602D01*
X136933501Y-82130264D01*
X136933489Y-82130261D01*
X136778845Y-82099500D01*
X136778842Y-82099500D01*
X136621158Y-82099500D01*
X136621155Y-82099500D01*
X136466510Y-82130261D01*
X136466498Y-82130264D01*
X136320827Y-82190602D01*
X136320814Y-82190609D01*
X136189711Y-82278210D01*
X136189707Y-82278213D01*
X136078213Y-82389707D01*
X136078210Y-82389711D01*
X135990609Y-82520814D01*
X135990602Y-82520827D01*
X135930264Y-82666498D01*
X135930261Y-82666510D01*
X135899500Y-82821153D01*
X127681035Y-82821153D01*
X127731135Y-82746175D01*
X127756185Y-82708684D01*
X127756192Y-82708671D01*
X127831569Y-82526693D01*
X127831572Y-82526681D01*
X127869999Y-82333495D01*
X127870000Y-82333492D01*
X127870000Y-81935000D01*
X127170000Y-81935000D01*
X127170000Y-81821153D01*
X140199500Y-81821153D01*
X140199500Y-81978846D01*
X140230261Y-82133489D01*
X140230264Y-82133501D01*
X140290602Y-82279172D01*
X140290609Y-82279185D01*
X140378210Y-82410288D01*
X140378213Y-82410292D01*
X140489707Y-82521786D01*
X140489711Y-82521789D01*
X140620814Y-82609390D01*
X140620827Y-82609397D01*
X140758683Y-82666498D01*
X140766503Y-82669737D01*
X140921153Y-82700499D01*
X140921156Y-82700500D01*
X140921158Y-82700500D01*
X141078844Y-82700500D01*
X141078845Y-82700499D01*
X141233497Y-82669737D01*
X141379179Y-82609394D01*
X141510289Y-82521789D01*
X141512312Y-82519766D01*
X141513634Y-82519043D01*
X141514999Y-82517924D01*
X141515211Y-82518182D01*
X141573632Y-82486276D01*
X141643324Y-82491255D01*
X141684939Y-82517999D01*
X141685001Y-82517924D01*
X141685648Y-82518454D01*
X141687688Y-82519766D01*
X141689711Y-82521789D01*
X141820814Y-82609390D01*
X141820827Y-82609397D01*
X141958683Y-82666498D01*
X141966503Y-82669737D01*
X142121153Y-82700499D01*
X142121156Y-82700500D01*
X142121158Y-82700500D01*
X142278844Y-82700500D01*
X142278845Y-82700499D01*
X142433497Y-82669737D01*
X142579179Y-82609394D01*
X142710289Y-82521789D01*
X142821789Y-82410289D01*
X142909394Y-82279179D01*
X142969737Y-82133497D01*
X143000500Y-81978842D01*
X143000500Y-81821158D01*
X143000500Y-81821155D01*
X143000499Y-81821153D01*
X142982467Y-81730500D01*
X142969737Y-81666503D01*
X142942398Y-81600500D01*
X142909397Y-81520827D01*
X142909390Y-81520814D01*
X142821789Y-81389711D01*
X142821786Y-81389707D01*
X142710292Y-81278213D01*
X142710288Y-81278210D01*
X142579185Y-81190609D01*
X142579172Y-81190602D01*
X142433501Y-81130264D01*
X142433489Y-81130261D01*
X142278845Y-81099500D01*
X142278842Y-81099500D01*
X142121158Y-81099500D01*
X142121155Y-81099500D01*
X141966510Y-81130261D01*
X141966498Y-81130264D01*
X141820827Y-81190602D01*
X141820814Y-81190609D01*
X141689711Y-81278210D01*
X141689707Y-81278213D01*
X141687681Y-81280240D01*
X141686357Y-81280962D01*
X141685001Y-81282076D01*
X141684789Y-81281818D01*
X141626358Y-81313725D01*
X141556666Y-81308741D01*
X141515060Y-81282001D01*
X141514999Y-81282076D01*
X141514360Y-81281552D01*
X141512319Y-81280240D01*
X141510292Y-81278213D01*
X141510288Y-81278210D01*
X141379185Y-81190609D01*
X141379172Y-81190602D01*
X141233501Y-81130264D01*
X141233489Y-81130261D01*
X141078845Y-81099500D01*
X141078842Y-81099500D01*
X140921158Y-81099500D01*
X140921155Y-81099500D01*
X140766510Y-81130261D01*
X140766498Y-81130264D01*
X140620827Y-81190602D01*
X140620814Y-81190609D01*
X140489711Y-81278210D01*
X140489707Y-81278213D01*
X140378213Y-81389707D01*
X140378210Y-81389711D01*
X140290609Y-81520814D01*
X140290602Y-81520827D01*
X140230264Y-81666498D01*
X140230261Y-81666510D01*
X140199500Y-81821153D01*
X127170000Y-81821153D01*
X127170000Y-81435000D01*
X127870000Y-81435000D01*
X127870000Y-81036508D01*
X127869999Y-81036504D01*
X127831572Y-80843318D01*
X127831569Y-80843306D01*
X127798106Y-80762518D01*
X127780972Y-80721153D01*
X144599500Y-80721153D01*
X144599500Y-80878846D01*
X144630261Y-81033489D01*
X144630264Y-81033501D01*
X144690602Y-81179172D01*
X144690609Y-81179185D01*
X144778210Y-81310288D01*
X144778213Y-81310292D01*
X144889707Y-81421786D01*
X144889711Y-81421789D01*
X145020814Y-81509390D01*
X145020827Y-81509397D01*
X145166498Y-81569735D01*
X145166503Y-81569737D01*
X145321153Y-81600499D01*
X145321156Y-81600500D01*
X145321158Y-81600500D01*
X145478844Y-81600500D01*
X145478845Y-81600499D01*
X145633497Y-81569737D01*
X145751592Y-81520821D01*
X145779172Y-81509397D01*
X145779172Y-81509396D01*
X145779179Y-81509394D01*
X145910289Y-81421789D01*
X146021789Y-81310289D01*
X146109394Y-81179179D01*
X146169737Y-81033497D01*
X146200500Y-80878842D01*
X146200500Y-80721158D01*
X146200500Y-80721155D01*
X146200499Y-80721153D01*
X146189605Y-80666387D01*
X146169737Y-80566503D01*
X146141169Y-80497533D01*
X146109397Y-80420827D01*
X146109390Y-80420814D01*
X146021789Y-80289711D01*
X146021786Y-80289707D01*
X145910292Y-80178213D01*
X145910288Y-80178210D01*
X145779185Y-80090609D01*
X145779172Y-80090602D01*
X145633501Y-80030264D01*
X145633489Y-80030261D01*
X145478845Y-79999500D01*
X145478842Y-79999500D01*
X145321158Y-79999500D01*
X145321155Y-79999500D01*
X145166510Y-80030261D01*
X145166498Y-80030264D01*
X145020827Y-80090602D01*
X145020814Y-80090609D01*
X144889711Y-80178210D01*
X144889707Y-80178213D01*
X144778213Y-80289707D01*
X144778210Y-80289711D01*
X144690609Y-80420814D01*
X144690602Y-80420827D01*
X144630264Y-80566498D01*
X144630261Y-80566510D01*
X144599500Y-80721153D01*
X127780972Y-80721153D01*
X127756192Y-80661328D01*
X127756185Y-80661315D01*
X127646751Y-80497537D01*
X127646748Y-80497533D01*
X127507466Y-80358251D01*
X127507462Y-80358248D01*
X127343684Y-80248814D01*
X127343671Y-80248807D01*
X127161691Y-80173429D01*
X127161683Y-80173427D01*
X127120000Y-80165135D01*
X127120000Y-80968011D01*
X127110060Y-80950795D01*
X127054205Y-80894940D01*
X126985796Y-80855444D01*
X126909496Y-80835000D01*
X126830504Y-80835000D01*
X126754204Y-80855444D01*
X126685795Y-80894940D01*
X126629940Y-80950795D01*
X126620000Y-80968011D01*
X126620000Y-80165136D01*
X126619999Y-80165135D01*
X126578316Y-80173427D01*
X126578308Y-80173429D01*
X126396328Y-80248807D01*
X126396315Y-80248814D01*
X126232537Y-80358248D01*
X126232533Y-80358251D01*
X126093248Y-80497536D01*
X125980427Y-80666387D01*
X125979003Y-80665435D01*
X125935742Y-80709451D01*
X125867600Y-80724892D01*
X125801927Y-80701041D01*
X125799907Y-80699306D01*
X125799811Y-80699432D01*
X125793367Y-80694487D01*
X125793365Y-80694485D01*
X125727750Y-80656602D01*
X125662136Y-80618719D01*
X125588950Y-80599109D01*
X125515766Y-80579500D01*
X125364234Y-80579500D01*
X125217863Y-80618719D01*
X125086635Y-80694485D01*
X125086632Y-80694487D01*
X124979487Y-80801632D01*
X124979485Y-80801635D01*
X124903719Y-80932863D01*
X124880585Y-81019204D01*
X124864500Y-81079234D01*
X120235500Y-81079234D01*
X120196281Y-80932865D01*
X120120515Y-80801635D01*
X120013365Y-80694485D01*
X119947750Y-80656602D01*
X119882136Y-80618719D01*
X119808950Y-80599109D01*
X119735766Y-80579500D01*
X119584234Y-80579500D01*
X119437863Y-80618719D01*
X119306635Y-80694485D01*
X119300189Y-80699432D01*
X119298099Y-80696709D01*
X119250217Y-80722466D01*
X119180558Y-80717043D01*
X119124888Y-80674821D01*
X119119299Y-80665976D01*
X119006751Y-80497537D01*
X119006748Y-80497533D01*
X118867466Y-80358251D01*
X118867462Y-80358248D01*
X118703684Y-80248814D01*
X118703671Y-80248807D01*
X118521691Y-80173429D01*
X118521683Y-80173427D01*
X118480000Y-80165135D01*
X118480000Y-80968011D01*
X118470060Y-80950795D01*
X118414205Y-80894940D01*
X118345796Y-80855444D01*
X118269496Y-80835000D01*
X118190504Y-80835000D01*
X118114204Y-80855444D01*
X118045795Y-80894940D01*
X117989940Y-80950795D01*
X117980000Y-80968011D01*
X117980000Y-80165136D01*
X117979999Y-80165135D01*
X117938316Y-80173427D01*
X117938308Y-80173429D01*
X117756328Y-80248807D01*
X117756315Y-80248814D01*
X117592537Y-80358248D01*
X117592533Y-80358251D01*
X117453251Y-80497533D01*
X117453248Y-80497537D01*
X117343814Y-80661315D01*
X117343807Y-80661328D01*
X117268430Y-80843306D01*
X117268427Y-80843318D01*
X117230000Y-81036504D01*
X112600500Y-81036504D01*
X112600500Y-77106504D01*
X117230000Y-77106504D01*
X117230000Y-77255000D01*
X117930000Y-77255000D01*
X117930000Y-77755000D01*
X117230000Y-77755000D01*
X117230000Y-77903495D01*
X117268427Y-78096681D01*
X117268430Y-78096693D01*
X117343807Y-78278671D01*
X117343814Y-78278684D01*
X117453248Y-78442462D01*
X117453251Y-78442466D01*
X117592533Y-78581748D01*
X117592537Y-78581751D01*
X117756315Y-78691185D01*
X117756328Y-78691192D01*
X117938308Y-78766569D01*
X117980000Y-78774862D01*
X117980000Y-77971988D01*
X117989940Y-77989205D01*
X118045795Y-78045060D01*
X118114204Y-78084556D01*
X118190504Y-78105000D01*
X118269496Y-78105000D01*
X118345796Y-78084556D01*
X118414205Y-78045060D01*
X118470060Y-77989205D01*
X118480000Y-77971988D01*
X118480000Y-78774862D01*
X118521690Y-78766569D01*
X118521692Y-78766569D01*
X118703671Y-78691192D01*
X118703684Y-78691185D01*
X118867462Y-78581751D01*
X118867466Y-78581748D01*
X119006748Y-78442466D01*
X119006751Y-78442462D01*
X119116185Y-78278684D01*
X119116192Y-78278671D01*
X119191569Y-78096693D01*
X119191572Y-78096681D01*
X119229999Y-77903495D01*
X119230000Y-77903492D01*
X119230000Y-77755000D01*
X118530000Y-77755000D01*
X118530000Y-77255000D01*
X119230000Y-77255000D01*
X119230000Y-77106508D01*
X119229999Y-77106504D01*
X125870000Y-77106504D01*
X125870000Y-77255000D01*
X126570000Y-77255000D01*
X126570000Y-77755000D01*
X125870000Y-77755000D01*
X125870000Y-77903495D01*
X125908427Y-78096681D01*
X125908430Y-78096693D01*
X125983807Y-78278671D01*
X125983814Y-78278684D01*
X126093248Y-78442462D01*
X126093251Y-78442466D01*
X126232533Y-78581748D01*
X126232537Y-78581751D01*
X126396315Y-78691185D01*
X126396328Y-78691192D01*
X126578308Y-78766569D01*
X126620000Y-78774862D01*
X126620000Y-77971988D01*
X126629940Y-77989205D01*
X126685795Y-78045060D01*
X126754204Y-78084556D01*
X126830504Y-78105000D01*
X126909496Y-78105000D01*
X126985796Y-78084556D01*
X127054205Y-78045060D01*
X127110060Y-77989205D01*
X127120000Y-77971988D01*
X127120000Y-78774862D01*
X127161690Y-78766569D01*
X127161692Y-78766569D01*
X127271338Y-78721153D01*
X137899500Y-78721153D01*
X137899500Y-78878846D01*
X137930261Y-79033489D01*
X137930264Y-79033501D01*
X137990602Y-79179172D01*
X137990609Y-79179185D01*
X138078210Y-79310288D01*
X138078213Y-79310292D01*
X138189707Y-79421786D01*
X138189711Y-79421789D01*
X138320814Y-79509390D01*
X138320827Y-79509397D01*
X138466498Y-79569735D01*
X138466503Y-79569737D01*
X138621153Y-79600499D01*
X138621156Y-79600500D01*
X138621158Y-79600500D01*
X138778844Y-79600500D01*
X138778845Y-79600499D01*
X138933497Y-79569737D01*
X139079179Y-79509394D01*
X139210289Y-79421789D01*
X139321789Y-79310289D01*
X139409394Y-79179179D01*
X139469737Y-79033497D01*
X139500500Y-78878842D01*
X139500500Y-78721158D01*
X139500500Y-78721155D01*
X139500499Y-78721153D01*
X139469738Y-78566510D01*
X139469737Y-78566503D01*
X139418358Y-78442462D01*
X139409397Y-78420827D01*
X139409390Y-78420814D01*
X139321789Y-78289711D01*
X139321786Y-78289707D01*
X139210292Y-78178213D01*
X139210288Y-78178210D01*
X139079185Y-78090609D01*
X139079172Y-78090602D01*
X138933501Y-78030264D01*
X138933489Y-78030261D01*
X138778845Y-77999500D01*
X138778842Y-77999500D01*
X138621158Y-77999500D01*
X138621155Y-77999500D01*
X138466510Y-78030261D01*
X138466498Y-78030264D01*
X138320827Y-78090602D01*
X138320814Y-78090609D01*
X138189711Y-78178210D01*
X138189707Y-78178213D01*
X138078213Y-78289707D01*
X138078210Y-78289711D01*
X137990609Y-78420814D01*
X137990602Y-78420827D01*
X137930264Y-78566498D01*
X137930261Y-78566510D01*
X137899500Y-78721153D01*
X127271338Y-78721153D01*
X127343671Y-78691192D01*
X127343684Y-78691185D01*
X127462247Y-78611964D01*
X127507462Y-78581751D01*
X127507466Y-78581748D01*
X127646748Y-78442466D01*
X127646751Y-78442462D01*
X127756185Y-78278684D01*
X127756192Y-78278671D01*
X127831569Y-78096693D01*
X127831572Y-78096681D01*
X127869999Y-77903495D01*
X127870000Y-77903492D01*
X127870000Y-77755000D01*
X127170000Y-77755000D01*
X127170000Y-77521153D01*
X143099500Y-77521153D01*
X143099500Y-77678846D01*
X143130261Y-77833489D01*
X143130264Y-77833501D01*
X143190602Y-77979172D01*
X143190609Y-77979185D01*
X143278210Y-78110288D01*
X143278213Y-78110292D01*
X143389707Y-78221786D01*
X143389711Y-78221789D01*
X143520814Y-78309390D01*
X143520827Y-78309397D01*
X143666498Y-78369735D01*
X143666503Y-78369737D01*
X143821153Y-78400499D01*
X143821156Y-78400500D01*
X143821158Y-78400500D01*
X143978844Y-78400500D01*
X143978845Y-78400499D01*
X144133497Y-78369737D01*
X144279179Y-78309394D01*
X144410289Y-78221789D01*
X144521789Y-78110289D01*
X144609394Y-77979179D01*
X144669737Y-77833497D01*
X144700500Y-77678842D01*
X144700500Y-77521158D01*
X144700500Y-77521155D01*
X144700499Y-77521153D01*
X144678447Y-77410292D01*
X144669737Y-77366503D01*
X144633569Y-77279185D01*
X144609397Y-77220827D01*
X144609390Y-77220814D01*
X144521789Y-77089711D01*
X144521786Y-77089707D01*
X144410292Y-76978213D01*
X144410288Y-76978210D01*
X144320429Y-76918168D01*
X144279185Y-76890609D01*
X144279172Y-76890602D01*
X144133501Y-76830264D01*
X144133489Y-76830261D01*
X144087701Y-76821153D01*
X152399500Y-76821153D01*
X152399500Y-76978846D01*
X152430261Y-77133489D01*
X152430264Y-77133501D01*
X152490602Y-77279172D01*
X152490609Y-77279185D01*
X152578210Y-77410288D01*
X152578213Y-77410292D01*
X152689707Y-77521786D01*
X152689711Y-77521789D01*
X152820814Y-77609390D01*
X152820827Y-77609397D01*
X152966498Y-77669735D01*
X152966503Y-77669737D01*
X153121153Y-77700499D01*
X153121156Y-77700500D01*
X153121158Y-77700500D01*
X153278844Y-77700500D01*
X153278845Y-77700499D01*
X153433497Y-77669737D01*
X153579179Y-77609394D01*
X153710289Y-77521789D01*
X153821789Y-77410289D01*
X153909394Y-77279179D01*
X153969737Y-77133497D01*
X154000500Y-76978842D01*
X154000500Y-76821158D01*
X154000500Y-76821155D01*
X154000499Y-76821153D01*
X153996192Y-76799500D01*
X153969737Y-76666503D01*
X153969735Y-76666498D01*
X153909397Y-76520827D01*
X153909390Y-76520814D01*
X153821789Y-76389711D01*
X153821786Y-76389707D01*
X153710292Y-76278213D01*
X153710288Y-76278210D01*
X153579185Y-76190609D01*
X153579172Y-76190602D01*
X153433501Y-76130264D01*
X153433489Y-76130261D01*
X153278845Y-76099500D01*
X153278842Y-76099500D01*
X153121158Y-76099500D01*
X153121155Y-76099500D01*
X152966510Y-76130261D01*
X152966498Y-76130264D01*
X152820827Y-76190602D01*
X152820814Y-76190609D01*
X152689711Y-76278210D01*
X152689707Y-76278213D01*
X152578213Y-76389707D01*
X152578210Y-76389711D01*
X152490609Y-76520814D01*
X152490602Y-76520827D01*
X152430264Y-76666498D01*
X152430261Y-76666510D01*
X152399500Y-76821153D01*
X144087701Y-76821153D01*
X143978845Y-76799500D01*
X143978842Y-76799500D01*
X143821158Y-76799500D01*
X143821155Y-76799500D01*
X143666510Y-76830261D01*
X143666498Y-76830264D01*
X143520827Y-76890602D01*
X143520814Y-76890609D01*
X143389711Y-76978210D01*
X143389707Y-76978213D01*
X143278213Y-77089707D01*
X143278210Y-77089711D01*
X143190609Y-77220814D01*
X143190602Y-77220827D01*
X143130264Y-77366498D01*
X143130261Y-77366510D01*
X143099500Y-77521153D01*
X127170000Y-77521153D01*
X127170000Y-77255000D01*
X127870000Y-77255000D01*
X127870000Y-77106508D01*
X127869999Y-77106504D01*
X127831572Y-76913318D01*
X127831569Y-76913306D01*
X127756192Y-76731328D01*
X127756185Y-76731315D01*
X127646751Y-76567537D01*
X127646748Y-76567533D01*
X127507466Y-76428251D01*
X127507462Y-76428248D01*
X127343684Y-76318814D01*
X127343671Y-76318807D01*
X127161691Y-76243429D01*
X127161683Y-76243427D01*
X127120000Y-76235135D01*
X127120000Y-77038011D01*
X127110060Y-77020795D01*
X127054205Y-76964940D01*
X126985796Y-76925444D01*
X126909496Y-76905000D01*
X126830504Y-76905000D01*
X126754204Y-76925444D01*
X126685795Y-76964940D01*
X126629940Y-77020795D01*
X126620000Y-77038011D01*
X126620000Y-76235136D01*
X126619999Y-76235135D01*
X126578316Y-76243427D01*
X126578308Y-76243429D01*
X126396328Y-76318807D01*
X126396315Y-76318814D01*
X126232537Y-76428248D01*
X126232533Y-76428251D01*
X126093251Y-76567533D01*
X126093248Y-76567537D01*
X125983814Y-76731315D01*
X125983807Y-76731328D01*
X125908430Y-76913306D01*
X125908427Y-76913318D01*
X125870000Y-77106504D01*
X119229999Y-77106504D01*
X119191572Y-76913318D01*
X119191569Y-76913306D01*
X119116192Y-76731328D01*
X119116185Y-76731315D01*
X119006751Y-76567537D01*
X119006748Y-76567533D01*
X118867466Y-76428251D01*
X118867462Y-76428248D01*
X118703684Y-76318814D01*
X118703671Y-76318807D01*
X118521691Y-76243429D01*
X118521683Y-76243427D01*
X118480000Y-76235135D01*
X118480000Y-77038011D01*
X118470060Y-77020795D01*
X118414205Y-76964940D01*
X118345796Y-76925444D01*
X118269496Y-76905000D01*
X118190504Y-76905000D01*
X118114204Y-76925444D01*
X118045795Y-76964940D01*
X117989940Y-77020795D01*
X117980000Y-77038011D01*
X117980000Y-76235136D01*
X117979999Y-76235135D01*
X117938316Y-76243427D01*
X117938308Y-76243429D01*
X117756328Y-76318807D01*
X117756315Y-76318814D01*
X117592537Y-76428248D01*
X117592533Y-76428251D01*
X117453251Y-76567533D01*
X117453248Y-76567537D01*
X117343814Y-76731315D01*
X117343807Y-76731328D01*
X117268430Y-76913306D01*
X117268427Y-76913318D01*
X117230000Y-77106504D01*
X112600500Y-77106504D01*
X112600500Y-74924500D01*
X112620185Y-74857461D01*
X112672989Y-74811706D01*
X112724500Y-74800500D01*
X160675500Y-74800500D01*
X160742539Y-74820185D01*
G37*
%TD.AperFunction*%
%TD*%
M02*
