%TF.GenerationSoftware,KiCad,Pcbnew,10.0.0*%
%TF.CreationDate,2026-04-15T22:08:15-07:00*%
%TF.ProjectId,kbd-nes-v1,6b62642d-6e65-4732-9d76-312e6b696361,rev?*%
%TF.SameCoordinates,Original*%
%TF.FileFunction,Copper,L1,Top*%
%TF.FilePolarity,Positive*%
%FSLAX46Y46*%
G04 Gerber Fmt 4.6, Leading zero omitted, Abs format (unit mm)*
G04 Created by KiCad (PCBNEW 10.0.0) date 2026-04-15 22:08:15*
%MOMM*%
%LPD*%
G01*
G04 APERTURE LIST*
G04 Aperture macros list*
%AMRoundRect*
0 Rectangle with rounded corners*
0 $1 Rounding radius*
0 $2 $3 $4 $5 $6 $7 $8 $9 X,Y pos of 4 corners*
0 Add a 4 corners polygon primitive as box body*
4,1,4,$2,$3,$4,$5,$6,$7,$8,$9,$2,$3,0*
0 Add four circle primitives for the rounded corners*
1,1,$1+$1,$2,$3*
1,1,$1+$1,$4,$5*
1,1,$1+$1,$6,$7*
1,1,$1+$1,$8,$9*
0 Add four rect primitives between the rounded corners*
20,1,$1+$1,$2,$3,$4,$5,0*
20,1,$1+$1,$4,$5,$6,$7,0*
20,1,$1+$1,$6,$7,$8,$9,0*
20,1,$1+$1,$8,$9,$2,$3,0*%
G04 Aperture macros list end*
%TA.AperFunction,SMDPad,CuDef*%
%ADD10R,1.981200X0.558800*%
%TD*%
%TA.AperFunction,ComponentPad*%
%ADD11O,1.000000X1.600000*%
%TD*%
%TA.AperFunction,ComponentPad*%
%ADD12O,1.000000X2.100000*%
%TD*%
%TA.AperFunction,SMDPad,CuDef*%
%ADD13RoundRect,0.150000X0.150000X0.575000X-0.150000X0.575000X-0.150000X-0.575000X0.150000X-0.575000X0*%
%TD*%
%TA.AperFunction,SMDPad,CuDef*%
%ADD14RoundRect,0.075000X0.075000X0.650000X-0.075000X0.650000X-0.075000X-0.650000X0.075000X-0.650000X0*%
%TD*%
%TA.AperFunction,ComponentPad*%
%ADD15O,1.600000X1.000000*%
%TD*%
%TA.AperFunction,ComponentPad*%
%ADD16O,2.100000X1.000000*%
%TD*%
%TA.AperFunction,SMDPad,CuDef*%
%ADD17RoundRect,0.150000X0.575000X-0.150000X0.575000X0.150000X-0.575000X0.150000X-0.575000X-0.150000X0*%
%TD*%
%TA.AperFunction,SMDPad,CuDef*%
%ADD18RoundRect,0.075000X0.650000X-0.075000X0.650000X0.075000X-0.650000X0.075000X-0.650000X-0.075000X0*%
%TD*%
%TA.AperFunction,SMDPad,CuDef*%
%ADD19RoundRect,0.250001X-1.449999X0.499999X-1.449999X-0.499999X1.449999X-0.499999X1.449999X0.499999X0*%
%TD*%
%TA.AperFunction,SMDPad,CuDef*%
%ADD20RoundRect,0.250000X-1.500000X0.250000X-1.500000X-0.250000X1.500000X-0.250000X1.500000X0.250000X0*%
%TD*%
%TA.AperFunction,ConnectorPad*%
%ADD21C,0.787400*%
%TD*%
%TA.AperFunction,HeatsinkPad*%
%ADD22C,0.500000*%
%TD*%
%TA.AperFunction,HeatsinkPad*%
%ADD23R,3.200000X3.200000*%
%TD*%
%TA.AperFunction,SMDPad,CuDef*%
%ADD24RoundRect,0.050000X-0.387500X0.050000X-0.387500X-0.050000X0.387500X-0.050000X0.387500X0.050000X0*%
%TD*%
%TA.AperFunction,SMDPad,CuDef*%
%ADD25RoundRect,0.050000X-0.050000X0.387500X-0.050000X-0.387500X0.050000X-0.387500X0.050000X0.387500X0*%
%TD*%
%TA.AperFunction,SMDPad,CuDef*%
%ADD26RoundRect,0.200000X-0.275000X0.200000X-0.275000X-0.200000X0.275000X-0.200000X0.275000X0.200000X0*%
%TD*%
%TA.AperFunction,SMDPad,CuDef*%
%ADD27RoundRect,0.162500X-0.650000X-0.162500X0.650000X-0.162500X0.650000X0.162500X-0.650000X0.162500X0*%
%TD*%
%TA.AperFunction,SMDPad,CuDef*%
%ADD28RoundRect,0.135000X0.135000X0.185000X-0.135000X0.185000X-0.135000X-0.185000X0.135000X-0.185000X0*%
%TD*%
%TA.AperFunction,SMDPad,CuDef*%
%ADD29RoundRect,0.140000X-0.170000X0.140000X-0.170000X-0.140000X0.170000X-0.140000X0.170000X0.140000X0*%
%TD*%
%TA.AperFunction,SMDPad,CuDef*%
%ADD30RoundRect,0.140000X0.140000X0.170000X-0.140000X0.170000X-0.140000X-0.170000X0.140000X-0.170000X0*%
%TD*%
%TA.AperFunction,SMDPad,CuDef*%
%ADD31RoundRect,0.135000X0.185000X-0.135000X0.185000X0.135000X-0.185000X0.135000X-0.185000X-0.135000X0*%
%TD*%
%TA.AperFunction,ComponentPad*%
%ADD32R,1.700000X1.700000*%
%TD*%
%TA.AperFunction,ComponentPad*%
%ADD33C,1.700000*%
%TD*%
%TA.AperFunction,SMDPad,CuDef*%
%ADD34RoundRect,0.375000X0.625000X0.375000X-0.625000X0.375000X-0.625000X-0.375000X0.625000X-0.375000X0*%
%TD*%
%TA.AperFunction,SMDPad,CuDef*%
%ADD35RoundRect,0.500000X0.500000X1.400000X-0.500000X1.400000X-0.500000X-1.400000X0.500000X-1.400000X0*%
%TD*%
%TA.AperFunction,SMDPad,CuDef*%
%ADD36RoundRect,0.200000X0.200000X0.275000X-0.200000X0.275000X-0.200000X-0.275000X0.200000X-0.275000X0*%
%TD*%
%TA.AperFunction,SMDPad,CuDef*%
%ADD37RoundRect,0.135000X-0.135000X-0.185000X0.135000X-0.185000X0.135000X0.185000X-0.135000X0.185000X0*%
%TD*%
%TA.AperFunction,SMDPad,CuDef*%
%ADD38RoundRect,0.225000X0.225000X0.250000X-0.225000X0.250000X-0.225000X-0.250000X0.225000X-0.250000X0*%
%TD*%
%TA.AperFunction,SMDPad,CuDef*%
%ADD39RoundRect,0.140000X-0.140000X-0.170000X0.140000X-0.170000X0.140000X0.170000X-0.140000X0.170000X0*%
%TD*%
%TA.AperFunction,SMDPad,CuDef*%
%ADD40RoundRect,0.150000X0.587500X0.150000X-0.587500X0.150000X-0.587500X-0.150000X0.587500X-0.150000X0*%
%TD*%
%TA.AperFunction,SMDPad,CuDef*%
%ADD41RoundRect,0.225000X0.250000X-0.225000X0.250000X0.225000X-0.250000X0.225000X-0.250000X-0.225000X0*%
%TD*%
%TA.AperFunction,SMDPad,CuDef*%
%ADD42RoundRect,0.250000X0.350000X-0.450000X0.350000X0.450000X-0.350000X0.450000X-0.350000X-0.450000X0*%
%TD*%
%TA.AperFunction,SMDPad,CuDef*%
%ADD43RoundRect,0.225000X-0.250000X0.225000X-0.250000X-0.225000X0.250000X-0.225000X0.250000X0.225000X0*%
%TD*%
%TA.AperFunction,SMDPad,CuDef*%
%ADD44RoundRect,0.140000X0.170000X-0.140000X0.170000X0.140000X-0.170000X0.140000X-0.170000X-0.140000X0*%
%TD*%
%TA.AperFunction,SMDPad,CuDef*%
%ADD45RoundRect,0.135000X-0.185000X0.135000X-0.185000X-0.135000X0.185000X-0.135000X0.185000X0.135000X0*%
%TD*%
%TA.AperFunction,ViaPad*%
%ADD46C,0.600000*%
%TD*%
%TA.AperFunction,Conductor*%
%ADD47C,0.500000*%
%TD*%
%TA.AperFunction,Conductor*%
%ADD48C,0.200000*%
%TD*%
G04 APERTURE END LIST*
D10*
%TO.P,U5,1,GND_1*%
%TO.N,GND*%
X145436200Y-75495000D03*
%TO.P,U5,2,IN_2*%
%TO.N,/RP2040 Core/+5V_IN*%
X145436200Y-76765000D03*
%TO.P,U5,3,IN_3*%
X145436200Y-78035000D03*
%TO.P,U5,4,\u002AEN_4*%
%TO.N,/RP2040 Core/HOST_VBUS_EN*%
X145436200Y-79305000D03*
%TO.P,U5,5,\u002AOC_5*%
%TO.N,/RP2040 Core/FAULT_N*%
X150363800Y-79305000D03*
%TO.P,U5,6,OUT_6*%
%TO.N,/USB Keyboard Host/+5V_HOST*%
X150363800Y-78035000D03*
%TO.P,U5,7,OUT_7*%
X150363800Y-76765000D03*
%TO.P,U5,8,OUT_8*%
X150363800Y-75495000D03*
%TD*%
D11*
%TO.P,J3,SH,SHIELD_SH*%
%TO.N,GND*%
X118230000Y-77505000D03*
D12*
X118230000Y-81685000D03*
D11*
X126870000Y-77505000D03*
D12*
X126870000Y-81685000D03*
D13*
%TO.P,J3,B12,GND_B12*%
X125800000Y-82600000D03*
%TO.P,J3,B9,VBUS_B9*%
%TO.N,/RP2040 Core/+5V_IN*%
X125000000Y-82600000D03*
D14*
%TO.P,J3,B8,SBU2_B8*%
%TO.N,unconnected-(J3-SBU2-PadB8)*%
X124300000Y-82600000D03*
%TO.P,J3,B7,D-_B7*%
%TO.N,unconnected-(J3-D--PadB7)*%
X123300000Y-82600000D03*
%TO.P,J3,B6,D+_B6*%
%TO.N,unconnected-(J3-D+-PadB6)*%
X121800000Y-82600000D03*
%TO.P,J3,B5,CC2_B5*%
%TO.N,Net-(J3-CC2)*%
X120800000Y-82600000D03*
D13*
%TO.P,J3,B4,VBUS_B4*%
%TO.N,/RP2040 Core/+5V_IN*%
X120100000Y-82600000D03*
%TO.P,J3,B1,GND_B1*%
%TO.N,GND*%
X119300000Y-82600000D03*
%TO.P,J3,A12,GND_A12*%
X119300000Y-82600000D03*
%TO.P,J3,A9,VBUS_A9*%
%TO.N,/RP2040 Core/+5V_IN*%
X120100000Y-82600000D03*
D14*
%TO.P,J3,A8,SBU1_A8*%
%TO.N,unconnected-(J3-SBU1-PadA8)*%
X121300000Y-82600000D03*
%TO.P,J3,A7,D-_A7*%
%TO.N,unconnected-(J3-D--PadA7)*%
X122300000Y-82600000D03*
%TO.P,J3,A6,D+_A6*%
%TO.N,unconnected-(J3-D+-PadA6)*%
X122800000Y-82600000D03*
%TO.P,J3,A5,CC1_A5*%
%TO.N,Net-(J3-CC1)*%
X123800000Y-82600000D03*
D13*
%TO.P,J3,A4,VBUS_A4*%
%TO.N,/RP2040 Core/+5V_IN*%
X125000000Y-82600000D03*
%TO.P,J3,A1,GND_A1*%
%TO.N,GND*%
X125800000Y-82600000D03*
%TD*%
D15*
%TO.P,J4,SH,SHIELD_SH*%
%TO.N,GND*%
X158050000Y-92180000D03*
D16*
X153870000Y-92180000D03*
D15*
X158050000Y-100820000D03*
D16*
X153870000Y-100820000D03*
D17*
%TO.P,J4,B12,GND_B12*%
X152955000Y-99750000D03*
%TO.P,J4,B9,VBUS_B9*%
%TO.N,/USB Keyboard Host/+5V_HOST*%
X152955000Y-98950000D03*
D18*
%TO.P,J4,B8,SBU2_B8*%
%TO.N,unconnected-(J4-SBU2-PadB8)*%
X152955000Y-98250000D03*
%TO.P,J4,B7,D-_B7*%
%TO.N,/RP2040 Core/USB_DM*%
X152955000Y-97250000D03*
%TO.P,J4,B6,D+_B6*%
%TO.N,/RP2040 Core/USB_DP*%
X152955000Y-95750000D03*
%TO.P,J4,B5,CC2_B5*%
%TO.N,Net-(J4-CC2)*%
X152955000Y-94750000D03*
D17*
%TO.P,J4,B4,VBUS_B4*%
%TO.N,/USB Keyboard Host/+5V_HOST*%
X152955000Y-94050000D03*
%TO.P,J4,B1,GND_B1*%
%TO.N,GND*%
X152955000Y-93250000D03*
%TO.P,J4,A12,GND_A12*%
X152955000Y-93250000D03*
%TO.P,J4,A9,VBUS_A9*%
%TO.N,/USB Keyboard Host/+5V_HOST*%
X152955000Y-94050000D03*
D18*
%TO.P,J4,A8,SBU1_A8*%
%TO.N,unconnected-(J4-SBU1-PadA8)*%
X152955000Y-95250000D03*
%TO.P,J4,A7,D-_A7*%
%TO.N,/RP2040 Core/USB_DM*%
X152955000Y-96250000D03*
%TO.P,J4,A6,D+_A6*%
%TO.N,/RP2040 Core/USB_DP*%
X152955000Y-96750000D03*
%TO.P,J4,A5,CC1_A5*%
%TO.N,Net-(J4-CC1)*%
X152955000Y-97750000D03*
D17*
%TO.P,J4,A4,VBUS_A4*%
%TO.N,/USB Keyboard Host/+5V_HOST*%
X152955000Y-98950000D03*
%TO.P,J4,A1,GND_A1*%
%TO.N,GND*%
X152955000Y-99750000D03*
%TD*%
D19*
%TO.P,J5,MP*%
%TO.N,N/C*%
X114600000Y-102350000D03*
X114600000Y-89650000D03*
D20*
%TO.P,J5,5,Pin_5_5*%
%TO.N,/NES Input Output/NES_DATA*%
X120350000Y-100000000D03*
%TO.P,J5,4,Pin_4_4*%
%TO.N,/NES Input Output/NES_CLOCK_5V*%
X120350000Y-98000000D03*
%TO.P,J5,3,Pin_3_3*%
%TO.N,/NES Input Output/NES_LATCH_5V*%
X120350000Y-96000000D03*
%TO.P,J5,2,Pin_2_2*%
%TO.N,/NES Input Output/NES_5V*%
X120350000Y-94000000D03*
%TO.P,J5,1,Pin_1_1*%
%TO.N,GND*%
X120350000Y-92000000D03*
%TD*%
D21*
%TO.P,J6,6,SWO_6*%
%TO.N,unconnected-(J6-SWO-Pad6)*%
X128330000Y-103735000D03*
%TO.P,J6,5,GND_5*%
%TO.N,GND*%
X128330000Y-102465000D03*
%TO.P,J6,4,SWCLK_4*%
%TO.N,Net-(J6-SWCLK)*%
X129600000Y-103735000D03*
%TO.P,J6,3,~{RESET}_3*%
%TO.N,Net-(J6-~{RESET})*%
X129600000Y-102465000D03*
%TO.P,J6,2,SWDIO_2*%
%TO.N,Net-(J6-SWDIO)*%
X130870000Y-103735000D03*
%TO.P,J6,1,VCC_1*%
%TO.N,+3V3*%
X130870000Y-102465000D03*
%TD*%
D22*
%TO.P,U3,57,GND_57*%
%TO.N,GND*%
X136350000Y-97250000D03*
X139050000Y-97250000D03*
D23*
X137700000Y-95900000D03*
D22*
X136350000Y-94550000D03*
X139050000Y-94550000D03*
D24*
%TO.P,U3,56,QSPI_SS_56*%
%TO.N,/RP2040 Core/QSPI_SS*%
X141137500Y-93300000D03*
%TO.P,U3,55,QSPI_SD1_55*%
%TO.N,/RP2040 Core/QSPI_SD1*%
X141137500Y-93700001D03*
%TO.P,U3,54,QSPI_SD2_54*%
%TO.N,/RP2040 Core/QSPI_SD2*%
X141137500Y-94100000D03*
%TO.P,U3,53,QSPI_SD0_53*%
%TO.N,/RP2040 Core/QSPI_SD0*%
X141137500Y-94500000D03*
%TO.P,U3,52,QSPI_SCLK_52*%
%TO.N,/RP2040 Core/QSPI_SCLK*%
X141137500Y-94900000D03*
%TO.P,U3,51,QSPI_SD3_51*%
%TO.N,/RP2040 Core/QSPI_SD3*%
X141137500Y-95299999D03*
%TO.P,U3,50,DVDD_50*%
%TO.N,+1V1*%
X141137500Y-95700000D03*
%TO.P,U3,49,IOVDD_49*%
%TO.N,+3V3*%
X141137500Y-96100000D03*
%TO.P,U3,48,USB_VDD_48*%
X141137500Y-96500001D03*
%TO.P,U3,47,USB_DP_47*%
%TO.N,Net-(U3-USB_DP)*%
X141137500Y-96900000D03*
%TO.P,U3,46,USB_DM_46*%
%TO.N,Net-(U3-USB_DM)*%
X141137500Y-97300000D03*
%TO.P,U3,45,VREG_VOUT_45*%
%TO.N,+1V1*%
X141137500Y-97700000D03*
%TO.P,U3,44,VREG_IN_44*%
%TO.N,+3V3*%
X141137500Y-98099999D03*
%TO.P,U3,43,ADC_AVDD_43*%
X141137500Y-98500000D03*
D25*
%TO.P,U3,42,IOVDD_42*%
X140300000Y-99337500D03*
%TO.P,U3,41,GPIO29_ADC3_41*%
%TO.N,unconnected-(U3-GPIO29_ADC3-Pad41)*%
X139899999Y-99337500D03*
%TO.P,U3,40,GPIO28_ADC2_40*%
%TO.N,unconnected-(U3-GPIO28_ADC2-Pad40)*%
X139500000Y-99337500D03*
%TO.P,U3,39,GPIO27_ADC1_39*%
%TO.N,unconnected-(U3-GPIO27_ADC1-Pad39)*%
X139100000Y-99337500D03*
%TO.P,U3,38,GPIO26_ADC0_38*%
%TO.N,unconnected-(U3-GPIO26_ADC0-Pad38)*%
X138700000Y-99337500D03*
%TO.P,U3,37,GPIO25_37*%
%TO.N,unconnected-(U3-GPIO25-Pad37)*%
X138300001Y-99337500D03*
%TO.P,U3,36,GPIO24_36*%
%TO.N,unconnected-(U3-GPIO24-Pad36)*%
X137900000Y-99337500D03*
%TO.P,U3,35,GPIO23_35*%
%TO.N,unconnected-(U3-GPIO23-Pad35)*%
X137500000Y-99337500D03*
%TO.P,U3,34,GPIO22_34*%
%TO.N,unconnected-(U3-GPIO22-Pad34)*%
X137099999Y-99337500D03*
%TO.P,U3,33,IOVDD_33*%
%TO.N,+3V3*%
X136700000Y-99337500D03*
%TO.P,U3,32,GPIO21_32*%
%TO.N,unconnected-(U3-GPIO21-Pad32)*%
X136300000Y-99337500D03*
%TO.P,U3,31,GPIO20_31*%
%TO.N,unconnected-(U3-GPIO20-Pad31)*%
X135900000Y-99337500D03*
%TO.P,U3,30,GPIO19_30*%
%TO.N,/NES Input Output/NES_DATA_GPIO*%
X135500001Y-99337500D03*
%TO.P,U3,29,GPIO18_29*%
%TO.N,/NES Input Output/NES_CLOCK_3V3*%
X135100000Y-99337500D03*
D24*
%TO.P,U3,28,GPIO17_28*%
%TO.N,/NES Input Output/NES_LATCH_3V3*%
X134262500Y-98500000D03*
%TO.P,U3,27,GPIO16_27*%
%TO.N,unconnected-(U3-GPIO16-Pad27)*%
X134262500Y-98099999D03*
%TO.P,U3,26,RUN_26*%
%TO.N,Net-(J6-~{RESET})*%
X134262500Y-97700000D03*
%TO.P,U3,25,SWD_25*%
%TO.N,Net-(J6-SWDIO)*%
X134262500Y-97300000D03*
%TO.P,U3,24,SWCLK_24*%
%TO.N,Net-(J6-SWCLK)*%
X134262500Y-96900000D03*
%TO.P,U3,23,DVDD_23*%
%TO.N,+1V1*%
X134262500Y-96500001D03*
%TO.P,U3,22,IOVDD_22*%
%TO.N,+3V3*%
X134262500Y-96100000D03*
%TO.P,U3,21,XOUT_21*%
%TO.N,/RP2040 Core/XOUT*%
X134262500Y-95700000D03*
%TO.P,U3,20,XIN_20*%
%TO.N,/RP2040 Core/XIN*%
X134262500Y-95299999D03*
%TO.P,U3,19,TESTEN_19*%
%TO.N,GND*%
X134262500Y-94900000D03*
%TO.P,U3,18,GPIO15_18*%
%TO.N,unconnected-(U3-GPIO15-Pad18)*%
X134262500Y-94500000D03*
%TO.P,U3,17,GPIO14_17*%
%TO.N,unconnected-(U3-GPIO14-Pad17)*%
X134262500Y-94100000D03*
%TO.P,U3,16,GPIO13_16*%
%TO.N,unconnected-(U3-GPIO13-Pad16)*%
X134262500Y-93700001D03*
%TO.P,U3,15,GPIO12_15*%
%TO.N,unconnected-(U3-GPIO12-Pad15)*%
X134262500Y-93300000D03*
D25*
%TO.P,U3,14,GPIO11_14*%
%TO.N,/RP2040 Core/FAULT_N*%
X135100000Y-92462500D03*
%TO.P,U3,13,GPIO10_13*%
%TO.N,/RP2040 Core/HOST_VBUS_EN*%
X135500001Y-92462500D03*
%TO.P,U3,12,GPIO9_12*%
%TO.N,unconnected-(U3-GPIO9-Pad12)*%
X135900000Y-92462500D03*
%TO.P,U3,11,GPIO8_11*%
%TO.N,unconnected-(U3-GPIO8-Pad11)*%
X136300000Y-92462500D03*
%TO.P,U3,10,IOVDD_10*%
%TO.N,+3V3*%
X136700000Y-92462500D03*
%TO.P,U3,9,GPIO7_9*%
%TO.N,unconnected-(U3-GPIO7-Pad9)*%
X137099999Y-92462500D03*
%TO.P,U3,8,GPIO6_8*%
%TO.N,unconnected-(U3-GPIO6-Pad8)*%
X137500000Y-92462500D03*
%TO.P,U3,7,GPIO5_7*%
%TO.N,unconnected-(U3-GPIO5-Pad7)*%
X137900000Y-92462500D03*
%TO.P,U3,6,GPIO4_6*%
%TO.N,unconnected-(U3-GPIO4-Pad6)*%
X138300001Y-92462500D03*
%TO.P,U3,5,GPIO3_5*%
%TO.N,unconnected-(U3-GPIO3-Pad5)*%
X138700000Y-92462500D03*
%TO.P,U3,4,GPIO2_4*%
%TO.N,unconnected-(U3-GPIO2-Pad4)*%
X139100000Y-92462500D03*
%TO.P,U3,3,GPIO1_3*%
%TO.N,unconnected-(U3-GPIO1-Pad3)*%
X139500000Y-92462500D03*
%TO.P,U3,2,GPIO0_2*%
%TO.N,unconnected-(U3-GPIO0-Pad2)*%
X139899999Y-92462500D03*
%TO.P,U3,1,IOVDD_1*%
%TO.N,+3V3*%
X140300000Y-92462500D03*
%TD*%
D26*
%TO.P,R8,1*%
%TO.N,Net-(J4-CC1)*%
X150400000Y-99050000D03*
%TO.P,R8,2*%
%TO.N,/USB Keyboard Host/+5V_HOST*%
X150400000Y-100700000D03*
%TD*%
D27*
%TO.P,U2,1,~{CS}_1*%
%TO.N,/RP2040 Core/QSPI_SS*%
X142112500Y-85295000D03*
%TO.P,U2,2,DO(IO1)_2*%
%TO.N,/RP2040 Core/QSPI_SD1*%
X142112500Y-86565000D03*
%TO.P,U2,3,IO2_3*%
%TO.N,/RP2040 Core/QSPI_SD2*%
X142112500Y-87835000D03*
%TO.P,U2,4,GND_4*%
%TO.N,GND*%
X142112500Y-89105000D03*
%TO.P,U2,5,DI(IO0)_5*%
%TO.N,/RP2040 Core/QSPI_SD0*%
X149287500Y-89105000D03*
%TO.P,U2,6,CLK_6*%
%TO.N,/RP2040 Core/QSPI_SCLK*%
X149287500Y-87835000D03*
%TO.P,U2,7,IO3_7*%
%TO.N,/RP2040 Core/QSPI_SD3*%
X149287500Y-86565000D03*
%TO.P,U2,8,VCC_8*%
%TO.N,+3V3*%
X149287500Y-85295000D03*
%TD*%
D28*
%TO.P,R3,1*%
%TO.N,/RP2040 Core/USB_DP*%
X147409999Y-96500000D03*
%TO.P,R3,2*%
%TO.N,Net-(U3-USB_DP)*%
X146390001Y-96500000D03*
%TD*%
D29*
%TO.P,C5,1*%
%TO.N,+3V3*%
X142200000Y-82620000D03*
%TO.P,C5,2*%
%TO.N,GND*%
X142200000Y-83580000D03*
%TD*%
D30*
%TO.P,C12,1*%
%TO.N,+3V3*%
X131880000Y-96400000D03*
%TO.P,C12,2*%
%TO.N,GND*%
X130920000Y-96400000D03*
%TD*%
%TO.P,C13,1*%
%TO.N,+3V3*%
X137180000Y-90800000D03*
%TO.P,C13,2*%
%TO.N,GND*%
X136220000Y-90800000D03*
%TD*%
D31*
%TO.P,R6,1*%
%TO.N,GND*%
X123205000Y-85520000D03*
%TO.P,R6,2*%
%TO.N,Net-(J3-CC1)*%
X123205000Y-84500000D03*
%TD*%
D32*
%TO.P,J2,1,Pin_1_1*%
%TO.N,/RP2040 Core/~{USB_BOOT}*%
X157800000Y-88100000D03*
D33*
%TO.P,J2,2,Pin_2_2*%
%TO.N,GND*%
X157800000Y-85560000D03*
%TD*%
D34*
%TO.P,U4,1,GND_1*%
%TO.N,GND*%
X138450000Y-84600000D03*
%TO.P,U4,2,VO_2*%
%TO.N,+3V3*%
X138450000Y-82300000D03*
D35*
X132150000Y-82300000D03*
D34*
%TO.P,U4,3,VI_3*%
%TO.N,/RP2040 Core/+5V_IN*%
X138450000Y-80000000D03*
%TD*%
D36*
%TO.P,R9,1*%
%TO.N,Net-(J4-CC2)*%
X150525000Y-93800000D03*
%TO.P,R9,2*%
%TO.N,/USB Keyboard Host/+5V_HOST*%
X148875000Y-93800000D03*
%TD*%
D37*
%TO.P,R11,1*%
%TO.N,/NES Input Output/NES_LATCH_5V*%
X123490000Y-90500000D03*
%TO.P,R11,2*%
%TO.N,/NES Input Output/NES_LATCH_3V3*%
X124510000Y-90500000D03*
%TD*%
%TO.P,R17,1*%
%TO.N,GND*%
X123480000Y-99500000D03*
%TO.P,R17,2*%
%TO.N,Net-(Q1-G)*%
X124500000Y-99500000D03*
%TD*%
%TO.P,R12,1*%
%TO.N,/NES Input Output/NES_CLOCK_5V*%
X123490000Y-93900000D03*
%TO.P,R12,2*%
%TO.N,/NES Input Output/NES_CLOCK_3V3*%
X124510000Y-93900000D03*
%TD*%
D38*
%TO.P,C1,1*%
%TO.N,/RP2040 Core/+5V_IN*%
X142775000Y-77500000D03*
%TO.P,C1,2*%
%TO.N,GND*%
X141225000Y-77500000D03*
%TD*%
D39*
%TO.P,C7,1*%
%TO.N,+1V1*%
X143720000Y-95400000D03*
%TO.P,C7,2*%
%TO.N,GND*%
X144680000Y-95400000D03*
%TD*%
D40*
%TO.P,Q1,1,G_1*%
%TO.N,Net-(Q1-G)*%
X124500000Y-102900000D03*
%TO.P,Q1,2,S_2*%
%TO.N,GND*%
X124500000Y-101000000D03*
%TO.P,Q1,3,D_3*%
%TO.N,/NES Input Output/NES_DATA*%
X122625000Y-101950000D03*
%TD*%
D30*
%TO.P,C2,1*%
%TO.N,/RP2040 Core/XIN*%
X132080000Y-94300000D03*
%TO.P,C2,2*%
%TO.N,GND*%
X131120000Y-94300000D03*
%TD*%
D39*
%TO.P,C15,1*%
%TO.N,+3V3*%
X145820000Y-95500000D03*
%TO.P,C15,2*%
%TO.N,GND*%
X146780000Y-95500000D03*
%TD*%
D41*
%TO.P,C17,1*%
%TO.N,GND*%
X120100000Y-86250000D03*
%TO.P,C17,2*%
%TO.N,/RP2040 Core/+5V_IN*%
X120100000Y-84700000D03*
%TD*%
D30*
%TO.P,C6,1*%
%TO.N,+1V1*%
X131480000Y-97400000D03*
%TO.P,C6,2*%
%TO.N,GND*%
X130520000Y-97400000D03*
%TD*%
D29*
%TO.P,C3,1*%
%TO.N,Net-(C3-Pad1)*%
X129200000Y-90020000D03*
%TO.P,C3,2*%
%TO.N,GND*%
X129200000Y-90980000D03*
%TD*%
D30*
%TO.P,C16,1*%
%TO.N,+3V3*%
X139980000Y-91300000D03*
%TO.P,C16,2*%
%TO.N,GND*%
X139020000Y-91300000D03*
%TD*%
D28*
%TO.P,R16,1*%
%TO.N,Net-(Q1-G)*%
X125010000Y-98000000D03*
%TO.P,R16,2*%
%TO.N,/NES Input Output/NES_DATA_GPIO*%
X123990000Y-98000000D03*
%TD*%
D31*
%TO.P,R7,1*%
%TO.N,GND*%
X121700000Y-85520000D03*
%TO.P,R7,2*%
%TO.N,Net-(J3-CC2)*%
X121700000Y-84500000D03*
%TD*%
D29*
%TO.P,C11,1*%
%TO.N,+3V3*%
X136700000Y-100920000D03*
%TO.P,C11,2*%
%TO.N,GND*%
X136700000Y-101880000D03*
%TD*%
D30*
%TO.P,C19,1*%
%TO.N,/USB Keyboard Host/+5V_HOST*%
X150480000Y-92600000D03*
%TO.P,C19,2*%
%TO.N,GND*%
X149520000Y-92600000D03*
%TD*%
D28*
%TO.P,R5,1*%
%TO.N,/RP2040 Core/XOUT*%
X131910000Y-95400000D03*
%TO.P,R5,2*%
%TO.N,Net-(C3-Pad1)*%
X130890000Y-95400000D03*
%TD*%
D42*
%TO.P,Y1,1,1_1*%
%TO.N,/RP2040 Core/XIN*%
X132550000Y-92600000D03*
%TO.P,Y1,2,2_2*%
%TO.N,GND*%
X132550000Y-90400000D03*
%TO.P,Y1,3,3_3*%
%TO.N,Net-(C3-Pad1)*%
X130850000Y-90400000D03*
%TO.P,Y1,4,4_4*%
%TO.N,GND*%
X130850000Y-92600000D03*
%TD*%
D29*
%TO.P,C9,1*%
%TO.N,+3V3*%
X140300000Y-101020000D03*
%TO.P,C9,2*%
%TO.N,GND*%
X140300000Y-101980000D03*
%TD*%
D28*
%TO.P,R13,1*%
%TO.N,/NES Input Output/NES_LATCH_3V3*%
X124410000Y-92400000D03*
%TO.P,R13,2*%
%TO.N,GND*%
X123390000Y-92400000D03*
%TD*%
D37*
%TO.P,R15,1*%
%TO.N,/NES Input Output/NES_DATA*%
X123490000Y-96500000D03*
%TO.P,R15,2*%
%TO.N,/NES Input Output/NES_5V*%
X124510000Y-96500000D03*
%TD*%
D28*
%TO.P,R4,1*%
%TO.N,/RP2040 Core/USB_DM*%
X146109999Y-97500000D03*
%TO.P,R4,2*%
%TO.N,Net-(U3-USB_DM)*%
X145090001Y-97500000D03*
%TD*%
D31*
%TO.P,R1,1*%
%TO.N,/RP2040 Core/QSPI_SS*%
X143500000Y-83710000D03*
%TO.P,R1,2*%
%TO.N,/RP2040 Core/~{USB_BOOT}*%
X143500000Y-82690000D03*
%TD*%
D43*
%TO.P,C20,1*%
%TO.N,/USB Keyboard Host/+5V_HOST*%
X148800000Y-95425000D03*
%TO.P,C20,2*%
%TO.N,GND*%
X148800000Y-96975000D03*
%TD*%
D39*
%TO.P,C8,1*%
%TO.N,+1V1*%
X143120000Y-97700000D03*
%TO.P,C8,2*%
%TO.N,GND*%
X144080000Y-97700000D03*
%TD*%
D44*
%TO.P,C18,1*%
%TO.N,GND*%
X124400000Y-85360000D03*
%TO.P,C18,2*%
%TO.N,/RP2040 Core/+5V_IN*%
X124400000Y-84400000D03*
%TD*%
D45*
%TO.P,R2,1*%
%TO.N,+3V3*%
X141000000Y-82790000D03*
%TO.P,R2,2*%
%TO.N,/RP2040 Core/QSPI_SS*%
X141000000Y-83810000D03*
%TD*%
D37*
%TO.P,R10,1*%
%TO.N,/RP2040 Core/FAULT_N*%
X149990000Y-91500000D03*
%TO.P,R10,2*%
%TO.N,+3V3*%
X151010000Y-91500000D03*
%TD*%
D39*
%TO.P,C14,1*%
%TO.N,+3V3*%
X141520000Y-100300000D03*
%TO.P,C14,2*%
%TO.N,GND*%
X142480000Y-100300000D03*
%TD*%
D41*
%TO.P,C4,1*%
%TO.N,+3V3*%
X129700000Y-84875000D03*
%TO.P,C4,2*%
%TO.N,GND*%
X129700000Y-83325000D03*
%TD*%
D37*
%TO.P,R14,1*%
%TO.N,/NES Input Output/NES_CLOCK_3V3*%
X123490000Y-95000000D03*
%TO.P,R14,2*%
%TO.N,GND*%
X124510000Y-95000000D03*
%TD*%
D39*
%TO.P,C10,1*%
%TO.N,+3V3*%
X142420000Y-98900000D03*
%TO.P,C10,2*%
%TO.N,GND*%
X143380000Y-98900000D03*
%TD*%
D45*
%TO.P,R18,1*%
%TO.N,Net-(J6-~{RESET})*%
X133000000Y-99590000D03*
%TO.P,R18,2*%
%TO.N,+3V3*%
X133000000Y-100610000D03*
%TD*%
D46*
%TO.N,/RP2040 Core/+5V_IN*%
X143900000Y-77600000D03*
%TO.N,GND*%
X143700000Y-75500000D03*
%TO.N,/RP2040 Core/HOST_VBUS_EN*%
X145400000Y-80800000D03*
%TO.N,/USB Keyboard Host/+5V_HOST*%
X153200000Y-76900000D03*
X151600000Y-94000000D03*
X151100000Y-92500000D03*
X151587851Y-99985421D03*
X151600000Y-98500000D03*
X150134313Y-95034313D03*
%TO.N,GND*%
X122100000Y-86400000D03*
X129800000Y-82300000D03*
X144000000Y-98900000D03*
X126900000Y-83073631D03*
X118600000Y-83200000D03*
X141000000Y-101600000D03*
X142100000Y-90200000D03*
X119600000Y-77500000D03*
X129600000Y-92600000D03*
X154000000Y-101700000D03*
X155200000Y-91200000D03*
X144500000Y-98200000D03*
X133700000Y-89300000D03*
X146800000Y-94800000D03*
X143100000Y-100300000D03*
X136300000Y-90000000D03*
X141913750Y-84247720D03*
X152350000Y-92630331D03*
X125800000Y-80000000D03*
X158000000Y-83300000D03*
X123100000Y-98800000D03*
X159100000Y-91100000D03*
X124825735Y-101725735D03*
X144900000Y-94400000D03*
X129200000Y-91700000D03*
X130200000Y-94300000D03*
X125300000Y-77500000D03*
X128035898Y-101309466D03*
X130300000Y-98600000D03*
X130100000Y-96500000D03*
X152100000Y-100600000D03*
X124400000Y-86400000D03*
X137300000Y-101600000D03*
X121200000Y-86800000D03*
X138600000Y-86800000D03*
X148839257Y-92739257D03*
X119400000Y-80100000D03*
X141200000Y-76300000D03*
X123500000Y-91500000D03*
X125186863Y-94808038D03*
X133314266Y-94365734D03*
X121600000Y-90400000D03*
X137700000Y-95900000D03*
X123300000Y-86700000D03*
X148800000Y-98400735D03*
X158300000Y-101700000D03*
X138300000Y-91300000D03*
%TO.N,+3V3*%
X136700680Y-100150742D03*
X142200000Y-81900000D03*
X129700000Y-86100000D03*
X142000000Y-98300000D03*
X132444909Y-96206564D03*
X132300000Y-85200000D03*
X151280000Y-90460000D03*
X139842914Y-90722835D03*
X141700000Y-99100000D03*
X141000000Y-81900000D03*
X133900000Y-101300000D03*
X150400000Y-84700000D03*
X142614628Y-98395589D03*
X145800000Y-94800000D03*
X131800000Y-101600000D03*
X141700000Y-99800003D03*
X136693866Y-91644936D03*
X136700000Y-82900000D03*
X140537500Y-91500000D03*
X140300000Y-100400000D03*
%TO.N,/RP2040 Core/USB_DP*%
X150700000Y-95600000D03*
X150725735Y-96825735D03*
X147422522Y-97200735D03*
%TO.N,/RP2040 Core/FAULT_N*%
X134400000Y-91300000D03*
X148933870Y-91796114D03*
%TO.N,/RP2040 Core/HOST_VBUS_EN*%
X135482351Y-91206440D03*
%TO.N,/RP2040 Core/+5V_IN*%
X120100000Y-83700000D03*
X138700000Y-78800000D03*
X119200000Y-83825000D03*
X125598248Y-83823631D03*
%TO.N,Net-(J6-SWCLK)*%
X127900000Y-100100000D03*
X130000000Y-104100000D03*
%TO.N,Net-(J6-SWDIO)*%
X129400000Y-100700000D03*
X131700000Y-104100000D03*
%TO.N,/NES Input Output/NES_LATCH_3V3*%
X133500000Y-98800000D03*
X126000000Y-91300000D03*
%TO.N,/NES Input Output/NES_CLOCK_3V3*%
X134000000Y-100000000D03*
X125300000Y-93900000D03*
%TO.N,/NES Input Output/NES_DATA_GPIO*%
X134600000Y-100700000D03*
X125700000Y-96500000D03*
%TO.N,/RP2040 Core/USB_DM*%
X150400735Y-97800735D03*
X149955061Y-97040365D03*
X146900000Y-98100000D03*
%TO.N,/NES Input Output/NES_5V*%
X125300000Y-95600000D03*
X120600000Y-94900000D03*
%TD*%
%TO.N,/RP2040 Core/+5V_IN*%
D47*
X142775000Y-77500000D02*
X143800000Y-77500000D01*
X143800000Y-77500000D02*
X143900000Y-77600000D01*
X144735000Y-76765000D02*
X144100000Y-77400000D01*
X145436200Y-78035000D02*
X144735000Y-78035000D01*
X144735000Y-78035000D02*
X144100000Y-77400000D01*
X145436200Y-76765000D02*
X144735000Y-76765000D01*
X144100000Y-77400000D02*
X143900000Y-77600000D01*
%TO.N,GND*%
X143705000Y-75495000D02*
X143700000Y-75500000D01*
X145436200Y-75495000D02*
X143705000Y-75495000D01*
%TO.N,/RP2040 Core/HOST_VBUS_EN*%
D48*
X145436200Y-80763800D02*
X145400000Y-80800000D01*
X145436200Y-79305000D02*
X145436200Y-80763800D01*
%TO.N,/RP2040 Core/FAULT_N*%
X150363800Y-79305000D02*
X150363800Y-80536200D01*
X139800000Y-81800000D02*
X139800000Y-89400000D01*
X144300000Y-82200000D02*
X143300000Y-81200000D01*
X150363800Y-80536200D02*
X148700000Y-82200000D01*
X148700000Y-82200000D02*
X144300000Y-82200000D01*
X139800000Y-89400000D02*
X135600000Y-89400000D01*
X143300000Y-81200000D02*
X140400000Y-81200000D01*
X135600000Y-89400000D02*
X134882351Y-90117649D01*
X140400000Y-81200000D02*
X139800000Y-81800000D01*
X134882351Y-90117649D02*
X134882351Y-91300000D01*
%TO.N,/USB Keyboard Host/+5V_HOST*%
D47*
X153200000Y-76900000D02*
X151768800Y-76900000D01*
X151768800Y-76900000D02*
X150363800Y-75495000D01*
X153200000Y-76900000D02*
X151498800Y-76900000D01*
X151498800Y-76900000D02*
X150363800Y-78035000D01*
X153200000Y-76900000D02*
X150498800Y-76900000D01*
X150498800Y-76900000D02*
X150363800Y-76765000D01*
%TO.N,Net-(J4-CC1)*%
D48*
X150400000Y-99050000D02*
X150400000Y-98650000D01*
X150400000Y-98650000D02*
X151300000Y-97750000D01*
X151300000Y-97750000D02*
X152955000Y-97750000D01*
%TO.N,/USB Keyboard Host/+5V_HOST*%
D47*
X148900000Y-93800000D02*
X150134313Y-95034313D01*
X151650000Y-94050000D02*
X151600000Y-94000000D01*
X150400000Y-100700000D02*
X150873272Y-100700000D01*
X151000000Y-92600000D02*
X151100000Y-92500000D01*
X150873272Y-100700000D02*
X151587851Y-99985421D01*
X148875000Y-93800000D02*
X148900000Y-93800000D01*
X148800000Y-95425000D02*
X149743626Y-95425000D01*
X150480000Y-92600000D02*
X151000000Y-92600000D01*
X152955000Y-98950000D02*
X152050000Y-98950000D01*
X152955000Y-94050000D02*
X151650000Y-94050000D01*
X149743626Y-95425000D02*
X150134313Y-95034313D01*
X152050000Y-98950000D02*
X151600000Y-98500000D01*
%TO.N,/RP2040 Core/QSPI_SS*%
D48*
X142100000Y-84910000D02*
X142100000Y-85282500D01*
X141137500Y-91237500D02*
X140400000Y-90500000D01*
X140500000Y-85300000D02*
X140505000Y-85295000D01*
X140500000Y-90400000D02*
X140500000Y-85300000D01*
X141000000Y-83810000D02*
X141000000Y-84182500D01*
X142100000Y-85282500D02*
X142112500Y-85295000D01*
X140400000Y-90500000D02*
X140500000Y-90400000D01*
X140505000Y-85295000D02*
X142112500Y-85295000D01*
X141137500Y-93300000D02*
X141137500Y-91237500D01*
X141000000Y-84182500D02*
X142112500Y-85295000D01*
X143500000Y-83710000D02*
X143300000Y-83710000D01*
X143300000Y-83710000D02*
X142100000Y-84910000D01*
%TO.N,/RP2040 Core/QSPI_SD1*%
X141900000Y-93471360D02*
X141900000Y-91300000D01*
X141100000Y-86600000D02*
X141135000Y-86565000D01*
X141900000Y-91300000D02*
X140900000Y-90300000D01*
X141135000Y-86565000D02*
X142112500Y-86565000D01*
X140900000Y-86600000D02*
X141100000Y-86600000D01*
X141137500Y-93700001D02*
X141671360Y-93700000D01*
X141671360Y-93700000D02*
X141900000Y-93471360D01*
X140900000Y-90300000D02*
X140900000Y-86600000D01*
%TO.N,/RP2040 Core/QSPI_SD2*%
X141837046Y-94100000D02*
X142400000Y-93537046D01*
X143500000Y-90100000D02*
X143500000Y-87900000D01*
X143435000Y-87835000D02*
X142112500Y-87835000D01*
X141137500Y-94100000D02*
X141837046Y-94100000D01*
X142400000Y-91200000D02*
X143500000Y-90100000D01*
X142400000Y-93537046D02*
X142400000Y-91200000D01*
X143500000Y-87900000D02*
X143435000Y-87835000D01*
%TO.N,GND*%
D47*
X126870000Y-77505000D02*
X126895000Y-77505000D01*
X118235000Y-77500000D02*
X118230000Y-77505000D01*
X138650000Y-84800000D02*
X138650000Y-86750000D01*
D48*
X140400000Y-101880000D02*
X140720000Y-101880000D01*
D47*
X158050000Y-92180000D02*
X158050000Y-91950000D01*
X124500000Y-101400000D02*
X124825735Y-101725735D01*
X141225000Y-77500000D02*
X141225000Y-76325000D01*
X146780000Y-95500000D02*
X146780000Y-94820000D01*
X152955000Y-93250000D02*
X152955000Y-93235331D01*
X125305000Y-77505000D02*
X125300000Y-77500000D01*
X119400000Y-80100000D02*
X118230000Y-81270000D01*
D48*
X137300000Y-101600000D02*
X136930494Y-101880000D01*
D47*
X132600000Y-90400000D02*
X133700000Y-89300000D01*
X126870000Y-81685000D02*
X126885000Y-81685000D01*
X124701962Y-94808038D02*
X125186863Y-94808038D01*
D48*
X136350000Y-94550000D02*
X136300000Y-94600000D01*
D47*
X144680000Y-95400000D02*
X144680000Y-94620000D01*
X142112500Y-90187500D02*
X142100000Y-90200000D01*
D48*
X136350000Y-97250000D02*
X137700000Y-95900000D01*
D47*
X153870000Y-100820000D02*
X153870000Y-101570000D01*
X138450000Y-84600000D02*
X138650000Y-84800000D01*
X129700000Y-83325000D02*
X129700000Y-82400000D01*
X128330000Y-102465000D02*
X128330000Y-101603568D01*
X138650000Y-86750000D02*
X138600000Y-86800000D01*
X118230000Y-81270000D02*
X118230000Y-81685000D01*
X128330000Y-101603568D02*
X128035898Y-101309466D01*
X126900000Y-77500000D02*
X125300000Y-77500000D01*
X158050000Y-92180000D02*
X158050000Y-92150000D01*
X123390000Y-91610000D02*
X123500000Y-91500000D01*
D48*
X119200000Y-82600000D02*
X118600000Y-83200000D01*
D47*
X130520000Y-97400000D02*
X130520000Y-98380000D01*
X123390000Y-92400000D02*
X123390000Y-91610000D01*
X158050000Y-101450000D02*
X158300000Y-101700000D01*
X157800000Y-83500000D02*
X158000000Y-83300000D01*
X152955000Y-93235331D02*
X152350000Y-92630331D01*
X120100000Y-86250000D02*
X120650000Y-86250000D01*
X123480000Y-99500000D02*
X123480000Y-99180000D01*
X146780000Y-94820000D02*
X146800000Y-94800000D01*
X129200000Y-90980000D02*
X129200000Y-91700000D01*
X123480000Y-99180000D02*
X123100000Y-98800000D01*
X153870000Y-92180000D02*
X154220000Y-92180000D01*
D48*
X144500000Y-98200000D02*
X144080000Y-97780000D01*
D47*
X158050000Y-92150000D02*
X159100000Y-91100000D01*
X124500000Y-101000000D02*
X124500000Y-101400000D01*
X148800000Y-96975000D02*
X148800000Y-98400735D01*
D48*
X139020000Y-91300000D02*
X138300000Y-91300000D01*
X143380000Y-98900000D02*
X144000000Y-98900000D01*
D47*
X120350000Y-92000000D02*
X120350000Y-91650000D01*
X124510000Y-95000000D02*
X124701962Y-94808038D01*
D48*
X136220000Y-90980000D02*
X136220000Y-90800000D01*
D47*
X119595000Y-77505000D02*
X119600000Y-77500000D01*
D48*
X136350000Y-94550000D02*
X137700000Y-95900000D01*
D47*
X158050000Y-100820000D02*
X158050000Y-101450000D01*
X130920000Y-96400000D02*
X130200000Y-96400000D01*
D48*
X134262500Y-94900000D02*
X133845686Y-94900000D01*
D47*
X126885000Y-81685000D02*
X126900000Y-81700000D01*
X126426369Y-82600000D02*
X126900000Y-83073631D01*
X132550000Y-90400000D02*
X132600000Y-90400000D01*
X121700000Y-85520000D02*
X121700000Y-86000000D01*
D48*
X140720000Y-101880000D02*
X141000000Y-101600000D01*
D47*
X126895000Y-77505000D02*
X126900000Y-77500000D01*
X154220000Y-92180000D02*
X155200000Y-91200000D01*
X125800000Y-82600000D02*
X126426369Y-82600000D01*
D48*
X139050000Y-94550000D02*
X137700000Y-95900000D01*
D47*
X124400000Y-85360000D02*
X124400000Y-86400000D01*
X123205000Y-86605000D02*
X123300000Y-86700000D01*
X148978514Y-92600000D02*
X148839257Y-92739257D01*
X141225000Y-76325000D02*
X141200000Y-76300000D01*
X126900000Y-81700000D02*
X126900000Y-81100000D01*
D48*
X133845686Y-94900000D02*
X133845685Y-94899999D01*
X140300000Y-101980000D02*
X140400000Y-101880000D01*
D47*
X121700000Y-86000000D02*
X122100000Y-86400000D01*
D48*
X136300000Y-90000000D02*
X136220000Y-90980000D01*
D47*
X152955000Y-99750000D02*
X152950000Y-99750000D01*
X120650000Y-86250000D02*
X121200000Y-86800000D01*
D48*
X133700000Y-94900000D02*
X133314266Y-94514266D01*
D47*
X119600000Y-77500000D02*
X118235000Y-77500000D01*
X131120000Y-94300000D02*
X130200000Y-94300000D01*
X153870000Y-101570000D02*
X154000000Y-101700000D01*
X157800000Y-85560000D02*
X157800000Y-83500000D01*
X130850000Y-92600000D02*
X129600000Y-92600000D01*
X123205000Y-85520000D02*
X123205000Y-86605000D01*
X152950000Y-99750000D02*
X152100000Y-100600000D01*
X144680000Y-94620000D02*
X144900000Y-94400000D01*
D48*
X136930494Y-101880000D02*
X136700000Y-101880000D01*
D47*
X142200000Y-83580000D02*
X142200000Y-83961470D01*
X126900000Y-81100000D02*
X125800000Y-80000000D01*
X120350000Y-91650000D02*
X121600000Y-90400000D01*
X130520000Y-98380000D02*
X130300000Y-98600000D01*
X149520000Y-92600000D02*
X148978514Y-92600000D01*
X142112500Y-89105000D02*
X142112500Y-90187500D01*
D48*
X142480000Y-100300000D02*
X143100000Y-100300000D01*
X134262500Y-94900000D02*
X133700000Y-94900000D01*
X139050000Y-97250000D02*
X137700000Y-95900000D01*
D47*
X142200000Y-83961470D02*
X141913750Y-84247720D01*
D48*
X133314266Y-94514266D02*
X133314266Y-94365734D01*
X119300000Y-82600000D02*
X119200000Y-82600000D01*
D47*
X130200000Y-96400000D02*
X130100000Y-96500000D01*
X129700000Y-82400000D02*
X129800000Y-82300000D01*
%TO.N,/RP2040 Core/QSPI_SD0*%
D48*
X142900000Y-91400000D02*
X143900000Y-90400000D01*
X148800000Y-89592500D02*
X149287500Y-89105000D01*
X141137500Y-94500000D02*
X142200000Y-94500000D01*
X148400000Y-90400000D02*
X148800000Y-90000000D01*
X148800000Y-90000000D02*
X148800000Y-89592500D01*
X143900000Y-90400000D02*
X148400000Y-90400000D01*
X142900000Y-93800000D02*
X142900000Y-91400000D01*
X142200000Y-94500000D02*
X142900000Y-93800000D01*
%TO.N,/RP2040 Core/QSPI_SCLK*%
X142400000Y-94900000D02*
X143300000Y-94000000D01*
X150300000Y-89800000D02*
X150400000Y-89700000D01*
X141137500Y-94900000D02*
X142400000Y-94900000D01*
X150400000Y-88135001D02*
X150099999Y-87835000D01*
X150099999Y-87835000D02*
X149287500Y-87835000D01*
X143300000Y-94000000D02*
X143300000Y-92100000D01*
X144600000Y-90800000D02*
X148700000Y-90800000D01*
X148700000Y-90800000D02*
X149700000Y-89800000D01*
X150400000Y-89700000D02*
X150400000Y-88135001D01*
X143300000Y-92100000D02*
X144600000Y-90800000D01*
X149700000Y-89800000D02*
X150300000Y-89800000D01*
%TO.N,/RP2040 Core/QSPI_SD3*%
X143800000Y-94100000D02*
X143800000Y-92200000D01*
X141300000Y-95300000D02*
X142600000Y-95300000D01*
X144800000Y-91200000D02*
X148865686Y-91200000D01*
X150800000Y-87700000D02*
X149665000Y-86565000D01*
X143800000Y-92200000D02*
X144800000Y-91200000D01*
X142600000Y-95300000D02*
X143800000Y-94100000D01*
X149665000Y-86565000D02*
X149287500Y-86565000D01*
X149865686Y-90200000D02*
X150700000Y-90200000D01*
X150800000Y-90100000D02*
X150800000Y-87700000D01*
X150700000Y-90200000D02*
X150800000Y-90100000D01*
X141137500Y-95299999D02*
X141299999Y-95299999D01*
X141299999Y-95299999D02*
X141300000Y-95300000D01*
X148865686Y-91200000D02*
X149865686Y-90200000D01*
%TO.N,+3V3*%
D47*
X145820000Y-94820000D02*
X145800000Y-94800000D01*
D48*
X141520000Y-99980003D02*
X141700000Y-99800003D01*
D47*
X141000000Y-82790000D02*
X141000000Y-81900000D01*
D48*
X132100000Y-96400000D02*
X132400000Y-96100000D01*
X132500000Y-96100000D02*
X133131473Y-96100000D01*
X132500000Y-96100000D02*
X132500000Y-96151473D01*
X141799999Y-98099999D02*
X142000000Y-98300000D01*
X141137500Y-98500000D02*
X141137500Y-98537500D01*
X139980000Y-90859921D02*
X139842914Y-90722835D01*
D47*
X133000000Y-100610000D02*
X133210000Y-100610000D01*
X138450000Y-82300000D02*
X137300000Y-82300000D01*
D48*
X132500000Y-96151473D02*
X132444909Y-96206564D01*
X134262500Y-96100000D02*
X133131473Y-96100000D01*
D47*
X145820000Y-95500000D02*
X145820000Y-94820000D01*
D48*
X141137500Y-98099999D02*
X141799999Y-98099999D01*
X136700000Y-100920000D02*
X136700000Y-100151422D01*
D47*
X149287500Y-85295000D02*
X149805000Y-85295000D01*
D48*
X136700000Y-92462500D02*
X136700000Y-91651070D01*
X141520000Y-100300000D02*
X141520000Y-99980003D01*
D47*
X131335000Y-102065000D02*
X131800000Y-101600000D01*
D48*
X139980000Y-91300000D02*
X139980000Y-90859921D01*
X140300000Y-101020000D02*
X140200000Y-100920000D01*
D47*
X130870000Y-102465000D02*
X131270000Y-102065000D01*
X132150000Y-82300000D02*
X132350000Y-82500000D01*
D48*
X141899999Y-96500001D02*
X142300000Y-96100000D01*
X140200000Y-100920000D02*
X140200000Y-100500000D01*
X142420000Y-98590217D02*
X142614628Y-98395589D01*
X132400000Y-96100000D02*
X132500000Y-96100000D01*
X136700000Y-91651070D02*
X136693866Y-91644936D01*
D47*
X133210000Y-100610000D02*
X133900000Y-101300000D01*
D48*
X142420000Y-98900000D02*
X142420000Y-98590217D01*
X140300000Y-99337500D02*
X140300000Y-100400000D01*
D47*
X151010000Y-90730000D02*
X151280000Y-90460000D01*
D48*
X136700000Y-100150062D02*
X136700680Y-100150742D01*
D47*
X132350000Y-82500000D02*
X132350000Y-85150000D01*
X131270000Y-102065000D02*
X131335000Y-102065000D01*
X149805000Y-85295000D02*
X150400000Y-84700000D01*
X133000000Y-100610000D02*
X132810000Y-100610000D01*
D48*
X141137500Y-96500001D02*
X141899999Y-96500001D01*
D47*
X129700000Y-84875000D02*
X129700000Y-86100000D01*
X142200000Y-82620000D02*
X142200000Y-81900000D01*
D48*
X131880000Y-96400000D02*
X132100000Y-96400000D01*
X136700000Y-99337500D02*
X136700000Y-100150062D01*
X144920000Y-96100000D02*
X145520000Y-95500000D01*
X141137500Y-96100000D02*
X142300000Y-96100000D01*
D47*
X138450000Y-82300000D02*
X138750000Y-82600000D01*
D48*
X137180000Y-90800000D02*
X137180000Y-91158802D01*
D47*
X151010000Y-91500000D02*
X151010000Y-90730000D01*
D48*
X140200000Y-100500000D02*
X140300000Y-100400000D01*
X145520000Y-95500000D02*
X145820000Y-95500000D01*
X136700000Y-100151422D02*
X136700680Y-100150742D01*
X140300000Y-91737500D02*
X140537500Y-91500000D01*
D47*
X132350000Y-85150000D02*
X132300000Y-85200000D01*
D48*
X140300000Y-92462500D02*
X140300000Y-91737500D01*
D47*
X148987500Y-84995000D02*
X149287500Y-85295000D01*
X137300000Y-82300000D02*
X136700000Y-82900000D01*
D48*
X142300000Y-96100000D02*
X144920000Y-96100000D01*
X137180000Y-91158802D02*
X136693866Y-91644936D01*
X141137500Y-98537500D02*
X141700000Y-99100000D01*
%TO.N,/RP2040 Core/USB_DP*%
X150850000Y-95750000D02*
X150700000Y-95600000D01*
X152955000Y-95750000D02*
X150850000Y-95750000D01*
X152955000Y-96750000D02*
X150801470Y-96750000D01*
X147409999Y-97188212D02*
X147422522Y-97200735D01*
X147409999Y-96500000D02*
X147409999Y-97188212D01*
X150801470Y-96750000D02*
X150725735Y-96825735D01*
%TO.N,Net-(U3-USB_DP)*%
X142700000Y-96500000D02*
X146390001Y-96500000D01*
X142299999Y-96900001D02*
X142700000Y-96500000D01*
X141137500Y-96900000D02*
X142299999Y-96900001D01*
%TO.N,Net-(J3-CC1)*%
X123205000Y-84500000D02*
X123800000Y-83905000D01*
X123800000Y-83905000D02*
X123800000Y-82600000D01*
%TO.N,/RP2040 Core/FAULT_N*%
X149990000Y-91500000D02*
X149229984Y-91500000D01*
X134882351Y-92244851D02*
X135100000Y-92462500D01*
X149229984Y-91500000D02*
X148933870Y-91796114D01*
X134400000Y-91300000D02*
X134882351Y-91300000D01*
X134882351Y-91300000D02*
X134882351Y-92244851D01*
%TO.N,/RP2040 Core/HOST_VBUS_EN*%
X135500000Y-91900000D02*
X135500000Y-91400000D01*
X135500001Y-92462500D02*
X135500000Y-91900000D01*
X135482351Y-91206440D02*
X135482351Y-91882351D01*
X135482351Y-91882351D02*
X135500000Y-91900000D01*
%TO.N,/RP2040 Core/+5V_IN*%
D47*
X120100000Y-82600000D02*
X120100000Y-83700000D01*
X138450000Y-80000000D02*
X138650000Y-79800000D01*
X120075000Y-84700000D02*
X119200000Y-83825000D01*
X125000000Y-83377684D02*
X125445947Y-83823631D01*
X125000000Y-84400000D02*
X125598248Y-83801752D01*
X138650000Y-79800000D02*
X138650000Y-78850000D01*
X125445947Y-83823631D02*
X125598248Y-83823631D01*
X138650000Y-78850000D02*
X138700000Y-78800000D01*
X125598248Y-83801752D02*
X125598248Y-83823631D01*
X124400000Y-84400000D02*
X125000000Y-84400000D01*
X125000000Y-82600000D02*
X125000000Y-83377684D01*
X120100000Y-84700000D02*
X120075000Y-84700000D01*
%TO.N,/RP2040 Core/~{USB_BOOT}*%
D48*
X149690000Y-82690000D02*
X155100000Y-88100000D01*
X155100000Y-88100000D02*
X157800000Y-88100000D01*
X143500000Y-82690000D02*
X149690000Y-82690000D01*
%TO.N,Net-(J4-CC2)*%
X150525000Y-94100000D02*
X151175000Y-94750000D01*
X151175000Y-94750000D02*
X152955000Y-94750000D01*
X150525000Y-93800000D02*
X150525000Y-94100000D01*
%TO.N,/RP2040 Core/XIN*%
X132080000Y-94300000D02*
X132680000Y-93700000D01*
X132359999Y-94300000D02*
X133359998Y-95299999D01*
X132680000Y-93700000D02*
X132680000Y-92730000D01*
X132080000Y-94300000D02*
X132359999Y-94300000D01*
X132680000Y-92730000D02*
X132550000Y-92600000D01*
X133359998Y-95299999D02*
X134262500Y-95299999D01*
%TO.N,/RP2040 Core/XOUT*%
X132710000Y-95400000D02*
X133010000Y-95700000D01*
X133010000Y-95700000D02*
X134262500Y-95700000D01*
X131910000Y-95400000D02*
X132710000Y-95400000D01*
%TO.N,+1V1*%
X140503639Y-97800000D02*
X140603639Y-97700000D01*
X141137500Y-95700000D02*
X143420000Y-95700000D01*
X134262500Y-96500001D02*
X134900001Y-96500001D01*
X140603640Y-95700000D02*
X141137500Y-95700000D01*
X131480000Y-97400000D02*
X132100001Y-97400000D01*
X132100001Y-97400000D02*
X133000000Y-96500001D01*
X140603639Y-97700000D02*
X141137500Y-97700000D01*
X135800000Y-97800000D02*
X140100000Y-97800000D01*
X134262500Y-96500001D02*
X133000000Y-96500001D01*
X143420000Y-95700000D02*
X143720000Y-95400000D01*
X140100000Y-97800000D02*
X140100000Y-96203640D01*
X140100000Y-97800000D02*
X140503639Y-97800000D01*
X141137500Y-97700000D02*
X143120000Y-97700000D01*
X140100000Y-96203640D02*
X140603640Y-95700000D01*
X135800000Y-97400000D02*
X135800000Y-97800000D01*
X134900001Y-96500001D02*
X135800000Y-97400000D01*
%TO.N,Net-(J6-SWCLK)*%
X127900000Y-100100000D02*
X129951471Y-100100000D01*
X131550000Y-98650000D02*
X131500000Y-98700000D01*
X129600000Y-103735000D02*
X129635000Y-103735000D01*
X129635000Y-103735000D02*
X130000000Y-104100000D01*
X131351471Y-98700000D02*
X131500000Y-98700000D01*
X134262500Y-96900000D02*
X133300000Y-96900000D01*
X129951471Y-100100000D02*
X131401471Y-98650000D01*
X133300000Y-96900000D02*
X131550000Y-98650000D01*
X131401471Y-98650000D02*
X131550000Y-98650000D01*
%TO.N,Net-(J6-SWDIO)*%
X130800000Y-99965686D02*
X130800000Y-100100000D01*
X130200000Y-100700000D02*
X130800000Y-100100000D01*
X133465686Y-97300000D02*
X130800000Y-99965686D01*
X130870000Y-103735000D02*
X131335000Y-103735000D01*
X131335000Y-103735000D02*
X131700000Y-104100000D01*
X134262500Y-97300000D02*
X133465686Y-97300000D01*
X129400000Y-100700000D02*
X130200000Y-100700000D01*
%TO.N,Net-(J6-~{RESET})*%
X133000000Y-99590000D02*
X132890000Y-99590000D01*
X129683529Y-102065000D02*
X131420000Y-100328529D01*
X129683529Y-102381471D02*
X129683529Y-102065000D01*
X132890000Y-99590000D02*
X132364320Y-99064320D01*
X133728640Y-97699999D02*
X134262500Y-97700000D01*
X132364320Y-99064320D02*
X133728640Y-97699999D01*
X131420000Y-100328529D02*
X131420000Y-100008639D01*
X129600000Y-102465000D02*
X129683529Y-102381471D01*
X131420000Y-100008639D02*
X132364320Y-99064320D01*
%TO.N,/NES Input Output/NES_LATCH_3V3*%
X133962500Y-98800000D02*
X134262500Y-98500000D01*
X124410000Y-92400000D02*
X124900000Y-92400000D01*
X124510000Y-90500000D02*
X125200000Y-90500000D01*
X125200000Y-90500000D02*
X126000000Y-91300000D01*
X133500000Y-98800000D02*
X133962500Y-98800000D01*
X124900000Y-92400000D02*
X126000000Y-91300000D01*
%TO.N,/NES Input Output/NES_CLOCK_3V3*%
X123490000Y-95000000D02*
X123490000Y-94920000D01*
X135100000Y-99337500D02*
X134662500Y-99337500D01*
X123490000Y-94920000D02*
X124510000Y-93900000D01*
X134662500Y-99337500D02*
X134000000Y-100000000D01*
X124510000Y-93900000D02*
X125300000Y-93900000D01*
%TO.N,/NES Input Output/NES_DATA_GPIO*%
X123990000Y-97910000D02*
X124600000Y-97300000D01*
X123900000Y-97910000D02*
X123990000Y-98000000D01*
X123990000Y-98000000D02*
X123990000Y-97910000D01*
X134671360Y-100700000D02*
X134600000Y-100700000D01*
X124600000Y-97300000D02*
X124900000Y-97300000D01*
X124900000Y-97300000D02*
X125700000Y-96500000D01*
X135500001Y-99337500D02*
X135500000Y-99871360D01*
X135500000Y-99871360D02*
X134671360Y-100700000D01*
%TO.N,Net-(U3-USB_DM)*%
X144390000Y-97090000D02*
X144400000Y-97100000D01*
X142793866Y-97090000D02*
X144390000Y-97090000D01*
X141137500Y-97300000D02*
X142583866Y-97300000D01*
X144690001Y-97100000D02*
X145090001Y-97500000D01*
X142583866Y-97300000D02*
X142793866Y-97090000D01*
X144400000Y-97100000D02*
X144690001Y-97100000D01*
%TO.N,/NES Input Output/NES_LATCH_5V*%
X120884744Y-96000000D02*
X120350000Y-96000000D01*
X122400000Y-91590000D02*
X122400000Y-94484744D01*
X123490000Y-90500000D02*
X122400000Y-91590000D01*
X122400000Y-94484744D02*
X120884744Y-96000000D01*
%TO.N,Net-(Q1-G)*%
X125537500Y-101862500D02*
X124500000Y-102900000D01*
X124500000Y-99500000D02*
X125537500Y-100537500D01*
X124510000Y-98500000D02*
X124510000Y-99490000D01*
X125537500Y-100537500D02*
X125537500Y-101862500D01*
X125010000Y-98000000D02*
X124510000Y-98500000D01*
X124510000Y-99490000D02*
X124500000Y-99500000D01*
%TO.N,/NES Input Output/NES_CLOCK_5V*%
X122100000Y-98000000D02*
X122920000Y-97180000D01*
X122920000Y-94470000D02*
X123490000Y-93900000D01*
X120350000Y-98000000D02*
X122100000Y-98000000D01*
X122920000Y-97180000D02*
X122920000Y-94470000D01*
%TO.N,/NES Input Output/NES_DATA*%
X123300000Y-97751471D02*
X123300000Y-97365686D01*
X120675000Y-100000000D02*
X120350000Y-100000000D01*
X123300000Y-97365686D02*
X123490000Y-97175685D01*
X121051471Y-100000000D02*
X123300000Y-97751471D01*
X120350000Y-100000000D02*
X121051471Y-100000000D01*
X122625000Y-101950000D02*
X120675000Y-100000000D01*
X123490000Y-97175685D02*
X123490000Y-96500000D01*
%TO.N,/RP2040 Core/USB_DM*%
X146300000Y-97500000D02*
X146900000Y-98100000D01*
X152930735Y-96225735D02*
X150474265Y-96225735D01*
X150500000Y-97900000D02*
X150400735Y-97800735D01*
X150474265Y-96225735D02*
X149955061Y-96744939D01*
X152955000Y-97255000D02*
X153000000Y-97300000D01*
X152955000Y-97250000D02*
X152955000Y-97255000D01*
X149955061Y-96744939D02*
X149955061Y-97040365D01*
X152955000Y-96250000D02*
X152905000Y-96200000D01*
X151150000Y-97250000D02*
X150500000Y-97900000D01*
X152955000Y-96250000D02*
X152930735Y-96225735D01*
X152955000Y-97250000D02*
X151150000Y-97250000D01*
X146109999Y-97500000D02*
X146300000Y-97500000D01*
%TO.N,Net-(C3-Pad1)*%
X128300000Y-90100000D02*
X128380000Y-90020000D01*
X129700000Y-90400000D02*
X130850000Y-90400000D01*
X130451471Y-95400000D02*
X128000000Y-92948529D01*
X129280000Y-90020000D02*
X129300000Y-90000000D01*
X129200000Y-90020000D02*
X129280000Y-90020000D01*
X129300000Y-90000000D02*
X129700000Y-90400000D01*
X128000000Y-92948529D02*
X128000000Y-90100000D01*
X128380000Y-90020000D02*
X129200000Y-90020000D01*
X130890000Y-95400000D02*
X130451471Y-95400000D01*
X128000000Y-90100000D02*
X128300000Y-90100000D01*
%TO.N,Net-(J3-CC2)*%
X120800000Y-83600000D02*
X120800000Y-82600000D01*
X121700000Y-84500000D02*
X120800000Y-83600000D01*
%TO.N,/NES Input Output/NES_5V*%
D47*
X124510000Y-96500000D02*
X124510000Y-96390000D01*
X120600000Y-94250000D02*
X120350000Y-94000000D01*
X124510000Y-96390000D02*
X125300000Y-95600000D01*
X120600000Y-94900000D02*
X120600000Y-94250000D01*
%TD*%
M02*
