M48
; DRILL file KiCad 10.0.0 date 2026-04-15T22:08:18
; FORMAT={-:-/ absolute / metric / decimal}
; #@! TF.CreationDate,2026-04-15T22:08:18-07:00
; #@! TF.GenerationSoftware,Kicad,Pcbnew,10.0.0
; #@! TF.FileFunction,Plated,1,4,PTH
FMAT,2
METRIC
; #@! TA.AperFunction,Plated,PTH,ComponentDrill
T1C0.200
; #@! TA.AperFunction,Plated,PTH,ViaDrill
T2C0.300
; #@! TA.AperFunction,Plated,PTH,ComponentDrill
T3C0.600
; #@! TA.AperFunction,Plated,PTH,ComponentDrill
T4C1.000
%
G90
G05
T1
X136.35Y-94.55
X136.35Y-97.25
X139.05Y-94.55
X139.05Y-97.25
T2
X118.6Y-83.2
X119.2Y-83.825
X119.4Y-80.1
X119.6Y-77.5
X120.1Y-83.7
X120.6Y-94.9
X121.2Y-86.8
X121.6Y-90.4
X122.1Y-86.4
X123.1Y-98.8
X123.3Y-86.7
X123.5Y-91.5
X124.4Y-86.4
X124.826Y-101.726
X125.187Y-94.808
X125.3Y-77.5
X125.3Y-93.9
X125.3Y-95.6
X125.598Y-83.824
X125.7Y-96.5
X125.8Y-80.0
X126.0Y-91.3
X126.9Y-83.074
X127.9Y-100.1
X128.036Y-101.309
X129.2Y-91.7
X129.4Y-100.7
X129.6Y-92.6
X129.7Y-86.1
X129.8Y-82.3
X130.0Y-104.1
X130.1Y-96.5
X130.2Y-94.3
X130.3Y-98.6
X131.7Y-104.1
X131.8Y-101.6
X132.3Y-85.2
X132.445Y-96.207
X133.314Y-94.366
X133.5Y-98.8
X133.7Y-89.3
X133.9Y-101.3
X134.0Y-100.0
X134.4Y-91.3
X134.6Y-100.7
X135.482Y-91.206
X136.3Y-90.0
X136.694Y-91.645
X136.7Y-82.9
X136.701Y-100.151
X137.3Y-101.6
X137.7Y-95.9
X138.3Y-91.3
X138.6Y-86.8
X138.7Y-78.8
X139.843Y-90.723
X140.3Y-100.4
X140.537Y-91.5
X141.0Y-81.9
X141.0Y-101.6
X141.2Y-76.3
X141.7Y-99.1
X141.7Y-99.8
X141.914Y-84.248
X142.0Y-98.3
X142.1Y-90.2
X142.2Y-81.9
X142.615Y-98.396
X143.1Y-100.3
X143.7Y-75.5
X143.9Y-77.6
X144.0Y-98.9
X144.5Y-98.2
X144.9Y-94.4
X145.4Y-80.8
X145.8Y-94.8
X146.8Y-94.8
X146.9Y-98.1
X147.423Y-97.201
X148.8Y-98.401
X148.839Y-92.739
X148.934Y-91.796
X149.955Y-97.04
X150.134Y-95.034
X150.4Y-84.7
X150.401Y-97.801
X150.7Y-95.6
X150.726Y-96.826
X151.1Y-92.5
X151.28Y-90.46
X151.588Y-99.985
X151.6Y-94.0
X151.6Y-98.5
X152.1Y-100.6
X152.35Y-92.63
X153.2Y-76.9
X154.0Y-101.7
X155.2Y-91.2
X158.0Y-83.3
X158.3Y-101.7
X159.1Y-91.1
T4
X157.8Y-85.56
X157.8Y-88.1
T3
G00X118.23Y-77.805
M15
G01X118.23Y-77.205
M16
G05
G00X118.23Y-82.235
M15
G01X118.23Y-81.135
M16
G05
G00X126.87Y-77.805
M15
G01X126.87Y-77.205
M16
G05
G00X126.87Y-82.235
M15
G01X126.87Y-81.135
M16
G05
G00X153.32Y-92.18
M15
G01X154.42Y-92.18
M16
G05
G00X153.32Y-100.82
M15
G01X154.42Y-100.82
M16
G05
G00X157.75Y-92.18
M15
G01X158.35Y-92.18
M16
G05
G00X157.75Y-100.82
M15
G01X158.35Y-100.82
M16
G05
M30
