%TF.GenerationSoftware,KiCad,Pcbnew,10.0.0*%
%TF.CreationDate,2026-04-15T22:08:16-07:00*%
%TF.ProjectId,kbd-nes-v1,6b62642d-6e65-4732-9d76-312e6b696361,rev?*%
%TF.SameCoordinates,Original*%
%TF.FileFunction,Legend,Top*%
%TF.FilePolarity,Positive*%
%FSLAX46Y46*%
G04 Gerber Fmt 4.6, Leading zero omitted, Abs format (unit mm)*
G04 Created by KiCad (PCBNEW 10.0.0) date 2026-04-15 22:08:16*
%MOMM*%
%LPD*%
G01*
G04 APERTURE LIST*
%ADD10C,0.150000*%
%ADD11C,0.152400*%
%ADD12C,0.120000*%
G04 APERTURE END LIST*
D10*
X147138095Y-76854819D02*
X147138095Y-77664342D01*
X147138095Y-77664342D02*
X147185714Y-77759580D01*
X147185714Y-77759580D02*
X147233333Y-77807200D01*
X147233333Y-77807200D02*
X147328571Y-77854819D01*
X147328571Y-77854819D02*
X147519047Y-77854819D01*
X147519047Y-77854819D02*
X147614285Y-77807200D01*
X147614285Y-77807200D02*
X147661904Y-77759580D01*
X147661904Y-77759580D02*
X147709523Y-77664342D01*
X147709523Y-77664342D02*
X147709523Y-76854819D01*
X148661904Y-76854819D02*
X148185714Y-76854819D01*
X148185714Y-76854819D02*
X148138095Y-77331009D01*
X148138095Y-77331009D02*
X148185714Y-77283390D01*
X148185714Y-77283390D02*
X148280952Y-77235771D01*
X148280952Y-77235771D02*
X148519047Y-77235771D01*
X148519047Y-77235771D02*
X148614285Y-77283390D01*
X148614285Y-77283390D02*
X148661904Y-77331009D01*
X148661904Y-77331009D02*
X148709523Y-77426247D01*
X148709523Y-77426247D02*
X148709523Y-77664342D01*
X148709523Y-77664342D02*
X148661904Y-77759580D01*
X148661904Y-77759580D02*
X148614285Y-77807200D01*
X148614285Y-77807200D02*
X148519047Y-77854819D01*
X148519047Y-77854819D02*
X148280952Y-77854819D01*
X148280952Y-77854819D02*
X148185714Y-77807200D01*
X148185714Y-77807200D02*
X148138095Y-77759580D01*
X145182200Y-73248019D02*
X145182200Y-73486114D01*
X144944105Y-73390876D02*
X145182200Y-73486114D01*
X145182200Y-73486114D02*
X145420295Y-73390876D01*
X145039343Y-73676590D02*
X145182200Y-73486114D01*
X145182200Y-73486114D02*
X145325057Y-73676590D01*
X145182200Y-73248019D02*
X145182200Y-73486114D01*
X144944105Y-73390876D02*
X145182200Y-73486114D01*
X145182200Y-73486114D02*
X145420295Y-73390876D01*
X145039343Y-73676590D02*
X145182200Y-73486114D01*
X145182200Y-73486114D02*
X145325057Y-73676590D01*
X122216666Y-83654819D02*
X122216666Y-84369104D01*
X122216666Y-84369104D02*
X122169047Y-84511961D01*
X122169047Y-84511961D02*
X122073809Y-84607200D01*
X122073809Y-84607200D02*
X121930952Y-84654819D01*
X121930952Y-84654819D02*
X121835714Y-84654819D01*
X122597619Y-83654819D02*
X123216666Y-83654819D01*
X123216666Y-83654819D02*
X122883333Y-84035771D01*
X122883333Y-84035771D02*
X123026190Y-84035771D01*
X123026190Y-84035771D02*
X123121428Y-84083390D01*
X123121428Y-84083390D02*
X123169047Y-84131009D01*
X123169047Y-84131009D02*
X123216666Y-84226247D01*
X123216666Y-84226247D02*
X123216666Y-84464342D01*
X123216666Y-84464342D02*
X123169047Y-84559580D01*
X123169047Y-84559580D02*
X123121428Y-84607200D01*
X123121428Y-84607200D02*
X123026190Y-84654819D01*
X123026190Y-84654819D02*
X122740476Y-84654819D01*
X122740476Y-84654819D02*
X122645238Y-84607200D01*
X122645238Y-84607200D02*
X122597619Y-84559580D01*
X122754819Y-96333333D02*
X123469104Y-96333333D01*
X123469104Y-96333333D02*
X123611961Y-96380952D01*
X123611961Y-96380952D02*
X123707200Y-96476190D01*
X123707200Y-96476190D02*
X123754819Y-96619047D01*
X123754819Y-96619047D02*
X123754819Y-96714285D01*
X122754819Y-95380952D02*
X122754819Y-95857142D01*
X122754819Y-95857142D02*
X123231009Y-95904761D01*
X123231009Y-95904761D02*
X123183390Y-95857142D01*
X123183390Y-95857142D02*
X123135771Y-95761904D01*
X123135771Y-95761904D02*
X123135771Y-95523809D01*
X123135771Y-95523809D02*
X123183390Y-95428571D01*
X123183390Y-95428571D02*
X123231009Y-95380952D01*
X123231009Y-95380952D02*
X123326247Y-95333333D01*
X123326247Y-95333333D02*
X123564342Y-95333333D01*
X123564342Y-95333333D02*
X123659580Y-95380952D01*
X123659580Y-95380952D02*
X123707200Y-95428571D01*
X123707200Y-95428571D02*
X123754819Y-95523809D01*
X123754819Y-95523809D02*
X123754819Y-95761904D01*
X123754819Y-95761904D02*
X123707200Y-95857142D01*
X123707200Y-95857142D02*
X123659580Y-95904761D01*
X143719580Y-83266666D02*
X143767200Y-83314285D01*
X143767200Y-83314285D02*
X143814819Y-83457142D01*
X143814819Y-83457142D02*
X143814819Y-83552380D01*
X143814819Y-83552380D02*
X143767200Y-83695237D01*
X143767200Y-83695237D02*
X143671961Y-83790475D01*
X143671961Y-83790475D02*
X143576723Y-83838094D01*
X143576723Y-83838094D02*
X143386247Y-83885713D01*
X143386247Y-83885713D02*
X143243390Y-83885713D01*
X143243390Y-83885713D02*
X143052914Y-83838094D01*
X143052914Y-83838094D02*
X142957676Y-83790475D01*
X142957676Y-83790475D02*
X142862438Y-83695237D01*
X142862438Y-83695237D02*
X142814819Y-83552380D01*
X142814819Y-83552380D02*
X142814819Y-83457142D01*
X142814819Y-83457142D02*
X142862438Y-83314285D01*
X142862438Y-83314285D02*
X142910057Y-83266666D01*
X142814819Y-82361904D02*
X142814819Y-82838094D01*
X142814819Y-82838094D02*
X143291009Y-82885713D01*
X143291009Y-82885713D02*
X143243390Y-82838094D01*
X143243390Y-82838094D02*
X143195771Y-82742856D01*
X143195771Y-82742856D02*
X143195771Y-82504761D01*
X143195771Y-82504761D02*
X143243390Y-82409523D01*
X143243390Y-82409523D02*
X143291009Y-82361904D01*
X143291009Y-82361904D02*
X143386247Y-82314285D01*
X143386247Y-82314285D02*
X143624342Y-82314285D01*
X143624342Y-82314285D02*
X143719580Y-82361904D01*
X143719580Y-82361904D02*
X143767200Y-82409523D01*
X143767200Y-82409523D02*
X143814819Y-82504761D01*
X143814819Y-82504761D02*
X143814819Y-82742856D01*
X143814819Y-82742856D02*
X143767200Y-82838094D01*
X143767200Y-82838094D02*
X143719580Y-82885713D01*
X130757142Y-97919580D02*
X130709523Y-97967200D01*
X130709523Y-97967200D02*
X130566666Y-98014819D01*
X130566666Y-98014819D02*
X130471428Y-98014819D01*
X130471428Y-98014819D02*
X130328571Y-97967200D01*
X130328571Y-97967200D02*
X130233333Y-97871961D01*
X130233333Y-97871961D02*
X130185714Y-97776723D01*
X130185714Y-97776723D02*
X130138095Y-97586247D01*
X130138095Y-97586247D02*
X130138095Y-97443390D01*
X130138095Y-97443390D02*
X130185714Y-97252914D01*
X130185714Y-97252914D02*
X130233333Y-97157676D01*
X130233333Y-97157676D02*
X130328571Y-97062438D01*
X130328571Y-97062438D02*
X130471428Y-97014819D01*
X130471428Y-97014819D02*
X130566666Y-97014819D01*
X130566666Y-97014819D02*
X130709523Y-97062438D01*
X130709523Y-97062438D02*
X130757142Y-97110057D01*
X131709523Y-98014819D02*
X131138095Y-98014819D01*
X131423809Y-98014819D02*
X131423809Y-97014819D01*
X131423809Y-97014819D02*
X131328571Y-97157676D01*
X131328571Y-97157676D02*
X131233333Y-97252914D01*
X131233333Y-97252914D02*
X131138095Y-97300533D01*
X132090476Y-97110057D02*
X132138095Y-97062438D01*
X132138095Y-97062438D02*
X132233333Y-97014819D01*
X132233333Y-97014819D02*
X132471428Y-97014819D01*
X132471428Y-97014819D02*
X132566666Y-97062438D01*
X132566666Y-97062438D02*
X132614285Y-97110057D01*
X132614285Y-97110057D02*
X132661904Y-97205295D01*
X132661904Y-97205295D02*
X132661904Y-97300533D01*
X132661904Y-97300533D02*
X132614285Y-97443390D01*
X132614285Y-97443390D02*
X132042857Y-98014819D01*
X132042857Y-98014819D02*
X132661904Y-98014819D01*
X136057142Y-92319580D02*
X136009523Y-92367200D01*
X136009523Y-92367200D02*
X135866666Y-92414819D01*
X135866666Y-92414819D02*
X135771428Y-92414819D01*
X135771428Y-92414819D02*
X135628571Y-92367200D01*
X135628571Y-92367200D02*
X135533333Y-92271961D01*
X135533333Y-92271961D02*
X135485714Y-92176723D01*
X135485714Y-92176723D02*
X135438095Y-91986247D01*
X135438095Y-91986247D02*
X135438095Y-91843390D01*
X135438095Y-91843390D02*
X135485714Y-91652914D01*
X135485714Y-91652914D02*
X135533333Y-91557676D01*
X135533333Y-91557676D02*
X135628571Y-91462438D01*
X135628571Y-91462438D02*
X135771428Y-91414819D01*
X135771428Y-91414819D02*
X135866666Y-91414819D01*
X135866666Y-91414819D02*
X136009523Y-91462438D01*
X136009523Y-91462438D02*
X136057142Y-91510057D01*
X137009523Y-92414819D02*
X136438095Y-92414819D01*
X136723809Y-92414819D02*
X136723809Y-91414819D01*
X136723809Y-91414819D02*
X136628571Y-91557676D01*
X136628571Y-91557676D02*
X136533333Y-91652914D01*
X136533333Y-91652914D02*
X136438095Y-91700533D01*
X137342857Y-91414819D02*
X137961904Y-91414819D01*
X137961904Y-91414819D02*
X137628571Y-91795771D01*
X137628571Y-91795771D02*
X137771428Y-91795771D01*
X137771428Y-91795771D02*
X137866666Y-91843390D01*
X137866666Y-91843390D02*
X137914285Y-91891009D01*
X137914285Y-91891009D02*
X137961904Y-91986247D01*
X137961904Y-91986247D02*
X137961904Y-92224342D01*
X137961904Y-92224342D02*
X137914285Y-92319580D01*
X137914285Y-92319580D02*
X137866666Y-92367200D01*
X137866666Y-92367200D02*
X137771428Y-92414819D01*
X137771428Y-92414819D02*
X137485714Y-92414819D01*
X137485714Y-92414819D02*
X137390476Y-92367200D01*
X137390476Y-92367200D02*
X137342857Y-92319580D01*
X144033333Y-94599580D02*
X143985714Y-94647200D01*
X143985714Y-94647200D02*
X143842857Y-94694819D01*
X143842857Y-94694819D02*
X143747619Y-94694819D01*
X143747619Y-94694819D02*
X143604762Y-94647200D01*
X143604762Y-94647200D02*
X143509524Y-94551961D01*
X143509524Y-94551961D02*
X143461905Y-94456723D01*
X143461905Y-94456723D02*
X143414286Y-94266247D01*
X143414286Y-94266247D02*
X143414286Y-94123390D01*
X143414286Y-94123390D02*
X143461905Y-93932914D01*
X143461905Y-93932914D02*
X143509524Y-93837676D01*
X143509524Y-93837676D02*
X143604762Y-93742438D01*
X143604762Y-93742438D02*
X143747619Y-93694819D01*
X143747619Y-93694819D02*
X143842857Y-93694819D01*
X143842857Y-93694819D02*
X143985714Y-93742438D01*
X143985714Y-93742438D02*
X144033333Y-93790057D01*
X144366667Y-93694819D02*
X145033333Y-93694819D01*
X145033333Y-93694819D02*
X144604762Y-94694819D01*
X145657142Y-94699580D02*
X145609523Y-94747200D01*
X145609523Y-94747200D02*
X145466666Y-94794819D01*
X145466666Y-94794819D02*
X145371428Y-94794819D01*
X145371428Y-94794819D02*
X145228571Y-94747200D01*
X145228571Y-94747200D02*
X145133333Y-94651961D01*
X145133333Y-94651961D02*
X145085714Y-94556723D01*
X145085714Y-94556723D02*
X145038095Y-94366247D01*
X145038095Y-94366247D02*
X145038095Y-94223390D01*
X145038095Y-94223390D02*
X145085714Y-94032914D01*
X145085714Y-94032914D02*
X145133333Y-93937676D01*
X145133333Y-93937676D02*
X145228571Y-93842438D01*
X145228571Y-93842438D02*
X145371428Y-93794819D01*
X145371428Y-93794819D02*
X145466666Y-93794819D01*
X145466666Y-93794819D02*
X145609523Y-93842438D01*
X145609523Y-93842438D02*
X145657142Y-93890057D01*
X146609523Y-94794819D02*
X146038095Y-94794819D01*
X146323809Y-94794819D02*
X146323809Y-93794819D01*
X146323809Y-93794819D02*
X146228571Y-93937676D01*
X146228571Y-93937676D02*
X146133333Y-94032914D01*
X146133333Y-94032914D02*
X146038095Y-94080533D01*
X147514285Y-93794819D02*
X147038095Y-93794819D01*
X147038095Y-93794819D02*
X146990476Y-94271009D01*
X146990476Y-94271009D02*
X147038095Y-94223390D01*
X147038095Y-94223390D02*
X147133333Y-94175771D01*
X147133333Y-94175771D02*
X147371428Y-94175771D01*
X147371428Y-94175771D02*
X147466666Y-94223390D01*
X147466666Y-94223390D02*
X147514285Y-94271009D01*
X147514285Y-94271009D02*
X147561904Y-94366247D01*
X147561904Y-94366247D02*
X147561904Y-94604342D01*
X147561904Y-94604342D02*
X147514285Y-94699580D01*
X147514285Y-94699580D02*
X147466666Y-94747200D01*
X147466666Y-94747200D02*
X147371428Y-94794819D01*
X147371428Y-94794819D02*
X147133333Y-94794819D01*
X147133333Y-94794819D02*
X147038095Y-94747200D01*
X147038095Y-94747200D02*
X146990476Y-94699580D01*
X119029580Y-86117857D02*
X119077200Y-86165476D01*
X119077200Y-86165476D02*
X119124819Y-86308333D01*
X119124819Y-86308333D02*
X119124819Y-86403571D01*
X119124819Y-86403571D02*
X119077200Y-86546428D01*
X119077200Y-86546428D02*
X118981961Y-86641666D01*
X118981961Y-86641666D02*
X118886723Y-86689285D01*
X118886723Y-86689285D02*
X118696247Y-86736904D01*
X118696247Y-86736904D02*
X118553390Y-86736904D01*
X118553390Y-86736904D02*
X118362914Y-86689285D01*
X118362914Y-86689285D02*
X118267676Y-86641666D01*
X118267676Y-86641666D02*
X118172438Y-86546428D01*
X118172438Y-86546428D02*
X118124819Y-86403571D01*
X118124819Y-86403571D02*
X118124819Y-86308333D01*
X118124819Y-86308333D02*
X118172438Y-86165476D01*
X118172438Y-86165476D02*
X118220057Y-86117857D01*
X119124819Y-85165476D02*
X119124819Y-85736904D01*
X119124819Y-85451190D02*
X118124819Y-85451190D01*
X118124819Y-85451190D02*
X118267676Y-85546428D01*
X118267676Y-85546428D02*
X118362914Y-85641666D01*
X118362914Y-85641666D02*
X118410533Y-85736904D01*
X118124819Y-84832142D02*
X118124819Y-84165476D01*
X118124819Y-84165476D02*
X119124819Y-84594047D01*
X130833333Y-98919580D02*
X130785714Y-98967200D01*
X130785714Y-98967200D02*
X130642857Y-99014819D01*
X130642857Y-99014819D02*
X130547619Y-99014819D01*
X130547619Y-99014819D02*
X130404762Y-98967200D01*
X130404762Y-98967200D02*
X130309524Y-98871961D01*
X130309524Y-98871961D02*
X130261905Y-98776723D01*
X130261905Y-98776723D02*
X130214286Y-98586247D01*
X130214286Y-98586247D02*
X130214286Y-98443390D01*
X130214286Y-98443390D02*
X130261905Y-98252914D01*
X130261905Y-98252914D02*
X130309524Y-98157676D01*
X130309524Y-98157676D02*
X130404762Y-98062438D01*
X130404762Y-98062438D02*
X130547619Y-98014819D01*
X130547619Y-98014819D02*
X130642857Y-98014819D01*
X130642857Y-98014819D02*
X130785714Y-98062438D01*
X130785714Y-98062438D02*
X130833333Y-98110057D01*
X131690476Y-98014819D02*
X131500000Y-98014819D01*
X131500000Y-98014819D02*
X131404762Y-98062438D01*
X131404762Y-98062438D02*
X131357143Y-98110057D01*
X131357143Y-98110057D02*
X131261905Y-98252914D01*
X131261905Y-98252914D02*
X131214286Y-98443390D01*
X131214286Y-98443390D02*
X131214286Y-98824342D01*
X131214286Y-98824342D02*
X131261905Y-98919580D01*
X131261905Y-98919580D02*
X131309524Y-98967200D01*
X131309524Y-98967200D02*
X131404762Y-99014819D01*
X131404762Y-99014819D02*
X131595238Y-99014819D01*
X131595238Y-99014819D02*
X131690476Y-98967200D01*
X131690476Y-98967200D02*
X131738095Y-98919580D01*
X131738095Y-98919580D02*
X131785714Y-98824342D01*
X131785714Y-98824342D02*
X131785714Y-98586247D01*
X131785714Y-98586247D02*
X131738095Y-98491009D01*
X131738095Y-98491009D02*
X131690476Y-98443390D01*
X131690476Y-98443390D02*
X131595238Y-98395771D01*
X131595238Y-98395771D02*
X131404762Y-98395771D01*
X131404762Y-98395771D02*
X131309524Y-98443390D01*
X131309524Y-98443390D02*
X131261905Y-98491009D01*
X131261905Y-98491009D02*
X131214286Y-98586247D01*
X138857142Y-92819580D02*
X138809523Y-92867200D01*
X138809523Y-92867200D02*
X138666666Y-92914819D01*
X138666666Y-92914819D02*
X138571428Y-92914819D01*
X138571428Y-92914819D02*
X138428571Y-92867200D01*
X138428571Y-92867200D02*
X138333333Y-92771961D01*
X138333333Y-92771961D02*
X138285714Y-92676723D01*
X138285714Y-92676723D02*
X138238095Y-92486247D01*
X138238095Y-92486247D02*
X138238095Y-92343390D01*
X138238095Y-92343390D02*
X138285714Y-92152914D01*
X138285714Y-92152914D02*
X138333333Y-92057676D01*
X138333333Y-92057676D02*
X138428571Y-91962438D01*
X138428571Y-91962438D02*
X138571428Y-91914819D01*
X138571428Y-91914819D02*
X138666666Y-91914819D01*
X138666666Y-91914819D02*
X138809523Y-91962438D01*
X138809523Y-91962438D02*
X138857142Y-92010057D01*
X139809523Y-92914819D02*
X139238095Y-92914819D01*
X139523809Y-92914819D02*
X139523809Y-91914819D01*
X139523809Y-91914819D02*
X139428571Y-92057676D01*
X139428571Y-92057676D02*
X139333333Y-92152914D01*
X139333333Y-92152914D02*
X139238095Y-92200533D01*
X140666666Y-91914819D02*
X140476190Y-91914819D01*
X140476190Y-91914819D02*
X140380952Y-91962438D01*
X140380952Y-91962438D02*
X140333333Y-92010057D01*
X140333333Y-92010057D02*
X140238095Y-92152914D01*
X140238095Y-92152914D02*
X140190476Y-92343390D01*
X140190476Y-92343390D02*
X140190476Y-92724342D01*
X140190476Y-92724342D02*
X140238095Y-92819580D01*
X140238095Y-92819580D02*
X140285714Y-92867200D01*
X140285714Y-92867200D02*
X140380952Y-92914819D01*
X140380952Y-92914819D02*
X140571428Y-92914819D01*
X140571428Y-92914819D02*
X140666666Y-92867200D01*
X140666666Y-92867200D02*
X140714285Y-92819580D01*
X140714285Y-92819580D02*
X140761904Y-92724342D01*
X140761904Y-92724342D02*
X140761904Y-92486247D01*
X140761904Y-92486247D02*
X140714285Y-92391009D01*
X140714285Y-92391009D02*
X140666666Y-92343390D01*
X140666666Y-92343390D02*
X140571428Y-92295771D01*
X140571428Y-92295771D02*
X140380952Y-92295771D01*
X140380952Y-92295771D02*
X140285714Y-92343390D01*
X140285714Y-92343390D02*
X140238095Y-92391009D01*
X140238095Y-92391009D02*
X140190476Y-92486247D01*
X138219580Y-102042857D02*
X138267200Y-102090476D01*
X138267200Y-102090476D02*
X138314819Y-102233333D01*
X138314819Y-102233333D02*
X138314819Y-102328571D01*
X138314819Y-102328571D02*
X138267200Y-102471428D01*
X138267200Y-102471428D02*
X138171961Y-102566666D01*
X138171961Y-102566666D02*
X138076723Y-102614285D01*
X138076723Y-102614285D02*
X137886247Y-102661904D01*
X137886247Y-102661904D02*
X137743390Y-102661904D01*
X137743390Y-102661904D02*
X137552914Y-102614285D01*
X137552914Y-102614285D02*
X137457676Y-102566666D01*
X137457676Y-102566666D02*
X137362438Y-102471428D01*
X137362438Y-102471428D02*
X137314819Y-102328571D01*
X137314819Y-102328571D02*
X137314819Y-102233333D01*
X137314819Y-102233333D02*
X137362438Y-102090476D01*
X137362438Y-102090476D02*
X137410057Y-102042857D01*
X138314819Y-101090476D02*
X138314819Y-101661904D01*
X138314819Y-101376190D02*
X137314819Y-101376190D01*
X137314819Y-101376190D02*
X137457676Y-101471428D01*
X137457676Y-101471428D02*
X137552914Y-101566666D01*
X137552914Y-101566666D02*
X137600533Y-101661904D01*
X138314819Y-100138095D02*
X138314819Y-100709523D01*
X138314819Y-100423809D02*
X137314819Y-100423809D01*
X137314819Y-100423809D02*
X137457676Y-100519047D01*
X137457676Y-100519047D02*
X137552914Y-100614285D01*
X137552914Y-100614285D02*
X137600533Y-100709523D01*
X150359580Y-94402857D02*
X150407200Y-94450476D01*
X150407200Y-94450476D02*
X150454819Y-94593333D01*
X150454819Y-94593333D02*
X150454819Y-94688571D01*
X150454819Y-94688571D02*
X150407200Y-94831428D01*
X150407200Y-94831428D02*
X150311961Y-94926666D01*
X150311961Y-94926666D02*
X150216723Y-94974285D01*
X150216723Y-94974285D02*
X150026247Y-95021904D01*
X150026247Y-95021904D02*
X149883390Y-95021904D01*
X149883390Y-95021904D02*
X149692914Y-94974285D01*
X149692914Y-94974285D02*
X149597676Y-94926666D01*
X149597676Y-94926666D02*
X149502438Y-94831428D01*
X149502438Y-94831428D02*
X149454819Y-94688571D01*
X149454819Y-94688571D02*
X149454819Y-94593333D01*
X149454819Y-94593333D02*
X149502438Y-94450476D01*
X149502438Y-94450476D02*
X149550057Y-94402857D01*
X150454819Y-93450476D02*
X150454819Y-94021904D01*
X150454819Y-93736190D02*
X149454819Y-93736190D01*
X149454819Y-93736190D02*
X149597676Y-93831428D01*
X149597676Y-93831428D02*
X149692914Y-93926666D01*
X149692914Y-93926666D02*
X149740533Y-94021904D01*
X150454819Y-92974285D02*
X150454819Y-92783809D01*
X150454819Y-92783809D02*
X150407200Y-92688571D01*
X150407200Y-92688571D02*
X150359580Y-92640952D01*
X150359580Y-92640952D02*
X150216723Y-92545714D01*
X150216723Y-92545714D02*
X150026247Y-92498095D01*
X150026247Y-92498095D02*
X149645295Y-92498095D01*
X149645295Y-92498095D02*
X149550057Y-92545714D01*
X149550057Y-92545714D02*
X149502438Y-92593333D01*
X149502438Y-92593333D02*
X149454819Y-92688571D01*
X149454819Y-92688571D02*
X149454819Y-92879047D01*
X149454819Y-92879047D02*
X149502438Y-92974285D01*
X149502438Y-92974285D02*
X149550057Y-93021904D01*
X149550057Y-93021904D02*
X149645295Y-93069523D01*
X149645295Y-93069523D02*
X149883390Y-93069523D01*
X149883390Y-93069523D02*
X149978628Y-93021904D01*
X149978628Y-93021904D02*
X150026247Y-92974285D01*
X150026247Y-92974285D02*
X150073866Y-92879047D01*
X150073866Y-92879047D02*
X150073866Y-92688571D01*
X150073866Y-92688571D02*
X150026247Y-92593333D01*
X150026247Y-92593333D02*
X149978628Y-92545714D01*
X149978628Y-92545714D02*
X149883390Y-92498095D01*
X141819580Y-101666666D02*
X141867200Y-101714285D01*
X141867200Y-101714285D02*
X141914819Y-101857142D01*
X141914819Y-101857142D02*
X141914819Y-101952380D01*
X141914819Y-101952380D02*
X141867200Y-102095237D01*
X141867200Y-102095237D02*
X141771961Y-102190475D01*
X141771961Y-102190475D02*
X141676723Y-102238094D01*
X141676723Y-102238094D02*
X141486247Y-102285713D01*
X141486247Y-102285713D02*
X141343390Y-102285713D01*
X141343390Y-102285713D02*
X141152914Y-102238094D01*
X141152914Y-102238094D02*
X141057676Y-102190475D01*
X141057676Y-102190475D02*
X140962438Y-102095237D01*
X140962438Y-102095237D02*
X140914819Y-101952380D01*
X140914819Y-101952380D02*
X140914819Y-101857142D01*
X140914819Y-101857142D02*
X140962438Y-101714285D01*
X140962438Y-101714285D02*
X141010057Y-101666666D01*
X141914819Y-101190475D02*
X141914819Y-100999999D01*
X141914819Y-100999999D02*
X141867200Y-100904761D01*
X141867200Y-100904761D02*
X141819580Y-100857142D01*
X141819580Y-100857142D02*
X141676723Y-100761904D01*
X141676723Y-100761904D02*
X141486247Y-100714285D01*
X141486247Y-100714285D02*
X141105295Y-100714285D01*
X141105295Y-100714285D02*
X141010057Y-100761904D01*
X141010057Y-100761904D02*
X140962438Y-100809523D01*
X140962438Y-100809523D02*
X140914819Y-100904761D01*
X140914819Y-100904761D02*
X140914819Y-101095237D01*
X140914819Y-101095237D02*
X140962438Y-101190475D01*
X140962438Y-101190475D02*
X141010057Y-101238094D01*
X141010057Y-101238094D02*
X141105295Y-101285713D01*
X141105295Y-101285713D02*
X141343390Y-101285713D01*
X141343390Y-101285713D02*
X141438628Y-101238094D01*
X141438628Y-101238094D02*
X141486247Y-101190475D01*
X141486247Y-101190475D02*
X141533866Y-101095237D01*
X141533866Y-101095237D02*
X141533866Y-100904761D01*
X141533866Y-100904761D02*
X141486247Y-100809523D01*
X141486247Y-100809523D02*
X141438628Y-100761904D01*
X141438628Y-100761904D02*
X141343390Y-100714285D01*
X123599580Y-85522857D02*
X123647200Y-85570476D01*
X123647200Y-85570476D02*
X123694819Y-85713333D01*
X123694819Y-85713333D02*
X123694819Y-85808571D01*
X123694819Y-85808571D02*
X123647200Y-85951428D01*
X123647200Y-85951428D02*
X123551961Y-86046666D01*
X123551961Y-86046666D02*
X123456723Y-86094285D01*
X123456723Y-86094285D02*
X123266247Y-86141904D01*
X123266247Y-86141904D02*
X123123390Y-86141904D01*
X123123390Y-86141904D02*
X122932914Y-86094285D01*
X122932914Y-86094285D02*
X122837676Y-86046666D01*
X122837676Y-86046666D02*
X122742438Y-85951428D01*
X122742438Y-85951428D02*
X122694819Y-85808571D01*
X122694819Y-85808571D02*
X122694819Y-85713333D01*
X122694819Y-85713333D02*
X122742438Y-85570476D01*
X122742438Y-85570476D02*
X122790057Y-85522857D01*
X123694819Y-84570476D02*
X123694819Y-85141904D01*
X123694819Y-84856190D02*
X122694819Y-84856190D01*
X122694819Y-84856190D02*
X122837676Y-84951428D01*
X122837676Y-84951428D02*
X122932914Y-85046666D01*
X122932914Y-85046666D02*
X122980533Y-85141904D01*
X123123390Y-83999047D02*
X123075771Y-84094285D01*
X123075771Y-84094285D02*
X123028152Y-84141904D01*
X123028152Y-84141904D02*
X122932914Y-84189523D01*
X122932914Y-84189523D02*
X122885295Y-84189523D01*
X122885295Y-84189523D02*
X122790057Y-84141904D01*
X122790057Y-84141904D02*
X122742438Y-84094285D01*
X122742438Y-84094285D02*
X122694819Y-83999047D01*
X122694819Y-83999047D02*
X122694819Y-83808571D01*
X122694819Y-83808571D02*
X122742438Y-83713333D01*
X122742438Y-83713333D02*
X122790057Y-83665714D01*
X122790057Y-83665714D02*
X122885295Y-83618095D01*
X122885295Y-83618095D02*
X122932914Y-83618095D01*
X122932914Y-83618095D02*
X123028152Y-83665714D01*
X123028152Y-83665714D02*
X123075771Y-83713333D01*
X123075771Y-83713333D02*
X123123390Y-83808571D01*
X123123390Y-83808571D02*
X123123390Y-83999047D01*
X123123390Y-83999047D02*
X123171009Y-84094285D01*
X123171009Y-84094285D02*
X123218628Y-84141904D01*
X123218628Y-84141904D02*
X123313866Y-84189523D01*
X123313866Y-84189523D02*
X123504342Y-84189523D01*
X123504342Y-84189523D02*
X123599580Y-84141904D01*
X123599580Y-84141904D02*
X123647200Y-84094285D01*
X123647200Y-84094285D02*
X123694819Y-83999047D01*
X123694819Y-83999047D02*
X123694819Y-83808571D01*
X123694819Y-83808571D02*
X123647200Y-83713333D01*
X123647200Y-83713333D02*
X123599580Y-83665714D01*
X123599580Y-83665714D02*
X123504342Y-83618095D01*
X123504342Y-83618095D02*
X123313866Y-83618095D01*
X123313866Y-83618095D02*
X123218628Y-83665714D01*
X123218628Y-83665714D02*
X123171009Y-83713333D01*
X123171009Y-83713333D02*
X123123390Y-83808571D01*
%TO.C,U5*%
D11*
X146526347Y-79901900D02*
X149273653Y-79901900D01*
X149273653Y-74898100D02*
X146526347Y-74898100D01*
X148204800Y-74898100D02*
G75*
G02*
X147595200Y-74898100I-304800J0D01*
G01*
%TO.C,J3*%
D12*
X127250000Y-80455000D02*
X127250000Y-78455000D01*
X127250000Y-76555000D02*
X127250000Y-74655000D01*
X127250000Y-74655000D02*
X117850000Y-74655000D01*
X117850000Y-80455000D02*
X117850000Y-78455000D01*
X117850000Y-76555000D02*
X117850000Y-74655000D01*
%TO.C,J4*%
X160900000Y-101200000D02*
X160900000Y-91800000D01*
X159000000Y-101200000D02*
X160900000Y-101200000D01*
X159000000Y-91800000D02*
X160900000Y-91800000D01*
X155100000Y-101200000D02*
X157100000Y-101200000D01*
X155100000Y-91800000D02*
X157100000Y-91800000D01*
%TO.C,J5*%
X120810000Y-103060000D02*
X120810000Y-102040000D01*
X120810000Y-102040000D02*
X119210000Y-102040000D01*
X120810000Y-89960000D02*
X119210000Y-89960000D01*
X120810000Y-88940000D02*
X120810000Y-89960000D01*
X119210000Y-102040000D02*
X119210000Y-100760000D01*
X119210000Y-91240000D02*
X122100000Y-91240000D01*
X119210000Y-89960000D02*
X119210000Y-91240000D01*
X116560000Y-103060000D02*
X120810000Y-103060000D01*
X116560000Y-88940000D02*
X120810000Y-88940000D01*
X112990000Y-90660000D02*
X112990000Y-101340000D01*
%TO.C,J6*%
X131505000Y-101830000D02*
X131505000Y-102465000D01*
X130870000Y-101830000D02*
X131505000Y-101830000D01*
%TO.C,U3*%
X140300001Y-91760000D02*
X140060000Y-91430000D01*
X140540000Y-91430000D01*
X140300001Y-91760000D01*
G36*
X140300001Y-91760000D02*
G01*
X140060000Y-91430000D01*
X140540000Y-91430000D01*
X140300001Y-91760000D01*
G37*
X141310000Y-99510000D02*
X140660001Y-99510000D01*
X141310000Y-98860001D02*
X141310000Y-99510000D01*
X141310000Y-92290000D02*
X141310000Y-92939999D01*
X140660001Y-92290000D02*
X141310000Y-92290000D01*
X134739999Y-99510000D02*
X134090000Y-99510000D01*
X134090000Y-99510000D02*
X134090000Y-98860001D01*
X134090000Y-92939999D02*
X134090000Y-92290000D01*
X134090000Y-92290000D02*
X134739999Y-92290000D01*
%TO.C,R8*%
X149877500Y-99637742D02*
X149877500Y-100112258D01*
X150922500Y-99637742D02*
X150922500Y-100112258D01*
%TO.C,U2*%
X142940000Y-84440000D02*
X148460000Y-84440000D01*
X142940000Y-84710000D02*
X142940000Y-84440000D01*
X142940000Y-89960000D02*
X142940000Y-89690000D01*
X148460000Y-84440000D02*
X148460000Y-84710000D01*
X148460000Y-89690000D02*
X148460000Y-89960000D01*
X148460000Y-89960000D02*
X142940000Y-89960000D01*
X142110000Y-84700000D02*
X141770000Y-84230000D01*
X142450000Y-84230000D01*
X142110000Y-84700000D01*
G36*
X142110000Y-84700000D02*
G01*
X141770000Y-84230000D01*
X142450000Y-84230000D01*
X142110000Y-84700000D01*
G37*
%TO.C,R3*%
X147053641Y-96120000D02*
X146746359Y-96120000D01*
X147053641Y-96880000D02*
X146746359Y-96880000D01*
%TO.C,C5*%
X141840000Y-82992164D02*
X141840000Y-83207836D01*
X142560000Y-82992164D02*
X142560000Y-83207836D01*
%TO.C,C12*%
X131507836Y-96040000D02*
X131292164Y-96040000D01*
X131507836Y-96760000D02*
X131292164Y-96760000D01*
%TO.C,C13*%
X136807836Y-90440000D02*
X136592164Y-90440000D01*
X136807836Y-91160000D02*
X136592164Y-91160000D01*
%TO.C,R6*%
X122825000Y-85163641D02*
X122825000Y-84856359D01*
X123585000Y-85163641D02*
X123585000Y-84856359D01*
%TO.C,J2*%
X156420000Y-86830000D02*
X156420000Y-84180000D01*
X159180000Y-84180000D02*
X156420000Y-84180000D01*
X159180000Y-86830000D02*
X156420000Y-86830000D01*
X159180000Y-86830000D02*
X159180000Y-84180000D01*
X159180000Y-88100000D02*
X159180000Y-89480000D01*
X159180000Y-89480000D02*
X157800000Y-89480000D01*
%TO.C,U4*%
X133390000Y-78890000D02*
X133390000Y-80150000D01*
X133390000Y-85710000D02*
X133390000Y-84450000D01*
X137150000Y-78890000D02*
X133390000Y-78890000D01*
X137150000Y-85710000D02*
X133390000Y-85710000D01*
X138670000Y-85940000D02*
X138190000Y-85940000D01*
X138430000Y-85610000D01*
X138670000Y-85940000D01*
G36*
X138670000Y-85940000D02*
G01*
X138190000Y-85940000D01*
X138430000Y-85610000D01*
X138670000Y-85940000D01*
G37*
%TO.C,R9*%
X149937258Y-93277500D02*
X149462742Y-93277500D01*
X149937258Y-94322500D02*
X149462742Y-94322500D01*
%TO.C,R11*%
X123846359Y-90120000D02*
X124153641Y-90120000D01*
X123846359Y-90880000D02*
X124153641Y-90880000D01*
%TO.C,R17*%
X123836359Y-99120000D02*
X124143641Y-99120000D01*
X123836359Y-99880000D02*
X124143641Y-99880000D01*
%TO.C,R12*%
X123846359Y-93520000D02*
X124153641Y-93520000D01*
X123846359Y-94280000D02*
X124153641Y-94280000D01*
%TO.C,C1*%
X142140580Y-76990000D02*
X141859420Y-76990000D01*
X142140580Y-78010000D02*
X141859420Y-78010000D01*
%TO.C,C7*%
X144092164Y-95040000D02*
X144307836Y-95040000D01*
X144092164Y-95760000D02*
X144307836Y-95760000D01*
%TO.C,Q1*%
X122802500Y-100390000D02*
X124322500Y-100390000D01*
X122802500Y-101390000D02*
X122802500Y-100390000D01*
X122802500Y-103510000D02*
X122802500Y-102510000D01*
X124322500Y-100390000D02*
X124322500Y-100440000D01*
X124322500Y-101560000D02*
X124322500Y-102340000D01*
X124322500Y-103460000D02*
X124322500Y-103510000D01*
X124322500Y-103510000D02*
X122802500Y-103510000D01*
X124862500Y-102330000D02*
X124622500Y-102000000D01*
X125102500Y-102000000D01*
X124862500Y-102330000D01*
G36*
X124862500Y-102330000D02*
G01*
X124622500Y-102000000D01*
X125102500Y-102000000D01*
X124862500Y-102330000D01*
G37*
%TO.C,C2*%
X131707836Y-93940000D02*
X131492164Y-93940000D01*
X131707836Y-94660000D02*
X131492164Y-94660000D01*
%TO.C,C15*%
X146192164Y-95140000D02*
X146407836Y-95140000D01*
X146192164Y-95860000D02*
X146407836Y-95860000D01*
%TO.C,C17*%
X119590000Y-85615580D02*
X119590000Y-85334420D01*
X120610000Y-85615580D02*
X120610000Y-85334420D01*
%TO.C,C6*%
X131107836Y-97040000D02*
X130892164Y-97040000D01*
X131107836Y-97760000D02*
X130892164Y-97760000D01*
%TO.C,C3*%
X128840000Y-90392164D02*
X128840000Y-90607836D01*
X129560000Y-90392164D02*
X129560000Y-90607836D01*
%TO.C,C16*%
X139607836Y-90940000D02*
X139392164Y-90940000D01*
X139607836Y-91660000D02*
X139392164Y-91660000D01*
%TO.C,R16*%
X124653641Y-97620000D02*
X124346359Y-97620000D01*
X124653641Y-98380000D02*
X124346359Y-98380000D01*
%TO.C,R7*%
X121320000Y-85163641D02*
X121320000Y-84856359D01*
X122080000Y-85163641D02*
X122080000Y-84856359D01*
%TO.C,C11*%
X136340000Y-101292164D02*
X136340000Y-101507836D01*
X137060000Y-101292164D02*
X137060000Y-101507836D01*
%TO.C,C19*%
X150107836Y-92240000D02*
X149892164Y-92240000D01*
X150107836Y-92960000D02*
X149892164Y-92960000D01*
%TO.C,R5*%
X131553641Y-95020000D02*
X131246359Y-95020000D01*
X131553641Y-95780000D02*
X131246359Y-95780000D01*
%TO.C,Y1*%
X129990000Y-93560000D02*
X133410000Y-93560000D01*
X133410000Y-93560000D02*
X133410000Y-89440000D01*
%TO.C,C9*%
X139940000Y-101392164D02*
X139940000Y-101607836D01*
X140660000Y-101392164D02*
X140660000Y-101607836D01*
%TO.C,R13*%
X124053641Y-92020000D02*
X123746359Y-92020000D01*
X124053641Y-92780000D02*
X123746359Y-92780000D01*
%TO.C,R15*%
X123846359Y-96120000D02*
X124153641Y-96120000D01*
X123846359Y-96880000D02*
X124153641Y-96880000D01*
%TO.C,R4*%
X145753641Y-97120000D02*
X145446359Y-97120000D01*
X145753641Y-97880000D02*
X145446359Y-97880000D01*
%TO.C,R1*%
X143120000Y-83353641D02*
X143120000Y-83046359D01*
X143880000Y-83353641D02*
X143880000Y-83046359D01*
%TO.C,C20*%
X148290000Y-96059420D02*
X148290000Y-96340580D01*
X149310000Y-96059420D02*
X149310000Y-96340580D01*
%TO.C,C8*%
X143492164Y-97340000D02*
X143707836Y-97340000D01*
X143492164Y-98060000D02*
X143707836Y-98060000D01*
%TO.C,C18*%
X124040000Y-84987836D02*
X124040000Y-84772164D01*
X124760000Y-84987836D02*
X124760000Y-84772164D01*
%TO.C,R2*%
X140620000Y-83146359D02*
X140620000Y-83453641D01*
X141380000Y-83146359D02*
X141380000Y-83453641D01*
%TO.C,R10*%
X150346359Y-91120000D02*
X150653641Y-91120000D01*
X150346359Y-91880000D02*
X150653641Y-91880000D01*
%TO.C,C14*%
X141892164Y-99940000D02*
X142107836Y-99940000D01*
X141892164Y-100660000D02*
X142107836Y-100660000D01*
%TO.C,C4*%
X129190000Y-84240580D02*
X129190000Y-83959420D01*
X130210000Y-84240580D02*
X130210000Y-83959420D01*
%TO.C,R14*%
X123846359Y-94620000D02*
X124153641Y-94620000D01*
X123846359Y-95380000D02*
X124153641Y-95380000D01*
%TO.C,C10*%
X142792164Y-98540000D02*
X143007836Y-98540000D01*
X142792164Y-99260000D02*
X143007836Y-99260000D01*
%TO.C,R18*%
X132620000Y-99946359D02*
X132620000Y-100253641D01*
X133380000Y-99946359D02*
X133380000Y-100253641D01*
%TD*%
M02*
