M48
; DRILL file KiCad 10.0.0 date 2026-05-05T22:42:21
; FORMAT={-:-/ absolute / metric / decimal}
; #@! TF.CreationDate,2026-05-05T22:42:21-07:00
; #@! TF.GenerationSoftware,Kicad,Pcbnew,10.0.0
; #@! TF.FileFunction,Plated,1,4,PTH
FMAT,2
METRIC
; #@! TA.AperFunction,Plated,PTH,ComponentDrill
T1C0.200
; #@! TA.AperFunction,Plated,PTH,ViaDrill
T2C0.300
; #@! TA.AperFunction,Plated,PTH,ComponentDrill
T3C0.600
; #@! TA.AperFunction,Plated,PTH,ComponentDrill
T4C1.000
; #@! TA.AperFunction,Plated,PTH,ComponentDrill
T5C1.000
%
G90
G05
T1
X136.35Y-94.55
X136.35Y-97.25
X139.05Y-94.55
X139.05Y-97.25
T2
X120.6Y-94.6
X120.9Y-100.7
X121.6Y-90.4
X122.5Y-100.9
X122.5Y-102.3
X123.0Y-78.6
X123.1Y-98.8
X123.5Y-91.5
X123.52Y-96.925
X123.52Y-94.85
X123.912Y-90.814
X124.826Y-101.726
X125.3Y-95.6
X125.7Y-96.5
X125.9Y-94.2
X126.0Y-91.3
X126.1Y-88.8
X126.5Y-103.9
X127.0Y-91.4
X127.3Y-82.3
X129.2Y-91.7
X129.35Y-97.65
X129.6Y-92.6
X129.7Y-86.1
X129.8Y-82.3
X130.1Y-96.5
X130.2Y-94.3
X130.849Y-101.3
X132.3Y-85.2
X132.445Y-96.207
X133.314Y-94.366
X133.4Y-103.7
X133.5Y-98.8
X133.7Y-89.3
X134.0Y-100.0
X134.6Y-100.7
X135.482Y-91.206
X136.3Y-90.0
X136.694Y-91.645
X136.7Y-82.9
X136.701Y-100.151
X137.3Y-101.6
X137.7Y-95.9
X138.3Y-91.3
X138.6Y-86.8
X138.7Y-78.8
X139.843Y-90.723
X140.3Y-100.4
X140.537Y-91.5
X141.0Y-81.9
X141.0Y-101.6
X141.2Y-76.3
X141.7Y-99.1
X141.7Y-99.8
X141.914Y-84.248
X142.0Y-98.3
X142.1Y-90.2
X142.2Y-81.9
X142.615Y-98.396
X143.1Y-100.3
X143.4Y-74.2
X143.8Y-77.5
X143.9Y-76.0
X144.0Y-98.9
X144.5Y-98.2
X144.7Y-75.2
X144.8Y-76.1
X144.9Y-94.4
X145.5Y-77.7
X145.8Y-94.8
X146.7Y-80.58
X146.8Y-94.8
X146.9Y-98.1
X147.1Y-72.5
X147.423Y-97.201
X147.5Y-81.6
X148.4Y-71.5
X148.4Y-77.8
X148.4Y-79.7
X148.8Y-98.401
X148.839Y-92.739
X149.7Y-70.9
X149.955Y-97.04
X150.134Y-95.034
X150.4Y-84.7
X150.401Y-97.801
X150.5Y-71.9
X150.7Y-95.6
X150.726Y-96.826
X151.1Y-92.5
X151.3Y-74.8
X151.588Y-99.985
X151.6Y-75.6
X151.6Y-94.0
X151.6Y-98.5
X151.8Y-70.5
X152.1Y-100.6
X152.35Y-92.63
X152.4Y-68.9
X153.0Y-74.8
X153.0Y-76.7
X154.0Y-101.7
X155.2Y-91.2
X155.9Y-88.7
X157.7Y-83.4
X157.8Y-81.1
X157.8Y-90.0
X158.3Y-101.7
X158.7Y-87.6
X159.1Y-91.1
T4
X160.4Y-83.6
X160.4Y-85.6
X160.4Y-87.6
T5
X150.2Y-79.7
X150.2Y-82.24
T3
G00X155.32Y-92.18
M15
G01X156.42Y-92.18
M16
G05
G00X155.32Y-100.82
M15
G01X156.42Y-100.82
M16
G05
G00X159.75Y-92.18
M15
G01X160.35Y-92.18
M16
G05
G00X159.75Y-100.82
M15
G01X160.35Y-100.82
M16
G05
T4
G00X160.8Y-81.45
M15
G01X160.0Y-81.45
M16
G05
G00X160.8Y-89.75
M15
G01X160.0Y-89.75
M16
G05
M30
