%TF.GenerationSoftware,KiCad,Pcbnew,10.0.0*%
%TF.CreationDate,2026-05-05T22:42:15-07:00*%
%TF.ProjectId,kbd-nes-v2,6b62642d-6e65-4732-9d76-322e6b696361,rev?*%
%TF.SameCoordinates,Original*%
%TF.FileFunction,Legend,Top*%
%TF.FilePolarity,Positive*%
%FSLAX46Y46*%
G04 Gerber Fmt 4.6, Leading zero omitted, Abs format (unit mm)*
G04 Created by KiCad (PCBNEW 10.0.0) date 2026-05-05 22:42:15*
%MOMM*%
%LPD*%
G01*
G04 APERTURE LIST*
%ADD10C,0.150000*%
%ADD11C,0.120000*%
%ADD12C,0.060000*%
%ADD13C,0.000000*%
%ADD14C,0.250000*%
G04 APERTURE END LIST*
D10*
X151289580Y-73367857D02*
X151337200Y-73415476D01*
X151337200Y-73415476D02*
X151384819Y-73558333D01*
X151384819Y-73558333D02*
X151384819Y-73653571D01*
X151384819Y-73653571D02*
X151337200Y-73796428D01*
X151337200Y-73796428D02*
X151241961Y-73891666D01*
X151241961Y-73891666D02*
X151146723Y-73939285D01*
X151146723Y-73939285D02*
X150956247Y-73986904D01*
X150956247Y-73986904D02*
X150813390Y-73986904D01*
X150813390Y-73986904D02*
X150622914Y-73939285D01*
X150622914Y-73939285D02*
X150527676Y-73891666D01*
X150527676Y-73891666D02*
X150432438Y-73796428D01*
X150432438Y-73796428D02*
X150384819Y-73653571D01*
X150384819Y-73653571D02*
X150384819Y-73558333D01*
X150384819Y-73558333D02*
X150432438Y-73415476D01*
X150432438Y-73415476D02*
X150480057Y-73367857D01*
X150480057Y-72986904D02*
X150432438Y-72939285D01*
X150432438Y-72939285D02*
X150384819Y-72844047D01*
X150384819Y-72844047D02*
X150384819Y-72605952D01*
X150384819Y-72605952D02*
X150432438Y-72510714D01*
X150432438Y-72510714D02*
X150480057Y-72463095D01*
X150480057Y-72463095D02*
X150575295Y-72415476D01*
X150575295Y-72415476D02*
X150670533Y-72415476D01*
X150670533Y-72415476D02*
X150813390Y-72463095D01*
X150813390Y-72463095D02*
X151384819Y-73034523D01*
X151384819Y-73034523D02*
X151384819Y-72415476D01*
X151384819Y-71463095D02*
X151384819Y-72034523D01*
X151384819Y-71748809D02*
X150384819Y-71748809D01*
X150384819Y-71748809D02*
X150527676Y-71844047D01*
X150527676Y-71844047D02*
X150622914Y-71939285D01*
X150622914Y-71939285D02*
X150670533Y-72034523D01*
X143719580Y-83266666D02*
X143767200Y-83314285D01*
X143767200Y-83314285D02*
X143814819Y-83457142D01*
X143814819Y-83457142D02*
X143814819Y-83552380D01*
X143814819Y-83552380D02*
X143767200Y-83695237D01*
X143767200Y-83695237D02*
X143671961Y-83790475D01*
X143671961Y-83790475D02*
X143576723Y-83838094D01*
X143576723Y-83838094D02*
X143386247Y-83885713D01*
X143386247Y-83885713D02*
X143243390Y-83885713D01*
X143243390Y-83885713D02*
X143052914Y-83838094D01*
X143052914Y-83838094D02*
X142957676Y-83790475D01*
X142957676Y-83790475D02*
X142862438Y-83695237D01*
X142862438Y-83695237D02*
X142814819Y-83552380D01*
X142814819Y-83552380D02*
X142814819Y-83457142D01*
X142814819Y-83457142D02*
X142862438Y-83314285D01*
X142862438Y-83314285D02*
X142910057Y-83266666D01*
X142814819Y-82361904D02*
X142814819Y-82838094D01*
X142814819Y-82838094D02*
X143291009Y-82885713D01*
X143291009Y-82885713D02*
X143243390Y-82838094D01*
X143243390Y-82838094D02*
X143195771Y-82742856D01*
X143195771Y-82742856D02*
X143195771Y-82504761D01*
X143195771Y-82504761D02*
X143243390Y-82409523D01*
X143243390Y-82409523D02*
X143291009Y-82361904D01*
X143291009Y-82361904D02*
X143386247Y-82314285D01*
X143386247Y-82314285D02*
X143624342Y-82314285D01*
X143624342Y-82314285D02*
X143719580Y-82361904D01*
X143719580Y-82361904D02*
X143767200Y-82409523D01*
X143767200Y-82409523D02*
X143814819Y-82504761D01*
X143814819Y-82504761D02*
X143814819Y-82742856D01*
X143814819Y-82742856D02*
X143767200Y-82838094D01*
X143767200Y-82838094D02*
X143719580Y-82885713D01*
X130757142Y-97919580D02*
X130709523Y-97967200D01*
X130709523Y-97967200D02*
X130566666Y-98014819D01*
X130566666Y-98014819D02*
X130471428Y-98014819D01*
X130471428Y-98014819D02*
X130328571Y-97967200D01*
X130328571Y-97967200D02*
X130233333Y-97871961D01*
X130233333Y-97871961D02*
X130185714Y-97776723D01*
X130185714Y-97776723D02*
X130138095Y-97586247D01*
X130138095Y-97586247D02*
X130138095Y-97443390D01*
X130138095Y-97443390D02*
X130185714Y-97252914D01*
X130185714Y-97252914D02*
X130233333Y-97157676D01*
X130233333Y-97157676D02*
X130328571Y-97062438D01*
X130328571Y-97062438D02*
X130471428Y-97014819D01*
X130471428Y-97014819D02*
X130566666Y-97014819D01*
X130566666Y-97014819D02*
X130709523Y-97062438D01*
X130709523Y-97062438D02*
X130757142Y-97110057D01*
X131709523Y-98014819D02*
X131138095Y-98014819D01*
X131423809Y-98014819D02*
X131423809Y-97014819D01*
X131423809Y-97014819D02*
X131328571Y-97157676D01*
X131328571Y-97157676D02*
X131233333Y-97252914D01*
X131233333Y-97252914D02*
X131138095Y-97300533D01*
X132090476Y-97110057D02*
X132138095Y-97062438D01*
X132138095Y-97062438D02*
X132233333Y-97014819D01*
X132233333Y-97014819D02*
X132471428Y-97014819D01*
X132471428Y-97014819D02*
X132566666Y-97062438D01*
X132566666Y-97062438D02*
X132614285Y-97110057D01*
X132614285Y-97110057D02*
X132661904Y-97205295D01*
X132661904Y-97205295D02*
X132661904Y-97300533D01*
X132661904Y-97300533D02*
X132614285Y-97443390D01*
X132614285Y-97443390D02*
X132042857Y-98014819D01*
X132042857Y-98014819D02*
X132661904Y-98014819D01*
X136057142Y-92319580D02*
X136009523Y-92367200D01*
X136009523Y-92367200D02*
X135866666Y-92414819D01*
X135866666Y-92414819D02*
X135771428Y-92414819D01*
X135771428Y-92414819D02*
X135628571Y-92367200D01*
X135628571Y-92367200D02*
X135533333Y-92271961D01*
X135533333Y-92271961D02*
X135485714Y-92176723D01*
X135485714Y-92176723D02*
X135438095Y-91986247D01*
X135438095Y-91986247D02*
X135438095Y-91843390D01*
X135438095Y-91843390D02*
X135485714Y-91652914D01*
X135485714Y-91652914D02*
X135533333Y-91557676D01*
X135533333Y-91557676D02*
X135628571Y-91462438D01*
X135628571Y-91462438D02*
X135771428Y-91414819D01*
X135771428Y-91414819D02*
X135866666Y-91414819D01*
X135866666Y-91414819D02*
X136009523Y-91462438D01*
X136009523Y-91462438D02*
X136057142Y-91510057D01*
X137009523Y-92414819D02*
X136438095Y-92414819D01*
X136723809Y-92414819D02*
X136723809Y-91414819D01*
X136723809Y-91414819D02*
X136628571Y-91557676D01*
X136628571Y-91557676D02*
X136533333Y-91652914D01*
X136533333Y-91652914D02*
X136438095Y-91700533D01*
X137342857Y-91414819D02*
X137961904Y-91414819D01*
X137961904Y-91414819D02*
X137628571Y-91795771D01*
X137628571Y-91795771D02*
X137771428Y-91795771D01*
X137771428Y-91795771D02*
X137866666Y-91843390D01*
X137866666Y-91843390D02*
X137914285Y-91891009D01*
X137914285Y-91891009D02*
X137961904Y-91986247D01*
X137961904Y-91986247D02*
X137961904Y-92224342D01*
X137961904Y-92224342D02*
X137914285Y-92319580D01*
X137914285Y-92319580D02*
X137866666Y-92367200D01*
X137866666Y-92367200D02*
X137771428Y-92414819D01*
X137771428Y-92414819D02*
X137485714Y-92414819D01*
X137485714Y-92414819D02*
X137390476Y-92367200D01*
X137390476Y-92367200D02*
X137342857Y-92319580D01*
X124561905Y-78754819D02*
X124561905Y-77754819D01*
X124561905Y-77754819D02*
X124800000Y-77754819D01*
X124800000Y-77754819D02*
X124942857Y-77802438D01*
X124942857Y-77802438D02*
X125038095Y-77897676D01*
X125038095Y-77897676D02*
X125085714Y-77992914D01*
X125085714Y-77992914D02*
X125133333Y-78183390D01*
X125133333Y-78183390D02*
X125133333Y-78326247D01*
X125133333Y-78326247D02*
X125085714Y-78516723D01*
X125085714Y-78516723D02*
X125038095Y-78611961D01*
X125038095Y-78611961D02*
X124942857Y-78707200D01*
X124942857Y-78707200D02*
X124800000Y-78754819D01*
X124800000Y-78754819D02*
X124561905Y-78754819D01*
X126085714Y-78754819D02*
X125514286Y-78754819D01*
X125800000Y-78754819D02*
X125800000Y-77754819D01*
X125800000Y-77754819D02*
X125704762Y-77897676D01*
X125704762Y-77897676D02*
X125609524Y-77992914D01*
X125609524Y-77992914D02*
X125514286Y-78040533D01*
X146288095Y-80454819D02*
X146288095Y-81264342D01*
X146288095Y-81264342D02*
X146335714Y-81359580D01*
X146335714Y-81359580D02*
X146383333Y-81407200D01*
X146383333Y-81407200D02*
X146478571Y-81454819D01*
X146478571Y-81454819D02*
X146669047Y-81454819D01*
X146669047Y-81454819D02*
X146764285Y-81407200D01*
X146764285Y-81407200D02*
X146811904Y-81359580D01*
X146811904Y-81359580D02*
X146859523Y-81264342D01*
X146859523Y-81264342D02*
X146859523Y-80454819D01*
X147859523Y-81454819D02*
X147288095Y-81454819D01*
X147573809Y-81454819D02*
X147573809Y-80454819D01*
X147573809Y-80454819D02*
X147478571Y-80597676D01*
X147478571Y-80597676D02*
X147383333Y-80692914D01*
X147383333Y-80692914D02*
X147288095Y-80740533D01*
X148324819Y-81732857D02*
X147848628Y-82066190D01*
X148324819Y-82304285D02*
X147324819Y-82304285D01*
X147324819Y-82304285D02*
X147324819Y-81923333D01*
X147324819Y-81923333D02*
X147372438Y-81828095D01*
X147372438Y-81828095D02*
X147420057Y-81780476D01*
X147420057Y-81780476D02*
X147515295Y-81732857D01*
X147515295Y-81732857D02*
X147658152Y-81732857D01*
X147658152Y-81732857D02*
X147753390Y-81780476D01*
X147753390Y-81780476D02*
X147801009Y-81828095D01*
X147801009Y-81828095D02*
X147848628Y-81923333D01*
X147848628Y-81923333D02*
X147848628Y-82304285D01*
X148324819Y-80780476D02*
X148324819Y-81351904D01*
X148324819Y-81066190D02*
X147324819Y-81066190D01*
X147324819Y-81066190D02*
X147467676Y-81161428D01*
X147467676Y-81161428D02*
X147562914Y-81256666D01*
X147562914Y-81256666D02*
X147610533Y-81351904D01*
X147753390Y-80209047D02*
X147705771Y-80304285D01*
X147705771Y-80304285D02*
X147658152Y-80351904D01*
X147658152Y-80351904D02*
X147562914Y-80399523D01*
X147562914Y-80399523D02*
X147515295Y-80399523D01*
X147515295Y-80399523D02*
X147420057Y-80351904D01*
X147420057Y-80351904D02*
X147372438Y-80304285D01*
X147372438Y-80304285D02*
X147324819Y-80209047D01*
X147324819Y-80209047D02*
X147324819Y-80018571D01*
X147324819Y-80018571D02*
X147372438Y-79923333D01*
X147372438Y-79923333D02*
X147420057Y-79875714D01*
X147420057Y-79875714D02*
X147515295Y-79828095D01*
X147515295Y-79828095D02*
X147562914Y-79828095D01*
X147562914Y-79828095D02*
X147658152Y-79875714D01*
X147658152Y-79875714D02*
X147705771Y-79923333D01*
X147705771Y-79923333D02*
X147753390Y-80018571D01*
X147753390Y-80018571D02*
X147753390Y-80209047D01*
X147753390Y-80209047D02*
X147801009Y-80304285D01*
X147801009Y-80304285D02*
X147848628Y-80351904D01*
X147848628Y-80351904D02*
X147943866Y-80399523D01*
X147943866Y-80399523D02*
X148134342Y-80399523D01*
X148134342Y-80399523D02*
X148229580Y-80351904D01*
X148229580Y-80351904D02*
X148277200Y-80304285D01*
X148277200Y-80304285D02*
X148324819Y-80209047D01*
X148324819Y-80209047D02*
X148324819Y-80018571D01*
X148324819Y-80018571D02*
X148277200Y-79923333D01*
X148277200Y-79923333D02*
X148229580Y-79875714D01*
X148229580Y-79875714D02*
X148134342Y-79828095D01*
X148134342Y-79828095D02*
X147943866Y-79828095D01*
X147943866Y-79828095D02*
X147848628Y-79875714D01*
X147848628Y-79875714D02*
X147801009Y-79923333D01*
X147801009Y-79923333D02*
X147753390Y-80018571D01*
X149419580Y-73962857D02*
X149467200Y-74010476D01*
X149467200Y-74010476D02*
X149514819Y-74153333D01*
X149514819Y-74153333D02*
X149514819Y-74248571D01*
X149514819Y-74248571D02*
X149467200Y-74391428D01*
X149467200Y-74391428D02*
X149371961Y-74486666D01*
X149371961Y-74486666D02*
X149276723Y-74534285D01*
X149276723Y-74534285D02*
X149086247Y-74581904D01*
X149086247Y-74581904D02*
X148943390Y-74581904D01*
X148943390Y-74581904D02*
X148752914Y-74534285D01*
X148752914Y-74534285D02*
X148657676Y-74486666D01*
X148657676Y-74486666D02*
X148562438Y-74391428D01*
X148562438Y-74391428D02*
X148514819Y-74248571D01*
X148514819Y-74248571D02*
X148514819Y-74153333D01*
X148514819Y-74153333D02*
X148562438Y-74010476D01*
X148562438Y-74010476D02*
X148610057Y-73962857D01*
X149514819Y-73010476D02*
X149514819Y-73581904D01*
X149514819Y-73296190D02*
X148514819Y-73296190D01*
X148514819Y-73296190D02*
X148657676Y-73391428D01*
X148657676Y-73391428D02*
X148752914Y-73486666D01*
X148752914Y-73486666D02*
X148800533Y-73581904D01*
X148943390Y-72439047D02*
X148895771Y-72534285D01*
X148895771Y-72534285D02*
X148848152Y-72581904D01*
X148848152Y-72581904D02*
X148752914Y-72629523D01*
X148752914Y-72629523D02*
X148705295Y-72629523D01*
X148705295Y-72629523D02*
X148610057Y-72581904D01*
X148610057Y-72581904D02*
X148562438Y-72534285D01*
X148562438Y-72534285D02*
X148514819Y-72439047D01*
X148514819Y-72439047D02*
X148514819Y-72248571D01*
X148514819Y-72248571D02*
X148562438Y-72153333D01*
X148562438Y-72153333D02*
X148610057Y-72105714D01*
X148610057Y-72105714D02*
X148705295Y-72058095D01*
X148705295Y-72058095D02*
X148752914Y-72058095D01*
X148752914Y-72058095D02*
X148848152Y-72105714D01*
X148848152Y-72105714D02*
X148895771Y-72153333D01*
X148895771Y-72153333D02*
X148943390Y-72248571D01*
X148943390Y-72248571D02*
X148943390Y-72439047D01*
X148943390Y-72439047D02*
X148991009Y-72534285D01*
X148991009Y-72534285D02*
X149038628Y-72581904D01*
X149038628Y-72581904D02*
X149133866Y-72629523D01*
X149133866Y-72629523D02*
X149324342Y-72629523D01*
X149324342Y-72629523D02*
X149419580Y-72581904D01*
X149419580Y-72581904D02*
X149467200Y-72534285D01*
X149467200Y-72534285D02*
X149514819Y-72439047D01*
X149514819Y-72439047D02*
X149514819Y-72248571D01*
X149514819Y-72248571D02*
X149467200Y-72153333D01*
X149467200Y-72153333D02*
X149419580Y-72105714D01*
X149419580Y-72105714D02*
X149324342Y-72058095D01*
X149324342Y-72058095D02*
X149133866Y-72058095D01*
X149133866Y-72058095D02*
X149038628Y-72105714D01*
X149038628Y-72105714D02*
X148991009Y-72153333D01*
X148991009Y-72153333D02*
X148943390Y-72248571D01*
X151754819Y-73233333D02*
X152469104Y-73233333D01*
X152469104Y-73233333D02*
X152611961Y-73280952D01*
X152611961Y-73280952D02*
X152707200Y-73376190D01*
X152707200Y-73376190D02*
X152754819Y-73519047D01*
X152754819Y-73519047D02*
X152754819Y-73614285D01*
X152754819Y-72233333D02*
X152754819Y-72804761D01*
X152754819Y-72519047D02*
X151754819Y-72519047D01*
X151754819Y-72519047D02*
X151897676Y-72614285D01*
X151897676Y-72614285D02*
X151992914Y-72709523D01*
X151992914Y-72709523D02*
X152040533Y-72804761D01*
X144033333Y-94599580D02*
X143985714Y-94647200D01*
X143985714Y-94647200D02*
X143842857Y-94694819D01*
X143842857Y-94694819D02*
X143747619Y-94694819D01*
X143747619Y-94694819D02*
X143604762Y-94647200D01*
X143604762Y-94647200D02*
X143509524Y-94551961D01*
X143509524Y-94551961D02*
X143461905Y-94456723D01*
X143461905Y-94456723D02*
X143414286Y-94266247D01*
X143414286Y-94266247D02*
X143414286Y-94123390D01*
X143414286Y-94123390D02*
X143461905Y-93932914D01*
X143461905Y-93932914D02*
X143509524Y-93837676D01*
X143509524Y-93837676D02*
X143604762Y-93742438D01*
X143604762Y-93742438D02*
X143747619Y-93694819D01*
X143747619Y-93694819D02*
X143842857Y-93694819D01*
X143842857Y-93694819D02*
X143985714Y-93742438D01*
X143985714Y-93742438D02*
X144033333Y-93790057D01*
X144366667Y-93694819D02*
X145033333Y-93694819D01*
X145033333Y-93694819D02*
X144604762Y-94694819D01*
X122131009Y-85883333D02*
X122131009Y-86216666D01*
X122654819Y-86216666D02*
X121654819Y-86216666D01*
X121654819Y-86216666D02*
X121654819Y-85740476D01*
X122654819Y-84835714D02*
X122654819Y-85407142D01*
X122654819Y-85121428D02*
X121654819Y-85121428D01*
X121654819Y-85121428D02*
X121797676Y-85216666D01*
X121797676Y-85216666D02*
X121892914Y-85311904D01*
X121892914Y-85311904D02*
X121940533Y-85407142D01*
X145657142Y-94699580D02*
X145609523Y-94747200D01*
X145609523Y-94747200D02*
X145466666Y-94794819D01*
X145466666Y-94794819D02*
X145371428Y-94794819D01*
X145371428Y-94794819D02*
X145228571Y-94747200D01*
X145228571Y-94747200D02*
X145133333Y-94651961D01*
X145133333Y-94651961D02*
X145085714Y-94556723D01*
X145085714Y-94556723D02*
X145038095Y-94366247D01*
X145038095Y-94366247D02*
X145038095Y-94223390D01*
X145038095Y-94223390D02*
X145085714Y-94032914D01*
X145085714Y-94032914D02*
X145133333Y-93937676D01*
X145133333Y-93937676D02*
X145228571Y-93842438D01*
X145228571Y-93842438D02*
X145371428Y-93794819D01*
X145371428Y-93794819D02*
X145466666Y-93794819D01*
X145466666Y-93794819D02*
X145609523Y-93842438D01*
X145609523Y-93842438D02*
X145657142Y-93890057D01*
X146609523Y-94794819D02*
X146038095Y-94794819D01*
X146323809Y-94794819D02*
X146323809Y-93794819D01*
X146323809Y-93794819D02*
X146228571Y-93937676D01*
X146228571Y-93937676D02*
X146133333Y-94032914D01*
X146133333Y-94032914D02*
X146038095Y-94080533D01*
X147514285Y-93794819D02*
X147038095Y-93794819D01*
X147038095Y-93794819D02*
X146990476Y-94271009D01*
X146990476Y-94271009D02*
X147038095Y-94223390D01*
X147038095Y-94223390D02*
X147133333Y-94175771D01*
X147133333Y-94175771D02*
X147371428Y-94175771D01*
X147371428Y-94175771D02*
X147466666Y-94223390D01*
X147466666Y-94223390D02*
X147514285Y-94271009D01*
X147514285Y-94271009D02*
X147561904Y-94366247D01*
X147561904Y-94366247D02*
X147561904Y-94604342D01*
X147561904Y-94604342D02*
X147514285Y-94699580D01*
X147514285Y-94699580D02*
X147466666Y-94747200D01*
X147466666Y-94747200D02*
X147371428Y-94794819D01*
X147371428Y-94794819D02*
X147133333Y-94794819D01*
X147133333Y-94794819D02*
X147038095Y-94747200D01*
X147038095Y-94747200D02*
X146990476Y-94699580D01*
X150183333Y-77274819D02*
X149850000Y-76798628D01*
X149611905Y-77274819D02*
X149611905Y-76274819D01*
X149611905Y-76274819D02*
X149992857Y-76274819D01*
X149992857Y-76274819D02*
X150088095Y-76322438D01*
X150088095Y-76322438D02*
X150135714Y-76370057D01*
X150135714Y-76370057D02*
X150183333Y-76465295D01*
X150183333Y-76465295D02*
X150183333Y-76608152D01*
X150183333Y-76608152D02*
X150135714Y-76703390D01*
X150135714Y-76703390D02*
X150088095Y-76751009D01*
X150088095Y-76751009D02*
X149992857Y-76798628D01*
X149992857Y-76798628D02*
X149611905Y-76798628D01*
X151040476Y-76274819D02*
X150850000Y-76274819D01*
X150850000Y-76274819D02*
X150754762Y-76322438D01*
X150754762Y-76322438D02*
X150707143Y-76370057D01*
X150707143Y-76370057D02*
X150611905Y-76512914D01*
X150611905Y-76512914D02*
X150564286Y-76703390D01*
X150564286Y-76703390D02*
X150564286Y-77084342D01*
X150564286Y-77084342D02*
X150611905Y-77179580D01*
X150611905Y-77179580D02*
X150659524Y-77227200D01*
X150659524Y-77227200D02*
X150754762Y-77274819D01*
X150754762Y-77274819D02*
X150945238Y-77274819D01*
X150945238Y-77274819D02*
X151040476Y-77227200D01*
X151040476Y-77227200D02*
X151088095Y-77179580D01*
X151088095Y-77179580D02*
X151135714Y-77084342D01*
X151135714Y-77084342D02*
X151135714Y-76846247D01*
X151135714Y-76846247D02*
X151088095Y-76751009D01*
X151088095Y-76751009D02*
X151040476Y-76703390D01*
X151040476Y-76703390D02*
X150945238Y-76655771D01*
X150945238Y-76655771D02*
X150754762Y-76655771D01*
X150754762Y-76655771D02*
X150659524Y-76703390D01*
X150659524Y-76703390D02*
X150611905Y-76751009D01*
X150611905Y-76751009D02*
X150564286Y-76846247D01*
X130833333Y-98919580D02*
X130785714Y-98967200D01*
X130785714Y-98967200D02*
X130642857Y-99014819D01*
X130642857Y-99014819D02*
X130547619Y-99014819D01*
X130547619Y-99014819D02*
X130404762Y-98967200D01*
X130404762Y-98967200D02*
X130309524Y-98871961D01*
X130309524Y-98871961D02*
X130261905Y-98776723D01*
X130261905Y-98776723D02*
X130214286Y-98586247D01*
X130214286Y-98586247D02*
X130214286Y-98443390D01*
X130214286Y-98443390D02*
X130261905Y-98252914D01*
X130261905Y-98252914D02*
X130309524Y-98157676D01*
X130309524Y-98157676D02*
X130404762Y-98062438D01*
X130404762Y-98062438D02*
X130547619Y-98014819D01*
X130547619Y-98014819D02*
X130642857Y-98014819D01*
X130642857Y-98014819D02*
X130785714Y-98062438D01*
X130785714Y-98062438D02*
X130833333Y-98110057D01*
X131690476Y-98014819D02*
X131500000Y-98014819D01*
X131500000Y-98014819D02*
X131404762Y-98062438D01*
X131404762Y-98062438D02*
X131357143Y-98110057D01*
X131357143Y-98110057D02*
X131261905Y-98252914D01*
X131261905Y-98252914D02*
X131214286Y-98443390D01*
X131214286Y-98443390D02*
X131214286Y-98824342D01*
X131214286Y-98824342D02*
X131261905Y-98919580D01*
X131261905Y-98919580D02*
X131309524Y-98967200D01*
X131309524Y-98967200D02*
X131404762Y-99014819D01*
X131404762Y-99014819D02*
X131595238Y-99014819D01*
X131595238Y-99014819D02*
X131690476Y-98967200D01*
X131690476Y-98967200D02*
X131738095Y-98919580D01*
X131738095Y-98919580D02*
X131785714Y-98824342D01*
X131785714Y-98824342D02*
X131785714Y-98586247D01*
X131785714Y-98586247D02*
X131738095Y-98491009D01*
X131738095Y-98491009D02*
X131690476Y-98443390D01*
X131690476Y-98443390D02*
X131595238Y-98395771D01*
X131595238Y-98395771D02*
X131404762Y-98395771D01*
X131404762Y-98395771D02*
X131309524Y-98443390D01*
X131309524Y-98443390D02*
X131261905Y-98491009D01*
X131261905Y-98491009D02*
X131214286Y-98586247D01*
X155754819Y-73438094D02*
X154754819Y-73438094D01*
X154754819Y-73438094D02*
X154754819Y-73199999D01*
X154754819Y-73199999D02*
X154802438Y-73057142D01*
X154802438Y-73057142D02*
X154897676Y-72961904D01*
X154897676Y-72961904D02*
X154992914Y-72914285D01*
X154992914Y-72914285D02*
X155183390Y-72866666D01*
X155183390Y-72866666D02*
X155326247Y-72866666D01*
X155326247Y-72866666D02*
X155516723Y-72914285D01*
X155516723Y-72914285D02*
X155611961Y-72961904D01*
X155611961Y-72961904D02*
X155707200Y-73057142D01*
X155707200Y-73057142D02*
X155754819Y-73199999D01*
X155754819Y-73199999D02*
X155754819Y-73438094D01*
X154850057Y-72485713D02*
X154802438Y-72438094D01*
X154802438Y-72438094D02*
X154754819Y-72342856D01*
X154754819Y-72342856D02*
X154754819Y-72104761D01*
X154754819Y-72104761D02*
X154802438Y-72009523D01*
X154802438Y-72009523D02*
X154850057Y-71961904D01*
X154850057Y-71961904D02*
X154945295Y-71914285D01*
X154945295Y-71914285D02*
X155040533Y-71914285D01*
X155040533Y-71914285D02*
X155183390Y-71961904D01*
X155183390Y-71961904D02*
X155754819Y-72533332D01*
X155754819Y-72533332D02*
X155754819Y-71914285D01*
X138857142Y-92819580D02*
X138809523Y-92867200D01*
X138809523Y-92867200D02*
X138666666Y-92914819D01*
X138666666Y-92914819D02*
X138571428Y-92914819D01*
X138571428Y-92914819D02*
X138428571Y-92867200D01*
X138428571Y-92867200D02*
X138333333Y-92771961D01*
X138333333Y-92771961D02*
X138285714Y-92676723D01*
X138285714Y-92676723D02*
X138238095Y-92486247D01*
X138238095Y-92486247D02*
X138238095Y-92343390D01*
X138238095Y-92343390D02*
X138285714Y-92152914D01*
X138285714Y-92152914D02*
X138333333Y-92057676D01*
X138333333Y-92057676D02*
X138428571Y-91962438D01*
X138428571Y-91962438D02*
X138571428Y-91914819D01*
X138571428Y-91914819D02*
X138666666Y-91914819D01*
X138666666Y-91914819D02*
X138809523Y-91962438D01*
X138809523Y-91962438D02*
X138857142Y-92010057D01*
X139809523Y-92914819D02*
X139238095Y-92914819D01*
X139523809Y-92914819D02*
X139523809Y-91914819D01*
X139523809Y-91914819D02*
X139428571Y-92057676D01*
X139428571Y-92057676D02*
X139333333Y-92152914D01*
X139333333Y-92152914D02*
X139238095Y-92200533D01*
X140666666Y-91914819D02*
X140476190Y-91914819D01*
X140476190Y-91914819D02*
X140380952Y-91962438D01*
X140380952Y-91962438D02*
X140333333Y-92010057D01*
X140333333Y-92010057D02*
X140238095Y-92152914D01*
X140238095Y-92152914D02*
X140190476Y-92343390D01*
X140190476Y-92343390D02*
X140190476Y-92724342D01*
X140190476Y-92724342D02*
X140238095Y-92819580D01*
X140238095Y-92819580D02*
X140285714Y-92867200D01*
X140285714Y-92867200D02*
X140380952Y-92914819D01*
X140380952Y-92914819D02*
X140571428Y-92914819D01*
X140571428Y-92914819D02*
X140666666Y-92867200D01*
X140666666Y-92867200D02*
X140714285Y-92819580D01*
X140714285Y-92819580D02*
X140761904Y-92724342D01*
X140761904Y-92724342D02*
X140761904Y-92486247D01*
X140761904Y-92486247D02*
X140714285Y-92391009D01*
X140714285Y-92391009D02*
X140666666Y-92343390D01*
X140666666Y-92343390D02*
X140571428Y-92295771D01*
X140571428Y-92295771D02*
X140380952Y-92295771D01*
X140380952Y-92295771D02*
X140285714Y-92343390D01*
X140285714Y-92343390D02*
X140238095Y-92391009D01*
X140238095Y-92391009D02*
X140190476Y-92486247D01*
X138219580Y-102042857D02*
X138267200Y-102090476D01*
X138267200Y-102090476D02*
X138314819Y-102233333D01*
X138314819Y-102233333D02*
X138314819Y-102328571D01*
X138314819Y-102328571D02*
X138267200Y-102471428D01*
X138267200Y-102471428D02*
X138171961Y-102566666D01*
X138171961Y-102566666D02*
X138076723Y-102614285D01*
X138076723Y-102614285D02*
X137886247Y-102661904D01*
X137886247Y-102661904D02*
X137743390Y-102661904D01*
X137743390Y-102661904D02*
X137552914Y-102614285D01*
X137552914Y-102614285D02*
X137457676Y-102566666D01*
X137457676Y-102566666D02*
X137362438Y-102471428D01*
X137362438Y-102471428D02*
X137314819Y-102328571D01*
X137314819Y-102328571D02*
X137314819Y-102233333D01*
X137314819Y-102233333D02*
X137362438Y-102090476D01*
X137362438Y-102090476D02*
X137410057Y-102042857D01*
X138314819Y-101090476D02*
X138314819Y-101661904D01*
X138314819Y-101376190D02*
X137314819Y-101376190D01*
X137314819Y-101376190D02*
X137457676Y-101471428D01*
X137457676Y-101471428D02*
X137552914Y-101566666D01*
X137552914Y-101566666D02*
X137600533Y-101661904D01*
X138314819Y-100138095D02*
X138314819Y-100709523D01*
X138314819Y-100423809D02*
X137314819Y-100423809D01*
X137314819Y-100423809D02*
X137457676Y-100519047D01*
X137457676Y-100519047D02*
X137552914Y-100614285D01*
X137552914Y-100614285D02*
X137600533Y-100709523D01*
X150359580Y-94402857D02*
X150407200Y-94450476D01*
X150407200Y-94450476D02*
X150454819Y-94593333D01*
X150454819Y-94593333D02*
X150454819Y-94688571D01*
X150454819Y-94688571D02*
X150407200Y-94831428D01*
X150407200Y-94831428D02*
X150311961Y-94926666D01*
X150311961Y-94926666D02*
X150216723Y-94974285D01*
X150216723Y-94974285D02*
X150026247Y-95021904D01*
X150026247Y-95021904D02*
X149883390Y-95021904D01*
X149883390Y-95021904D02*
X149692914Y-94974285D01*
X149692914Y-94974285D02*
X149597676Y-94926666D01*
X149597676Y-94926666D02*
X149502438Y-94831428D01*
X149502438Y-94831428D02*
X149454819Y-94688571D01*
X149454819Y-94688571D02*
X149454819Y-94593333D01*
X149454819Y-94593333D02*
X149502438Y-94450476D01*
X149502438Y-94450476D02*
X149550057Y-94402857D01*
X150454819Y-93450476D02*
X150454819Y-94021904D01*
X150454819Y-93736190D02*
X149454819Y-93736190D01*
X149454819Y-93736190D02*
X149597676Y-93831428D01*
X149597676Y-93831428D02*
X149692914Y-93926666D01*
X149692914Y-93926666D02*
X149740533Y-94021904D01*
X150454819Y-92974285D02*
X150454819Y-92783809D01*
X150454819Y-92783809D02*
X150407200Y-92688571D01*
X150407200Y-92688571D02*
X150359580Y-92640952D01*
X150359580Y-92640952D02*
X150216723Y-92545714D01*
X150216723Y-92545714D02*
X150026247Y-92498095D01*
X150026247Y-92498095D02*
X149645295Y-92498095D01*
X149645295Y-92498095D02*
X149550057Y-92545714D01*
X149550057Y-92545714D02*
X149502438Y-92593333D01*
X149502438Y-92593333D02*
X149454819Y-92688571D01*
X149454819Y-92688571D02*
X149454819Y-92879047D01*
X149454819Y-92879047D02*
X149502438Y-92974285D01*
X149502438Y-92974285D02*
X149550057Y-93021904D01*
X149550057Y-93021904D02*
X149645295Y-93069523D01*
X149645295Y-93069523D02*
X149883390Y-93069523D01*
X149883390Y-93069523D02*
X149978628Y-93021904D01*
X149978628Y-93021904D02*
X150026247Y-92974285D01*
X150026247Y-92974285D02*
X150073866Y-92879047D01*
X150073866Y-92879047D02*
X150073866Y-92688571D01*
X150073866Y-92688571D02*
X150026247Y-92593333D01*
X150026247Y-92593333D02*
X149978628Y-92545714D01*
X149978628Y-92545714D02*
X149883390Y-92498095D01*
X141819580Y-101666666D02*
X141867200Y-101714285D01*
X141867200Y-101714285D02*
X141914819Y-101857142D01*
X141914819Y-101857142D02*
X141914819Y-101952380D01*
X141914819Y-101952380D02*
X141867200Y-102095237D01*
X141867200Y-102095237D02*
X141771961Y-102190475D01*
X141771961Y-102190475D02*
X141676723Y-102238094D01*
X141676723Y-102238094D02*
X141486247Y-102285713D01*
X141486247Y-102285713D02*
X141343390Y-102285713D01*
X141343390Y-102285713D02*
X141152914Y-102238094D01*
X141152914Y-102238094D02*
X141057676Y-102190475D01*
X141057676Y-102190475D02*
X140962438Y-102095237D01*
X140962438Y-102095237D02*
X140914819Y-101952380D01*
X140914819Y-101952380D02*
X140914819Y-101857142D01*
X140914819Y-101857142D02*
X140962438Y-101714285D01*
X140962438Y-101714285D02*
X141010057Y-101666666D01*
X141914819Y-101190475D02*
X141914819Y-100999999D01*
X141914819Y-100999999D02*
X141867200Y-100904761D01*
X141867200Y-100904761D02*
X141819580Y-100857142D01*
X141819580Y-100857142D02*
X141676723Y-100761904D01*
X141676723Y-100761904D02*
X141486247Y-100714285D01*
X141486247Y-100714285D02*
X141105295Y-100714285D01*
X141105295Y-100714285D02*
X141010057Y-100761904D01*
X141010057Y-100761904D02*
X140962438Y-100809523D01*
X140962438Y-100809523D02*
X140914819Y-100904761D01*
X140914819Y-100904761D02*
X140914819Y-101095237D01*
X140914819Y-101095237D02*
X140962438Y-101190475D01*
X140962438Y-101190475D02*
X141010057Y-101238094D01*
X141010057Y-101238094D02*
X141105295Y-101285713D01*
X141105295Y-101285713D02*
X141343390Y-101285713D01*
X141343390Y-101285713D02*
X141438628Y-101238094D01*
X141438628Y-101238094D02*
X141486247Y-101190475D01*
X141486247Y-101190475D02*
X141533866Y-101095237D01*
X141533866Y-101095237D02*
X141533866Y-100904761D01*
X141533866Y-100904761D02*
X141486247Y-100809523D01*
X141486247Y-100809523D02*
X141438628Y-100761904D01*
X141438628Y-100761904D02*
X141343390Y-100714285D01*
X144619580Y-76062857D02*
X144667200Y-76110476D01*
X144667200Y-76110476D02*
X144714819Y-76253333D01*
X144714819Y-76253333D02*
X144714819Y-76348571D01*
X144714819Y-76348571D02*
X144667200Y-76491428D01*
X144667200Y-76491428D02*
X144571961Y-76586666D01*
X144571961Y-76586666D02*
X144476723Y-76634285D01*
X144476723Y-76634285D02*
X144286247Y-76681904D01*
X144286247Y-76681904D02*
X144143390Y-76681904D01*
X144143390Y-76681904D02*
X143952914Y-76634285D01*
X143952914Y-76634285D02*
X143857676Y-76586666D01*
X143857676Y-76586666D02*
X143762438Y-76491428D01*
X143762438Y-76491428D02*
X143714819Y-76348571D01*
X143714819Y-76348571D02*
X143714819Y-76253333D01*
X143714819Y-76253333D02*
X143762438Y-76110476D01*
X143762438Y-76110476D02*
X143810057Y-76062857D01*
X144714819Y-75110476D02*
X144714819Y-75681904D01*
X144714819Y-75396190D02*
X143714819Y-75396190D01*
X143714819Y-75396190D02*
X143857676Y-75491428D01*
X143857676Y-75491428D02*
X143952914Y-75586666D01*
X143952914Y-75586666D02*
X144000533Y-75681904D01*
X143714819Y-74777142D02*
X143714819Y-74110476D01*
X143714819Y-74110476D02*
X144714819Y-74539047D01*
X157307200Y-86933332D02*
X157354819Y-86790475D01*
X157354819Y-86790475D02*
X157354819Y-86552380D01*
X157354819Y-86552380D02*
X157307200Y-86457142D01*
X157307200Y-86457142D02*
X157259580Y-86409523D01*
X157259580Y-86409523D02*
X157164342Y-86361904D01*
X157164342Y-86361904D02*
X157069104Y-86361904D01*
X157069104Y-86361904D02*
X156973866Y-86409523D01*
X156973866Y-86409523D02*
X156926247Y-86457142D01*
X156926247Y-86457142D02*
X156878628Y-86552380D01*
X156878628Y-86552380D02*
X156831009Y-86742856D01*
X156831009Y-86742856D02*
X156783390Y-86838094D01*
X156783390Y-86838094D02*
X156735771Y-86885713D01*
X156735771Y-86885713D02*
X156640533Y-86933332D01*
X156640533Y-86933332D02*
X156545295Y-86933332D01*
X156545295Y-86933332D02*
X156450057Y-86885713D01*
X156450057Y-86885713D02*
X156402438Y-86838094D01*
X156402438Y-86838094D02*
X156354819Y-86742856D01*
X156354819Y-86742856D02*
X156354819Y-86504761D01*
X156354819Y-86504761D02*
X156402438Y-86361904D01*
X156354819Y-86028570D02*
X157354819Y-85790475D01*
X157354819Y-85790475D02*
X156640533Y-85599999D01*
X156640533Y-85599999D02*
X157354819Y-85409523D01*
X157354819Y-85409523D02*
X156354819Y-85171428D01*
X157354819Y-84266666D02*
X157354819Y-84838094D01*
X157354819Y-84552380D02*
X156354819Y-84552380D01*
X156354819Y-84552380D02*
X156497676Y-84647618D01*
X156497676Y-84647618D02*
X156592914Y-84742856D01*
X156592914Y-84742856D02*
X156640533Y-84838094D01*
X122754819Y-95983333D02*
X123469104Y-95983333D01*
X123469104Y-95983333D02*
X123611961Y-96030952D01*
X123611961Y-96030952D02*
X123707200Y-96126190D01*
X123707200Y-96126190D02*
X123754819Y-96269047D01*
X123754819Y-96269047D02*
X123754819Y-96364285D01*
X122754819Y-95030952D02*
X122754819Y-95507142D01*
X122754819Y-95507142D02*
X123231009Y-95554761D01*
X123231009Y-95554761D02*
X123183390Y-95507142D01*
X123183390Y-95507142D02*
X123135771Y-95411904D01*
X123135771Y-95411904D02*
X123135771Y-95173809D01*
X123135771Y-95173809D02*
X123183390Y-95078571D01*
X123183390Y-95078571D02*
X123231009Y-95030952D01*
X123231009Y-95030952D02*
X123326247Y-94983333D01*
X123326247Y-94983333D02*
X123564342Y-94983333D01*
X123564342Y-94983333D02*
X123659580Y-95030952D01*
X123659580Y-95030952D02*
X123707200Y-95078571D01*
X123707200Y-95078571D02*
X123754819Y-95173809D01*
X123754819Y-95173809D02*
X123754819Y-95411904D01*
X123754819Y-95411904D02*
X123707200Y-95507142D01*
X123707200Y-95507142D02*
X123659580Y-95554761D01*
X129666666Y-97499819D02*
X129666666Y-98214104D01*
X129666666Y-98214104D02*
X129619047Y-98356961D01*
X129619047Y-98356961D02*
X129523809Y-98452200D01*
X129523809Y-98452200D02*
X129380952Y-98499819D01*
X129380952Y-98499819D02*
X129285714Y-98499819D01*
X130047619Y-97499819D02*
X130714285Y-97499819D01*
X130714285Y-97499819D02*
X130285714Y-98499819D01*
%TO.C,C21*%
D11*
X148990000Y-72584420D02*
X148990000Y-72865580D01*
X150010000Y-72584420D02*
X150010000Y-72865580D01*
%TO.C,R8*%
X149877500Y-99637742D02*
X149877500Y-100112258D01*
X150922500Y-99637742D02*
X150922500Y-100112258D01*
%TO.C,U2*%
X142940000Y-84440000D02*
X148460000Y-84440000D01*
X142940000Y-84710000D02*
X142940000Y-84440000D01*
X142940000Y-89960000D02*
X142940000Y-89690000D01*
X148460000Y-84440000D02*
X148460000Y-84710000D01*
X148460000Y-89690000D02*
X148460000Y-89960000D01*
X148460000Y-89960000D02*
X142940000Y-89960000D01*
X142110000Y-84700000D02*
X141770000Y-84230000D01*
X142450000Y-84230000D01*
X142110000Y-84700000D01*
G36*
X142110000Y-84700000D02*
G01*
X141770000Y-84230000D01*
X142450000Y-84230000D01*
X142110000Y-84700000D01*
G37*
%TO.C,R3*%
X147053641Y-96120000D02*
X146746359Y-96120000D01*
X147053641Y-96880000D02*
X146746359Y-96880000D01*
%TO.C,C5*%
X141840000Y-82992164D02*
X141840000Y-83207836D01*
X142560000Y-82992164D02*
X142560000Y-83207836D01*
%TO.C,C12*%
X131507836Y-96040000D02*
X131292164Y-96040000D01*
X131507836Y-96760000D02*
X131292164Y-96760000D01*
%TO.C,C13*%
X136807836Y-90440000D02*
X136592164Y-90440000D01*
X136807836Y-91160000D02*
X136592164Y-91160000D01*
%TO.C,D1*%
D10*
X122300000Y-79170000D02*
X127500000Y-79170000D01*
X122300000Y-82030000D02*
X127500000Y-82030000D01*
X124020000Y-79170000D02*
X124020000Y-82030000D01*
X127490000Y-81780000D02*
X127500000Y-82010000D01*
X127500000Y-79170000D02*
X127500000Y-79410000D01*
D12*
X122320000Y-81900000D02*
G75*
G02*
X122260000Y-81900000I-30000J0D01*
G01*
X122260000Y-81900000D02*
G75*
G02*
X122320000Y-81900000I30000J0D01*
G01*
D13*
G36*
X122378669Y-79504193D02*
G01*
X121919132Y-79499672D01*
X121922790Y-79097590D01*
X122379990Y-79097590D01*
X122378669Y-79504193D01*
G37*
G36*
X122386899Y-82102562D02*
G01*
X121927362Y-82098041D01*
X121931019Y-81695959D01*
X122388219Y-81695959D01*
X122386899Y-82102562D01*
G37*
%TO.C,U1*%
D14*
X147950000Y-74500000D02*
X146150000Y-74500000D01*
X147950000Y-77600000D02*
X146150000Y-77600000D01*
X145770000Y-74400000D02*
G75*
G02*
X145530000Y-74400000I-120000J0D01*
G01*
X145530000Y-74400000D02*
G75*
G02*
X145770000Y-74400000I120000J0D01*
G01*
D12*
X145680000Y-74600000D02*
G75*
G02*
X145620000Y-74600000I-30000J0D01*
G01*
X145620000Y-74600000D02*
G75*
G02*
X145680000Y-74600000I30000J0D01*
G01*
%TO.C,J2*%
D11*
X148820000Y-80970000D02*
X148820000Y-78320000D01*
X151580000Y-78320000D02*
X148820000Y-78320000D01*
X151580000Y-80970000D02*
X148820000Y-80970000D01*
X151580000Y-80970000D02*
X151580000Y-78320000D01*
X151580000Y-82240000D02*
X151580000Y-83620000D01*
X151580000Y-83620000D02*
X150200000Y-83620000D01*
%TO.C,U4*%
X133390000Y-78890000D02*
X133390000Y-80150000D01*
X133390000Y-85710000D02*
X133390000Y-84450000D01*
X137150000Y-78890000D02*
X133390000Y-78890000D01*
X137150000Y-85710000D02*
X133390000Y-85710000D01*
X138670000Y-85940000D02*
X138190000Y-85940000D01*
X138430000Y-85610000D01*
X138670000Y-85940000D01*
G36*
X138670000Y-85940000D02*
G01*
X138190000Y-85940000D01*
X138430000Y-85610000D01*
X138670000Y-85940000D01*
G37*
%TO.C,R9*%
X149937258Y-93277500D02*
X149462742Y-93277500D01*
X149937258Y-94322500D02*
X149462742Y-94322500D01*
%TO.C,U3*%
X134090000Y-92290000D02*
X134739999Y-92290000D01*
X134090000Y-92939999D02*
X134090000Y-92290000D01*
X134090000Y-99510000D02*
X134090000Y-98860001D01*
X134739999Y-99510000D02*
X134090000Y-99510000D01*
X140660001Y-92290000D02*
X141310000Y-92290000D01*
X141310000Y-92290000D02*
X141310000Y-92939999D01*
X141310000Y-98860001D02*
X141310000Y-99510000D01*
X141310000Y-99510000D02*
X140660001Y-99510000D01*
X140300001Y-91760000D02*
X140060000Y-91430000D01*
X140540000Y-91430000D01*
X140300001Y-91760000D01*
G36*
X140300001Y-91760000D02*
G01*
X140060000Y-91430000D01*
X140540000Y-91430000D01*
X140300001Y-91760000D01*
G37*
%TO.C,R11*%
X123846359Y-89770000D02*
X124153641Y-89770000D01*
X123846359Y-90530000D02*
X124153641Y-90530000D01*
%TO.C,R18*%
X146320000Y-80936359D02*
X146320000Y-81243641D01*
X147080000Y-80936359D02*
X147080000Y-81243641D01*
%TO.C,C18*%
X147540000Y-73212164D02*
X147540000Y-73427836D01*
X148260000Y-73212164D02*
X148260000Y-73427836D01*
%TO.C,R17*%
X123836359Y-98770000D02*
X124143641Y-98770000D01*
X123836359Y-99530000D02*
X124143641Y-99530000D01*
%TO.C,R12*%
X123846359Y-93170000D02*
X124153641Y-93170000D01*
X123846359Y-93930000D02*
X124153641Y-93930000D01*
%TO.C,J1*%
X154790000Y-65840000D02*
X154790000Y-66860000D01*
X154790000Y-66860000D02*
X156390000Y-66860000D01*
X154790000Y-78940000D02*
X156390000Y-78940000D01*
X154790000Y-79960000D02*
X154790000Y-78940000D01*
X156390000Y-66860000D02*
X156390000Y-68140000D01*
X156390000Y-77660000D02*
X153500000Y-77660000D01*
X156390000Y-78940000D02*
X156390000Y-77660000D01*
X159040000Y-65840000D02*
X154790000Y-65840000D01*
X159040000Y-79960000D02*
X154790000Y-79960000D01*
X162610000Y-78240000D02*
X162610000Y-67560000D01*
%TO.C,C1*%
X142140580Y-76990000D02*
X141859420Y-76990000D01*
X142140580Y-78010000D02*
X141859420Y-78010000D01*
%TO.C,C7*%
X144092164Y-95040000D02*
X144307836Y-95040000D01*
X144092164Y-95760000D02*
X144307836Y-95760000D01*
%TO.C,Q1*%
X122802500Y-100040000D02*
X124322500Y-100040000D01*
X122802500Y-101040000D02*
X122802500Y-100040000D01*
X122802500Y-103160000D02*
X122802500Y-102160000D01*
X124322500Y-100040000D02*
X124322500Y-100090000D01*
X124322500Y-101210000D02*
X124322500Y-101990000D01*
X124322500Y-103110000D02*
X124322500Y-103160000D01*
X124322500Y-103160000D02*
X122802500Y-103160000D01*
X124862500Y-101980000D02*
X124622500Y-101650000D01*
X125102500Y-101650000D01*
X124862500Y-101980000D01*
G36*
X124862500Y-101980000D02*
G01*
X124622500Y-101650000D01*
X125102500Y-101650000D01*
X124862500Y-101980000D01*
G37*
%TO.C,C2*%
X131707836Y-93940000D02*
X131492164Y-93940000D01*
X131707836Y-94660000D02*
X131492164Y-94660000D01*
%TO.C,F1*%
D10*
X124170000Y-83010000D02*
X124170000Y-84280000D01*
X124170000Y-88090000D02*
X124170000Y-86780000D01*
X124400000Y-88340000D02*
X127960000Y-88340000D01*
X124420000Y-82760000D02*
X127980000Y-82760000D01*
X128230000Y-84280000D02*
X128230000Y-83010000D01*
X128230000Y-86820000D02*
X128230000Y-88090000D01*
X126190000Y-85550000D02*
G75*
G02*
X125570000Y-85550000I-310000J0D01*
G01*
X126210000Y-85550000D02*
G75*
G02*
X126830000Y-85550000I310000J0D01*
G01*
D12*
X127850000Y-87830000D02*
G75*
G02*
X127790000Y-87830000I-30000J0D01*
G01*
X127790000Y-87830000D02*
G75*
G02*
X127850000Y-87830000I30000J0D01*
G01*
%TO.C,C15*%
D11*
X146192164Y-95140000D02*
X146407836Y-95140000D01*
X146192164Y-95860000D02*
X146407836Y-95860000D01*
%TO.C,R6*%
X150503641Y-75270000D02*
X150196359Y-75270000D01*
X150503641Y-76030000D02*
X150196359Y-76030000D01*
%TO.C,J4*%
X157100000Y-91800000D02*
X159100000Y-91800000D01*
X157100000Y-101200000D02*
X159100000Y-101200000D01*
X161000000Y-91800000D02*
X162900000Y-91800000D01*
X161000000Y-101200000D02*
X162900000Y-101200000D01*
X162900000Y-101200000D02*
X162900000Y-91800000D01*
%TO.C,C6*%
X131107836Y-97040000D02*
X130892164Y-97040000D01*
X131107836Y-97760000D02*
X130892164Y-97760000D01*
%TO.C,C3*%
X128840000Y-90392164D02*
X128840000Y-90607836D01*
X129560000Y-90392164D02*
X129560000Y-90607836D01*
%TO.C,D2*%
D14*
X150620000Y-71840000D02*
X150620000Y-73540000D01*
D10*
X151190000Y-72440000D02*
X151440000Y-72440000D01*
D13*
X151190000Y-72950000D02*
X151189999Y-72950000D01*
X151189999Y-72950000D01*
X151189999Y-72950000D01*
X151189999Y-72950000D01*
X151189999Y-72950000D01*
X151189999Y-72950000D01*
X151189999Y-72950000D01*
X151189999Y-72949999D01*
X151189999Y-72949999D01*
X151189999Y-72949999D01*
X151189999Y-72949999D01*
X151189999Y-72949999D01*
X151190000Y-72949999D01*
X151190000Y-72949999D01*
X151190000Y-72949999D01*
X151190000Y-72949999D01*
X151190000Y-72949999D01*
X151190000Y-72949999D01*
X151190000Y-72949999D01*
X151190000Y-72949999D01*
X151190000Y-72949999D01*
X151190000Y-72949999D01*
X151190000Y-72949999D01*
X151190000Y-72949999D01*
X151190001Y-72949999D01*
X151190001Y-72949999D01*
X151190001Y-72949999D01*
X151190001Y-72949999D01*
X151190001Y-72949999D01*
X151190001Y-72949999D01*
X151190001Y-72950000D01*
X151190001Y-72950000D01*
X151190001Y-72950000D01*
X151190001Y-72950000D01*
X151190001Y-72950000D01*
X151190001Y-72950000D01*
X151190001Y-72950000D01*
X151190000Y-72950000D01*
X151190000Y-72950000D02*
X151190001Y-72950000D01*
X151190001Y-72950000D01*
X151190001Y-72950000D01*
X151190001Y-72950000D01*
X151190001Y-72950000D01*
X151190001Y-72950000D01*
X151190001Y-72950001D01*
X151190001Y-72950001D01*
X151190001Y-72950001D01*
X151190001Y-72950001D01*
X151190001Y-72950001D01*
X151190001Y-72950001D01*
X151190001Y-72950001D01*
X151190000Y-72950001D01*
X151190000Y-72950001D01*
X151190000Y-72950001D01*
X151190000Y-72950001D01*
X151190000Y-72950001D01*
X151190000Y-72950001D01*
X151190000Y-72950001D01*
X151190000Y-72950001D01*
X151190000Y-72950001D01*
X151190000Y-72950001D01*
X151190000Y-72950001D01*
X151190000Y-72950001D01*
X151189999Y-72950001D01*
X151189999Y-72950001D01*
X151189999Y-72950001D01*
X151189999Y-72950001D01*
X151189999Y-72950001D01*
X151189999Y-72950001D01*
X151189999Y-72950000D01*
X151189999Y-72950000D01*
X151189999Y-72950000D01*
X151189999Y-72950000D01*
X151189999Y-72950000D01*
X151189999Y-72950000D01*
X151190000Y-72950000D01*
D10*
X151190000Y-72950000D02*
X151310000Y-72700000D01*
X151310000Y-72570000D02*
X151310000Y-72700000D01*
X151310000Y-72690000D02*
X151190000Y-72440000D01*
X151310000Y-72700000D02*
X151440000Y-72950000D01*
X151310000Y-72820000D02*
X151310000Y-72690000D01*
X151440000Y-72440000D02*
X151320000Y-72690000D01*
D13*
X151440000Y-72440000D02*
X151439999Y-72440000D01*
X151439999Y-72440000D01*
X151439999Y-72440000D01*
X151439999Y-72440000D01*
X151439999Y-72440000D01*
X151439999Y-72440000D01*
X151439999Y-72440000D01*
X151439999Y-72439999D01*
X151439999Y-72439999D01*
X151439999Y-72439999D01*
X151439999Y-72439999D01*
X151439999Y-72439999D01*
X151440000Y-72439999D01*
X151440000Y-72439999D01*
X151440000Y-72439999D01*
X151440000Y-72439999D01*
X151440000Y-72439999D01*
X151440000Y-72439999D01*
X151440000Y-72439999D01*
X151440000Y-72439999D01*
X151440000Y-72439999D01*
X151440000Y-72439999D01*
X151440000Y-72439999D01*
X151440000Y-72439999D01*
X151440001Y-72439999D01*
X151440001Y-72439999D01*
X151440001Y-72439999D01*
X151440001Y-72439999D01*
X151440001Y-72439999D01*
X151440001Y-72439999D01*
X151440001Y-72440000D01*
X151440001Y-72440000D01*
X151440001Y-72440000D01*
X151440001Y-72440000D01*
X151440001Y-72440000D01*
X151440001Y-72440000D01*
X151440001Y-72440000D01*
X151440000Y-72440000D01*
X151440000Y-72440000D02*
X151440001Y-72440000D01*
X151440001Y-72440000D01*
X151440001Y-72440000D01*
X151440001Y-72440000D01*
X151440001Y-72440000D01*
X151440001Y-72440000D01*
X151440001Y-72440001D01*
X151440001Y-72440001D01*
X151440001Y-72440001D01*
X151440001Y-72440001D01*
X151440001Y-72440001D01*
X151440001Y-72440001D01*
X151440001Y-72440001D01*
X151440000Y-72440001D01*
X151440000Y-72440001D01*
X151440000Y-72440001D01*
X151440000Y-72440001D01*
X151440000Y-72440001D01*
X151440000Y-72440001D01*
X151440000Y-72440001D01*
X151440000Y-72440001D01*
X151440000Y-72440001D01*
X151440000Y-72440001D01*
X151440000Y-72440001D01*
X151440000Y-72440001D01*
X151439999Y-72440001D01*
X151439999Y-72440001D01*
X151439999Y-72440001D01*
X151439999Y-72440001D01*
X151439999Y-72440001D01*
X151439999Y-72440001D01*
X151439999Y-72440000D01*
X151439999Y-72440000D01*
X151439999Y-72440000D01*
X151439999Y-72440000D01*
X151439999Y-72440000D01*
X151439999Y-72440000D01*
X151440000Y-72440000D01*
D10*
X151440000Y-72690000D02*
X151190000Y-72690000D01*
X151440000Y-72950000D02*
X151190000Y-72950000D01*
D14*
X152020000Y-71840000D02*
X152020000Y-73540000D01*
D12*
X151930000Y-71450000D02*
G75*
G02*
X151870000Y-71450000I-30000J0D01*
G01*
X151870000Y-71450000D02*
G75*
G02*
X151930000Y-71450000I30000J0D01*
G01*
%TO.C,C16*%
D11*
X139607836Y-90940000D02*
X139392164Y-90940000D01*
X139607836Y-91660000D02*
X139392164Y-91660000D01*
%TO.C,R16*%
X124653641Y-97270000D02*
X124346359Y-97270000D01*
X124653641Y-98030000D02*
X124346359Y-98030000D01*
%TO.C,C11*%
X136340000Y-101292164D02*
X136340000Y-101507836D01*
X137060000Y-101292164D02*
X137060000Y-101507836D01*
%TO.C,C19*%
X150107836Y-92240000D02*
X149892164Y-92240000D01*
X150107836Y-92960000D02*
X149892164Y-92960000D01*
%TO.C,R5*%
X131553641Y-95020000D02*
X131246359Y-95020000D01*
X131553641Y-95780000D02*
X131246359Y-95780000D01*
%TO.C,Y1*%
X129990000Y-93560000D02*
X133410000Y-93560000D01*
X133410000Y-93560000D02*
X133410000Y-89440000D01*
%TO.C,C9*%
X139940000Y-101392164D02*
X139940000Y-101607836D01*
X140660000Y-101392164D02*
X140660000Y-101607836D01*
%TO.C,R13*%
X124053641Y-91670000D02*
X123746359Y-91670000D01*
X124053641Y-92430000D02*
X123746359Y-92430000D01*
%TO.C,R15*%
X123846359Y-95920000D02*
X124153641Y-95920000D01*
X123846359Y-96680000D02*
X124153641Y-96680000D01*
%TO.C,R4*%
X145753641Y-97120000D02*
X145446359Y-97120000D01*
X145753641Y-97880000D02*
X145446359Y-97880000D01*
%TO.C,C17*%
X142740000Y-75312164D02*
X142740000Y-75527836D01*
X143460000Y-75312164D02*
X143460000Y-75527836D01*
%TO.C,R1*%
X143120000Y-83353641D02*
X143120000Y-83046359D01*
X143880000Y-83353641D02*
X143880000Y-83046359D01*
%TO.C,C20*%
X148290000Y-96059420D02*
X148290000Y-96340580D01*
X149310000Y-96059420D02*
X149310000Y-96340580D01*
D13*
%TO.C,G\u002A\u002A\u002A*%
G36*
X119951245Y-67739663D02*
G01*
X119943268Y-67747641D01*
X119935290Y-67739663D01*
X119943268Y-67731686D01*
X119951245Y-67739663D01*
G37*
G36*
X120318205Y-70483884D02*
G01*
X120310227Y-70491862D01*
X120302250Y-70483884D01*
X120310227Y-70475907D01*
X120318205Y-70483884D01*
G37*
G36*
X120844712Y-67739663D02*
G01*
X120836735Y-67747641D01*
X120828757Y-67739663D01*
X120836735Y-67731686D01*
X120844712Y-67739663D01*
G37*
G36*
X121865818Y-67596070D02*
G01*
X121857840Y-67604048D01*
X121849863Y-67596070D01*
X121857840Y-67588093D01*
X121865818Y-67596070D01*
G37*
G36*
X122759285Y-68042804D02*
G01*
X122751308Y-68050781D01*
X122743330Y-68042804D01*
X122751308Y-68034826D01*
X122759285Y-68042804D01*
G37*
G36*
X123190064Y-69781874D02*
G01*
X123182087Y-69789852D01*
X123174109Y-69781874D01*
X123182087Y-69773897D01*
X123190064Y-69781874D01*
G37*
G36*
X123668707Y-76897703D02*
G01*
X123660730Y-76905681D01*
X123652752Y-76897703D01*
X123660730Y-76889726D01*
X123668707Y-76897703D01*
G37*
G36*
X123860165Y-69781874D02*
G01*
X123852187Y-69789852D01*
X123844210Y-69781874D01*
X123852187Y-69773897D01*
X123860165Y-69781874D01*
G37*
G36*
X123987803Y-69271321D02*
G01*
X123979825Y-69279299D01*
X123971848Y-69271321D01*
X123979825Y-69263344D01*
X123987803Y-69271321D01*
G37*
G36*
X124450491Y-65777226D02*
G01*
X124442514Y-65785203D01*
X124434536Y-65777226D01*
X124442514Y-65769249D01*
X124450491Y-65777226D01*
G37*
G36*
X124482401Y-68489537D02*
G01*
X124474423Y-68497515D01*
X124466446Y-68489537D01*
X124474423Y-68481560D01*
X124482401Y-68489537D01*
G37*
G36*
X124514310Y-70228608D02*
G01*
X124506333Y-70236585D01*
X124498355Y-70228608D01*
X124506333Y-70220630D01*
X124514310Y-70228608D01*
G37*
G36*
X125136546Y-67739663D02*
G01*
X125128569Y-67747641D01*
X125120592Y-67739663D01*
X125128569Y-67731686D01*
X125136546Y-67739663D01*
G37*
G36*
X127194712Y-67356749D02*
G01*
X127186735Y-67364726D01*
X127178757Y-67356749D01*
X127186735Y-67348771D01*
X127194712Y-67356749D01*
G37*
G36*
X127194712Y-67468432D02*
G01*
X127186735Y-67476409D01*
X127178757Y-67468432D01*
X127186735Y-67460455D01*
X127194712Y-67468432D01*
G37*
G36*
X121767624Y-66413893D02*
G01*
X121784752Y-66429958D01*
X121781239Y-66439194D01*
X121779008Y-66439349D01*
X121765513Y-66428017D01*
X121760588Y-66420929D01*
X121758708Y-66410011D01*
X121767624Y-66413893D01*
G37*
G36*
X117091352Y-75042556D02*
G01*
X117342639Y-75046950D01*
X117347033Y-75298237D01*
X117351427Y-75549525D01*
X117095746Y-75549525D01*
X116840064Y-75549525D01*
X116840064Y-75293843D01*
X116840064Y-75038162D01*
X117091352Y-75042556D01*
G37*
G36*
X117350617Y-76562653D02*
G01*
X117350617Y-77448143D01*
X117095340Y-77448143D01*
X116840064Y-77448143D01*
X116840064Y-76562653D01*
X116840064Y-75677163D01*
X117095340Y-75677163D01*
X117350617Y-75677163D01*
X117350617Y-76562653D01*
G37*
G36*
X120020830Y-71358966D02*
G01*
X120098471Y-71414312D01*
X120146977Y-71468322D01*
X120190082Y-71534470D01*
X120222147Y-71602329D01*
X120237532Y-71661472D01*
X120238119Y-71672515D01*
X120227265Y-71728259D01*
X120198462Y-71795066D01*
X120157350Y-71862508D01*
X120109567Y-71920159D01*
X120098471Y-71930718D01*
X120010988Y-71990466D01*
X119916689Y-72019335D01*
X119817920Y-72017011D01*
X119717028Y-71983180D01*
X119714728Y-71982043D01*
X119630565Y-71924606D01*
X119570675Y-71851683D01*
X119534898Y-71768310D01*
X119523071Y-71679522D01*
X119535033Y-71590354D01*
X119570622Y-71505841D01*
X119629676Y-71431019D01*
X119712034Y-71370923D01*
X119734725Y-71359494D01*
X119834664Y-71327740D01*
X119930095Y-71327573D01*
X120020830Y-71358966D01*
G37*
G36*
X126201112Y-71584221D02*
G01*
X126322288Y-71615594D01*
X126438997Y-71677525D01*
X126487353Y-71713702D01*
X126561980Y-71790591D01*
X126619011Y-71886426D01*
X126661128Y-72004442D01*
X126676133Y-72066356D01*
X126680642Y-72114162D01*
X126675277Y-72163660D01*
X126668661Y-72195899D01*
X126634827Y-72307077D01*
X126583678Y-72401885D01*
X126514904Y-72486408D01*
X126429627Y-72558310D01*
X126328415Y-72612742D01*
X126219402Y-72647048D01*
X126110721Y-72658576D01*
X126021085Y-72647584D01*
X125907373Y-72604209D01*
X125806826Y-72538301D01*
X125722185Y-72454399D01*
X125656194Y-72357048D01*
X125611594Y-72250787D01*
X125591130Y-72140159D01*
X125597543Y-72029706D01*
X125613076Y-71971937D01*
X125668502Y-71851293D01*
X125743514Y-71753284D01*
X125838474Y-71675104D01*
X125956437Y-71613812D01*
X126078239Y-71583572D01*
X126201112Y-71584221D01*
G37*
G36*
X127831805Y-71586663D02*
G01*
X127948646Y-71621894D01*
X128056042Y-71687182D01*
X128120212Y-71745933D01*
X128191400Y-71830733D01*
X128237643Y-71911857D01*
X128262956Y-71999021D01*
X128271358Y-72101941D01*
X128271421Y-72111607D01*
X128269846Y-72182632D01*
X128262704Y-72235993D01*
X128246841Y-72285843D01*
X128219136Y-72346270D01*
X128151683Y-72451666D01*
X128065167Y-72537682D01*
X127964449Y-72602161D01*
X127854385Y-72642949D01*
X127739834Y-72657889D01*
X127625655Y-72644827D01*
X127578738Y-72630383D01*
X127453323Y-72568486D01*
X127350697Y-72484519D01*
X127271469Y-72379040D01*
X127241961Y-72321009D01*
X127206225Y-72203417D01*
X127199875Y-72084600D01*
X127220872Y-71968877D01*
X127267177Y-71860567D01*
X127336753Y-71763990D01*
X127427561Y-71683463D01*
X127537563Y-71623308D01*
X127578223Y-71608504D01*
X127707628Y-71582021D01*
X127831805Y-71586663D01*
G37*
G36*
X124489588Y-72232995D02*
G01*
X124543404Y-72234996D01*
X124582552Y-72238604D01*
X124611340Y-72244070D01*
X124634077Y-72251641D01*
X124653032Y-72260514D01*
X124732386Y-72316232D01*
X124786793Y-72386150D01*
X124815227Y-72465146D01*
X124816667Y-72548100D01*
X124790089Y-72629890D01*
X124740651Y-72699033D01*
X124714350Y-72725777D01*
X124689258Y-72746640D01*
X124661152Y-72762344D01*
X124625811Y-72773610D01*
X124579012Y-72781158D01*
X124516532Y-72785710D01*
X124434149Y-72787987D01*
X124327641Y-72788710D01*
X124215951Y-72788644D01*
X124091748Y-72788235D01*
X123995175Y-72787306D01*
X123921954Y-72785559D01*
X123867807Y-72782696D01*
X123828453Y-72778419D01*
X123799616Y-72772430D01*
X123777016Y-72764432D01*
X123761731Y-72757012D01*
X123692443Y-72706425D01*
X123648140Y-72639359D01*
X123626595Y-72552078D01*
X123624511Y-72526774D01*
X123627635Y-72445670D01*
X123650223Y-72380676D01*
X123696615Y-72322836D01*
X123741853Y-72284633D01*
X123801761Y-72238909D01*
X124197040Y-72234146D01*
X124320714Y-72232819D01*
X124416794Y-72232352D01*
X124489588Y-72232995D01*
G37*
G36*
X122621592Y-72231100D02*
G01*
X122714368Y-72231836D01*
X122784381Y-72233492D01*
X122836203Y-72236419D01*
X122874409Y-72240967D01*
X122903570Y-72247487D01*
X122928260Y-72256329D01*
X122947515Y-72265141D01*
X123020645Y-72315601D01*
X123073824Y-72383245D01*
X123102725Y-72461060D01*
X123105880Y-72521714D01*
X123083861Y-72608143D01*
X123037639Y-72685428D01*
X122973216Y-72744423D01*
X122951360Y-72757124D01*
X122929353Y-72767278D01*
X122905286Y-72775045D01*
X122874767Y-72780739D01*
X122833403Y-72784668D01*
X122776799Y-72787143D01*
X122700563Y-72788476D01*
X122600301Y-72788976D01*
X122500656Y-72788986D01*
X122374703Y-72788561D01*
X122276542Y-72787388D01*
X122202060Y-72785222D01*
X122147142Y-72781819D01*
X122107675Y-72776935D01*
X122079545Y-72770325D01*
X122060827Y-72762849D01*
X121989662Y-72711159D01*
X121935157Y-72638106D01*
X121912043Y-72582757D01*
X121901544Y-72495938D01*
X121920412Y-72412766D01*
X121966155Y-72338694D01*
X122036283Y-72279178D01*
X122055796Y-72268019D01*
X122079375Y-72256243D01*
X122102712Y-72247265D01*
X122130355Y-72240705D01*
X122166854Y-72236185D01*
X122216756Y-72233326D01*
X122284610Y-72231750D01*
X122374967Y-72231078D01*
X122492373Y-72230932D01*
X122501481Y-72230932D01*
X122621592Y-72231100D01*
G37*
G36*
X120877593Y-75677194D02*
G01*
X121022945Y-75677369D01*
X121142175Y-75677810D01*
X121238175Y-75678641D01*
X121313839Y-75679984D01*
X121372060Y-75681962D01*
X121415732Y-75684698D01*
X121447748Y-75688316D01*
X121471002Y-75692937D01*
X121488386Y-75698685D01*
X121502795Y-75705683D01*
X121512930Y-75711551D01*
X121603521Y-75778074D01*
X121681131Y-75859160D01*
X121731581Y-75935898D01*
X121746884Y-75968202D01*
X121757511Y-75999511D01*
X121764302Y-76036496D01*
X121768100Y-76085825D01*
X121769748Y-76154172D01*
X121770089Y-76240874D01*
X121770089Y-76470596D01*
X121557924Y-76481839D01*
X121475038Y-76485267D01*
X121400314Y-76486588D01*
X121341280Y-76485792D01*
X121305465Y-76482864D01*
X121302647Y-76482263D01*
X121280533Y-76475041D01*
X121267501Y-76462243D01*
X121260954Y-76436450D01*
X121258291Y-76390241D01*
X121257542Y-76353511D01*
X121256309Y-76293225D01*
X121254921Y-76244427D01*
X121253661Y-76216844D01*
X121253553Y-76215637D01*
X121245332Y-76209091D01*
X121220233Y-76203810D01*
X121175433Y-76199624D01*
X121108109Y-76196365D01*
X121015440Y-76193864D01*
X120894601Y-76191953D01*
X120848886Y-76191431D01*
X120446214Y-76187169D01*
X120442040Y-76813667D01*
X120437866Y-77440166D01*
X120194555Y-77444570D01*
X119951245Y-77448974D01*
X119951245Y-76563069D01*
X119951245Y-75677163D01*
X120703225Y-75677163D01*
X120877593Y-75677194D01*
G37*
G36*
X121971561Y-66060570D02*
G01*
X122039280Y-66110427D01*
X122098883Y-66183460D01*
X122137705Y-66269047D01*
X122153379Y-66358760D01*
X122143535Y-66444167D01*
X122137833Y-66461218D01*
X122134095Y-66476605D01*
X122136680Y-66493535D01*
X122148278Y-66515545D01*
X122171573Y-66546175D01*
X122209253Y-66588961D01*
X122264004Y-66647443D01*
X122337268Y-66723865D01*
X122551873Y-66946612D01*
X122551873Y-67171624D01*
X122551873Y-67396635D01*
X122440190Y-67396635D01*
X122328506Y-67396635D01*
X122328506Y-67216884D01*
X122328506Y-67037133D01*
X122144919Y-66854066D01*
X121961331Y-66670999D01*
X121845767Y-66670846D01*
X121752922Y-66663990D01*
X121680463Y-66640778D01*
X121619199Y-66596831D01*
X121567885Y-66538360D01*
X121521382Y-66453688D01*
X121503686Y-66364200D01*
X121504520Y-66356526D01*
X121722225Y-66356526D01*
X121734951Y-66413326D01*
X121768045Y-66451684D01*
X121813880Y-66468470D01*
X121864828Y-66460555D01*
X121906430Y-66432097D01*
X121933406Y-66395889D01*
X121945539Y-66361360D01*
X121945592Y-66359575D01*
X121932023Y-66319521D01*
X121898515Y-66281033D01*
X121855864Y-66254248D01*
X121826656Y-66247892D01*
X121777999Y-66262235D01*
X121740255Y-66298915D01*
X121722579Y-66348408D01*
X121722225Y-66356526D01*
X121504520Y-66356526D01*
X121513353Y-66275238D01*
X121548940Y-66192140D01*
X121609003Y-66120247D01*
X121692098Y-66064899D01*
X121696425Y-66062851D01*
X121794671Y-66030941D01*
X121886141Y-66030147D01*
X121971561Y-66060570D01*
G37*
G36*
X127182372Y-67099874D02*
G01*
X127231123Y-67115069D01*
X127298145Y-67157225D01*
X127359296Y-67220628D01*
X127404963Y-67294836D01*
X127411930Y-67311452D01*
X127431680Y-67402256D01*
X127423550Y-67488800D01*
X127391566Y-67567460D01*
X127339752Y-67634611D01*
X127272134Y-67686629D01*
X127192734Y-67719887D01*
X127105578Y-67730762D01*
X127014690Y-67715629D01*
X126978663Y-67701696D01*
X126934475Y-67675289D01*
X126889687Y-67638711D01*
X126852328Y-67599770D01*
X126830427Y-67566270D01*
X126827752Y-67554959D01*
X126812516Y-67550011D01*
X126769672Y-67545848D01*
X126703515Y-67542689D01*
X126618343Y-67540752D01*
X126537337Y-67540228D01*
X126246922Y-67540228D01*
X126197486Y-67588144D01*
X126148051Y-67636059D01*
X126082422Y-67542998D01*
X126016793Y-67449936D01*
X126027194Y-67437768D01*
X127009429Y-67437768D01*
X127030650Y-67472797D01*
X127040889Y-67483584D01*
X127088965Y-67517291D01*
X127135527Y-67519323D01*
X127182733Y-67489703D01*
X127187460Y-67485112D01*
X127214436Y-67448904D01*
X127226569Y-67414375D01*
X127226622Y-67412590D01*
X127213897Y-67374996D01*
X127182946Y-67336617D01*
X127144605Y-67308539D01*
X127117431Y-67300907D01*
X127073488Y-67314998D01*
X127034405Y-67350815D01*
X127010663Y-67398672D01*
X127010385Y-67399821D01*
X127009429Y-67437768D01*
X126027194Y-67437768D01*
X126080487Y-67375422D01*
X126144180Y-67300907D01*
X126474917Y-67300907D01*
X126805655Y-67300907D01*
X126854569Y-67231512D01*
X126920271Y-67163209D01*
X127001697Y-67116989D01*
X127091509Y-67095121D01*
X127182372Y-67099874D01*
G37*
G36*
X118716298Y-75677144D02*
G01*
X118810248Y-75677163D01*
X119617005Y-75677163D01*
X119612611Y-75928451D01*
X119608217Y-76179739D01*
X118898230Y-76183232D01*
X118188242Y-76186726D01*
X118183965Y-76561994D01*
X118179688Y-76937261D01*
X118893953Y-76941414D01*
X119608217Y-76945568D01*
X119612611Y-77196855D01*
X119617005Y-77448143D01*
X118814872Y-77447780D01*
X118632342Y-77447615D01*
X118478965Y-77447240D01*
X118351989Y-77446567D01*
X118248659Y-77445508D01*
X118166219Y-77443975D01*
X118101915Y-77441878D01*
X118052993Y-77439131D01*
X118016698Y-77435645D01*
X117990276Y-77431332D01*
X117970971Y-77426103D01*
X117956898Y-77420296D01*
X117899000Y-77382641D01*
X117834931Y-77326200D01*
X117773684Y-77260262D01*
X117724251Y-77194117D01*
X117704821Y-77159908D01*
X117695286Y-77139060D01*
X117687654Y-77117892D01*
X117681713Y-77092760D01*
X117677251Y-77060018D01*
X117674058Y-77016022D01*
X117671921Y-76957128D01*
X117670630Y-76879692D01*
X117669973Y-76780068D01*
X117669738Y-76654612D01*
X117669712Y-76554676D01*
X117669809Y-76400423D01*
X117670546Y-76274391D01*
X117672599Y-76172892D01*
X117676641Y-76092235D01*
X117683345Y-76028734D01*
X117693384Y-75978698D01*
X117707433Y-75938440D01*
X117726164Y-75904270D01*
X117750251Y-75872500D01*
X117780369Y-75839441D01*
X117804946Y-75814024D01*
X117833367Y-75784461D01*
X117858349Y-75759484D01*
X117882724Y-75738708D01*
X117909325Y-75721747D01*
X117940985Y-75708216D01*
X117980535Y-75697728D01*
X118030810Y-75689898D01*
X118094642Y-75684341D01*
X118174863Y-75680671D01*
X118274307Y-75678501D01*
X118395805Y-75677448D01*
X118542191Y-75677124D01*
X118716298Y-75677144D01*
G37*
G36*
X115893343Y-75679668D02*
G01*
X115978840Y-75680505D01*
X116047008Y-75681863D01*
X116100276Y-75683806D01*
X116141075Y-75686399D01*
X116171835Y-75689706D01*
X116194985Y-75693792D01*
X116212956Y-75698722D01*
X116228177Y-75704559D01*
X116241865Y-75710797D01*
X116302978Y-75749806D01*
X116368013Y-75807573D01*
X116427401Y-75874128D01*
X116471576Y-75939497D01*
X116482029Y-75961099D01*
X116487676Y-75979621D01*
X116492359Y-76007546D01*
X116496160Y-76047624D01*
X116499159Y-76102603D01*
X116501439Y-76175235D01*
X116503082Y-76268269D01*
X116504170Y-76384454D01*
X116504785Y-76526541D01*
X116505009Y-76697278D01*
X116505014Y-76732127D01*
X116505014Y-77448143D01*
X116257900Y-77448143D01*
X116010786Y-77448143D01*
X116006612Y-76821918D01*
X116002438Y-76195693D01*
X115775083Y-76191267D01*
X115547727Y-76186840D01*
X115544853Y-76310927D01*
X115544095Y-76358317D01*
X115543337Y-76432451D01*
X115542613Y-76528166D01*
X115541956Y-76640296D01*
X115541398Y-76763676D01*
X115540973Y-76893142D01*
X115540865Y-76937590D01*
X115539750Y-77440166D01*
X115288648Y-77444559D01*
X115037546Y-77448951D01*
X115033371Y-76822322D01*
X115029197Y-76195693D01*
X114801842Y-76191267D01*
X114574486Y-76186840D01*
X114574486Y-76817491D01*
X114574486Y-77448143D01*
X114326686Y-77448143D01*
X114224890Y-77447397D01*
X114151693Y-77444990D01*
X114103815Y-77440664D01*
X114077976Y-77434165D01*
X114071253Y-77428200D01*
X114069884Y-77408881D01*
X114068745Y-77360650D01*
X114067848Y-77286505D01*
X114067203Y-77189442D01*
X114066823Y-77072458D01*
X114066720Y-76938551D01*
X114066906Y-76790718D01*
X114067392Y-76631955D01*
X114067765Y-76546698D01*
X114071911Y-75685141D01*
X115120867Y-75681037D01*
X115329461Y-75680238D01*
X115508575Y-75679637D01*
X115660640Y-75679299D01*
X115788086Y-75679288D01*
X115893343Y-75679668D01*
G37*
G36*
X123507179Y-68178523D02*
G01*
X123607889Y-68179003D01*
X123684024Y-68180110D01*
X123739251Y-68182097D01*
X123777237Y-68185214D01*
X123801650Y-68189715D01*
X123816156Y-68195850D01*
X123824423Y-68203872D01*
X123827694Y-68209280D01*
X123833115Y-68235080D01*
X123837504Y-68286910D01*
X123840876Y-68359721D01*
X123843244Y-68448465D01*
X123844624Y-68548093D01*
X123845030Y-68653557D01*
X123844475Y-68759808D01*
X123842975Y-68861798D01*
X123840544Y-68954478D01*
X123837196Y-69032800D01*
X123832946Y-69091716D01*
X123827807Y-69126177D01*
X123825064Y-69132515D01*
X123808901Y-69138685D01*
X123772601Y-69143536D01*
X123713862Y-69147163D01*
X123630381Y-69149662D01*
X123519856Y-69151128D01*
X123379984Y-69151656D01*
X123362937Y-69151661D01*
X123232344Y-69151561D01*
X123130037Y-69151099D01*
X123052395Y-69150031D01*
X122995795Y-69148115D01*
X122956614Y-69145107D01*
X122931230Y-69140764D01*
X122916020Y-69134842D01*
X122907362Y-69127098D01*
X122903439Y-69120800D01*
X122898208Y-69094721D01*
X122893862Y-69039252D01*
X122890492Y-68956899D01*
X122889530Y-68912339D01*
X123126245Y-68912339D01*
X123365567Y-68912339D01*
X123604888Y-68912339D01*
X123604888Y-68673017D01*
X123604888Y-68433696D01*
X123365567Y-68433696D01*
X123126245Y-68433696D01*
X123126245Y-68673017D01*
X123126245Y-68912339D01*
X122889530Y-68912339D01*
X122888188Y-68850171D01*
X122887039Y-68721576D01*
X122886947Y-68673017D01*
X122886923Y-68660584D01*
X122887065Y-68531624D01*
X122887649Y-68430817D01*
X122888918Y-68354407D01*
X122891110Y-68298639D01*
X122894467Y-68259758D01*
X122899229Y-68234006D01*
X122905637Y-68217630D01*
X122913930Y-68206872D01*
X122916100Y-68204824D01*
X122928059Y-68196860D01*
X122946706Y-68190652D01*
X122975746Y-68185988D01*
X123018880Y-68182657D01*
X123079812Y-68180446D01*
X123162243Y-68179145D01*
X123269876Y-68178542D01*
X123378228Y-68178419D01*
X123507179Y-68178523D01*
G37*
G36*
X126946046Y-65954303D02*
G01*
X127020463Y-65994965D01*
X127081346Y-66053260D01*
X127123835Y-66126957D01*
X127143074Y-66213825D01*
X127142801Y-66257308D01*
X127121517Y-66359786D01*
X127073939Y-66444544D01*
X126999126Y-66513237D01*
X126996352Y-66515134D01*
X126941996Y-66547533D01*
X126893437Y-66563014D01*
X126833675Y-66566987D01*
X126833414Y-66566987D01*
X126771374Y-66562357D01*
X126712198Y-66550610D01*
X126689676Y-66543055D01*
X126651918Y-66527781D01*
X126629285Y-66519572D01*
X126627211Y-66519123D01*
X126613929Y-66528876D01*
X126580368Y-66555906D01*
X126530601Y-66596866D01*
X126468699Y-66648410D01*
X126413641Y-66694625D01*
X126205258Y-66870128D01*
X125448384Y-66870128D01*
X124691510Y-66870128D01*
X124571000Y-66977763D01*
X124450491Y-67085398D01*
X124450491Y-67241017D01*
X124450491Y-67396635D01*
X124330830Y-67396635D01*
X124211170Y-67396635D01*
X124211170Y-67191062D01*
X124211170Y-66985488D01*
X124405764Y-66812136D01*
X124600358Y-66638784D01*
X125369578Y-66630806D01*
X126138797Y-66622829D01*
X126323727Y-66471782D01*
X126508657Y-66320735D01*
X126508657Y-66235657D01*
X126509066Y-66231727D01*
X126717819Y-66231727D01*
X126722361Y-66280145D01*
X126744047Y-66323333D01*
X126780796Y-66352310D01*
X126815786Y-66359331D01*
X126839041Y-66356814D01*
X126833210Y-66347512D01*
X126827752Y-66343876D01*
X126818053Y-66333719D01*
X126836257Y-66331356D01*
X126850079Y-66332154D01*
X126885386Y-66328889D01*
X126907369Y-66306534D01*
X126916779Y-66286617D01*
X126925900Y-66231750D01*
X126909449Y-66185719D01*
X126873582Y-66153984D01*
X126824457Y-66142007D01*
X126768487Y-66155124D01*
X126732501Y-66187060D01*
X126717819Y-66231727D01*
X126509066Y-66231727D01*
X126517496Y-66150693D01*
X126547288Y-66082101D01*
X126602950Y-66019084D01*
X126610180Y-66012627D01*
X126690160Y-65960438D01*
X126776036Y-65934808D01*
X126862951Y-65933507D01*
X126946046Y-65954303D01*
G37*
G36*
X120421579Y-65713583D02*
G01*
X120486390Y-65735419D01*
X120568541Y-65788612D01*
X120626278Y-65861906D01*
X120659036Y-65954200D01*
X120666248Y-66064394D01*
X120665067Y-66082697D01*
X120656926Y-66184117D01*
X121153677Y-66669853D01*
X121277078Y-66790812D01*
X121379440Y-66891910D01*
X121462799Y-66975322D01*
X121529196Y-67043222D01*
X121580667Y-67097787D01*
X121619251Y-67141191D01*
X121646986Y-67175611D01*
X121665910Y-67203221D01*
X121678062Y-67226198D01*
X121680583Y-67232236D01*
X121699892Y-67280724D01*
X121726954Y-67347918D01*
X121757406Y-67423008D01*
X121774299Y-67464443D01*
X121837860Y-67620002D01*
X121987454Y-67620002D01*
X122137049Y-67620002D01*
X122137049Y-67731686D01*
X122137049Y-67843369D01*
X121924132Y-67843369D01*
X121835595Y-67842835D01*
X121773431Y-67840801D01*
X121732112Y-67836619D01*
X121706112Y-67829639D01*
X121689906Y-67819213D01*
X121686246Y-67815448D01*
X121672034Y-67792122D01*
X121648064Y-67744694D01*
X121616867Y-67678510D01*
X121580972Y-67598918D01*
X121548545Y-67524452D01*
X121435815Y-67261376D01*
X120962626Y-66801948D01*
X120489437Y-66342519D01*
X120396156Y-66353073D01*
X120338098Y-66357243D01*
X120292877Y-66352032D01*
X120244576Y-66334543D01*
X120213223Y-66319763D01*
X120127066Y-66263886D01*
X120068956Y-66193377D01*
X120037654Y-66106274D01*
X120031274Y-66034070D01*
X120238431Y-66034070D01*
X120251370Y-66084226D01*
X120284642Y-66118064D01*
X120329935Y-66133319D01*
X120378932Y-66127725D01*
X120423318Y-66099016D01*
X120433311Y-66087173D01*
X120454698Y-66035825D01*
X120446760Y-65985770D01*
X120411393Y-65944903D01*
X120397120Y-65936330D01*
X120341991Y-65922912D01*
X120292093Y-65936588D01*
X120255093Y-65972636D01*
X120238657Y-66026334D01*
X120238431Y-66034070D01*
X120031274Y-66034070D01*
X120031019Y-66031182D01*
X120033671Y-65969138D01*
X120044733Y-65923023D01*
X120068863Y-65877076D01*
X120082872Y-65855724D01*
X120151504Y-65779643D01*
X120234208Y-65729586D01*
X120325921Y-65707063D01*
X120421579Y-65713583D01*
G37*
G36*
X125173631Y-75138310D02*
G01*
X125239777Y-75212760D01*
X125314463Y-75297461D01*
X125394264Y-75388469D01*
X125475756Y-75481836D01*
X125555514Y-75573615D01*
X125630113Y-75659861D01*
X125696130Y-75736626D01*
X125750140Y-75799965D01*
X125788718Y-75845931D01*
X125804059Y-75864830D01*
X125836024Y-75900755D01*
X125861828Y-75921367D01*
X125872262Y-75923352D01*
X125883386Y-75924002D01*
X125882827Y-75928725D01*
X125891558Y-75943815D01*
X125917693Y-75979033D01*
X125957848Y-76030295D01*
X126008640Y-76093522D01*
X126066684Y-76164630D01*
X126128596Y-76239538D01*
X126190992Y-76314166D01*
X126250487Y-76384430D01*
X126303698Y-76446251D01*
X126347240Y-76495545D01*
X126377729Y-76528232D01*
X126387714Y-76537656D01*
X126393523Y-76540279D01*
X126398373Y-76535974D01*
X126402349Y-76522216D01*
X126405537Y-76496476D01*
X126408020Y-76456228D01*
X126409886Y-76398944D01*
X126411219Y-76322098D01*
X126412104Y-76223161D01*
X126412627Y-76099607D01*
X126412873Y-75948908D01*
X126412928Y-75790800D01*
X126412928Y-75023017D01*
X126684159Y-75023017D01*
X126955391Y-75023017D01*
X126955391Y-76235580D01*
X126955391Y-77448143D01*
X126680171Y-77447175D01*
X126404951Y-77446207D01*
X126133720Y-77122833D01*
X126056911Y-77031408D01*
X125964223Y-76921326D01*
X125860437Y-76798252D01*
X125750332Y-76667848D01*
X125638690Y-76535777D01*
X125530291Y-76407702D01*
X125463619Y-76329024D01*
X125064750Y-75858590D01*
X125060614Y-76653367D01*
X125056477Y-77448143D01*
X124800848Y-77448143D01*
X124697420Y-77447431D01*
X124622608Y-77445130D01*
X124573147Y-77440992D01*
X124545771Y-77434770D01*
X124537604Y-77428200D01*
X124536429Y-77409379D01*
X124535418Y-77361180D01*
X124534578Y-77286133D01*
X124533916Y-77186767D01*
X124533441Y-77065614D01*
X124533159Y-76925204D01*
X124533077Y-76768066D01*
X124533204Y-76596732D01*
X124533545Y-76413731D01*
X124534110Y-76221595D01*
X124534116Y-76219625D01*
X124538242Y-75030995D01*
X124804116Y-75026627D01*
X125069991Y-75022258D01*
X125173631Y-75138310D01*
G37*
G36*
X123133357Y-75677313D02*
G01*
X123868142Y-75677463D01*
X123949158Y-75723931D01*
X124053066Y-75801366D01*
X124135739Y-75900655D01*
X124163207Y-75948202D01*
X124171842Y-75966689D01*
X124178771Y-75987068D01*
X124184181Y-76012879D01*
X124188258Y-76047659D01*
X124191190Y-76094948D01*
X124193163Y-76158284D01*
X124194364Y-76241207D01*
X124194980Y-76347254D01*
X124195197Y-76479965D01*
X124195215Y-76554570D01*
X124195175Y-76700553D01*
X124194906Y-76818224D01*
X124194187Y-76911178D01*
X124192795Y-76983013D01*
X124190507Y-77037325D01*
X124187101Y-77077712D01*
X124182354Y-77107771D01*
X124176045Y-77131097D01*
X124167950Y-77151288D01*
X124157847Y-77171940D01*
X124156920Y-77173770D01*
X124116458Y-77236135D01*
X124059574Y-77301860D01*
X123995197Y-77362200D01*
X123932256Y-77408410D01*
X123900226Y-77425166D01*
X123881683Y-77430818D01*
X123853720Y-77435503D01*
X123813584Y-77439304D01*
X123758522Y-77442302D01*
X123685783Y-77444579D01*
X123592615Y-77446218D01*
X123476266Y-77447301D01*
X123333982Y-77447910D01*
X123163013Y-77448127D01*
X123130746Y-77448130D01*
X122960936Y-77448084D01*
X122820011Y-77447863D01*
X122704949Y-77447339D01*
X122612724Y-77446381D01*
X122540313Y-77444859D01*
X122484693Y-77442643D01*
X122442838Y-77439602D01*
X122411727Y-77435607D01*
X122388334Y-77430527D01*
X122369636Y-77424233D01*
X122352608Y-77416594D01*
X122348252Y-77414456D01*
X122283154Y-77370908D01*
X122216480Y-77307574D01*
X122157698Y-77234606D01*
X122119295Y-77168934D01*
X122111341Y-77149362D01*
X122104948Y-77126456D01*
X122099946Y-77096700D01*
X122096163Y-77056578D01*
X122093428Y-77002571D01*
X122091737Y-76937590D01*
X122599737Y-76937590D01*
X123142200Y-76937590D01*
X123684662Y-76937590D01*
X123684662Y-76562653D01*
X123684662Y-76187716D01*
X123142200Y-76187716D01*
X122599737Y-76187716D01*
X122599737Y-76562653D01*
X122599737Y-76937590D01*
X122091737Y-76937590D01*
X122091570Y-76931164D01*
X122090419Y-76838839D01*
X122089802Y-76722080D01*
X122089550Y-76577369D01*
X122089539Y-76562653D01*
X122089535Y-76557087D01*
X122089470Y-76404020D01*
X122089854Y-76279229D01*
X122091228Y-76179083D01*
X122094135Y-76099948D01*
X122099119Y-76038193D01*
X122106721Y-75990184D01*
X122117486Y-75952288D01*
X122131954Y-75920874D01*
X122150670Y-75892309D01*
X122174176Y-75862960D01*
X122197289Y-75835896D01*
X122246274Y-75786275D01*
X122303110Y-75739116D01*
X122327030Y-75722534D01*
X122398573Y-75677163D01*
X123133357Y-75677313D01*
G37*
G36*
X128763458Y-75023065D02*
G01*
X128925056Y-75023261D01*
X129059649Y-75023680D01*
X129169688Y-75024399D01*
X129257624Y-75025496D01*
X129325911Y-75027046D01*
X129376999Y-75029126D01*
X129413341Y-75031814D01*
X129437388Y-75035184D01*
X129451592Y-75039316D01*
X129458406Y-75044283D01*
X129460280Y-75050165D01*
X129460290Y-75050765D01*
X129454711Y-75075023D01*
X129439600Y-75121416D01*
X129417399Y-75183664D01*
X129390548Y-75255489D01*
X129361488Y-75330612D01*
X129332660Y-75402753D01*
X129306506Y-75465635D01*
X129285465Y-75512977D01*
X129271978Y-75538503D01*
X129269713Y-75541004D01*
X129251596Y-75542648D01*
X129204806Y-75544217D01*
X129132581Y-75545671D01*
X129038158Y-75546972D01*
X128924773Y-75548081D01*
X128795664Y-75548959D01*
X128654067Y-75549569D01*
X128528941Y-75549843D01*
X127800994Y-75550756D01*
X127800994Y-75773507D01*
X127800994Y-75996259D01*
X128495026Y-75996259D01*
X128668694Y-75996440D01*
X128812780Y-75997027D01*
X128929609Y-75998089D01*
X129021508Y-75999693D01*
X129090801Y-76001904D01*
X129139814Y-76004792D01*
X129170874Y-76008423D01*
X129186305Y-76012864D01*
X129189059Y-76016327D01*
X129183404Y-76037456D01*
X129167807Y-76082553D01*
X129144316Y-76146019D01*
X129114983Y-76222251D01*
X129097092Y-76267615D01*
X129005125Y-76498834D01*
X128403060Y-76503015D01*
X127800994Y-76507195D01*
X127800994Y-76722393D01*
X127800994Y-76937590D01*
X128630642Y-76937590D01*
X128814786Y-76937641D01*
X128969556Y-76937851D01*
X129097486Y-76938304D01*
X129201112Y-76939088D01*
X129282969Y-76940286D01*
X129345591Y-76941984D01*
X129391513Y-76944268D01*
X129423271Y-76947223D01*
X129443400Y-76950935D01*
X129454434Y-76955488D01*
X129458908Y-76960969D01*
X129459492Y-76965511D01*
X129453374Y-76989548D01*
X129437063Y-77037070D01*
X129412736Y-77102146D01*
X129382572Y-77178849D01*
X129367175Y-77216799D01*
X129275655Y-77440166D01*
X128446580Y-77444295D01*
X127617504Y-77448423D01*
X127536880Y-77394128D01*
X127437493Y-77313709D01*
X127359836Y-77222670D01*
X127320602Y-77154023D01*
X127314085Y-77137977D01*
X127308601Y-77119118D01*
X127304058Y-77094714D01*
X127300368Y-77062035D01*
X127297440Y-77018350D01*
X127295185Y-76960930D01*
X127293514Y-76887042D01*
X127292336Y-76793958D01*
X127291562Y-76678945D01*
X127291102Y-76539274D01*
X127290867Y-76372213D01*
X127290791Y-76246542D01*
X127290441Y-75403923D01*
X127333711Y-75315554D01*
X127399222Y-75216727D01*
X127491116Y-75130830D01*
X127599429Y-75064645D01*
X127684513Y-75023017D01*
X128572402Y-75023017D01*
X128763458Y-75023065D01*
G37*
G36*
X131601775Y-75025074D02*
G01*
X131692169Y-75025802D01*
X131762808Y-75027077D01*
X131816122Y-75028954D01*
X131854544Y-75031491D01*
X131880503Y-75034742D01*
X131896430Y-75038765D01*
X131904756Y-75043615D01*
X131907389Y-75047599D01*
X131904946Y-75070764D01*
X131891571Y-75117882D01*
X131869035Y-75183631D01*
X131839109Y-75262692D01*
X131819621Y-75311195D01*
X131722035Y-75549209D01*
X130986043Y-75553356D01*
X130250051Y-75557502D01*
X130250051Y-75772892D01*
X130250051Y-75988281D01*
X130928129Y-75996259D01*
X131098886Y-75998217D01*
X131240907Y-76000057D01*
X131357356Y-76002300D01*
X131451402Y-76005465D01*
X131526210Y-76010073D01*
X131584947Y-76016644D01*
X131630779Y-76025697D01*
X131666872Y-76037753D01*
X131696393Y-76053333D01*
X131722508Y-76072956D01*
X131748383Y-76097142D01*
X131777186Y-76126412D01*
X131788120Y-76137525D01*
X131831384Y-76182702D01*
X131865088Y-76223550D01*
X131890421Y-76264862D01*
X131908574Y-76311434D01*
X131920735Y-76368062D01*
X131928093Y-76439540D01*
X131931838Y-76530663D01*
X131933157Y-76646228D01*
X131933280Y-76722900D01*
X131933094Y-76841212D01*
X131932295Y-76932275D01*
X131930520Y-77000748D01*
X131927408Y-77051290D01*
X131922596Y-77088559D01*
X131915722Y-77117215D01*
X131906424Y-77141917D01*
X131899564Y-77156711D01*
X131852615Y-77230936D01*
X131786899Y-77305666D01*
X131712693Y-77370551D01*
X131645046Y-77413000D01*
X131629101Y-77420456D01*
X131612907Y-77426774D01*
X131593829Y-77432050D01*
X131569233Y-77436377D01*
X131536485Y-77439850D01*
X131492952Y-77442561D01*
X131436000Y-77444606D01*
X131362994Y-77446079D01*
X131271302Y-77447072D01*
X131158288Y-77447682D01*
X131021319Y-77448001D01*
X130857762Y-77448123D01*
X130664982Y-77448143D01*
X130660780Y-77448143D01*
X130441678Y-77447895D01*
X130253738Y-77447141D01*
X130096219Y-77445869D01*
X129968377Y-77444064D01*
X129869469Y-77441712D01*
X129798753Y-77438800D01*
X129755485Y-77435314D01*
X129738923Y-77431240D01*
X129738835Y-77431114D01*
X129741170Y-77411337D01*
X129754396Y-77367636D01*
X129776650Y-77305333D01*
X129806067Y-77229754D01*
X129828227Y-77175838D01*
X129928144Y-76937590D01*
X130675435Y-76937590D01*
X131422727Y-76937590D01*
X131422727Y-76747438D01*
X131421945Y-76670735D01*
X131419818Y-76604304D01*
X131416675Y-76555475D01*
X131413043Y-76532048D01*
X131407889Y-76525768D01*
X131395810Y-76520606D01*
X131373963Y-76516452D01*
X131339507Y-76513197D01*
X131289599Y-76510733D01*
X131221397Y-76508950D01*
X131132060Y-76507738D01*
X131018745Y-76506990D01*
X130878610Y-76506595D01*
X130746931Y-76506461D01*
X130575772Y-76506364D01*
X130433299Y-76505920D01*
X130316286Y-76504602D01*
X130221511Y-76501886D01*
X130145749Y-76497244D01*
X130085776Y-76490149D01*
X130038368Y-76480075D01*
X130000303Y-76466497D01*
X129968354Y-76448886D01*
X129939299Y-76426718D01*
X129909914Y-76399465D01*
X129876975Y-76366601D01*
X129874355Y-76363978D01*
X129833029Y-76321527D01*
X129800598Y-76283400D01*
X129775982Y-76245037D01*
X129758099Y-76201878D01*
X129745869Y-76149363D01*
X129738211Y-76082931D01*
X129734045Y-75998022D01*
X129732290Y-75890076D01*
X129731872Y-75762744D01*
X129731521Y-75377659D01*
X129796242Y-75280738D01*
X129880949Y-75175210D01*
X129980224Y-75093568D01*
X130034662Y-75061102D01*
X130048080Y-75054657D01*
X130064257Y-75049176D01*
X130085792Y-75044564D01*
X130115284Y-75040729D01*
X130155332Y-75037575D01*
X130208534Y-75035010D01*
X130277489Y-75032939D01*
X130364797Y-75031270D01*
X130473055Y-75029908D01*
X130604863Y-75028760D01*
X130762819Y-75027731D01*
X130949523Y-75026729D01*
X130994038Y-75026506D01*
X131187758Y-75025608D01*
X131352001Y-75025033D01*
X131489196Y-75024836D01*
X131601775Y-75025074D01*
G37*
G36*
X126921644Y-71226016D02*
G01*
X127193473Y-71226141D01*
X127434956Y-71226441D01*
X127647657Y-71226936D01*
X127833139Y-71227647D01*
X127992967Y-71228591D01*
X128128704Y-71229790D01*
X128241913Y-71231263D01*
X128334158Y-71233028D01*
X128407003Y-71235106D01*
X128462011Y-71237517D01*
X128500745Y-71240279D01*
X128524770Y-71243413D01*
X128534434Y-71246192D01*
X128569360Y-71272686D01*
X128604687Y-71312289D01*
X128610220Y-71320113D01*
X128646597Y-71374093D01*
X128646597Y-72114423D01*
X128646579Y-72294789D01*
X128646309Y-72446039D01*
X128645459Y-72570966D01*
X128643702Y-72672362D01*
X128640712Y-72753022D01*
X128636162Y-72815737D01*
X128629725Y-72863301D01*
X128621073Y-72898508D01*
X128609880Y-72924150D01*
X128595820Y-72943020D01*
X128578565Y-72957912D01*
X128557788Y-72971618D01*
X128545383Y-72979266D01*
X128536080Y-72984798D01*
X128525875Y-72989683D01*
X128512836Y-72993963D01*
X128495033Y-72997677D01*
X128470534Y-73000864D01*
X128437408Y-73003567D01*
X128393723Y-73005823D01*
X128337550Y-73007674D01*
X128266957Y-73009161D01*
X128180012Y-73010321D01*
X128074785Y-73011197D01*
X127949345Y-73011828D01*
X127801760Y-73012255D01*
X127630099Y-73012517D01*
X127432432Y-73012654D01*
X127206826Y-73012707D01*
X126951352Y-73012716D01*
X126935923Y-73012716D01*
X125380587Y-73012716D01*
X125326374Y-72976500D01*
X125301443Y-72959572D01*
X125280595Y-72943083D01*
X125263466Y-72924173D01*
X125249689Y-72899979D01*
X125238900Y-72867642D01*
X125230733Y-72824301D01*
X125224823Y-72767094D01*
X125220805Y-72693162D01*
X125218314Y-72599642D01*
X125216984Y-72483676D01*
X125216450Y-72342401D01*
X125216347Y-72172957D01*
X125216345Y-72122564D01*
X125447705Y-72122564D01*
X125462022Y-72257201D01*
X125503190Y-72385237D01*
X125568693Y-72502802D01*
X125656009Y-72606028D01*
X125762622Y-72691045D01*
X125886013Y-72753985D01*
X125982149Y-72783087D01*
X126075094Y-72799263D01*
X126157369Y-72801494D01*
X126246040Y-72789797D01*
X126277313Y-72783385D01*
X126415570Y-72738333D01*
X126537774Y-72668727D01*
X126641472Y-72578086D01*
X126724212Y-72469929D01*
X126783543Y-72347773D01*
X126817012Y-72215137D01*
X126818946Y-72162760D01*
X127051876Y-72162760D01*
X127054970Y-72221819D01*
X127064650Y-72273014D01*
X127082334Y-72328257D01*
X127083403Y-72331200D01*
X127148674Y-72471560D01*
X127233267Y-72586674D01*
X127337957Y-72677265D01*
X127463517Y-72744052D01*
X127561672Y-72776357D01*
X127656867Y-72796959D01*
X127739184Y-72803395D01*
X127824000Y-72796327D01*
X127864574Y-72789394D01*
X127985216Y-72752785D01*
X128102985Y-72692109D01*
X128205956Y-72613898D01*
X128232181Y-72587990D01*
X128319903Y-72473809D01*
X128379813Y-72349345D01*
X128412649Y-72218563D01*
X128419150Y-72085432D01*
X128400055Y-71953919D01*
X128356102Y-71827991D01*
X128288030Y-71711616D01*
X128196576Y-71608760D01*
X128082479Y-71523392D01*
X128028554Y-71493987D01*
X127979034Y-71470566D01*
X127938420Y-71455329D01*
X127897329Y-71446526D01*
X127846375Y-71442406D01*
X127776174Y-71441218D01*
X127745432Y-71441171D01*
X127666625Y-71441711D01*
X127609974Y-71444594D01*
X127565727Y-71451718D01*
X127524132Y-71464977D01*
X127475439Y-71486268D01*
X127448944Y-71498816D01*
X127319109Y-71576988D01*
X127212854Y-71676516D01*
X127129319Y-71798242D01*
X127115296Y-71825256D01*
X127087747Y-71884939D01*
X127070480Y-71936125D01*
X127060539Y-71991283D01*
X127054966Y-72062879D01*
X127053949Y-72083925D01*
X127051876Y-72162760D01*
X126818946Y-72162760D01*
X126822166Y-72075538D01*
X126814746Y-72012292D01*
X126775645Y-71870669D01*
X126708891Y-71742493D01*
X126617142Y-71631229D01*
X126503053Y-71540340D01*
X126416719Y-71493158D01*
X126352507Y-71466421D01*
X126293533Y-71449964D01*
X126226111Y-71440718D01*
X126165629Y-71436848D01*
X126089883Y-71434655D01*
X126033272Y-71437652D01*
X125983217Y-71447541D01*
X125927135Y-71466024D01*
X125914176Y-71470869D01*
X125804471Y-71520603D01*
X125708472Y-71580169D01*
X125636257Y-71642899D01*
X125577245Y-71720863D01*
X125523314Y-71817780D01*
X125481013Y-71920726D01*
X125462759Y-71985195D01*
X125447705Y-72122564D01*
X125216345Y-72122564D01*
X125216345Y-72114747D01*
X125216411Y-71936238D01*
X125216819Y-71786776D01*
X125217864Y-71663500D01*
X125219840Y-71563548D01*
X125223042Y-71484059D01*
X125227763Y-71422170D01*
X125234300Y-71375020D01*
X125242947Y-71339747D01*
X125253997Y-71313489D01*
X125267746Y-71293385D01*
X125284488Y-71276573D01*
X125304290Y-71260370D01*
X125348262Y-71225781D01*
X126921644Y-71226016D01*
G37*
G36*
X120187761Y-70188755D02*
G01*
X120304021Y-70191333D01*
X120396509Y-70197933D01*
X120467930Y-70210277D01*
X120520989Y-70230085D01*
X120558392Y-70259078D01*
X120582845Y-70298979D01*
X120597053Y-70351507D01*
X120603721Y-70418385D01*
X120605555Y-70501333D01*
X120605261Y-70602072D01*
X120605155Y-70654486D01*
X120605391Y-70968680D01*
X120933722Y-70973581D01*
X121262053Y-70978482D01*
X121316637Y-71038078D01*
X121371220Y-71097674D01*
X121371220Y-71680492D01*
X121371220Y-72263310D01*
X121316637Y-72322906D01*
X121262053Y-72382502D01*
X120934627Y-72387395D01*
X120607200Y-72392289D01*
X120602306Y-72718227D01*
X120597413Y-73044165D01*
X120537333Y-73104226D01*
X120477254Y-73164286D01*
X119891165Y-73168215D01*
X119735910Y-73169110D01*
X119609321Y-73169431D01*
X119508154Y-73169069D01*
X119429170Y-73167915D01*
X119369127Y-73165859D01*
X119324783Y-73162792D01*
X119292897Y-73158603D01*
X119270228Y-73153182D01*
X119253999Y-73146655D01*
X119219884Y-73127904D01*
X119193711Y-73107147D01*
X119174292Y-73080011D01*
X119160443Y-73042126D01*
X119150976Y-72989121D01*
X119144706Y-72916625D01*
X119140447Y-72820266D01*
X119137551Y-72717553D01*
X119129574Y-72398457D01*
X118809707Y-72390480D01*
X118696962Y-72387292D01*
X118611578Y-72383807D01*
X118549007Y-72379575D01*
X118504702Y-72374143D01*
X118474115Y-72367058D01*
X118452697Y-72357869D01*
X118447068Y-72354431D01*
X118423832Y-72338438D01*
X118404860Y-72321798D01*
X118389750Y-72301311D01*
X118378098Y-72273776D01*
X118369502Y-72235992D01*
X118363558Y-72184758D01*
X118359864Y-72116873D01*
X118358015Y-72029135D01*
X118357610Y-71918344D01*
X118358154Y-71800781D01*
X118629991Y-71800781D01*
X118630550Y-71911281D01*
X118632320Y-72000073D01*
X118635228Y-72064289D01*
X118639201Y-72101055D01*
X118641808Y-72108530D01*
X118662348Y-72113401D01*
X118710810Y-72117401D01*
X118783211Y-72120373D01*
X118875571Y-72122159D01*
X118983908Y-72122604D01*
X118997072Y-72122562D01*
X119122268Y-72121396D01*
X119219318Y-72121355D01*
X119291776Y-72125994D01*
X119343196Y-72138866D01*
X119377133Y-72163525D01*
X119397141Y-72203526D01*
X119406776Y-72262421D01*
X119409592Y-72343765D01*
X119409142Y-72451111D01*
X119408783Y-72534195D01*
X119409253Y-72636129D01*
X119410570Y-72727133D01*
X119412590Y-72802427D01*
X119415171Y-72857230D01*
X119418171Y-72886763D01*
X119419419Y-72890396D01*
X119437550Y-72893168D01*
X119483407Y-72895671D01*
X119552805Y-72897806D01*
X119641560Y-72899476D01*
X119745491Y-72900583D01*
X119860411Y-72901028D01*
X119873189Y-72901032D01*
X120014556Y-72900631D01*
X120126413Y-72899361D01*
X120211149Y-72897122D01*
X120271155Y-72893812D01*
X120308820Y-72889332D01*
X120326534Y-72883582D01*
X120328134Y-72881919D01*
X120331529Y-72860748D01*
X120334129Y-72812805D01*
X120335818Y-72743222D01*
X120336482Y-72657131D01*
X120336005Y-72559663D01*
X120335776Y-72540230D01*
X120334699Y-72420289D01*
X120335407Y-72328240D01*
X120338565Y-72260084D01*
X120344835Y-72211823D01*
X120354882Y-72179459D01*
X120369368Y-72158993D01*
X120388958Y-72146428D01*
X120401950Y-72141501D01*
X120428482Y-72137823D01*
X120481438Y-72134486D01*
X120555334Y-72131688D01*
X120644687Y-72129631D01*
X120744011Y-72128513D01*
X120760171Y-72128436D01*
X120882080Y-72127107D01*
X120978872Y-72124225D01*
X121048665Y-72119889D01*
X121089578Y-72114202D01*
X121099480Y-72110184D01*
X121105357Y-72088073D01*
X121109580Y-72035003D01*
X121112154Y-71950754D01*
X121113087Y-71835103D01*
X121112384Y-71687827D01*
X121112225Y-71671447D01*
X121107966Y-71249713D01*
X120755174Y-71245425D01*
X120639956Y-71243877D01*
X120552383Y-71242126D01*
X120488193Y-71239753D01*
X120443122Y-71236340D01*
X120412907Y-71231468D01*
X120393284Y-71224720D01*
X120379992Y-71215678D01*
X120372260Y-71207857D01*
X120362133Y-71194121D01*
X120354440Y-71175346D01*
X120348776Y-71147142D01*
X120344738Y-71105114D01*
X120341920Y-71044872D01*
X120339920Y-70962024D01*
X120338332Y-70852177D01*
X120338152Y-70837208D01*
X120336620Y-70735785D01*
X120334609Y-70644635D01*
X120332281Y-70568782D01*
X120329799Y-70513249D01*
X120327325Y-70483058D01*
X120326591Y-70479646D01*
X120317546Y-70473534D01*
X120293638Y-70468875D01*
X120251973Y-70465569D01*
X120189654Y-70463516D01*
X120103786Y-70462615D01*
X119991475Y-70462765D01*
X119867887Y-70463692D01*
X119416760Y-70467929D01*
X119412477Y-70828694D01*
X119410864Y-70946370D01*
X119408946Y-71036246D01*
X119406375Y-71102430D01*
X119402804Y-71149033D01*
X119397881Y-71180162D01*
X119391260Y-71199928D01*
X119382590Y-71212439D01*
X119379658Y-71215284D01*
X119366017Y-71223891D01*
X119343805Y-71230557D01*
X119308984Y-71235595D01*
X119257517Y-71239320D01*
X119185368Y-71242046D01*
X119088499Y-71244089D01*
X118993049Y-71245411D01*
X118634976Y-71249713D01*
X118630717Y-71671447D01*
X118629991Y-71800781D01*
X118358154Y-71800781D01*
X118358244Y-71781299D01*
X118359182Y-71656532D01*
X118363745Y-71082767D01*
X118415865Y-71030625D01*
X118467984Y-70978482D01*
X118798779Y-70970505D01*
X119129574Y-70962527D01*
X119137551Y-70643432D01*
X119140920Y-70525080D01*
X119145056Y-70434178D01*
X119151017Y-70366269D01*
X119159866Y-70316894D01*
X119172661Y-70281596D01*
X119190463Y-70255916D01*
X119214333Y-70235397D01*
X119238287Y-70219836D01*
X119253119Y-70211745D01*
X119270582Y-70205194D01*
X119293993Y-70200021D01*
X119326670Y-70196065D01*
X119371933Y-70193163D01*
X119433097Y-70191152D01*
X119513483Y-70189871D01*
X119616407Y-70189157D01*
X119745189Y-70188847D01*
X119873100Y-70188781D01*
X120045022Y-70188478D01*
X120187761Y-70188755D01*
G37*
G36*
X123157480Y-65175716D02*
G01*
X123238566Y-65226651D01*
X123305851Y-65298315D01*
X123313577Y-65309520D01*
X123340075Y-65356319D01*
X123353415Y-65402675D01*
X123357526Y-65463398D01*
X123357589Y-65475534D01*
X123355043Y-65537486D01*
X123344583Y-65582453D01*
X123321975Y-65625148D01*
X123309045Y-65644225D01*
X123270218Y-65691643D01*
X123227587Y-65732355D01*
X123209942Y-65745316D01*
X123159384Y-65777226D01*
X123158769Y-66676001D01*
X123158154Y-67574776D01*
X123373523Y-67569468D01*
X123588891Y-67564161D01*
X123588912Y-66971613D01*
X123589020Y-66817387D01*
X123589427Y-66691905D01*
X123590273Y-66591999D01*
X123591701Y-66514503D01*
X123593852Y-66456252D01*
X123596868Y-66414078D01*
X123600890Y-66384816D01*
X123606060Y-66365298D01*
X123612520Y-66352360D01*
X123616854Y-66346690D01*
X123638757Y-66328283D01*
X123683084Y-66296343D01*
X123745103Y-66254090D01*
X123820080Y-66204746D01*
X123903282Y-66151531D01*
X123908029Y-66148539D01*
X124002432Y-66089095D01*
X124099472Y-66027996D01*
X124191353Y-65970151D01*
X124270274Y-65920470D01*
X124318864Y-65889887D01*
X124384418Y-65847816D01*
X124427212Y-65817408D01*
X124451986Y-65794139D01*
X124463481Y-65773489D01*
X124466436Y-65750935D01*
X124693075Y-65750935D01*
X124708238Y-65798393D01*
X124739039Y-65834136D01*
X124782462Y-65848992D01*
X124784652Y-65849022D01*
X124817420Y-65839021D01*
X124855523Y-65814672D01*
X124858754Y-65811964D01*
X124887248Y-65782030D01*
X124895216Y-65751111D01*
X124890867Y-65716429D01*
X124868394Y-65663436D01*
X124829734Y-65632318D01*
X124782544Y-65625741D01*
X124734478Y-65646368D01*
X124721722Y-65657565D01*
X124696565Y-65700934D01*
X124693075Y-65750935D01*
X124466436Y-65750935D01*
X124466446Y-65749083D01*
X124480999Y-65650295D01*
X124521835Y-65564520D01*
X124584722Y-65495446D01*
X124665428Y-65446758D01*
X124759719Y-65422145D01*
X124841679Y-65422219D01*
X124931499Y-65447157D01*
X125007032Y-65496838D01*
X125064704Y-65565947D01*
X125100943Y-65649170D01*
X125112177Y-65741194D01*
X125102656Y-65810394D01*
X125076438Y-65873023D01*
X125032580Y-65938140D01*
X124979491Y-65995474D01*
X124925581Y-66034756D01*
X124914843Y-66039791D01*
X124863506Y-66050870D01*
X124794507Y-66052869D01*
X124720560Y-66046485D01*
X124654377Y-66032413D01*
X124631741Y-66024287D01*
X124615718Y-66018151D01*
X124599811Y-66015662D01*
X124580465Y-66018588D01*
X124554123Y-66028695D01*
X124517231Y-66047750D01*
X124466233Y-66077520D01*
X124397574Y-66119772D01*
X124307697Y-66176273D01*
X124240849Y-66218544D01*
X124145791Y-66278553D01*
X124058062Y-66333671D01*
X123981767Y-66381341D01*
X123921011Y-66419002D01*
X123879900Y-66444099D01*
X123864153Y-66453284D01*
X123828255Y-66472381D01*
X123828255Y-67024184D01*
X123828255Y-67575987D01*
X124040631Y-67564612D01*
X124145885Y-67560486D01*
X124225487Y-67561837D01*
X124285421Y-67569962D01*
X124331670Y-67586159D01*
X124370218Y-67611725D01*
X124402627Y-67643120D01*
X124417045Y-67659865D01*
X124427598Y-67677596D01*
X124435002Y-67701436D01*
X124439974Y-67736511D01*
X124443230Y-67787945D01*
X124445487Y-67860863D01*
X124447461Y-67960390D01*
X124447531Y-67964271D01*
X124452548Y-68242238D01*
X124872697Y-68242239D01*
X125292845Y-68242239D01*
X125521825Y-67994200D01*
X125590145Y-67919765D01*
X125650844Y-67852814D01*
X125700652Y-67797022D01*
X125736299Y-67756063D01*
X125754513Y-67733614D01*
X125756123Y-67730946D01*
X125742647Y-67725622D01*
X125699970Y-67721309D01*
X125630791Y-67718139D01*
X125537806Y-67716243D01*
X125444255Y-67715731D01*
X125127068Y-67715731D01*
X125064311Y-67779999D01*
X125001555Y-67844268D01*
X124801808Y-67839830D01*
X124602061Y-67835392D01*
X124602061Y-67731686D01*
X124602061Y-67627980D01*
X124738996Y-67623409D01*
X124805607Y-67620679D01*
X124849472Y-67615820D01*
X124879741Y-67605708D01*
X124905562Y-67587220D01*
X124936084Y-67557236D01*
X124937680Y-67555601D01*
X124999429Y-67492364D01*
X125423732Y-67492364D01*
X125848035Y-67492364D01*
X125904094Y-67552195D01*
X125948178Y-67602077D01*
X125991391Y-67655292D01*
X126003633Y-67671542D01*
X126029485Y-67708948D01*
X126037963Y-67733036D01*
X126030911Y-67755967D01*
X126019351Y-67775248D01*
X126003678Y-67798736D01*
X125983457Y-67825797D01*
X125956168Y-67859313D01*
X125919291Y-67902164D01*
X125870304Y-67957233D01*
X125806689Y-68027400D01*
X125725925Y-68115547D01*
X125642298Y-68206340D01*
X125403139Y-68465605D01*
X124926815Y-68465605D01*
X124450491Y-68465605D01*
X124450491Y-68680233D01*
X124450491Y-68894861D01*
X124709756Y-68904119D01*
X124759597Y-68905424D01*
X124839017Y-68906873D01*
X124945684Y-68908445D01*
X125077268Y-68910118D01*
X125231438Y-68911867D01*
X125405863Y-68913671D01*
X125598214Y-68915507D01*
X125806158Y-68917352D01*
X126027366Y-68919183D01*
X126259506Y-68920978D01*
X126500248Y-68922715D01*
X126747261Y-68924369D01*
X126867639Y-68925130D01*
X127165671Y-68927038D01*
X127433306Y-68928896D01*
X127672055Y-68930730D01*
X127883431Y-68932565D01*
X128068946Y-68934425D01*
X128230112Y-68936337D01*
X128368442Y-68938326D01*
X128485447Y-68940418D01*
X128582640Y-68942637D01*
X128661532Y-68945009D01*
X128723637Y-68947559D01*
X128770465Y-68950313D01*
X128803529Y-68953297D01*
X128824342Y-68956535D01*
X128830077Y-68958069D01*
X128952517Y-69011661D01*
X129069992Y-69087070D01*
X129175204Y-69178248D01*
X129260860Y-69279152D01*
X129304890Y-69351567D01*
X129318448Y-69377851D01*
X129330601Y-69401476D01*
X129341426Y-69424236D01*
X129350998Y-69447928D01*
X129359395Y-69474345D01*
X129366692Y-69505284D01*
X129372967Y-69542540D01*
X129378296Y-69587908D01*
X129382755Y-69643182D01*
X129386421Y-69710159D01*
X129389370Y-69790634D01*
X129391680Y-69886401D01*
X129393425Y-69999256D01*
X129394684Y-70130994D01*
X129395532Y-70283410D01*
X129396046Y-70458300D01*
X129396302Y-70657459D01*
X129396378Y-70882682D01*
X129396349Y-71135764D01*
X129396292Y-71418500D01*
X129396282Y-71495919D01*
X129396269Y-71787235D01*
X129396243Y-72048435D01*
X129396128Y-72281312D01*
X129395848Y-72487659D01*
X129395328Y-72669271D01*
X129394493Y-72827941D01*
X129393266Y-72965461D01*
X129391573Y-73083625D01*
X129389337Y-73184228D01*
X129386484Y-73269061D01*
X129382938Y-73339920D01*
X129378623Y-73398596D01*
X129373463Y-73446883D01*
X129367384Y-73486575D01*
X129360310Y-73519466D01*
X129352165Y-73547348D01*
X129342874Y-73572015D01*
X129332362Y-73595260D01*
X129320552Y-73618877D01*
X129307369Y-73644659D01*
X129305676Y-73648014D01*
X129245339Y-73744472D01*
X129166156Y-73837284D01*
X129077308Y-73916846D01*
X129000776Y-73967023D01*
X128984926Y-73975961D01*
X128971300Y-73984343D01*
X128958878Y-73992187D01*
X128946642Y-73999510D01*
X128933571Y-74006330D01*
X128918647Y-74012664D01*
X128900850Y-74018530D01*
X128879160Y-74023946D01*
X128852558Y-74028929D01*
X128820025Y-74033496D01*
X128780541Y-74037666D01*
X128733087Y-74041456D01*
X128676644Y-74044883D01*
X128610191Y-74047965D01*
X128532711Y-74050720D01*
X128443183Y-74053165D01*
X128340587Y-74055317D01*
X128223906Y-74057195D01*
X128092118Y-74058816D01*
X127944205Y-74060197D01*
X127779148Y-74061356D01*
X127595927Y-74062311D01*
X127393522Y-74063079D01*
X127170914Y-74063678D01*
X126927084Y-74064125D01*
X126661012Y-74064437D01*
X126371679Y-74064634D01*
X126058066Y-74064731D01*
X125719153Y-74064747D01*
X125353921Y-74064699D01*
X124961350Y-74064605D01*
X124540422Y-74064482D01*
X124090115Y-74064348D01*
X123609412Y-74064220D01*
X123365567Y-74064166D01*
X122865743Y-74064047D01*
X122396871Y-74063901D01*
X121957992Y-74063722D01*
X121548149Y-74063506D01*
X121166384Y-74063250D01*
X120811739Y-74062949D01*
X120483255Y-74062600D01*
X120179975Y-74062197D01*
X119900942Y-74061738D01*
X119645196Y-74061217D01*
X119411780Y-74060632D01*
X119199736Y-74059977D01*
X119008106Y-74059249D01*
X118835932Y-74058443D01*
X118682256Y-74057556D01*
X118546121Y-74056583D01*
X118426568Y-74055521D01*
X118322639Y-74054364D01*
X118233376Y-74053110D01*
X118157822Y-74051754D01*
X118095018Y-74050291D01*
X118044006Y-74048719D01*
X118003829Y-74047032D01*
X117973529Y-74045226D01*
X117952147Y-74043299D01*
X117938725Y-74041244D01*
X117937460Y-74040954D01*
X117789234Y-73989163D01*
X117655932Y-73910850D01*
X117540627Y-73809123D01*
X117446390Y-73687087D01*
X117376294Y-73547847D01*
X117342728Y-73439670D01*
X117338852Y-73407042D01*
X117335289Y-73345031D01*
X117332037Y-73256143D01*
X117329099Y-73142882D01*
X117326474Y-73007756D01*
X117324163Y-72853268D01*
X117322166Y-72681925D01*
X117320483Y-72496233D01*
X117319115Y-72298697D01*
X117318062Y-72091822D01*
X117317325Y-71878115D01*
X117316904Y-71660081D01*
X117316799Y-71440226D01*
X117317010Y-71221055D01*
X117317538Y-71005074D01*
X117318384Y-70794788D01*
X117318816Y-70719849D01*
X117769342Y-70719849D01*
X117769500Y-70933538D01*
X117769801Y-71175012D01*
X117770222Y-71446075D01*
X117770361Y-71528922D01*
X117773418Y-73339789D01*
X117807764Y-73403608D01*
X117864724Y-73485767D01*
X117935756Y-73542962D01*
X117972967Y-73561710D01*
X117980576Y-73563944D01*
X117993440Y-73566034D01*
X118012548Y-73567985D01*
X118038887Y-73569800D01*
X118073448Y-73571484D01*
X118117218Y-73573039D01*
X118171186Y-73574469D01*
X118236342Y-73575779D01*
X118313673Y-73576972D01*
X118404168Y-73578053D01*
X118508816Y-73579024D01*
X118628606Y-73579889D01*
X118764527Y-73580653D01*
X118917566Y-73581319D01*
X119088713Y-73581891D01*
X119278957Y-73582373D01*
X119489285Y-73582769D01*
X119720688Y-73583081D01*
X119974153Y-73583315D01*
X120250669Y-73583474D01*
X120551225Y-73583562D01*
X120876810Y-73583582D01*
X121228411Y-73583539D01*
X121607019Y-73583435D01*
X122013622Y-73583276D01*
X122449207Y-73583064D01*
X122914765Y-73582804D01*
X123390668Y-73582512D01*
X128752642Y-73579110D01*
X128812424Y-73539223D01*
X128856919Y-73499456D01*
X128899630Y-73445067D01*
X128914961Y-73419563D01*
X128957715Y-73339789D01*
X128957715Y-71497012D01*
X128957715Y-69654236D01*
X128923369Y-69590417D01*
X128870854Y-69513097D01*
X128806835Y-69460246D01*
X128743854Y-69431408D01*
X128730021Y-69427563D01*
X128710372Y-69424136D01*
X128683148Y-69421102D01*
X128646588Y-69418438D01*
X128598935Y-69416122D01*
X128538429Y-69414131D01*
X128463310Y-69412440D01*
X128371819Y-69411027D01*
X128262198Y-69409869D01*
X128132686Y-69408942D01*
X127981525Y-69408223D01*
X127806956Y-69407689D01*
X127607218Y-69407317D01*
X127380554Y-69407083D01*
X127125203Y-69406964D01*
X126889566Y-69406937D01*
X125104637Y-69406937D01*
X125104286Y-69690134D01*
X125103055Y-69812762D01*
X125098823Y-69908256D01*
X125090269Y-69981350D01*
X125076073Y-70036777D01*
X125054915Y-70079268D01*
X125025476Y-70113556D01*
X124986433Y-70144374D01*
X124975505Y-70151767D01*
X124946170Y-70170093D01*
X124918628Y-70182817D01*
X124886076Y-70191158D01*
X124841711Y-70196331D01*
X124778733Y-70199552D01*
X124695044Y-70201923D01*
X124482401Y-70207148D01*
X124482401Y-70923877D01*
X124482358Y-71093836D01*
X124482148Y-71234758D01*
X124481648Y-71349517D01*
X124480735Y-71440985D01*
X124479288Y-71512035D01*
X124477184Y-71565541D01*
X124474301Y-71604374D01*
X124470515Y-71631408D01*
X124465704Y-71649517D01*
X124459747Y-71661572D01*
X124452520Y-71670446D01*
X124450491Y-71672515D01*
X124401578Y-71699118D01*
X124355902Y-71704424D01*
X124331059Y-71704751D01*
X124310149Y-71704045D01*
X124292837Y-71699782D01*
X124278784Y-71689435D01*
X124267653Y-71670478D01*
X124259105Y-71640385D01*
X124252805Y-71596629D01*
X124248414Y-71536685D01*
X124245594Y-71458026D01*
X124244008Y-71358125D01*
X124243319Y-71234458D01*
X124243189Y-71084497D01*
X124243280Y-70905717D01*
X124243297Y-70861670D01*
X124243533Y-70704527D01*
X124244126Y-70556281D01*
X124245037Y-70420153D01*
X124246228Y-70299361D01*
X124247660Y-70197126D01*
X124249294Y-70116668D01*
X124251090Y-70061205D01*
X124253011Y-70033958D01*
X124253302Y-70032523D01*
X124274294Y-69994913D01*
X124315752Y-69969474D01*
X124380781Y-69955200D01*
X124472488Y-69951086D01*
X124503308Y-69951617D01*
X124578349Y-69952531D01*
X124637794Y-69948503D01*
X124683456Y-69936260D01*
X124717150Y-69912530D01*
X124740688Y-69874043D01*
X124755885Y-69817525D01*
X124764554Y-69739706D01*
X124768509Y-69637313D01*
X124769564Y-69507075D01*
X124769587Y-69471269D01*
X124769587Y-69135706D01*
X124611162Y-69135706D01*
X124452737Y-69135706D01*
X124447626Y-69381767D01*
X124445446Y-69475726D01*
X124442860Y-69543338D01*
X124439002Y-69590162D01*
X124433008Y-69621758D01*
X124424012Y-69643685D01*
X124411149Y-69661503D01*
X124402627Y-69671009D01*
X124367823Y-69703785D01*
X124329444Y-69727354D01*
X124281642Y-69743132D01*
X124218571Y-69752539D01*
X124134383Y-69756992D01*
X124044157Y-69757942D01*
X123828255Y-69757942D01*
X123828255Y-70699274D01*
X123828229Y-70896139D01*
X123828095Y-71063575D01*
X123827774Y-71204063D01*
X123827182Y-71320084D01*
X123826240Y-71414118D01*
X123824866Y-71488646D01*
X123822978Y-71546149D01*
X123820494Y-71589107D01*
X123817335Y-71620001D01*
X123813418Y-71641312D01*
X123808662Y-71655520D01*
X123802986Y-71665107D01*
X123796345Y-71672515D01*
X123752609Y-71696868D01*
X123696757Y-71704005D01*
X123643390Y-71693476D01*
X123618110Y-71678019D01*
X123612015Y-71671166D01*
X123606831Y-71660872D01*
X123602485Y-71644686D01*
X123598903Y-71620157D01*
X123596012Y-71584831D01*
X123593739Y-71536258D01*
X123592009Y-71471985D01*
X123590750Y-71389561D01*
X123589888Y-71286532D01*
X123589349Y-71160449D01*
X123589060Y-71008858D01*
X123588947Y-70829308D01*
X123588933Y-70704778D01*
X123588933Y-69757942D01*
X123373544Y-69757942D01*
X123158154Y-69757942D01*
X123158154Y-70699274D01*
X123158128Y-70896139D01*
X123157995Y-71063575D01*
X123157673Y-71204063D01*
X123157082Y-71320084D01*
X123156140Y-71414118D01*
X123154765Y-71488646D01*
X123152877Y-71546149D01*
X123150394Y-71589107D01*
X123147235Y-71620001D01*
X123143318Y-71641312D01*
X123138562Y-71655520D01*
X123132885Y-71665107D01*
X123126245Y-71672515D01*
X123077332Y-71699118D01*
X123031656Y-71704424D01*
X123008670Y-71704909D01*
X122989028Y-71704816D01*
X122972469Y-71701829D01*
X122958730Y-71693629D01*
X122947549Y-71677898D01*
X122938664Y-71652317D01*
X122931813Y-71614569D01*
X122926735Y-71562335D01*
X122923167Y-71493298D01*
X122920848Y-71405139D01*
X122919514Y-71295540D01*
X122918905Y-71162182D01*
X122918759Y-71002749D01*
X122918813Y-70814921D01*
X122918833Y-70706111D01*
X122918833Y-69757942D01*
X122747319Y-69755344D01*
X122639308Y-69753486D01*
X122558165Y-69751329D01*
X122498847Y-69748396D01*
X122456314Y-69744216D01*
X122425524Y-69738315D01*
X122401435Y-69730217D01*
X122381993Y-69721012D01*
X122338516Y-69690701D01*
X122306466Y-69648319D01*
X122284485Y-69589530D01*
X122271218Y-69510000D01*
X122265308Y-69405395D01*
X122264687Y-69346058D01*
X122264687Y-69135706D01*
X122121094Y-69135706D01*
X121977501Y-69135706D01*
X121977501Y-69471269D01*
X121978036Y-69607739D01*
X121980872Y-69715636D01*
X121987858Y-69798295D01*
X122000844Y-69859049D01*
X122021679Y-69901232D01*
X122052212Y-69928178D01*
X122094292Y-69943221D01*
X122149767Y-69949694D01*
X122220487Y-69950932D01*
X122243460Y-69950793D01*
X122314453Y-69950701D01*
X122361462Y-69953005D01*
X122392408Y-69959520D01*
X122415213Y-69972057D01*
X122437798Y-69992431D01*
X122441506Y-69996126D01*
X122488054Y-70042673D01*
X122488054Y-70844372D01*
X122487976Y-71026335D01*
X122487686Y-71179045D01*
X122487099Y-71305158D01*
X122486132Y-71407330D01*
X122484699Y-71488217D01*
X122482716Y-71550475D01*
X122480099Y-71596761D01*
X122476764Y-71629730D01*
X122472625Y-71652039D01*
X122467600Y-71666343D01*
X122461649Y-71675247D01*
X122420794Y-71699221D01*
X122367343Y-71704716D01*
X122314398Y-71692172D01*
X122280948Y-71669168D01*
X122273159Y-71660060D01*
X122266732Y-71649071D01*
X122261556Y-71633310D01*
X122257522Y-71609884D01*
X122254519Y-71575904D01*
X122252436Y-71528479D01*
X122251165Y-71464717D01*
X122250595Y-71381728D01*
X122250616Y-71276621D01*
X122251119Y-71146504D01*
X122251992Y-70988488D01*
X122252405Y-70919289D01*
X122256710Y-70204667D01*
X122070280Y-70204671D01*
X121972705Y-70203280D01*
X121900076Y-70197922D01*
X121845505Y-70186828D01*
X121802104Y-70168231D01*
X121762985Y-70140360D01*
X121740266Y-70119935D01*
X121707413Y-70086404D01*
X121682814Y-70053077D01*
X121665293Y-70014743D01*
X121653674Y-69966193D01*
X121646780Y-69902215D01*
X121643436Y-69817601D01*
X121642465Y-69707139D01*
X121642451Y-69686658D01*
X121642451Y-69406937D01*
X119843550Y-69407093D01*
X118044649Y-69407249D01*
X117964876Y-69444718D01*
X117895341Y-69483371D01*
X117847953Y-69527549D01*
X117813638Y-69587426D01*
X117795842Y-69634255D01*
X117791436Y-69648578D01*
X117787513Y-69665404D01*
X117784050Y-69686539D01*
X117781022Y-69713788D01*
X117778405Y-69748958D01*
X117776175Y-69793853D01*
X117774307Y-69850281D01*
X117772778Y-69920046D01*
X117771562Y-70004954D01*
X117770636Y-70106812D01*
X117769975Y-70227424D01*
X117769556Y-70368597D01*
X117769353Y-70532137D01*
X117769342Y-70719849D01*
X117318816Y-70719849D01*
X117319548Y-70592704D01*
X117321029Y-70401326D01*
X117322829Y-70223160D01*
X117324948Y-70060713D01*
X117327386Y-69916489D01*
X117330143Y-69792995D01*
X117333221Y-69692735D01*
X117336618Y-69618216D01*
X117340337Y-69571944D01*
X117342161Y-69560809D01*
X117392828Y-69415360D01*
X117470795Y-69280947D01*
X117572202Y-69161733D01*
X117693190Y-69061881D01*
X117829898Y-68985552D01*
X117901056Y-68958131D01*
X117916912Y-68954792D01*
X117944462Y-68951715D01*
X117985208Y-68948875D01*
X118040649Y-68946247D01*
X118112285Y-68943807D01*
X118201618Y-68941528D01*
X118310146Y-68939387D01*
X118439370Y-68937358D01*
X118590790Y-68935417D01*
X118765907Y-68933538D01*
X118966220Y-68931697D01*
X119193230Y-68929868D01*
X119448437Y-68928027D01*
X119733341Y-68926149D01*
X119879448Y-68925236D01*
X120129096Y-68923636D01*
X120373204Y-68921941D01*
X120609489Y-68920177D01*
X120835669Y-68918363D01*
X121049462Y-68916524D01*
X121248584Y-68914682D01*
X121430754Y-68912859D01*
X121593690Y-68911077D01*
X121735108Y-68909358D01*
X121852727Y-68907727D01*
X121944263Y-68906203D01*
X122007435Y-68904812D01*
X122029354Y-68904106D01*
X122264687Y-68894745D01*
X122264687Y-68680175D01*
X122264687Y-68663900D01*
X122711421Y-68663900D01*
X122711556Y-68819930D01*
X122712042Y-68947098D01*
X122713002Y-69048454D01*
X122714559Y-69127044D01*
X122716836Y-69185918D01*
X122719956Y-69228122D01*
X122724041Y-69256705D01*
X122729215Y-69274715D01*
X122735599Y-69285199D01*
X122736493Y-69286137D01*
X122746197Y-69292646D01*
X122763016Y-69297943D01*
X122789980Y-69302148D01*
X122830117Y-69305382D01*
X122886457Y-69307765D01*
X122962028Y-69309418D01*
X123059861Y-69310462D01*
X123182983Y-69311017D01*
X123334424Y-69311204D01*
X123365801Y-69311208D01*
X123970039Y-69311208D01*
X123994875Y-69275749D01*
X124001407Y-69262847D01*
X124006710Y-69242600D01*
X124010908Y-69211909D01*
X124014121Y-69167680D01*
X124016474Y-69106815D01*
X124018086Y-69026219D01*
X124019082Y-68922796D01*
X124019583Y-68793448D01*
X124019712Y-68646675D01*
X124019576Y-68491142D01*
X124019086Y-68364461D01*
X124018118Y-68263573D01*
X124016547Y-68185422D01*
X124014250Y-68126950D01*
X124011103Y-68085098D01*
X124006983Y-68056811D01*
X124001764Y-68039030D01*
X123995324Y-68028698D01*
X123994640Y-68027989D01*
X123984886Y-68021443D01*
X123967988Y-68016125D01*
X123940900Y-68011910D01*
X123900573Y-68008675D01*
X123843960Y-68006299D01*
X123768012Y-68004658D01*
X123669682Y-68003630D01*
X123545922Y-68003091D01*
X123393683Y-68002919D01*
X123372404Y-68002917D01*
X123218476Y-68002977D01*
X123093282Y-68003263D01*
X122993648Y-68003937D01*
X122916397Y-68005159D01*
X122858356Y-68007091D01*
X122816348Y-68009895D01*
X122787198Y-68013730D01*
X122767732Y-68018758D01*
X122754774Y-68025140D01*
X122745149Y-68033037D01*
X122743330Y-68034826D01*
X122735108Y-68044164D01*
X122728434Y-68056195D01*
X122723146Y-68074093D01*
X122719083Y-68101035D01*
X122716085Y-68140196D01*
X122713990Y-68194750D01*
X122712638Y-68267873D01*
X122711866Y-68362740D01*
X122711515Y-68482526D01*
X122711422Y-68630406D01*
X122711421Y-68663900D01*
X122264687Y-68663900D01*
X122264687Y-68465605D01*
X121803766Y-68465605D01*
X121669020Y-68465452D01*
X121562535Y-68464853D01*
X121480660Y-68463603D01*
X121419749Y-68461496D01*
X121376153Y-68458327D01*
X121346222Y-68453888D01*
X121326309Y-68447974D01*
X121312765Y-68440378D01*
X121309329Y-68437684D01*
X121291897Y-68416763D01*
X121260530Y-68372640D01*
X121217912Y-68309352D01*
X121166726Y-68230938D01*
X121109653Y-68141437D01*
X121062907Y-68066736D01*
X120850000Y-67723708D01*
X120368713Y-67719486D01*
X120229330Y-67718467D01*
X120118763Y-67718205D01*
X120033925Y-67718815D01*
X119971727Y-67720410D01*
X119929083Y-67723107D01*
X119902906Y-67727020D01*
X119890107Y-67732264D01*
X119887426Y-67737397D01*
X119874832Y-67764473D01*
X119842232Y-67800763D01*
X119797396Y-67839778D01*
X119748096Y-67875026D01*
X119702102Y-67900020D01*
X119685673Y-67905888D01*
X119623458Y-67919870D01*
X119572600Y-67920757D01*
X119515315Y-67908457D01*
X119503271Y-67904932D01*
X119428512Y-67869923D01*
X119361122Y-67815928D01*
X119312524Y-67752410D01*
X119307684Y-67742904D01*
X119292872Y-67696623D01*
X119281949Y-67634861D01*
X119278376Y-67592405D01*
X119278364Y-67575457D01*
X119491529Y-67575457D01*
X119491635Y-67623743D01*
X119516137Y-67669266D01*
X119530595Y-67682663D01*
X119565239Y-67707401D01*
X119591744Y-67713980D01*
X119626225Y-67704976D01*
X119639374Y-67700062D01*
X119680588Y-67669111D01*
X119702714Y-67621695D01*
X119700771Y-67569973D01*
X119696850Y-67559724D01*
X119678907Y-67535454D01*
X119663596Y-67532537D01*
X119651559Y-67530211D01*
X119651698Y-67521471D01*
X119640931Y-67504307D01*
X119605169Y-67495412D01*
X119551537Y-67503153D01*
X119512576Y-67532548D01*
X119491529Y-67575457D01*
X119278364Y-67575457D01*
X119278334Y-67532710D01*
X119286474Y-67490159D01*
X119306536Y-67450297D01*
X119320605Y-67429161D01*
X119364357Y-67378991D01*
X119418347Y-67333534D01*
X119436026Y-67322055D01*
X119479266Y-67299640D01*
X119519282Y-67288381D01*
X119569124Y-67285754D01*
X119614409Y-67287561D01*
X119680852Y-67293843D01*
X119727928Y-67306147D01*
X119768102Y-67328273D01*
X119782506Y-67338786D01*
X119825633Y-67379474D01*
X119860651Y-67425610D01*
X119867463Y-67438108D01*
X119893336Y-67492364D01*
X120417937Y-67492364D01*
X120562832Y-67492844D01*
X120690275Y-67494232D01*
X120797479Y-67496447D01*
X120881659Y-67499412D01*
X120940031Y-67503046D01*
X120969809Y-67507271D01*
X120971995Y-67508129D01*
X120989607Y-67526613D01*
X121019813Y-67567869D01*
X121059315Y-67626997D01*
X121104811Y-67699099D01*
X121141283Y-67759416D01*
X121194731Y-67848784D01*
X121249610Y-67939405D01*
X121300921Y-68023101D01*
X121343666Y-68091694D01*
X121360791Y-68118589D01*
X121440468Y-68242238D01*
X121852578Y-68242239D01*
X122264687Y-68242239D01*
X122267581Y-68134544D01*
X122268819Y-68063268D01*
X122269328Y-67977997D01*
X122269007Y-67896641D01*
X122268969Y-67893179D01*
X122269771Y-67820037D01*
X122275370Y-67768101D01*
X122287610Y-67726806D01*
X122303743Y-67693744D01*
X122330747Y-67651023D01*
X122361259Y-67619493D01*
X122400398Y-67597516D01*
X122453283Y-67583454D01*
X122525034Y-67575666D01*
X122620771Y-67572514D01*
X122683500Y-67572163D01*
X122918833Y-67572138D01*
X122918227Y-66674682D01*
X122917622Y-65777226D01*
X122856692Y-65735128D01*
X122792058Y-65672214D01*
X122749126Y-65592029D01*
X122729407Y-65502637D01*
X122938306Y-65502637D01*
X122965048Y-65550046D01*
X122976826Y-65560678D01*
X123006041Y-65583634D01*
X123024124Y-65591445D01*
X123046468Y-65586708D01*
X123073712Y-65577028D01*
X123114887Y-65552924D01*
X123142180Y-65521987D01*
X123154322Y-65472642D01*
X123141338Y-65428460D01*
X123110005Y-65394064D01*
X123067102Y-65374077D01*
X123019407Y-65373124D01*
X122973699Y-65395828D01*
X122966697Y-65402289D01*
X122938645Y-65450086D01*
X122938306Y-65502637D01*
X122729407Y-65502637D01*
X122729239Y-65501875D01*
X122733743Y-65409053D01*
X122763982Y-65320866D01*
X122776433Y-65299271D01*
X122833452Y-65234713D01*
X122908579Y-65185213D01*
X122991912Y-65155756D01*
X123071032Y-65151026D01*
X123157480Y-65175716D01*
G37*
%TO.C,C8*%
D11*
X143492164Y-97340000D02*
X143707836Y-97340000D01*
X143492164Y-98060000D02*
X143707836Y-98060000D01*
%TO.C,R2*%
X140620000Y-83146359D02*
X140620000Y-83453641D01*
X141380000Y-83146359D02*
X141380000Y-83453641D01*
%TO.C,C14*%
X141892164Y-99940000D02*
X142107836Y-99940000D01*
X141892164Y-100660000D02*
X142107836Y-100660000D01*
%TO.C,SW1*%
D14*
X158100000Y-90000000D02*
X158100000Y-81200000D01*
X158690000Y-81200000D02*
X158100000Y-81200000D01*
X158690000Y-90000000D02*
X158100000Y-90000000D01*
X159130000Y-83060000D02*
X159520000Y-83060000D01*
X159130000Y-88140000D02*
X159130000Y-83060000D01*
X159370000Y-85580000D02*
X159130000Y-85580000D01*
X159380000Y-83480000D02*
X159130000Y-83480000D01*
X159410000Y-83880000D02*
X159130000Y-83880000D01*
X159520000Y-88140000D02*
X159130000Y-88140000D01*
X159620000Y-84930000D02*
X159130000Y-84930000D01*
X159830000Y-84460000D02*
X159130000Y-84460000D01*
X161280000Y-83060000D02*
X161670000Y-83060000D01*
X161670000Y-83060000D02*
X161670000Y-88140000D01*
X161670000Y-83480000D02*
X161420000Y-83480000D01*
X161670000Y-83880000D02*
X161390000Y-83880000D01*
X161670000Y-84460000D02*
X160970000Y-84460000D01*
X161670000Y-84930000D02*
X161180000Y-84930000D01*
X161670000Y-85580000D02*
X161430000Y-85580000D01*
X161670000Y-88140000D02*
X161280000Y-88140000D01*
X162700000Y-81200000D02*
X162110000Y-81200000D01*
X162700000Y-90000000D02*
X162110000Y-90000000D01*
X162700000Y-90000000D02*
X162700000Y-81200000D01*
D12*
X158230000Y-81250000D02*
G75*
G02*
X158170000Y-81250000I-30000J0D01*
G01*
X158170000Y-81250000D02*
G75*
G02*
X158230000Y-81250000I30000J0D01*
G01*
%TO.C,C4*%
D11*
X129190000Y-84240580D02*
X129190000Y-83959420D01*
X130210000Y-84240580D02*
X130210000Y-83959420D01*
%TO.C,J5*%
X112990000Y-90310000D02*
X112990000Y-100990000D01*
X116560000Y-88590000D02*
X120810000Y-88590000D01*
X116560000Y-102710000D02*
X120810000Y-102710000D01*
X119210000Y-89610000D02*
X119210000Y-90890000D01*
X119210000Y-90890000D02*
X122100000Y-90890000D01*
X119210000Y-101690000D02*
X119210000Y-100410000D01*
X120810000Y-88590000D02*
X120810000Y-89610000D01*
X120810000Y-89610000D02*
X119210000Y-89610000D01*
X120810000Y-101690000D02*
X119210000Y-101690000D01*
X120810000Y-102710000D02*
X120810000Y-101690000D01*
%TO.C,R14*%
X124853641Y-94270000D02*
X124546359Y-94270000D01*
X124853641Y-95030000D02*
X124546359Y-95030000D01*
%TO.C,C10*%
X142792164Y-98540000D02*
X143007836Y-98540000D01*
X142792164Y-99260000D02*
X143007836Y-99260000D01*
%TO.C,J7*%
X127390000Y-100240000D02*
X128440000Y-100240000D01*
X127390000Y-102740000D02*
X127390000Y-100240000D01*
X128440000Y-100240000D02*
X128440000Y-99250000D01*
X128560000Y-104710000D02*
X131440000Y-104710000D01*
X132610000Y-100240000D02*
X131560000Y-100240000D01*
X132610000Y-102740000D02*
X132610000Y-100240000D01*
%TD*%
M02*
