%TF.GenerationSoftware,KiCad,Pcbnew,10.0.0*%
%TF.CreationDate,2026-05-05T22:42:15-07:00*%
%TF.ProjectId,kbd-nes-v2,6b62642d-6e65-4732-9d76-322e6b696361,rev?*%
%TF.SameCoordinates,Original*%
%TF.FileFunction,Soldermask,Top*%
%TF.FilePolarity,Negative*%
%FSLAX46Y46*%
G04 Gerber Fmt 4.6, Leading zero omitted, Abs format (unit mm)*
G04 Created by KiCad (PCBNEW 10.0.0) date 2026-05-05 22:42:15*
%MOMM*%
%LPD*%
G01*
G04 APERTURE LIST*
G04 Aperture macros list*
%AMRoundRect*
0 Rectangle with rounded corners*
0 $1 Rounding radius*
0 $2 $3 $4 $5 $6 $7 $8 $9 X,Y pos of 4 corners*
0 Add a 4 corners polygon primitive as box body*
4,1,4,$2,$3,$4,$5,$6,$7,$8,$9,$2,$3,0*
0 Add four circle primitives for the rounded corners*
1,1,$1+$1,$2,$3*
1,1,$1+$1,$4,$5*
1,1,$1+$1,$6,$7*
1,1,$1+$1,$8,$9*
0 Add four rect primitives between the rounded corners*
20,1,$1+$1,$2,$3,$4,$5,0*
20,1,$1+$1,$4,$5,$6,$7,0*
20,1,$1+$1,$6,$7,$8,$9,0*
20,1,$1+$1,$8,$9,$2,$3,0*%
G04 Aperture macros list end*
%ADD10RoundRect,0.225000X-0.250000X0.225000X-0.250000X-0.225000X0.250000X-0.225000X0.250000X0.225000X0*%
%ADD11RoundRect,0.200000X-0.275000X0.200000X-0.275000X-0.200000X0.275000X-0.200000X0.275000X0.200000X0*%
%ADD12RoundRect,0.162500X-0.650000X-0.162500X0.650000X-0.162500X0.650000X0.162500X-0.650000X0.162500X0*%
%ADD13RoundRect,0.135000X0.135000X0.185000X-0.135000X0.185000X-0.135000X-0.185000X0.135000X-0.185000X0*%
%ADD14RoundRect,0.140000X-0.170000X0.140000X-0.170000X-0.140000X0.170000X-0.140000X0.170000X0.140000X0*%
%ADD15RoundRect,0.140000X0.140000X0.170000X-0.140000X0.170000X-0.140000X-0.170000X0.140000X-0.170000X0*%
%ADD16R,2.000000X2.000000*%
%ADD17R,1.100000X0.600000*%
%ADD18R,1.700000X1.700000*%
%ADD19C,1.700000*%
%ADD20RoundRect,0.375000X0.625000X0.375000X-0.625000X0.375000X-0.625000X-0.375000X0.625000X-0.375000X0*%
%ADD21RoundRect,0.500000X0.500000X1.400000X-0.500000X1.400000X-0.500000X-1.400000X0.500000X-1.400000X0*%
%ADD22RoundRect,0.200000X0.200000X0.275000X-0.200000X0.275000X-0.200000X-0.275000X0.200000X-0.275000X0*%
%ADD23RoundRect,0.050000X-0.050000X0.387500X-0.050000X-0.387500X0.050000X-0.387500X0.050000X0.387500X0*%
%ADD24RoundRect,0.050000X-0.387500X0.050000X-0.387500X-0.050000X0.387500X-0.050000X0.387500X0.050000X0*%
%ADD25R,3.200000X3.200000*%
%ADD26RoundRect,0.135000X-0.135000X-0.185000X0.135000X-0.185000X0.135000X0.185000X-0.135000X0.185000X0*%
%ADD27RoundRect,0.135000X-0.185000X0.135000X-0.185000X-0.135000X0.185000X-0.135000X0.185000X0.135000X0*%
%ADD28RoundRect,0.250000X1.500000X-0.250000X1.500000X0.250000X-1.500000X0.250000X-1.500000X-0.250000X0*%
%ADD29RoundRect,0.250001X1.449999X-0.499999X1.449999X0.499999X-1.449999X0.499999X-1.449999X-0.499999X0*%
%ADD30RoundRect,0.225000X0.225000X0.250000X-0.225000X0.250000X-0.225000X-0.250000X0.225000X-0.250000X0*%
%ADD31RoundRect,0.140000X-0.140000X-0.170000X0.140000X-0.170000X0.140000X0.170000X-0.140000X0.170000X0*%
%ADD32RoundRect,0.150000X0.587500X0.150000X-0.587500X0.150000X-0.587500X-0.150000X0.587500X-0.150000X0*%
%ADD33R,3.499000X1.407000*%
%ADD34C,0.650000*%
%ADD35RoundRect,0.150000X0.575000X-0.150000X0.575000X0.150000X-0.575000X0.150000X-0.575000X-0.150000X0*%
%ADD36RoundRect,0.075000X0.650000X-0.075000X0.650000X0.075000X-0.650000X0.075000X-0.650000X-0.075000X0*%
%ADD37O,2.100000X1.000000*%
%ADD38O,1.600000X1.000000*%
%ADD39R,0.800000X0.800000*%
%ADD40RoundRect,0.250000X0.350000X-0.450000X0.350000X0.450000X-0.350000X0.450000X-0.350000X-0.450000X0*%
%ADD41RoundRect,0.135000X0.185000X-0.135000X0.185000X0.135000X-0.185000X0.135000X-0.185000X-0.135000X0*%
%ADD42O,1.600000X1.600000*%
%ADD43O,3.000000X2.000000*%
%ADD44RoundRect,0.225000X0.250000X-0.225000X0.250000X0.225000X-0.250000X0.225000X-0.250000X-0.225000X0*%
%ADD45RoundRect,0.250000X-1.500000X0.250000X-1.500000X-0.250000X1.500000X-0.250000X1.500000X0.250000X0*%
%ADD46RoundRect,0.250001X-1.449999X0.499999X-1.449999X-0.499999X1.449999X-0.499999X1.449999X0.499999X0*%
%ADD47RoundRect,0.150000X-0.150000X-0.625000X0.150000X-0.625000X0.150000X0.625000X-0.150000X0.625000X0*%
%ADD48RoundRect,0.250000X-0.350000X-0.650000X0.350000X-0.650000X0.350000X0.650000X-0.350000X0.650000X0*%
G04 APERTURE END LIST*
D10*
%TO.C,C21*%
X149500000Y-71950000D03*
X149500000Y-73500000D03*
%TD*%
D11*
%TO.C,R8*%
X150400000Y-99050000D03*
X150400000Y-100700000D03*
%TD*%
D12*
%TO.C,U2*%
X142112500Y-85295000D03*
X142112500Y-86565000D03*
X142112500Y-87835000D03*
X142112500Y-89105000D03*
X149287500Y-89105000D03*
X149287500Y-87835000D03*
X149287500Y-86565000D03*
X149287500Y-85295000D03*
%TD*%
D13*
%TO.C,R3*%
X147409999Y-96500000D03*
X146390001Y-96500000D03*
%TD*%
D14*
%TO.C,C5*%
X142200000Y-82620000D03*
X142200000Y-83580000D03*
%TD*%
D15*
%TO.C,C12*%
X131880000Y-96400000D03*
X130920000Y-96400000D03*
%TD*%
%TO.C,C13*%
X137180000Y-90800000D03*
X136220000Y-90800000D03*
%TD*%
D16*
%TO.C,D1*%
X122700000Y-80600000D03*
X127100000Y-80600000D03*
%TD*%
D17*
%TO.C,U1*%
X145700000Y-75100000D03*
X145700000Y-76050000D03*
X145700000Y-77000000D03*
X148400000Y-77000000D03*
X148400000Y-76050000D03*
X148400000Y-75100000D03*
%TD*%
D18*
%TO.C,J2*%
X150200000Y-82240000D03*
D19*
X150200000Y-79700000D03*
%TD*%
D20*
%TO.C,U4*%
X138450000Y-84600000D03*
X138450000Y-82300000D03*
D21*
X132150000Y-82300000D03*
D20*
X138450000Y-80000000D03*
%TD*%
D22*
%TO.C,R9*%
X150525000Y-93800000D03*
X148875000Y-93800000D03*
%TD*%
D23*
%TO.C,U3*%
X140300000Y-92462500D03*
X139899999Y-92462500D03*
X139500000Y-92462500D03*
X139100000Y-92462500D03*
X138700000Y-92462500D03*
X138300001Y-92462500D03*
X137900000Y-92462500D03*
X137500000Y-92462500D03*
X137099999Y-92462500D03*
X136700000Y-92462500D03*
X136300000Y-92462500D03*
X135900000Y-92462500D03*
X135500001Y-92462500D03*
X135100000Y-92462500D03*
D24*
X134262500Y-93300000D03*
X134262500Y-93700001D03*
X134262500Y-94100000D03*
X134262500Y-94500000D03*
X134262500Y-94900000D03*
X134262500Y-95299999D03*
X134262500Y-95700000D03*
X134262500Y-96100000D03*
X134262500Y-96500001D03*
X134262500Y-96900000D03*
X134262500Y-97300000D03*
X134262500Y-97700000D03*
X134262500Y-98099999D03*
X134262500Y-98500000D03*
D23*
X135100000Y-99337500D03*
X135500001Y-99337500D03*
X135900000Y-99337500D03*
X136300000Y-99337500D03*
X136700000Y-99337500D03*
X137099999Y-99337500D03*
X137500000Y-99337500D03*
X137900000Y-99337500D03*
X138300001Y-99337500D03*
X138700000Y-99337500D03*
X139100000Y-99337500D03*
X139500000Y-99337500D03*
X139899999Y-99337500D03*
X140300000Y-99337500D03*
D24*
X141137500Y-98500000D03*
X141137500Y-98099999D03*
X141137500Y-97700000D03*
X141137500Y-97300000D03*
X141137500Y-96900000D03*
X141137500Y-96500001D03*
X141137500Y-96100000D03*
X141137500Y-95700000D03*
X141137500Y-95299999D03*
X141137500Y-94900000D03*
X141137500Y-94500000D03*
X141137500Y-94100000D03*
X141137500Y-93700001D03*
X141137500Y-93300000D03*
D25*
X137700000Y-95900000D03*
%TD*%
D26*
%TO.C,R11*%
X123490000Y-90150000D03*
X124510000Y-90150000D03*
%TD*%
D27*
%TO.C,R18*%
X146700000Y-80580000D03*
X146700000Y-81600000D03*
%TD*%
D14*
%TO.C,C18*%
X147900000Y-72840000D03*
X147900000Y-73800000D03*
%TD*%
D26*
%TO.C,R17*%
X123480000Y-99150000D03*
X124500000Y-99150000D03*
%TD*%
%TO.C,R12*%
X123490000Y-93550000D03*
X124510000Y-93550000D03*
%TD*%
D28*
%TO.C,J1*%
X155250000Y-76900000D03*
X155250000Y-74900000D03*
X155250000Y-72900000D03*
X155250000Y-70900000D03*
X155250000Y-68900000D03*
D29*
X161000000Y-79250000D03*
X161000000Y-66550000D03*
%TD*%
D30*
%TO.C,C1*%
X142775000Y-77500000D03*
X141225000Y-77500000D03*
%TD*%
D31*
%TO.C,C7*%
X143720000Y-95400000D03*
X144680000Y-95400000D03*
%TD*%
D32*
%TO.C,Q1*%
X124500000Y-102550000D03*
X124500000Y-100650000D03*
X122625000Y-101600000D03*
%TD*%
D15*
%TO.C,C2*%
X132080000Y-94300000D03*
X131120000Y-94300000D03*
%TD*%
D33*
%TO.C,F1*%
X126200000Y-87400000D03*
X126200000Y-83700000D03*
%TD*%
D31*
%TO.C,C15*%
X145820000Y-95500000D03*
X146780000Y-95500000D03*
%TD*%
D13*
%TO.C,R6*%
X150860000Y-75650000D03*
X149840000Y-75650000D03*
%TD*%
D34*
%TO.C,J4*%
X156400000Y-99390000D03*
X156400000Y-93610000D03*
D35*
X154955000Y-99750000D03*
X154955000Y-98950000D03*
D36*
X154955000Y-97750000D03*
X154955000Y-96750000D03*
X154955000Y-96250000D03*
X154955000Y-95250000D03*
D35*
X154955000Y-94050000D03*
X154955000Y-93250000D03*
X154955000Y-93250000D03*
X154955000Y-94050000D03*
D36*
X154955000Y-94750000D03*
X154955000Y-95750000D03*
X154955000Y-97250000D03*
X154955000Y-98250000D03*
D35*
X154955000Y-98950000D03*
X154955000Y-99750000D03*
D37*
X155870000Y-100820000D03*
D38*
X160050000Y-100820000D03*
D37*
X155870000Y-92180000D03*
D38*
X160050000Y-92180000D03*
%TD*%
D15*
%TO.C,C6*%
X131480000Y-97400000D03*
X130520000Y-97400000D03*
%TD*%
D14*
%TO.C,C3*%
X129200000Y-90020000D03*
X129200000Y-90980000D03*
%TD*%
D39*
%TO.C,D2*%
X151300000Y-71500000D03*
X151300000Y-73900000D03*
%TD*%
D15*
%TO.C,C16*%
X139980000Y-91300000D03*
X139020000Y-91300000D03*
%TD*%
D13*
%TO.C,R16*%
X125010000Y-97650000D03*
X123990000Y-97650000D03*
%TD*%
D14*
%TO.C,C11*%
X136700000Y-100920000D03*
X136700000Y-101880000D03*
%TD*%
D15*
%TO.C,C19*%
X150480000Y-92600000D03*
X149520000Y-92600000D03*
%TD*%
D13*
%TO.C,R5*%
X131910000Y-95400000D03*
X130890000Y-95400000D03*
%TD*%
D40*
%TO.C,Y1*%
X132550000Y-92600000D03*
X132550000Y-90400000D03*
X130850000Y-90400000D03*
X130850000Y-92600000D03*
%TD*%
D14*
%TO.C,C9*%
X140300000Y-101020000D03*
X140300000Y-101980000D03*
%TD*%
D13*
%TO.C,R13*%
X124410000Y-92050000D03*
X123390000Y-92050000D03*
%TD*%
D26*
%TO.C,R15*%
X123490000Y-96300000D03*
X124510000Y-96300000D03*
%TD*%
D13*
%TO.C,R4*%
X146109999Y-97500000D03*
X145090001Y-97500000D03*
%TD*%
D14*
%TO.C,C17*%
X143100000Y-74940000D03*
X143100000Y-75900000D03*
%TD*%
D41*
%TO.C,R1*%
X143500000Y-83710000D03*
X143500000Y-82690000D03*
%TD*%
D10*
%TO.C,C20*%
X148800000Y-95425000D03*
X148800000Y-96975000D03*
%TD*%
D31*
%TO.C,C8*%
X143120000Y-97700000D03*
X144080000Y-97700000D03*
%TD*%
D27*
%TO.C,R2*%
X141000000Y-82790000D03*
X141000000Y-83810000D03*
%TD*%
D31*
%TO.C,C14*%
X141520000Y-100300000D03*
X142480000Y-100300000D03*
%TD*%
D42*
%TO.C,SW1*%
X160400000Y-83600000D03*
X160400000Y-85600000D03*
X160400000Y-87600000D03*
D43*
X160400000Y-89750000D03*
X160400000Y-81450000D03*
%TD*%
D44*
%TO.C,C4*%
X129700000Y-84875000D03*
X129700000Y-83325000D03*
%TD*%
D45*
%TO.C,J5*%
X120350000Y-91650000D03*
X120350000Y-93650000D03*
X120350000Y-95650000D03*
X120350000Y-97650000D03*
X120350000Y-99650000D03*
D46*
X114600000Y-89300000D03*
X114600000Y-102000000D03*
%TD*%
D13*
%TO.C,R14*%
X125210000Y-94650000D03*
X124190000Y-94650000D03*
%TD*%
D31*
%TO.C,C10*%
X142420000Y-98900000D03*
X143380000Y-98900000D03*
%TD*%
D47*
%TO.C,J7*%
X129000000Y-100025000D03*
X130000000Y-100025000D03*
X131000000Y-100025000D03*
D48*
X127700000Y-103900000D03*
X132300000Y-103900000D03*
%TD*%
M02*
