%TF.GenerationSoftware,KiCad,Pcbnew,10.0.0*%
%TF.CreationDate,2026-05-05T22:42:15-07:00*%
%TF.ProjectId,kbd-nes-v2,6b62642d-6e65-4732-9d76-322e6b696361,rev?*%
%TF.SameCoordinates,Original*%
%TF.FileFunction,Copper,L4,Bot*%
%TF.FilePolarity,Positive*%
%FSLAX46Y46*%
G04 Gerber Fmt 4.6, Leading zero omitted, Abs format (unit mm)*
G04 Created by KiCad (PCBNEW 10.0.0) date 2026-05-05 22:42:15*
%MOMM*%
%LPD*%
G01*
G04 APERTURE LIST*
%TA.AperFunction,ComponentPad*%
%ADD10R,1.700000X1.700000*%
%TD*%
%TA.AperFunction,ComponentPad*%
%ADD11C,1.700000*%
%TD*%
%TA.AperFunction,HeatsinkPad*%
%ADD12C,0.500000*%
%TD*%
%TA.AperFunction,HeatsinkPad*%
%ADD13R,3.200000X3.200000*%
%TD*%
%TA.AperFunction,ComponentPad*%
%ADD14O,2.100000X1.000000*%
%TD*%
%TA.AperFunction,ComponentPad*%
%ADD15O,1.600000X1.000000*%
%TD*%
%TA.AperFunction,ComponentPad*%
%ADD16O,1.600000X1.600000*%
%TD*%
%TA.AperFunction,ComponentPad*%
%ADD17O,3.000000X2.000000*%
%TD*%
%TA.AperFunction,ViaPad*%
%ADD18C,0.600000*%
%TD*%
%TA.AperFunction,Conductor*%
%ADD19C,0.200000*%
%TD*%
G04 APERTURE END LIST*
D10*
%TO.P,J2,1,Pin_1_1*%
%TO.N,/RP2040 Core/~{USB_BOOT}*%
X150200000Y-82240000D03*
D11*
%TO.P,J2,2,Pin_2_2*%
%TO.N,GND*%
X150200000Y-79700000D03*
%TD*%
D12*
%TO.P,U3,57,GND_57*%
%TO.N,GND*%
X139050000Y-94550000D03*
X136350000Y-94550000D03*
D13*
X137700000Y-95900000D03*
D12*
X139050000Y-97250000D03*
X136350000Y-97250000D03*
%TD*%
D14*
%TO.P,J4,SH,SHIELD_SH*%
%TO.N,GND*%
X155870000Y-100820000D03*
D15*
X160050000Y-100820000D03*
D14*
X155870000Y-92180000D03*
D15*
X160050000Y-92180000D03*
%TD*%
D16*
%TO.P,SW1,1,1_1*%
%TO.N,/NES Input Output/NES_DATA_CONTROLLER*%
X160400000Y-83600000D03*
%TO.P,SW1,2,2_2*%
%TO.N,/NES Input Output/NES_DATA*%
X160400000Y-85600000D03*
%TO.P,SW1,3,3_3*%
%TO.N,Net-(Q1-D)*%
X160400000Y-87600000D03*
D17*
%TO.P,SW1,4,4_4*%
%TO.N,GND*%
X160400000Y-89750000D03*
%TO.P,SW1,5,5_5*%
X160400000Y-81450000D03*
%TD*%
D18*
%TO.N,/USB Keyboard Host/+5V_HOST*%
X151600000Y-94000000D03*
X151100000Y-92500000D03*
X151587851Y-99985421D03*
X151600000Y-98500000D03*
X151300000Y-74800000D03*
X150134313Y-95034313D03*
%TO.N,GND*%
X130848528Y-101300000D03*
X153000000Y-76700000D03*
X129800000Y-82300000D03*
X144000000Y-98900000D03*
X141000000Y-101600000D03*
X144800000Y-76100000D03*
X142100000Y-90200000D03*
X129600000Y-92600000D03*
X154000000Y-101700000D03*
X155200000Y-91200000D03*
X133400000Y-103700000D03*
X144500000Y-98200000D03*
X133700000Y-89300000D03*
X146800000Y-94800000D03*
X143100000Y-100300000D03*
X136300000Y-90000000D03*
X141913750Y-84247720D03*
X152350000Y-92630331D03*
X150500000Y-71900000D03*
X123100000Y-98800000D03*
X159100000Y-91100000D03*
X124825735Y-101725735D03*
X144900000Y-94400000D03*
X129200000Y-91700000D03*
X126500000Y-103900000D03*
X130200000Y-94300000D03*
X130100000Y-96500000D03*
X152100000Y-100600000D03*
X147100000Y-72500000D03*
X137300000Y-101600000D03*
X138600000Y-86800000D03*
X148839257Y-92739257D03*
X141200000Y-76300000D03*
X148400000Y-79700000D03*
X123500000Y-91500000D03*
X151600000Y-75600000D03*
X148400000Y-71500000D03*
X157800000Y-81100000D03*
X129350000Y-97650000D03*
X133314266Y-94365734D03*
X157800000Y-90000000D03*
X121600000Y-90400000D03*
X123520000Y-94850000D03*
X143400000Y-74200000D03*
X137700000Y-95900000D03*
X148800000Y-98400735D03*
X158300000Y-101700000D03*
X138300000Y-91300000D03*
X123000000Y-78600000D03*
%TO.N,+3V3*%
X136700680Y-100150742D03*
X142200000Y-81900000D03*
X129700000Y-86100000D03*
X142000000Y-98300000D03*
X132444909Y-96206564D03*
X132300000Y-85200000D03*
X139842914Y-90722835D03*
X141700000Y-99100000D03*
X141000000Y-81900000D03*
X147500000Y-81600000D03*
X150400000Y-84700000D03*
X142614628Y-98395589D03*
X145800000Y-94800000D03*
X141700000Y-99800003D03*
X136693866Y-91644936D03*
X136700000Y-82900000D03*
X140537500Y-91500000D03*
X140300000Y-100400000D03*
%TO.N,/RP2040 Core/USB_DP*%
X150700000Y-95600000D03*
X150725735Y-96825735D03*
X147422522Y-97200735D03*
%TO.N,/RP2040 Core/HOST_VBUS_EN*%
X145500000Y-77700000D03*
X135482351Y-91206440D03*
%TO.N,/RP2040 Core/FAULT_N*%
X148400000Y-77800000D03*
X146700000Y-80580000D03*
%TO.N,/NES Input Output/NES_LATCH_3V3*%
X133500000Y-98800000D03*
X126000000Y-91300000D03*
%TO.N,/NES Input Output/NES_CLOCK_3V3*%
X134000000Y-100000000D03*
X125900000Y-94200000D03*
%TO.N,/NES Input Output/NES_DATA_GPIO*%
X134600000Y-100700000D03*
X125700000Y-96500000D03*
%TO.N,/NES Input Output/NES_LATCH_5V*%
X123911598Y-90814004D03*
X151800000Y-70500000D03*
%TO.N,/NES Input Output/NES_CLOCK_5V*%
X127000000Y-91400000D03*
X149700000Y-70900000D03*
%TO.N,/NES Input Output/NES_DATA*%
X155900000Y-88700000D03*
X120900000Y-100700000D03*
%TO.N,/RP2040 Core/USB_DM*%
X150400735Y-97800735D03*
X149955061Y-97040365D03*
X146900000Y-98100000D03*
%TO.N,/NES Input Output/NES_5V*%
X125300000Y-95600000D03*
X120600000Y-94600000D03*
X126100000Y-88800000D03*
%TO.N,/NES Input Output/NES_5V_CLEAN*%
X143900000Y-76000000D03*
X138700000Y-78800000D03*
X127300000Y-82300000D03*
X143800000Y-77500000D03*
X144700000Y-75200000D03*
X153000000Y-74800000D03*
%TO.N,Net-(Q1-D)*%
X123519999Y-96925132D03*
X122500000Y-102300000D03*
X122500000Y-100900000D03*
X158700000Y-87600000D03*
%TO.N,/NES Input Output/NES_DATA_CONTROLLER*%
X152400000Y-68900000D03*
X157700000Y-83400000D03*
%TD*%
%TO.N,/RP2040 Core/USB_DP*%
D19*
X149859635Y-96440365D02*
X150700000Y-95600000D01*
X147422522Y-97200735D02*
X148182892Y-96440365D01*
X150734313Y-95565687D02*
X150700000Y-95600000D01*
X150700000Y-96800000D02*
X150725735Y-96825735D01*
X150700000Y-95600000D02*
X150700000Y-96800000D01*
X147422522Y-97200735D02*
X147422522Y-96897575D01*
X148182892Y-96440365D02*
X149859635Y-96440365D01*
%TO.N,/RP2040 Core/HOST_VBUS_EN*%
X145445137Y-80845137D02*
X145445137Y-82045137D01*
X145445137Y-80845137D02*
X145500000Y-80790274D01*
X136283833Y-91206440D02*
X135482351Y-91206440D01*
X145445137Y-82045137D02*
X136283833Y-91206440D01*
X145500000Y-80790274D02*
X145500000Y-77700000D01*
%TO.N,/RP2040 Core/FAULT_N*%
X148400000Y-78500000D02*
X146700000Y-80200000D01*
X146700000Y-80200000D02*
X146700000Y-80580000D01*
X148400000Y-77800000D02*
X148400000Y-78500000D01*
%TO.N,/NES Input Output/NES_LATCH_3V3*%
X126000000Y-91300000D02*
X133500000Y-98800000D01*
%TO.N,/NES Input Output/NES_CLOCK_3V3*%
X126748529Y-94200000D02*
X125900000Y-94200000D01*
X132548529Y-100000000D02*
X134000000Y-100000000D01*
X132548529Y-100000000D02*
X126748529Y-94200000D01*
%TO.N,/NES Input Output/NES_DATA_GPIO*%
X130748529Y-99200000D02*
X128400000Y-99200000D01*
X128400000Y-99200000D02*
X125700000Y-96500000D01*
X132248529Y-100700000D02*
X130748529Y-99200000D01*
X134600000Y-100700000D02*
X132248529Y-100700000D01*
%TO.N,/NES Input Output/NES_LATCH_5V*%
X146348529Y-70300000D02*
X128248529Y-88400000D01*
X128248529Y-88400000D02*
X128051471Y-88400000D01*
X151600000Y-70300000D02*
X146348529Y-70300000D01*
X128051471Y-88400000D02*
X125351471Y-91100000D01*
X124197594Y-91100000D02*
X123911598Y-90814004D01*
X151800000Y-70500000D02*
X151600000Y-70300000D01*
X125351471Y-91100000D02*
X124197594Y-91100000D01*
%TO.N,/NES Input Output/NES_CLOCK_5V*%
X149700000Y-72048529D02*
X145048529Y-76700000D01*
X149700000Y-70900000D02*
X149700000Y-72048529D01*
X141700000Y-76700000D02*
X127000000Y-91400000D01*
X145048529Y-76700000D02*
X141700000Y-76700000D01*
%TO.N,/NES Input Output/NES_DATA*%
X151750000Y-92381802D02*
X151750000Y-92698529D01*
X150014216Y-94434313D02*
X149320099Y-94434313D01*
X120900000Y-100700000D02*
X120900000Y-102465685D01*
X155431802Y-88700000D02*
X151750000Y-92381802D01*
X151750000Y-92698529D02*
X150014216Y-94434313D01*
X143700000Y-100054412D02*
X143700000Y-100600000D01*
X143700000Y-100600000D02*
X139400000Y-104900000D01*
X149320099Y-94434313D02*
X143700000Y-100054412D01*
X155900000Y-88700000D02*
X155431802Y-88700000D01*
X120900000Y-102465685D02*
X123334314Y-104900000D01*
X123334314Y-104900000D02*
X139400000Y-104900000D01*
%TO.N,/RP2040 Core/USB_DM*%
X146900000Y-98100000D02*
X147199265Y-97800735D01*
X147199265Y-97800735D02*
X150400735Y-97800735D01*
X150400735Y-97800735D02*
X150400735Y-97486039D01*
X150400735Y-97486039D02*
X149955061Y-97040365D01*
%TO.N,Net-(Q1-D)*%
X123500000Y-104500000D02*
X122500000Y-103500000D01*
X158700000Y-87600000D02*
X155099999Y-87600000D01*
X133448529Y-104500000D02*
X123500000Y-104500000D01*
X122500000Y-103500000D02*
X122500000Y-102300000D01*
X140348529Y-97600000D02*
X133448529Y-104500000D01*
X122500000Y-100900000D02*
X122500000Y-97945131D01*
X155099999Y-87600000D02*
X145099999Y-97600000D01*
X122500000Y-97945131D02*
X123519999Y-96925132D01*
X145099999Y-97600000D02*
X140348529Y-97600000D01*
%TO.N,/NES Input Output/NES_DATA_CONTROLLER*%
X152400000Y-68900000D02*
X152400000Y-78100000D01*
X152400000Y-78100000D02*
X157700000Y-83400000D01*
%TD*%
M02*
